<svg width="16" height="16" viewBox="0 0 16 16" fill="none" xmlns="http://www.w3.org/2000/svg">
<rect width="16" height="16" rx="4" fill="#D97706"/>
<path d="M5.71679 11.7349H4.4898C4.27566 11.7349 4.08467 11.687 3.90525 11.5911C3.72583 11.4952 3.58693 11.362 3.47696 11.1915L2.82295 10.1259C2.71878 9.96603 2.66669 9.79554 2.66669 9.60373C2.66669 9.41192 2.71878 9.24675 2.82295 9.08691L3.48854 8.00533L2.82295 6.92907C2.71878 6.76923 2.66669 6.59341 2.66669 6.40693C2.66669 6.22045 2.71878 6.04462 2.82295 5.88478L3.47696 4.81918C3.58114 4.64869 3.72583 4.51549 3.90525 4.41958C4.08467 4.32368 4.28145 4.2704 4.4898 4.2704H5.71679L6.365 3.21545C6.46918 3.04496 6.61387 2.91176 6.79329 2.81585C6.97271 2.71995 7.16949 2.66667 7.37785 2.66667H8.62219C8.83634 2.66667 9.02733 2.71462 9.20675 2.81585C9.38617 2.91176 9.52507 3.04496 9.63504 3.21545L10.289 4.2704H11.516C11.7302 4.2704 11.9212 4.31835 12.1006 4.41958C12.28 4.51549 12.4189 4.64869 12.5289 4.81918L13.1771 5.88478C13.2813 6.04462 13.3334 6.21512 13.3334 6.40693C13.3334 6.59874 13.2813 6.76923 13.1771 6.92907L12.5115 8.00533L13.1771 9.08691C13.2813 9.24675 13.3334 9.41725 13.3334 9.60373C13.3334 9.79021 13.2813 9.96603 13.1771 10.1259L12.5289 11.1915C12.4247 11.362 12.28 11.4952 12.1006 11.5911C11.9212 11.687 11.7244 11.7349 11.516 11.7349H10.289L9.63504 12.7899C9.53086 12.9604 9.38617 13.0936 9.20675 13.1895C9.02733 13.2854 8.83055 13.3333 8.62219 13.3333H7.37785C7.1637 13.3333 6.97271 13.2854 6.79329 13.1895C6.61387 13.0936 6.47497 12.9604 6.365 12.7899L5.71679 11.7349ZM10.289 7.47253H11.5334L12.17 6.40693L11.5334 5.34133H10.289L9.63504 6.40693L10.289 7.47253ZM7.39521 9.07093H8.61062L9.25884 8.00533L8.61062 6.93973H7.39521L6.74699 8.00533L7.39521 9.07093ZM7.39521 5.87413H8.61062L9.2762 4.79254L8.62798 3.74293H7.38363L6.73542 4.79254L7.401 5.87413H7.39521ZM6.37079 6.40693L5.72257 5.34133H4.49559L3.84737 6.40693L4.49559 7.47253H5.72257L6.37079 6.40693ZM6.37079 9.60373L5.72257 8.53813H4.47823L3.84158 9.60373L4.4898 10.6693H5.71679L6.365 9.60373H6.37079ZM7.39521 10.1365L6.72963 11.2128L7.37785 12.2677H8.62219L9.27041 11.2128L8.60483 10.1365H7.38942H7.39521ZM10.289 10.6693H11.516L12.1642 9.60373L11.516 8.53813H10.289L9.63504 9.60373L10.289 10.6693Z" fill="#FEF3C7"/>
</svg>
