<svg width="16" height="16" viewBox="0 0 16 16" fill="none" xmlns="http://www.w3.org/2000/svg">
<g clip-path="url(#clip0_1_6237)">
<circle cx="8" cy="8" r="8" fill="#FEF3C7"/>
<path d="M5.71676 11.7349H4.48977C4.27563 11.7349 4.08463 11.687 3.90522 11.5911C3.7258 11.4952 3.5869 11.362 3.47693 11.1915L2.82292 10.1259C2.71875 9.96602 2.66666 9.79553 2.66666 9.60372C2.66666 9.41191 2.71875 9.24674 2.82292 9.0869L3.4885 8.00532L2.82292 6.92906C2.71875 6.76922 2.66666 6.5934 2.66666 6.40692C2.66666 6.22044 2.71875 6.04461 2.82292 5.88477L3.47693 4.81917C3.58111 4.64867 3.7258 4.51547 3.90522 4.41957C4.08463 4.32367 4.28142 4.27039 4.48977 4.27039H5.71676L6.36497 3.21544C6.46915 3.04494 6.61384 2.91174 6.79326 2.81584C6.97268 2.71994 7.16946 2.66666 7.37782 2.66666H8.62216C8.83631 2.66666 9.0273 2.71461 9.20672 2.81584C9.38614 2.91174 9.52504 3.04494 9.63501 3.21544L10.289 4.27039H11.516C11.7301 4.27039 11.9211 4.31834 12.1005 4.41957C12.28 4.51547 12.4189 4.64867 12.5288 4.81917L13.1771 5.88477C13.2812 6.04461 13.3333 6.21511 13.3333 6.40692C13.3333 6.59872 13.2812 6.76922 13.1771 6.92906L12.5115 8.00532L13.1771 9.0869C13.2812 9.24674 13.3333 9.41724 13.3333 9.60372C13.3333 9.7902 13.2812 9.96602 13.1771 10.1259L12.5288 11.1915C12.4247 11.362 12.28 11.4952 12.1005 11.5911C11.9211 11.687 11.7244 11.7349 11.516 11.7349H10.289L9.63501 12.7899C9.53083 12.9604 9.38614 13.0936 9.20672 13.1895C9.0273 13.2854 8.83052 13.3333 8.62216 13.3333H7.37782C7.16367 13.3333 6.97268 13.2854 6.79326 13.1895C6.61384 13.0936 6.47494 12.9604 6.36497 12.7899L5.71676 11.7349ZM10.289 7.47252H11.5334L12.17 6.40692L11.5334 5.34132H10.289L9.63501 6.40692L10.289 7.47252ZM7.39518 9.07092H8.61059L9.25881 8.00532L8.61059 6.93972H7.39518L6.74696 8.00532L7.39518 9.07092ZM7.39518 5.87412H8.61059L9.27617 4.79253L8.62795 3.74291H7.3836L6.73539 4.79253L7.40097 5.87412H7.39518ZM6.37076 6.40692L5.72254 5.34132H4.49556L3.84734 6.40692L4.49556 7.47252H5.72254L6.37076 6.40692ZM6.37076 9.60372L5.72254 8.53812H4.4782L3.84155 9.60372L4.48977 10.6693H5.71676L6.36497 9.60372H6.37076ZM7.39518 10.1365L6.7296 11.2128L7.37782 12.2677H8.62216L9.27038 11.2128L8.6048 10.1365H7.38939H7.39518ZM10.289 10.6693H11.516L12.1642 9.60372L11.516 8.53812H10.289L9.63501 9.60372L10.289 10.6693Z" fill="#D97706"/>
</g>
<defs>
<clipPath id="clip0_1_6237">
<rect width="16" height="16" fill="white"/>
</clipPath>
</defs>
</svg>
