<svg width="36" height="36" viewBox="0 0 36 36" fill="none" xmlns="http://www.w3.org/2000/svg">
<path opacity="0.5" d="M28.32 26.16C29.24 28.56 28.94 30.8 27.42 32.88C25.9 34.96 23.76 36 21 36C19.68 36 18.43 35.66 17.25 34.98C16.07 34.3 15.2 33.4 14.64 32.28C11.32 32.76 8.57 31.91 6.39 29.73C4.21 27.55 3.32 24.76 3.72 21.36C2.52 20.68 1.6 19.75 0.96 18.57C0.32 17.39 0 16.04 0 14.52C0 12.08 1.11 10.11 3.33 8.61C5.55 7.11 7.72 6.8 9.84 7.68L13.56 9.24C14.36 8 15.42 6.99 16.74 6.21C18.06 5.43 19.48 5 21 4.92V1.8C21 1.28 21.17 0.85 21.51 0.51C21.85 0.17 22.28 0 22.8 0C23.32 0 23.75 0.17 24.09 0.51C24.43 0.85 24.6 1.28 24.6 1.8V5.4C26.08 5.84 27.3 6.53 28.26 7.47C29.22 8.41 30.04 9.72 30.72 11.4H34.2C34.72 11.4 35.15 11.57 35.49 11.91C35.83 12.25 36 12.68 36 13.2C36 13.72 35.83 14.15 35.49 14.49C35.15 14.83 34.72 15 34.2 15H31.08C31 16.52 30.59 17.94 29.85 19.26C29.11 20.58 28.12 21.64 26.88 22.44L28.32 26.16ZM13.44 27.6C13.44 26.52 13.53 25.47 13.71 24.45C13.89 23.43 14.16 22.44 14.52 21.48C13.6 21.92 12.61 22.23 11.55 22.41C10.49 22.59 9.44 22.64 8.4 22.56C8.4 24.12 8.85 25.35 9.75 26.25C10.65 27.15 11.88 27.6 13.44 27.6ZM9 17.76C10.28 17.76 11.41 17.6 12.39 17.28C13.37 16.96 14.64 16.32 16.2 15.36L9 12.36C7.84 11.88 6.85 11.89 6.03 12.39C5.21 12.89 4.8 13.68 4.8 14.76C4.8 15.8 5.14 16.56 5.82 17.04C6.5 17.52 7.56 17.76 9 17.76ZM21 31.2C22 31.2 22.81 30.85 23.43 30.15C24.05 29.45 24.2 28.72 23.88 27.96L20.64 19.8C19.88 21.08 19.29 22.36 18.87 23.64C18.45 24.92 18.24 26.08 18.24 27.12C18.24 28.44 18.47 29.45 18.93 30.15C19.39 30.85 20.08 31.2 21 31.2ZM24.96 17.88C25.36 17.48 25.68 16.95 25.92 16.29C26.16 15.63 26.28 14.94 26.28 14.22C26.28 12.94 25.86 11.86 25.02 10.98C24.18 10.1 23.14 9.66 21.9 9.66C21.18 9.66 20.5 9.78 19.86 10.02C19.22 10.26 18.68 10.6 18.24 11.04L22.92 13.2L24.96 17.88Z" fill="#FFB303"/>
</svg>
