<svg width="16" height="16" viewBox="0 0 40 40" fill="none" xmlns="http://www.w3.org/2000/svg">
<rect width="40" height="40" rx="10" fill="url(#paint0_radial_6315_1231)"/>
<rect width="40" height="40" rx="10" fill="url(#paint1_radial_6315_1231)"/>
<g filter="url(#filter0_dd_6315_1231)">
<path d="M14.2918 29.3374H11.2244C10.689 29.3374 10.2115 29.2175 9.76297 28.9778C9.31442 28.738 8.96716 28.405 8.69225 27.9788L7.05723 25.3148C6.79679 24.9152 6.66656 24.4889 6.66656 24.0094C6.66656 23.5299 6.79679 23.117 7.05723 22.7174L8.72119 20.0134L7.05723 17.3228C6.79679 16.9232 6.66656 16.4836 6.66656 16.0174C6.66656 15.5512 6.79679 15.1116 7.05723 14.712L8.69225 12.048C8.95269 11.6218 9.31442 11.2888 9.76297 11.049C10.2115 10.8093 10.7035 10.6761 11.2244 10.6761H14.2918L15.9124 8.03871C16.1728 7.61247 16.5345 7.27947 16.9831 7.03971C17.4316 6.79995 17.9236 6.66675 18.4445 6.66675H21.5553C22.0907 6.66675 22.5682 6.78663 23.0167 7.03971C23.4653 7.27947 23.8125 7.61247 24.0874 8.03871L25.7225 10.6761H28.7899C29.3253 10.6761 29.8028 10.796 30.2513 11.049C30.6998 11.2888 31.0471 11.6218 31.322 12.048L32.9426 14.712C33.203 15.1116 33.3332 15.5379 33.3332 16.0174C33.3332 16.4969 33.203 16.9232 32.9426 17.3228L31.2786 20.0134L32.9426 22.7174C33.203 23.117 33.3332 23.5432 33.3332 24.0094C33.3332 24.4756 33.203 24.9152 32.9426 25.3148L31.322 27.9788C31.0616 28.405 30.6998 28.738 30.2513 28.9778C29.8028 29.2175 29.3108 29.3374 28.7899 29.3374H25.7225L24.0874 31.9748C23.827 32.401 23.4653 32.734 23.0167 32.9738C22.5682 33.2135 22.0762 33.3334 21.5553 33.3334H18.4445C17.9091 33.3334 17.4316 33.2135 16.9831 32.9738C16.5345 32.734 16.1873 32.401 15.9124 31.9748L14.2918 29.3374ZM25.7225 18.6814H28.8333L30.4249 16.0174L28.8333 13.3534H25.7225L24.0874 16.0174L25.7225 18.6814ZM18.4879 22.6774H21.5264L23.1469 20.0134L21.5264 17.3494H18.4879L16.8673 20.0134L18.4879 22.6774ZM18.4879 14.6854H21.5264L23.1903 11.9814L21.5698 9.35739H18.4589L16.8384 11.9814L18.5023 14.6854H18.4879ZM15.9268 16.0174L14.3063 13.3534H11.2388L9.61827 16.0174L11.2388 18.6814H14.3063L15.9268 16.0174ZM15.9268 24.0094L14.3063 21.3454H11.1954L9.6038 24.0094L11.2244 26.6734H14.2918L15.9124 24.0094H15.9268ZM18.4879 25.3414L16.8239 28.032L18.4445 30.6694H21.5553L23.1759 28.032L21.5119 25.3414H18.4734H18.4879ZM25.7225 26.6734H28.7899L30.4105 24.0094L28.7899 21.3454H25.7225L24.0874 24.0094L25.7225 26.6734Z" fill="#EEE1D2"/>
</g>
<defs>
<filter id="filter0_dd_6315_1231" x="5.66656" y="6.16675" width="28.6667" height="28.6667" filterUnits="userSpaceOnUse" color-interpolation-filters="sRGB">
<feFlood flood-opacity="0" result="BackgroundImageFix"/>
<feColorMatrix in="SourceAlpha" type="matrix" values="0 0 0 0 0 0 0 0 0 0 0 0 0 0 0 0 0 0 127 0" result="hardAlpha"/>
<feOffset dy="0.5"/>
<feGaussianBlur stdDeviation="0.5"/>
<feComposite in2="hardAlpha" operator="out"/>
<feColorMatrix type="matrix" values="0 0 0 0 0 0 0 0 0 0 0 0 0 0 0 0 0 0 0.45 0"/>
<feBlend mode="normal" in2="BackgroundImageFix" result="effect1_dropShadow_6315_1231"/>
<feColorMatrix in="SourceAlpha" type="matrix" values="0 0 0 0 0 0 0 0 0 0 0 0 0 0 0 0 0 0 127 0" result="hardAlpha"/>
<feOffset dy="0.5"/>
<feGaussianBlur stdDeviation="0.5"/>
<feComposite in2="hardAlpha" operator="out"/>
<feColorMatrix type="matrix" values="0 0 0 0 0.909804 0 0 0 0 0.490196 0 0 0 0 0.247059 0 0 0 0.75 0"/>
<feBlend mode="normal" in2="effect1_dropShadow_6315_1231" result="effect2_dropShadow_6315_1231"/>
<feBlend mode="normal" in="SourceGraphic" in2="effect2_dropShadow_6315_1231" result="shape"/>
</filter>
<radialGradient id="paint0_radial_6315_1231" cx="0" cy="0" r="1" gradientUnits="userSpaceOnUse" gradientTransform="translate(20 20) rotate(90) scale(20)">
<stop stop-color="#E9D0B4"/>
<stop offset="1" stop-color="#DA9713"/>
</radialGradient>
<radialGradient id="paint1_radial_6315_1231" cx="0" cy="0" r="1" gradientUnits="userSpaceOnUse" gradientTransform="translate(20 20) rotate(90) scale(20)">
<stop stop-color="#E9D0B4"/>
<stop offset="1" stop-color="#EC8A19"/>
</radialGradient>
</defs>
</svg>
