<svg
      width="20"
      height="22"
      viewBox="0 0 20 22"
      fill="none"
      xmlns="http://www.w3.org/2000/svg"
    >
      <path
        d="M5.77863 3.62096L5.8015 3.5812L7.01474 1.47161C7.01488 1.47137 7.01503 1.47113 7.01518 1.47089C7.21489 1.1403 7.46556 0.884197 7.78834 0.699862C8.1123 0.514851 8.45645 0.422432 8.84387 0.422432H11.1745C11.5513 0.422432 11.9062 0.514948 12.23 0.699862C12.554 0.884914 12.8147 1.14139 13.0027 1.47L13.0029 1.47043L14.2279 3.58146L14.2508 3.62096H14.2964H16.5945C16.9713 3.62096 17.3263 3.71348 17.6501 3.89839C17.9741 4.08342 18.2347 4.33986 18.4226 4.6684L5.77863 3.62096ZM5.77863 3.62096H5.73276H3.43465C3.04724 3.62096 2.70309 3.71338 2.37913 3.89839C2.05636 4.08273 1.80568 4.33882 1.60597 4.6694C1.60582 4.66965 1.60567 4.6699 1.60552 4.67015L0.381465 6.80102L0.381489 6.80103L0.380401 6.80281C0.192834 7.11028 0.0993204 7.43718 0.0993204 7.80637C0.0993204 8.17512 0.192599 8.49141 0.380401 8.79926L0.380422 8.79925L0.38142 8.80098L1.62803 10.9653L1.65089 11.005L1.62795 11.0446L0.381335 13.1983L0.381353 13.1983L0.380401 13.1999C0.192948 13.5072 0.0993204 13.8447 0.0993204 14.2034C0.0993204 14.5622 0.192948 14.8997 0.380401 15.207L0.380424 15.207L0.381465 15.2088L1.6064 17.3411L1.60647 17.3413C1.79441 17.6699 2.0551 17.9264 2.37913 18.1114C2.70423 18.2971 3.05934 18.3995 3.43465 18.3995H5.73276H5.77863L5.8015 18.4393L7.01559 20.5503L7.01569 20.5505C7.20362 20.8791 7.46431 21.1355 7.78834 21.3206C8.11344 21.5063 8.46856 21.6087 8.84387 21.6087H11.1745C11.5618 21.6087 11.9053 21.5163 12.2284 21.3215L12.2284 21.3215L12.23 21.3206C12.5528 21.1362 12.8035 20.8801 13.0033 20.5494C13.0034 20.5492 13.0035 20.549 13.0036 20.5488L14.2279 18.439L14.2508 18.3995H14.2964H16.5945C16.9819 18.3995 17.3253 18.3071 17.6485 18.1124L17.6484 18.1123L17.6501 18.1114C17.9728 17.9271 18.2235 17.671 18.4232 17.3405C18.4233 17.3402 18.4235 17.3399 18.4237 17.3397L19.6367 15.209L19.6367 15.209L19.638 15.207C19.8255 14.8995 19.919 14.5726 19.919 14.2034C19.919 13.8342 19.8255 13.5073 19.6379 13.1999L19.637 13.1983L18.3904 11.0446L18.3675 11.005L18.3903 10.9653L19.6369 8.80098L19.6369 8.80097L19.638 8.79926C19.8256 8.4916 19.919 8.16468 19.919 7.80637C19.919 7.44762 19.8254 7.1101 19.638 6.80281L19.6379 6.80283L19.6367 6.80075L18.4227 4.66853L5.77863 3.62096ZM14.2277 12.0316L14.2505 11.9918H14.2964H16.6271H16.6736L16.6963 12.0324L17.8887 14.1647L17.9103 14.2034L17.8887 14.2421L16.6963 16.3745L16.6736 16.4151H16.6271H14.2964H14.2505L14.2277 16.3753L13.0027 14.2429L12.9801 14.2034L13.0027 14.1639L14.2277 12.0316ZM8.80747 8.83331L8.83029 8.79324H8.87639H11.1528H11.1989L11.2217 8.83331L12.4358 10.9657L12.4582 11.0049L12.4358 11.0441L11.2217 13.1765L11.1989 13.2166H11.1528H8.87639H8.83029L8.80747 13.1765L7.59338 11.0441L7.57104 11.0049L7.59338 10.9657L8.80747 8.83331ZM11.1528 15.1903H11.1986L11.2215 15.23L12.4681 17.3944L12.491 17.434L12.4681 17.4736L11.254 19.574L11.2311 19.6136H11.1853H8.85471H8.80895L8.78605 19.574L7.57196 17.4736L7.54906 17.434L7.5719 17.3944L8.81851 15.23L8.87639 15.2634V15.1903H8.88723H9.02442H11.1528ZM7.0266 14.1642L7.04894 14.2034L7.0266 14.2427L5.81251 16.375L5.7897 16.4151H5.7436H3.44549H3.39939L3.37658 16.375L2.16249 14.2427L2.14015 14.2034L2.16249 14.1642L3.37658 12.0318L3.39939 11.9918H3.44549H5.7436H5.7897L5.81251 12.0318L7.0266 14.1642ZM6.99295 7.72707H7.09409L7.0266 7.8456L5.81251 9.97796L5.7897 10.018H5.7436H3.41297H3.36646L3.34376 9.97743L2.15135 7.84507L2.12951 7.80602L2.15165 7.76713L3.36574 5.63478L3.38855 5.59472H3.43465H5.73276H5.77886L5.80167 5.63478L6.99295 7.72707ZM8.86555 6.74647L8.80776 6.77992L7.56114 4.62624L7.53822 4.58664L7.56103 4.54698L8.77512 2.43595L8.79799 2.39618H8.84387H11.1745H11.2204L11.2432 2.43595L12.4573 4.54698L12.4801 4.58664L12.4572 4.62624L11.2106 6.77992L11.1877 6.81949H11.142H9.01392H8.87639H8.86555V6.74647ZM14.2277 5.63451L14.2505 5.59472H14.2964H16.5945H16.6406L16.6635 5.63478L17.8776 7.76713L17.8999 7.80637L17.8776 7.8456L16.6635 9.97796L16.6406 10.018H16.5945H14.2964H14.2505L14.2277 9.97822L13.0027 7.84587L12.9801 7.80637L13.0027 7.76687L14.2277 5.63451Z"
        fill="#BE9B7E"
        stroke="#F8F5F3"
        strokeWidth="0.158602"
      />
    </svg>