<svg width="33" height="32" viewBox="0 0 33 32" fill="none" xmlns="http://www.w3.org/2000/svg">
<path d="M31.8439 19.8703C29.707 28.4418 21.0254 33.6583 12.4529 31.5208C3.88395 29.3839 -1.33251 20.7018 0.805348 12.131C2.94133 3.55852 11.6229 -1.65832 20.1928 0.478592C28.7647 2.61551 33.9808 11.2985 31.8437 19.8705L31.8438 19.8703H31.8439Z" fill="#F3BA2F"/>
<path fill-rule="evenodd" clip-rule="evenodd" d="M16.327 10.1549L12.1839 14.298L12.184 14.2978L9.77344 11.8872L16.327 5.33356L22.8828 11.8891L20.4721 14.2998L16.327 10.1549ZM8.07091 13.5888L5.66016 15.9999L8.07074 18.4101L10.4815 15.9993L8.07091 13.5888ZM12.1834 17.7027L16.3265 21.8456L20.4715 17.7007L22.8835 20.1101L22.8823 20.1114L16.3265 26.6669L9.77294 20.1133L9.76953 20.1099L12.1834 17.7027ZM24.5826 13.5907L22.1719 16.0015L24.5825 18.4121L26.9932 16.0013L24.5826 13.5907Z" fill="#FAFAF9"/>
<path d="M18.7713 15.9987H18.7723L16.3264 13.5526L14.5184 15.36L14.3107 15.5678L13.8823 15.9962L13.8789 15.9996L13.8823 16.0031L16.3264 18.4474L18.7725 16.0013L18.7737 15.9999L18.7715 15.9987" fill="#FAFAF9"/>
</svg>
