<svg width="32" height="32" viewBox="0 0 32 32" fill="none" xmlns="http://www.w3.org/2000/svg">
<path d="M15.999 32C24.8657 32 31.999 24.8667 31.999 16C31.999 7.13328 24.8657 0 15.999 0C7.1323 0 -0.000976562 7.13328 -0.000976562 16C-0.000976562 24.8667 7.1323 32 15.999 32Z" fill="#2775CA"/>
<path d="M20.3981 18.5335C20.3981 16.2002 18.9981 15.4002 16.1981 15.0669C14.1981 14.8002 13.7981 14.2669 13.7981 13.3335C13.7981 12.4 14.4648 11.8002 15.7981 11.8002C16.9981 11.8002 17.6648 12.2002 17.9981 13.2002C18.0648 13.4002 18.2648 13.5335 18.4648 13.5335H19.5314C19.7981 13.5335 19.9981 13.3335 19.9981 13.0669V13.0002C19.7314 11.5335 18.5314 10.4002 16.9981 10.2669V8.66692C16.9981 8.4002 16.7981 8.2002 16.4648 8.13348H15.4648C15.1981 8.13348 14.9981 8.33348 14.9314 8.66692V10.2002C12.9314 10.4669 11.6648 11.8002 11.6648 13.4669C11.6648 15.6669 12.9981 16.5335 15.7981 16.8669C17.6648 17.2002 18.2648 17.6002 18.2648 18.6669C18.2648 19.7336 17.3314 20.4669 16.0648 20.4669C14.3314 20.4669 13.7314 19.7335 13.5314 18.7335C13.4648 18.4669 13.2648 18.3335 13.0648 18.3335H11.9314C11.6648 18.3335 11.4648 18.5335 11.4648 18.8002V18.8669C11.7314 20.5335 12.7981 21.7335 14.9981 22.0669V23.6669C14.9981 23.9335 15.1981 24.1335 15.5314 24.2002H16.5314C16.7981 24.2002 16.9981 24.0002 17.0648 23.6669V22.0669C19.0648 21.7335 20.3981 20.3335 20.3981 18.5335Z" fill="#FAFAF9"/>
<path fill-rule="evenodd" clip-rule="evenodd" d="M6.66509 12.7329C4.73165 17.8663 7.39837 23.6663 12.5984 25.5329C12.7984 25.6663 12.9984 25.9329 12.9984 26.1329V27.0663C12.9984 27.1996 12.9984 27.2663 12.9316 27.3329C12.8651 27.5996 12.5984 27.7329 12.3316 27.5996C8.59837 26.3996 5.73165 23.5329 4.53165 19.7996C2.53165 13.4663 5.99837 6.73288 12.3316 4.73288C12.3984 4.66632 12.5316 4.66632 12.5984 4.66632C12.8651 4.73288 12.9984 4.93288 12.9984 5.1996V6.13288C12.9984 6.46632 12.8651 6.66632 12.5984 6.7996C9.86509 7.7996 7.66509 9.93288 6.66509 12.7329ZM19.0644 4.99965C19.131 4.73293 19.3977 4.59965 19.6644 4.73293C23.331 5.93293 26.2644 8.79965 27.4644 12.5996C29.4644 18.9329 25.9977 25.6664 19.6644 27.6664C19.5977 27.7329 19.4644 27.7329 19.3977 27.7329C19.131 27.6664 18.9977 27.4664 18.9977 27.1996V26.2664C18.9977 25.9329 19.131 25.7329 19.3977 25.5996C22.131 24.5996 24.331 22.4664 25.331 19.6664C27.2644 14.5329 24.5977 8.73293 19.3977 6.86637C19.1977 6.73293 18.9977 6.46637 18.9977 6.19965V5.26637C18.9977 5.13293 18.9977 5.06637 19.0644 4.99965Z" fill="#FAFAF9"/>
</svg>
