<svg width="595" height="563" viewBox="0 0 595 563" fill="none" xmlns="http://www.w3.org/2000/svg" class="h-12 w-12"><path d="M564.52 141.649C564.356 125.64 560.702 109.767 553.829 95.313C533.893 53.4771 483.684 22.9864 436.666 32.8863C429.712 34.3591 408.221 41.6408 391.231 51.4043C365.458 65.4769 335.949 71.2314 306.768 71.4769H287.813C258.604 71.2314 229.123 65.4769 203.35 51.4043C186.332 41.6408 164.814 34.3591 157.86 32.8863C110.842 22.9592 60.6882 53.4498 40.752 95.3403C33.8521 109.795 30.1703 125.667 30.0067 141.622C29.6249 176.803 45.661 208.276 70.8881 228.839C74.7062 231.975 76.3699 236.993 75.2517 241.793C30.8248 429.755 164.133 530.063 297.277 532.791L297.495 526.054C297.441 528.318 297.413 530.527 297.331 532.791C430.448 530.063 563.729 429.755 519.357 241.848C518.211 237.021 519.847 232.003 523.72 228.894L523.666 228.839C548.865 208.276 564.902 176.776 564.547 141.622L564.52 141.649Z" fill="#AC6D21"></path><path fill-rule="evenodd" clip-rule="evenodd" d="M436.666 32.8862C483.684 22.9863 533.893 53.4769 553.829 95.3128C556.382 100.684 558.492 106.25 560.143 111.946C562.93 121.564 564.411 131.552 564.519 141.594C564.519 141.603 564.519 141.612 564.519 141.622C564.519 141.631 564.52 141.64 564.52 141.649L564.547 141.621C564.547 141.63 564.547 141.639 564.547 141.648C564.547 141.658 564.547 141.667 564.547 141.677C564.646 151.965 563.341 161.941 560.813 171.42C556.683 186.908 549.288 201.071 539.42 213.114C539.251 213.321 539.081 213.527 538.91 213.732C534.496 219.041 529.597 223.931 524.284 228.331C524.081 228.499 523.877 228.667 523.672 228.834C523.67 228.835 523.668 228.837 523.666 228.839L523.72 228.893C523.718 228.895 523.716 228.897 523.714 228.898C522.992 229.478 522.348 230.125 521.786 230.824C519.333 233.872 518.425 237.923 519.356 241.848C560.379 415.569 449.56 514.418 327.407 530.509C327.393 530.51 327.38 530.512 327.366 530.514C317.405 531.825 307.368 532.585 297.331 532.79C297.386 531.271 297.417 529.777 297.447 528.274C297.462 527.538 297.477 526.799 297.495 526.054L297.277 532.789L297.277 532.79C295.112 532.746 292.947 532.676 290.782 532.58C290.06 532.548 289.338 532.513 288.616 532.475C288.616 532.475 288.616 532.475 288.616 532.475C281.521 532.105 274.436 531.457 267.389 530.534C267.371 530.532 267.353 530.529 267.334 530.527C145.102 514.493 34.1633 415.631 75.2517 241.793C76.3699 236.993 74.7062 231.975 70.8881 228.839C45.6611 208.275 29.6249 176.803 30.0067 141.621C30.1703 125.667 33.8521 109.795 40.752 95.3401C60.6882 53.4496 110.842 22.959 157.86 32.8862C164.814 34.3589 186.332 41.6406 203.35 51.4042C229.123 65.4768 258.604 71.2313 287.813 71.4767H306.768C335.949 71.2313 365.458 65.4768 391.23 51.4042C408.221 41.6406 429.712 34.3589 436.666 32.8862ZM376.598 25.2124C396.154 14.0345 420.373 5.6712 430.451 3.53702L430.485 3.52985C493.353 -9.70744 556.087 30.3134 580.911 82.4073L580.922 82.4307C589.457 100.382 594.081 120.013 594.495 139.852C594.524 140.339 594.54 140.828 594.545 141.319C594.956 182.066 578.006 218.951 550.767 244.907C571.168 342.779 547.207 421.766 497.111 476.93C446.253 532.934 371.3 561.281 297.946 562.784C297.763 562.788 297.581 562.79 297.398 562.79C297.154 562.791 296.908 562.789 296.662 562.784C223.296 561.281 148.329 532.935 97.4657 476.923C47.3804 421.767 23.4278 342.797 43.8202 244.945C16.5408 218.995 -0.429449 182.114 0.00826888 141.314M376.598 25.2124C356.305 36.2248 332.098 41.2472 306.637 41.4767H287.944C262.455 41.2472 238.271 36.2245 217.975 25.2082C198.393 14.0312 174.146 5.66962 164.075 3.53702L164.057 3.53329C101.164 -9.74576 38.4887 30.3011 13.67 82.4341C4.90099 100.811 0.2195 120.975 0.00845771 141.296" fill="black"></path><path d="M293.813 506.963C361.683 506.963 416.703 465.729 416.703 414.864C416.703 363.999 361.683 322.765 293.813 322.765C225.943 322.765 170.923 363.999 170.923 414.864C170.923 465.729 225.943 506.963 293.813 506.963Z" fill="#E0C192"></path><path d="M173.676 129.157C186.031 120.185 188.922 102.267 176.049 94.0033C168.304 89.0397 159.767 85.6306 150.904 83.9397C142.04 82.2761 133.068 82.3579 124.45 84.2397C115.832 86.1215 107.759 89.7215 100.695 94.8487C93.6317 99.9759 87.7136 106.549 83.2682 114.158C78.8228 121.767 75.9592 130.303 74.8137 139.221C73.6683 148.166 74.2956 157.33 76.6137 166.248C80.4864 181.03 98.4317 183.812 110.786 174.839L142.231 151.985L173.676 129.13V129.157Z" fill="#894C29"></path><path d="M449.185 152.012L480.63 174.867C492.985 183.839 510.93 181.058 514.803 166.276C517.148 157.385 517.748 148.194 516.603 139.249C515.457 130.304 512.594 121.794 508.148 114.185C503.703 106.576 497.785 100.004 490.721 94.8766C483.657 89.7494 475.585 86.1221 466.967 84.2676C458.349 82.3858 449.349 82.2767 440.512 83.9676C431.649 85.6312 423.113 89.0675 415.367 94.0311C402.522 102.267 405.385 120.185 417.74 129.185L449.185 152.04V152.012Z" fill="#894C29"></path><path d="M273.358 368.774C287.295 363.974 302.649 363.974 316.585 368.774C324.358 371.447 331.121 375.592 330.631 381.892C329.894 391.492 314.894 408.456 304.04 411.265C296.622 413.201 292.476 413.337 285.876 411.265C275.049 407.856 260.022 391.465 259.286 381.892C258.795 375.592 265.586 371.447 273.331 368.774H273.358Z" fill="black"></path><path d="M202.49 232.427C198.906 245.366 210.555 259.886 228.51 264.86C246.465 269.834 263.926 263.378 267.51 250.439C271.094 237.501 259.445 222.98 241.49 218.006C223.535 213.032 206.074 219.489 202.49 232.427Z" fill="#894C29"></path><path d="M385.51 232.439C389.094 245.378 377.445 259.899 359.49 264.872C341.535 269.846 324.074 263.39 320.49 250.451C316.906 237.513 328.555 222.992 346.51 218.018C364.465 213.045 381.926 219.501 385.51 232.439Z" fill="#894C29"></path><path d="M183.566 356.805C172.612 355.529 164.424 345.267 169.582 335.51C172.692 329.635 176.866 324.45 181.838 320.25C186.809 316.049 192.525 312.939 198.613 311.051C204.702 309.164 211.082 308.579 217.356 309.297C223.631 310.014 229.692 312.061 235.196 315.278C240.699 318.495 245.537 322.855 249.419 328.066C253.301 333.277 256.172 339.285 257.873 345.719C260.665 356.407 250.376 364.515 239.396 363.239L211.481 359.996L183.566 356.752V356.805Z" fill="black"></path><path d="M409.434 356.805C420.388 355.529 428.576 345.267 423.418 335.51C420.308 329.635 416.134 324.45 411.162 320.25C406.191 316.049 400.475 312.939 394.387 311.051C388.298 309.164 381.918 308.579 375.643 309.297C369.369 310.014 363.308 312.061 357.804 315.278C352.301 318.495 347.462 322.855 343.581 328.066C339.699 333.277 336.828 339.285 335.127 345.719C332.335 356.407 342.624 364.515 353.604 363.239L381.519 359.996L409.434 356.752V356.805Z" fill="black"></path></svg>