<svg width="16" height="16" viewBox="0 0 16 16" fill="none" xmlns="http://www.w3.org/2000/svg">
<g clip-path="url(#clip0_1_6238)">
<circle cx="8" cy="8" r="8" transform="matrix(-1 0 0 1 16 0)" fill="#78350F"/>
<path fill-rule="evenodd" clip-rule="evenodd" d="M10.0598 5.14205C10.1941 5.05776 10.3417 4.99941 10.4958 4.97089C10.6499 4.94236 10.804 4.94366 10.9542 4.97607C11.1031 5.00849 11.2427 5.06943 11.3652 5.15631C11.4877 5.24319 11.5905 5.35599 11.6669 5.48566C11.7433 5.61533 11.7933 5.76055 11.8131 5.91356C11.8328 6.06656 11.8223 6.22216 11.7815 6.37387C11.7143 6.62542 11.4034 6.6734 11.19 6.5204L10.646 6.1314L10.1006 5.7411C9.8872 5.5881 9.83714 5.28209 10.0598 5.14205Z" fill="white"/>
<path fill-rule="evenodd" clip-rule="evenodd" d="M4.30834 5.48566C4.38475 5.35599 4.4875 5.24448 4.61001 5.15631C4.73251 5.06943 4.87215 5.00719 5.021 4.97607C5.16986 4.94366 5.32662 4.94236 5.47942 4.97089C5.63355 4.99941 5.78109 5.05776 5.91545 5.14205C6.13807 5.28209 6.08802 5.5881 5.87461 5.7411L5.32925 6.1314L4.78521 6.5204C4.5718 6.6734 4.26092 6.62542 4.19374 6.37387C4.1529 6.22216 4.14236 6.06527 4.16212 5.91356C4.18188 5.76055 4.23194 5.61662 4.30834 5.48566Z" fill="white"/>
<path fill-rule="evenodd" clip-rule="evenodd" d="M7.54626 9.69961C7.80709 9.61144 8.09426 9.61144 8.35508 9.69961C8.49999 9.74889 8.62645 9.82539 8.61854 9.94079C8.60405 10.1171 8.32347 10.4193 8.12061 10.4815C7.99678 10.5191 7.91906 10.5165 7.78074 10.4815C7.57788 10.4296 7.29598 10.1171 7.2828 9.94079C7.27358 9.82539 7.40136 9.74889 7.54626 9.69961Z" fill="white"/>
<path fill-rule="evenodd" clip-rule="evenodd" d="M8.93595 9.13177C9.00841 9.03581 9.0993 8.95542 9.20205 8.89577C9.3048 8.83613 9.41809 8.79852 9.53533 8.78556C9.65256 8.77259 9.77244 8.78296 9.88573 8.81797C9.99901 8.85298 10.1057 8.91004 10.1992 8.98784C10.2928 9.06564 10.3705 9.16159 10.4285 9.26921C10.5246 9.44945 10.3718 9.63876 10.1663 9.6621L9.6473 9.72045L9.12433 9.7801C8.91883 9.80344 8.72519 9.65432 8.77788 9.45723C8.80949 9.33793 8.8635 9.22772 8.93595 9.13177Z" fill="white"/>
<path fill-rule="evenodd" clip-rule="evenodd" d="M5.7191 8.96959C5.81263 8.89179 5.91933 8.83473 6.03261 8.79972C6.1459 8.76471 6.26578 8.75434 6.38302 8.76731C6.50026 8.78027 6.61354 8.81788 6.71629 8.87752C6.81904 8.93717 6.90994 9.01756 6.98239 9.11352C7.05484 9.20947 7.10885 9.31968 7.14046 9.43898C7.19316 9.63607 6.99951 9.78519 6.79533 9.76185L6.27236 9.7022L5.75203 9.64385C5.54653 9.62051 5.39372 9.4312 5.48989 9.25096C5.54785 9.14334 5.62689 9.04739 5.7191 8.96959Z" fill="white"/>
<path fill-rule="evenodd" clip-rule="evenodd" d="M3.24776 7.72503C2.81964 7.25434 2.56013 6.63065 2.56803 5.94731C2.57199 5.56868 2.66024 5.19265 2.82754 4.84904C3.29386 3.88432 4.47417 3.13096 5.68213 3.38251C5.72178 3.39094 5.77131 3.40378 5.82809 3.42038C6.00777 3.47315 6.17282 3.56392 6.31838 3.6801C6.64099 3.93774 7.23391 4.11033 7.91219 4.11033C7.9251 4.11033 7.93787 4.1102 7.95065 4.11007C7.96343 4.11007 7.97621 4.11007 7.98912 4.11007C8.66726 4.11007 9.26031 3.93735 9.58292 3.67984C9.72848 3.56353 9.89354 3.47289 10.0732 3.42012C10.13 3.40339 10.1795 3.39068 10.2192 3.38225C11.427 3.1307 12.6073 3.88406 13.0736 4.84878C13.2409 5.19239 13.3292 5.56842 13.3331 5.94705C13.341 6.63039 13.0815 7.25408 12.6534 7.72477C12.6165 7.76626 12.5994 7.82202 12.6086 7.87518C12.8997 9.51286 12.4703 10.8601 11.5864 11.8196C10.6577 12.8271 9.29561 13.3289 7.97436 13.3562H7.95065C7.94933 13.3563 7.94802 13.3563 7.9467 13.3563H7.92694C6.60569 13.3291 5.2436 12.8273 4.3149 11.8198C3.431 10.8602 3.00156 9.51299 3.29268 7.87531C3.3019 7.82215 3.28478 7.76639 3.24789 7.7249L3.24776 7.72503ZM4.02101 7.44106C4.08688 7.49422 4.11586 7.5798 4.0961 7.66149C3.40979 10.5206 5.17365 12.1894 7.19966 12.5473H7.20098C7.39594 12.5823 7.59353 12.6044 7.79244 12.6147C7.8043 12.6147 7.81747 12.616 7.82933 12.616C7.86621 12.6186 7.90441 12.6186 7.9413 12.6199H7.95052C7.95144 12.6198 7.95249 12.6198 7.95315 12.6198H7.95974C7.99662 12.6185 8.03483 12.6185 8.07171 12.6159C8.08357 12.6159 8.09674 12.6146 8.1086 12.6146C8.30751 12.6042 8.5051 12.5822 8.70006 12.5472H8.70138C10.7274 12.1893 12.4913 10.5205 11.8049 7.66136C11.7852 7.57967 11.8142 7.49409 11.88 7.44093C12.3174 7.09083 12.594 6.55401 12.5874 5.95366C12.5848 5.68136 12.5202 5.41166 12.4017 5.16529C12.0565 4.45083 11.1884 3.93087 10.373 4.10073C10.2775 4.12031 10.0214 4.20343 9.77195 4.32039C9.68145 4.36279 9.59649 4.41582 9.51692 4.47586C9.1901 4.72274 8.61075 4.88703 7.95039 4.88768C7.29002 4.88729 6.71068 4.723 6.38386 4.47599C6.30429 4.41595 6.21946 4.36292 6.12883 4.32052C5.87946 4.20356 5.62338 4.12057 5.52774 4.10086C4.71233 3.931 3.84423 4.45096 3.4991 5.16542C3.38054 5.41179 3.316 5.68149 3.31336 5.95379C3.30677 6.55414 3.58341 7.09096 4.02075 7.44106H4.02101Z" fill="white"/>
</g>
<defs>
<clipPath id="clip0_1_6238">
<rect width="16" height="16" fill="white"/>
</clipPath>
</defs>
</svg>
