<svg width="643" height="643" viewBox="0 0 643 643" fill="none" xmlns="http://www.w3.org/2000/svg">
<path d="M12.2004 336.273H7.29246C6.43588 336.273 5.67191 336.081 4.95424 335.698C4.23657 335.314 3.68095 334.781 3.24109 334.099L0.625068 329.837C0.208356 329.197 0 328.515 0 327.748C0 326.981 0.208356 326.32 0.625068 325.681L3.28739 321.355L0.625068 317.05C0.208356 316.41 0 315.707 0 314.961C0 314.215 0.208356 313.512 0.625068 312.872L3.24109 308.61C3.6578 307.928 4.23657 307.395 4.95424 307.012C5.67191 306.628 6.45903 306.415 7.29246 306.415H12.2004L14.7933 302.195C15.21 301.513 15.7887 300.98 16.5064 300.597C17.2241 300.213 18.0112 300 18.8446 300H23.822C24.6786 300 25.4426 300.192 26.1602 300.597C26.8779 300.98 27.4335 301.513 27.8734 302.195L30.4894 306.415H35.3974C36.2539 306.415 37.0179 306.607 37.7356 307.012C38.4532 307.395 39.0089 307.928 39.4487 308.61L42.0416 312.872C42.4583 313.512 42.6667 314.194 42.6667 314.961C42.6667 315.728 42.4583 316.41 42.0416 317.05L39.3793 321.355L42.0416 325.681C42.4583 326.32 42.6667 327.002 42.6667 327.748C42.6667 328.494 42.4583 329.197 42.0416 329.837L39.4487 334.099C39.032 334.781 38.4532 335.314 37.7356 335.698C37.0179 336.081 36.2308 336.273 35.3974 336.273H30.4894L27.8734 340.493C27.4567 341.175 26.8779 341.708 26.1602 342.091C25.4426 342.475 24.6555 342.667 23.822 342.667H18.8446C17.9881 342.667 17.2241 342.475 16.5064 342.091C15.7887 341.708 15.2331 341.175 14.7933 340.493L12.2004 336.273ZM30.4894 319.223H35.4668L38.0134 314.961L35.4668 310.699H30.4894L27.8734 314.961L30.4894 319.223ZM18.9141 325.617H23.7757L26.3686 321.355L23.7757 317.092H18.9141L16.3212 321.355L18.9141 325.617ZM18.9141 312.83H23.7757L26.4381 308.503L23.8452 304.305H18.8678L16.2749 308.503L18.9372 312.83H18.9141ZM14.8164 314.961L12.2235 310.699H7.31561L4.72273 314.961L7.31561 319.223H12.2235L14.8164 314.961ZM14.8164 327.748L12.2235 323.486H7.24616L4.69958 327.748L7.29246 332.011H12.2004L14.7933 327.748H14.8164ZM18.9141 329.879L16.2518 334.184L18.8446 338.404H23.822L26.4149 334.184L23.7526 329.879H18.8909H18.9141ZM30.4894 332.011H35.3974L37.9902 327.748L35.3974 323.486H30.4894L27.8734 327.748L30.4894 332.011Z" fill="url(#paint0_linear_6051_1636)"/>
<path d="M16.758 284.179H11.8501C10.9935 284.179 10.2295 283.987 9.51186 283.603C8.79419 283.22 8.23857 282.687 7.79871 282.005L5.18269 277.742C4.76597 277.103 4.55762 276.421 4.55762 275.654C4.55762 274.887 4.76597 274.226 5.18269 273.587L7.84501 269.26L5.18269 264.955C4.76597 264.316 4.55762 263.612 4.55762 262.867C4.55762 262.121 4.76597 261.417 5.18269 260.778L7.79871 256.516C8.21542 255.834 8.79419 255.301 9.51186 254.917C10.2295 254.534 11.0167 254.32 11.8501 254.32H16.758L19.3509 250.101C19.7676 249.419 20.3464 248.886 21.064 248.502C21.7817 248.119 22.5688 247.906 23.4023 247.906H28.3796C29.2362 247.906 30.0002 248.097 30.7179 248.502C31.4355 248.886 31.9911 249.419 32.431 250.101L35.047 254.32H39.955C40.8116 254.32 41.5755 254.512 42.2932 254.917C43.0109 255.301 43.5665 255.834 44.0063 256.516L46.5992 260.778C47.0159 261.417 47.2243 262.099 47.2243 262.867C47.2243 263.634 47.0159 264.316 46.5992 264.955L43.9369 269.26L46.5992 273.587C47.0159 274.226 47.2243 274.908 47.2243 275.654C47.2243 276.4 47.0159 277.103 46.5992 277.742L44.0063 282.005C43.5896 282.687 43.0109 283.22 42.2932 283.603C41.5755 283.987 40.7884 284.179 39.955 284.179H35.047L32.431 288.398C32.0143 289.08 31.4355 289.613 30.7179 289.997C30.0002 290.38 29.2131 290.572 28.3796 290.572H23.4023C22.5457 290.572 21.7817 290.38 21.064 289.997C20.3464 289.613 19.7908 289.08 19.3509 288.398L16.758 284.179ZM35.047 267.129H40.0244L42.571 262.867L40.0244 258.604H35.047L32.431 262.867L35.047 267.129ZM23.4717 273.523H28.3333L30.9262 269.26L28.3333 264.998H23.4717L20.8788 269.26L23.4717 273.523ZM23.4717 260.735H28.3333L30.9957 256.409L28.4028 252.211H23.4254L20.8325 256.409L23.4949 260.735H23.4717ZM19.374 262.867L16.7812 258.604H11.8732L9.28035 262.867L11.8732 267.129H16.7812L19.374 262.867ZM19.374 275.654L16.7812 271.391H11.8038L9.2572 275.654L11.8501 279.916H16.758L19.3509 275.654H19.374ZM23.4717 277.785L20.8094 282.09L23.4023 286.31H28.3796L30.9725 282.09L28.3102 277.785H23.4486H23.4717ZM35.047 279.916H39.955L42.5479 275.654L39.955 271.391H35.047L32.431 275.654L35.047 279.916Z" fill="url(#paint1_linear_6051_1636)"/>
<path d="M30.2922 233.667H25.3843C24.5277 233.667 23.7637 233.475 23.046 233.092C22.3284 232.708 21.7728 232.175 21.3329 231.493L18.7169 227.231C18.3002 226.591 18.0918 225.909 18.0918 225.142C18.0918 224.375 18.3002 223.714 18.7169 223.075L21.3792 218.749L18.7169 214.444C18.3002 213.804 18.0918 213.101 18.0918 212.355C18.0918 211.609 18.3002 210.906 18.7169 210.266L21.3329 206.004C21.7496 205.322 22.3284 204.789 23.046 204.406C23.7637 204.022 24.5508 203.809 25.3843 203.809H30.2922L32.8851 199.589C33.3018 198.907 33.8805 198.374 34.5982 197.991C35.3159 197.607 36.103 197.394 36.9364 197.394H41.9138C42.7704 197.394 43.5344 197.586 44.252 197.991C44.9697 198.374 45.5253 198.907 45.9652 199.589L48.5812 203.809H53.4892C54.3457 203.809 55.1097 204.001 55.8274 204.406C56.545 204.789 57.1007 205.322 57.5405 206.004L60.1334 210.266C60.5501 210.906 60.7585 211.588 60.7585 212.355C60.7585 213.122 60.5501 213.804 60.1334 214.444L57.4711 218.749L60.1334 223.075C60.5501 223.714 60.7585 224.396 60.7585 225.142C60.7585 225.888 60.5501 226.591 60.1334 227.231L57.5405 231.493C57.1238 232.175 56.545 232.708 55.8274 233.092C55.1097 233.475 54.3226 233.667 53.4892 233.667H48.5812L45.9652 237.887C45.5485 238.569 44.9697 239.102 44.252 239.485C43.5344 239.869 42.7472 240.061 41.9138 240.061H36.9364C36.0799 240.061 35.3159 239.869 34.5982 239.485C33.8805 239.102 33.3249 238.569 32.8851 237.887L30.2922 233.667ZM48.5812 216.617H53.5586L56.1052 212.355L53.5586 208.093H48.5812L45.9652 212.355L48.5812 216.617ZM37.0059 223.011H41.8675L44.4604 218.749L41.8675 214.486H37.0059L34.413 218.749L37.0059 223.011ZM37.0059 210.224H41.8675L44.5299 205.897L41.937 201.699H36.9596L34.3667 205.897L37.029 210.224H37.0059ZM32.9082 212.355L30.3153 208.093H25.4074L22.8145 212.355L25.4074 216.617H30.3153L32.9082 212.355ZM32.9082 225.142L30.3153 220.88H25.338L22.7914 225.142L25.3843 229.405H30.2922L32.8851 225.142H32.9082ZM37.0059 227.273L34.3436 231.578L36.9364 235.798H41.9138L44.5067 231.578L41.8444 227.273H36.9827H37.0059ZM48.5812 229.405H53.4892L56.082 225.142L53.4892 220.88H48.5812L45.9652 225.142L48.5812 229.405Z" fill="url(#paint2_linear_6051_1636)"/>
<path d="M52.3928 186.273H47.4848C46.6283 186.273 45.8643 186.081 45.1466 185.698C44.429 185.314 43.8733 184.781 43.4335 184.099L40.8175 179.837C40.4007 179.197 40.1924 178.515 40.1924 177.748C40.1924 176.981 40.4007 176.32 40.8175 175.681L43.4798 171.355L40.8175 167.05C40.4007 166.41 40.1924 165.707 40.1924 164.961C40.1924 164.215 40.4007 163.512 40.8175 162.872L43.4335 158.61C43.8502 157.928 44.429 157.395 45.1466 157.012C45.8643 156.628 46.6514 156.415 47.4848 156.415H52.3928L54.9857 152.195C55.4024 151.513 55.9811 150.98 56.6988 150.597C57.4165 150.213 58.2036 150 59.037 150H64.0144C64.871 150 65.635 150.192 66.3526 150.597C67.0703 150.98 67.6259 151.513 68.0658 152.195L70.6818 156.415H75.5897C76.4463 156.415 77.2103 156.607 77.928 157.012C78.6456 157.395 79.2012 157.928 79.6411 158.61L82.234 162.872C82.6507 163.512 82.8591 164.194 82.8591 164.961C82.8591 165.728 82.6507 166.41 82.234 167.05L79.5717 171.355L82.234 175.681C82.6507 176.32 82.8591 177.002 82.8591 177.748C82.8591 178.494 82.6507 179.197 82.234 179.837L79.6411 184.099C79.2244 184.781 78.6456 185.314 77.928 185.698C77.2103 186.081 76.4232 186.273 75.5897 186.273H70.6818L68.0658 190.493C67.6491 191.175 67.0703 191.708 66.3526 192.091C65.635 192.475 64.8478 192.667 64.0144 192.667H59.037C58.1804 192.667 57.4165 192.475 56.6988 192.091C55.9811 191.708 55.4255 191.175 54.9857 190.493L52.3928 186.273ZM70.6818 169.223H75.6592L78.2058 164.961L75.6592 160.699H70.6818L68.0658 164.961L70.6818 169.223ZM59.1065 175.617H63.9681L66.561 171.355L63.9681 167.092H59.1065L56.5136 171.355L59.1065 175.617ZM59.1065 162.83H63.9681L66.6304 158.503L64.0376 154.305H59.0602L56.4673 158.503L59.1296 162.83H59.1065ZM55.0088 164.961L52.4159 160.699H47.508L44.9151 164.961L47.508 169.223H52.4159L55.0088 164.961ZM55.0088 177.748L52.4159 173.486H47.4385L44.892 177.748L47.4848 182.011H52.3928L54.9857 177.748H55.0088ZM59.1065 179.879L56.4441 184.184L59.037 188.404H64.0144L66.6073 184.184L63.945 179.879H59.0833H59.1065ZM70.6818 182.011H75.5897L78.1826 177.748L75.5897 173.486H70.6818L68.0658 177.748L70.6818 182.011Z" fill="url(#paint3_linear_6051_1636)"/>
<path d="M82.3869 143.437H77.479C76.6224 143.437 75.8584 143.245 75.1408 142.861C74.4231 142.478 73.8675 141.945 73.4276 141.263L70.8116 137.001C70.3949 136.361 70.1865 135.679 70.1865 134.912C70.1865 134.145 70.3949 133.484 70.8116 132.845L73.4739 128.518L70.8116 124.213C70.3949 123.574 70.1865 122.871 70.1865 122.125C70.1865 121.379 70.3949 120.676 70.8116 120.036L73.4276 115.774C73.8443 115.092 74.4231 114.559 75.1408 114.175C75.8584 113.792 76.6456 113.579 77.479 113.579H82.3869L84.9798 109.359C85.3965 108.677 85.9753 108.144 86.6929 107.76C87.4106 107.377 88.1977 107.164 89.0312 107.164H94.0086C94.8651 107.164 95.6291 107.356 96.3468 107.76C97.0644 108.144 97.6201 108.677 98.0599 109.359L100.676 113.579H105.584C106.44 113.579 107.204 113.77 107.922 114.175C108.64 114.559 109.195 115.092 109.635 115.774L112.228 120.036C112.645 120.676 112.853 121.358 112.853 122.125C112.853 122.892 112.645 123.574 112.228 124.213L109.566 128.518L112.228 132.845C112.645 133.484 112.853 134.166 112.853 134.912C112.853 135.658 112.645 136.361 112.228 137.001L109.635 141.263C109.219 141.945 108.64 142.478 107.922 142.861C107.204 143.245 106.417 143.437 105.584 143.437H100.676L98.0599 147.657C97.6432 148.339 97.0644 148.871 96.3468 149.255C95.6291 149.639 94.842 149.83 94.0086 149.83H89.0312C88.1746 149.83 87.4106 149.639 86.6929 149.255C85.9753 148.871 85.4197 148.339 84.9798 147.657L82.3869 143.437ZM100.676 126.387H105.653L108.2 122.125L105.653 117.862H100.676L98.0599 122.125L100.676 126.387ZM89.1006 132.781H93.9623L96.5551 128.518L93.9623 124.256H89.1006L86.5077 128.518L89.1006 132.781ZM89.1006 119.994H93.9623L96.6246 115.667L94.0317 111.469H89.0543L86.4614 115.667L89.1238 119.994H89.1006ZM85.0029 122.125L82.4101 117.862H77.5021L74.9093 122.125L77.5021 126.387H82.4101L85.0029 122.125ZM85.0029 134.912L82.4101 130.65H77.4327L74.8861 134.912L77.479 139.174H82.3869L84.9798 134.912H85.0029ZM89.1006 137.043L86.4383 141.348L89.0312 145.568H94.0086L96.6014 141.348L93.9391 137.043H89.0775H89.1006ZM100.676 139.174H105.584L108.177 134.912L105.584 130.65H100.676L98.0599 134.912L100.676 139.174Z" fill="url(#paint4_linear_6051_1636)"/>
<path d="M119.364 106.46H114.457C113.6 106.46 112.836 106.268 112.118 105.884C111.401 105.501 110.845 104.968 110.405 104.286L107.789 100.023C107.372 99.3841 107.164 98.7021 107.164 97.9349C107.164 97.1677 107.372 96.507 107.789 95.8676L110.451 91.5413L107.789 87.2363C107.372 86.5969 107.164 85.8936 107.164 85.1477C107.164 84.4018 107.372 83.6985 107.789 83.0591L110.405 78.7967C110.822 78.1147 111.401 77.5819 112.118 77.1983C112.836 76.8147 113.623 76.6016 114.457 76.6016H119.364L121.957 72.3818C122.374 71.6998 122.953 71.167 123.67 70.7834C124.388 70.3998 125.175 70.1866 126.009 70.1866H130.986C131.843 70.1866 132.607 70.3785 133.324 70.7834C134.042 71.167 134.598 71.6998 135.037 72.3818L137.653 76.6016H142.561C143.418 76.6016 144.182 76.7934 144.9 77.1983C145.617 77.5819 146.173 78.1147 146.613 78.7967L149.206 83.0591C149.622 83.6985 149.831 84.3805 149.831 85.1477C149.831 85.9149 149.622 86.5969 149.206 87.2363L146.543 91.5413L149.206 95.8676C149.622 96.507 149.831 97.189 149.831 97.9349C149.831 98.6808 149.622 99.3841 149.206 100.023L146.613 104.286C146.196 104.968 145.617 105.501 144.9 105.884C144.182 106.268 143.395 106.46 142.561 106.46H137.653L135.037 110.679C134.621 111.361 134.042 111.894 133.324 112.278C132.607 112.662 131.82 112.853 130.986 112.853H126.009C125.152 112.853 124.388 112.662 123.67 112.278C122.953 111.894 122.397 111.361 121.957 110.679L119.364 106.46ZM137.653 89.4101H142.631L145.177 85.1477L142.631 80.8853H137.653L135.037 85.1477L137.653 89.4101ZM126.078 95.8037H130.94L133.533 91.5413L130.94 87.2789H126.078L123.485 91.5413L126.078 95.8037ZM126.078 83.0165H130.94L133.602 78.6901L131.009 74.4917H126.032L123.439 78.6901L126.101 83.0165H126.078ZM121.98 85.1477L119.388 80.8853H114.48L111.887 85.1477L114.48 89.4101H119.388L121.98 85.1477ZM121.98 97.9349L119.388 93.6725H114.41L111.864 97.9349L114.457 102.197H119.364L121.957 97.9349H121.98ZM126.078 100.066L123.416 104.371L126.009 108.591H130.986L133.579 104.371L130.917 100.066H126.055H126.078ZM137.653 102.197H142.561L145.154 97.9349L142.561 93.6725H137.653L135.037 97.9349L137.653 102.197Z" fill="url(#paint5_linear_6051_1636)"/>
<path d="M162.2 76.4654H157.292C156.436 76.4654 155.672 76.2736 154.954 75.89C154.237 75.5064 153.681 74.9736 153.241 74.2916L150.625 70.0292C150.208 69.3899 150 68.7079 150 67.9406C150 67.1734 150.208 66.5127 150.625 65.8734L153.287 61.547L150.625 57.242C150.208 56.6026 150 55.8993 150 55.1534C150 54.4075 150.208 53.7042 150.625 53.0648L153.241 48.8024C153.658 48.1205 154.237 47.5877 154.954 47.204C155.672 46.8204 156.459 46.6073 157.292 46.6073H162.2L164.793 42.3875C165.21 41.7055 165.789 41.1727 166.506 40.7891C167.224 40.4055 168.011 40.1924 168.845 40.1924H173.822C174.679 40.1924 175.443 40.3842 176.16 40.7891C176.878 41.1727 177.434 41.7055 177.873 42.3875L180.489 46.6073H185.397C186.254 46.6073 187.018 46.7991 187.736 47.204C188.453 47.5877 189.009 48.1205 189.449 48.8024L192.042 53.0648C192.458 53.7042 192.667 54.3862 192.667 55.1534C192.667 55.9207 192.458 56.6026 192.042 57.242L189.379 61.547L192.042 65.8734C192.458 66.5127 192.667 67.1947 192.667 67.9406C192.667 68.6866 192.458 69.3899 192.042 70.0292L189.449 74.2916C189.032 74.9736 188.453 75.5064 187.736 75.89C187.018 76.2736 186.231 76.4654 185.397 76.4654H180.489L177.873 80.6852C177.457 81.3672 176.878 81.9 176.16 82.2836C175.443 82.6672 174.655 82.8591 173.822 82.8591H168.845C167.988 82.8591 167.224 82.6672 166.506 82.2836C165.789 81.9 165.233 81.3672 164.793 80.6852L162.2 76.4654ZM180.489 59.4158H185.467L188.013 55.1534L185.467 50.891H180.489L177.873 55.1534L180.489 59.4158ZM168.914 65.8094H173.776L176.369 61.547L173.776 57.2846H168.914L166.321 61.547L168.914 65.8094ZM168.914 53.0222H173.776L176.438 48.6959L173.845 44.4974H168.868L166.275 48.6959L168.937 53.0222H168.914ZM164.816 55.1534L162.224 50.891H157.316L154.723 55.1534L157.316 59.4158H162.224L164.816 55.1534ZM164.816 67.9406L162.224 63.6782H157.246L154.7 67.9406L157.292 72.203H162.2L164.793 67.9406H164.816ZM168.914 70.0718L166.252 74.3769L168.845 78.5966H173.822L176.415 74.3769L173.753 70.0718H168.891H168.914ZM180.489 72.203H185.397L187.99 67.9406L185.397 63.6782H180.489L177.873 67.9406L180.489 72.203Z" fill="url(#paint6_linear_6051_1636)"/>
<path d="M209.594 54.3653H204.686C203.829 54.3653 203.065 54.1735 202.348 53.7899C201.63 53.4062 201.075 52.8734 200.635 52.1915L198.019 47.9291C197.602 47.2897 197.394 46.6077 197.394 45.8405C197.394 45.0732 197.602 44.4126 198.019 43.7732L200.681 39.4469L198.019 35.1418C197.602 34.5025 197.394 33.7992 197.394 33.0533C197.394 32.3073 197.602 31.604 198.019 30.9647L200.635 26.7023C201.051 26.0203 201.63 25.4875 202.348 25.1039C203.065 24.7203 203.853 24.5071 204.686 24.5071H209.594L212.187 20.2874C212.604 19.6054 213.182 19.0726 213.9 18.689C214.618 18.3053 215.405 18.0922 216.238 18.0922H221.216C222.072 18.0922 222.836 18.284 223.554 18.689C224.271 19.0726 224.827 19.6054 225.267 20.2874L227.883 24.5071H232.791C233.647 24.5071 234.411 24.699 235.129 25.1039C235.847 25.4875 236.402 26.0203 236.842 26.7023L239.435 30.9647C239.852 31.604 240.06 32.286 240.06 33.0533C240.06 33.8205 239.852 34.5025 239.435 35.1418L236.773 39.4469L239.435 43.7732C239.852 44.4126 240.06 45.0946 240.06 45.8405C240.06 46.5864 239.852 47.2897 239.435 47.9291L236.842 52.1915C236.426 52.8734 235.847 53.4062 235.129 53.7899C234.411 54.1735 233.624 54.3653 232.791 54.3653H227.883L225.267 58.5851C224.85 59.267 224.271 59.7999 223.554 60.1835C222.836 60.5671 222.049 60.7589 221.216 60.7589H216.238C215.382 60.7589 214.618 60.5671 213.9 60.1835C213.182 59.7999 212.627 59.267 212.187 58.5851L209.594 54.3653ZM227.883 37.3157H232.86L235.407 33.0533L232.86 28.7909H227.883L225.267 33.0533L227.883 37.3157ZM216.308 43.7093H221.169L223.762 39.4469L221.169 35.1845H216.308L213.715 39.4469L216.308 43.7093ZM216.308 30.9221H221.169L223.832 26.5957L221.239 22.3973H216.261L213.668 26.5957L216.331 30.9221H216.308ZM212.21 33.0533L209.617 28.7909H204.709L202.116 33.0533L204.709 37.3157H209.617L212.21 33.0533ZM212.21 45.8405L209.617 41.5781H204.64L202.093 45.8405L204.686 50.1029H209.594L212.187 45.8405H212.21ZM216.308 47.9717L213.645 52.2767L216.238 56.4965H221.216L223.808 52.2767L221.146 47.9717H216.284H216.308ZM227.883 50.1029H232.791L235.384 45.8405L232.791 41.5781H227.883L225.267 45.8405L227.883 50.1029Z" fill="url(#paint7_linear_6051_1636)"/>
<path d="M260.106 40.8307H255.198C254.341 40.8307 253.577 40.6389 252.86 40.2553C252.142 39.8717 251.586 39.3389 251.146 38.6569L248.53 34.3945C248.114 33.7551 247.905 33.0732 247.905 32.3059C247.905 31.5387 248.114 30.878 248.53 30.2387L251.193 25.9123L248.53 21.6073C248.114 20.9679 247.905 20.2646 247.905 19.5187C247.905 18.7728 248.114 18.0695 248.53 17.4301L251.146 13.1677C251.563 12.4858 252.142 11.9529 252.86 11.5693C253.577 11.1857 254.364 10.9726 255.198 10.9726H260.106L262.699 6.75282C263.115 6.07083 263.694 5.53803 264.412 5.15441C265.129 4.7708 265.916 4.55768 266.75 4.55768H271.727C272.584 4.55768 273.348 4.74949 274.066 5.15441C274.783 5.53803 275.339 6.07083 275.779 6.75282L278.395 10.9726H283.303C284.159 10.9726 284.923 11.1644 285.641 11.5693C286.359 11.9529 286.914 12.4858 287.354 13.1677L289.947 17.4301C290.364 18.0695 290.572 18.7515 290.572 19.5187C290.572 20.2859 290.364 20.9679 289.947 21.6073L287.285 25.9123L289.947 30.2387C290.364 30.878 290.572 31.56 290.572 32.3059C290.572 33.0519 290.364 33.7551 289.947 34.3945L287.354 38.6569C286.937 39.3389 286.359 39.8717 285.641 40.2553C284.923 40.6389 284.136 40.8307 283.303 40.8307H278.395L275.779 45.0505C275.362 45.7325 274.783 46.2653 274.066 46.6489C273.348 47.0325 272.561 47.2243 271.727 47.2243H266.75C265.893 47.2243 265.129 47.0325 264.412 46.6489C263.694 46.2653 263.138 45.7325 262.699 45.0505L260.106 40.8307ZM278.395 23.7811H283.372L285.919 19.5187L283.372 15.2563H278.395L275.779 19.5187L278.395 23.7811ZM266.819 30.1747H271.681L274.274 25.9123L271.681 21.6499H266.819L264.226 25.9123L266.819 30.1747ZM266.819 17.3875H271.681L274.343 13.0612L271.75 8.86271H266.773L264.18 13.0612L266.843 17.3875H266.819ZM262.722 19.5187L260.129 15.2563H255.221L252.628 19.5187L255.221 23.7811H260.129L262.722 19.5187ZM262.722 32.3059L260.129 28.0435H255.151L252.605 32.3059L255.198 36.5683H260.106L262.699 32.3059H262.722ZM266.819 34.4371L264.157 38.7422L266.75 42.9619H271.727L274.32 38.7422L271.658 34.4371H266.796H266.819ZM278.395 36.5683H283.303L285.896 32.3059L283.303 28.0435H278.395L275.779 32.3059L278.395 36.5683Z" fill="url(#paint8_linear_6051_1636)"/>
<path d="M312.2 36.2731H307.292C306.436 36.2731 305.672 36.0812 304.954 35.6976C304.237 35.314 303.681 34.7812 303.241 34.0992L300.625 29.8368C300.208 29.1975 300 28.5155 300 27.7483C300 26.981 300.208 26.3203 300.625 25.681L303.287 21.3546L300.625 17.0496C300.208 16.4103 300 15.707 300 14.961C300 14.2151 300.208 13.5118 300.625 12.8725L303.241 8.61006C303.658 7.92807 304.237 7.39527 304.954 7.01165C305.672 6.62804 306.459 6.41492 307.292 6.41492H312.2L314.793 2.19514C315.21 1.51315 315.789 0.980353 316.506 0.596737C317.224 0.21312 318.011 0 318.845 0H323.822C324.679 0 325.443 0.191808 326.16 0.596737C326.878 0.980353 327.434 1.51315 327.873 2.19514L330.489 6.41492H335.397C336.254 6.41492 337.018 6.60673 337.736 7.01165C338.453 7.39527 339.009 7.92807 339.449 8.61006L342.042 12.8725C342.458 13.5118 342.667 14.1938 342.667 14.961C342.667 15.7283 342.458 16.4103 342.042 17.0496L339.379 21.3546L342.042 25.681C342.458 26.3203 342.667 27.0023 342.667 27.7483C342.667 28.4942 342.458 29.1975 342.042 29.8368L339.449 34.0992C339.032 34.7812 338.453 35.314 337.736 35.6976C337.018 36.0812 336.231 36.2731 335.397 36.2731H330.489L327.873 40.4928C327.457 41.1748 326.878 41.7076 326.16 42.0912C325.443 42.4749 324.655 42.6667 323.822 42.6667H318.845C317.988 42.6667 317.224 42.4749 316.506 42.0912C315.789 41.7076 315.233 41.1748 314.793 40.4928L312.2 36.2731ZM330.489 19.2234H335.467L338.013 14.961L335.467 10.6986H330.489L327.873 14.961L330.489 19.2234ZM318.914 25.6171H323.776L326.369 21.3546L323.776 17.0922H318.914L316.321 21.3546L318.914 25.6171ZM318.914 12.8298H323.776L326.438 8.5035L323.845 4.30503H318.868L316.275 8.5035L318.937 12.8298H318.914ZM314.816 14.961L312.224 10.6986H307.316L304.723 14.961L307.316 19.2234H312.224L314.816 14.961ZM314.816 27.7483L312.224 23.4858H307.246L304.7 27.7483L307.292 32.0107H312.2L314.793 27.7483H314.816ZM318.914 29.8795L316.252 34.1845L318.845 38.4043H323.822L326.415 34.1845L323.753 29.8795H318.891H318.914ZM330.489 32.0107H335.397L337.99 27.7483L335.397 23.4858H330.489L327.873 27.7483L330.489 32.0107Z" fill="url(#paint9_linear_6051_1636)"/>
<path d="M364.295 40.8307H359.387C358.531 40.8307 357.767 40.6389 357.049 40.2553C356.331 39.8717 355.776 39.3389 355.336 38.6569L352.72 34.3945C352.303 33.7551 352.095 33.0732 352.095 32.3059C352.095 31.5387 352.303 30.878 352.72 30.2387L355.382 25.9123L352.72 21.6073C352.303 20.9679 352.095 20.2646 352.095 19.5187C352.095 18.7728 352.303 18.0695 352.72 17.4301L355.336 13.1677C355.753 12.4858 356.331 11.9529 357.049 11.5693C357.767 11.1857 358.554 10.9726 359.387 10.9726H364.295L366.888 6.75282C367.305 6.07083 367.883 5.53803 368.601 5.15441C369.319 4.7708 370.106 4.55768 370.939 4.55768H375.917C376.773 4.55768 377.537 4.74949 378.255 5.15441C378.973 5.53803 379.528 6.07083 379.968 6.75282L382.584 10.9726H387.492C388.349 10.9726 389.113 11.1644 389.83 11.5693C390.548 11.9529 391.104 12.4858 391.543 13.1677L394.136 17.4301C394.553 18.0695 394.761 18.7515 394.761 19.5187C394.761 20.2859 394.553 20.9679 394.136 21.6073L391.474 25.9123L394.136 30.2387C394.553 30.878 394.761 31.56 394.761 32.3059C394.761 33.0519 394.553 33.7551 394.136 34.3945L391.543 38.6569C391.127 39.3389 390.548 39.8717 389.83 40.2553C389.113 40.6389 388.326 40.8307 387.492 40.8307H382.584L379.968 45.0505C379.551 45.7325 378.973 46.2653 378.255 46.6489C377.537 47.0325 376.75 47.2243 375.917 47.2243H370.939C370.083 47.2243 369.319 47.0325 368.601 46.6489C367.883 46.2653 367.328 45.7325 366.888 45.0505L364.295 40.8307ZM382.584 23.7811H387.562L390.108 19.5187L387.562 15.2563H382.584L379.968 19.5187L382.584 23.7811ZM371.009 30.1747H375.87L378.463 25.9123L375.87 21.6499H371.009L368.416 25.9123L371.009 30.1747ZM371.009 17.3875H375.87L378.533 13.0612L375.94 8.86271H370.963L368.37 13.0612L371.032 17.3875H371.009ZM366.911 19.5187L364.318 15.2563H359.41L356.817 19.5187L359.41 23.7811H364.318L366.911 19.5187ZM366.911 32.3059L364.318 28.0435H359.341L356.794 32.3059L359.387 36.5683H364.295L366.888 32.3059H366.911ZM371.009 34.4371L368.346 38.7422L370.939 42.9619H375.917L378.51 38.7422L375.847 34.4371H370.986H371.009ZM382.584 36.5683H387.492L390.085 32.3059L387.492 28.0435H382.584L379.968 32.3059L382.584 36.5683Z" fill="url(#paint10_linear_6051_1636)"/>
<path d="M414.807 54.3653H409.899C409.042 54.3653 408.278 54.1735 407.561 53.7899C406.843 53.4062 406.287 52.8734 405.848 52.1915L403.232 47.9291C402.815 47.2897 402.606 46.6077 402.606 45.8405C402.606 45.0732 402.815 44.4126 403.232 43.7732L405.894 39.4469L403.232 35.1418C402.815 34.5025 402.606 33.7992 402.606 33.0533C402.606 32.3073 402.815 31.604 403.232 30.9647L405.848 26.7023C406.264 26.0203 406.843 25.4875 407.561 25.1039C408.278 24.7203 409.065 24.5071 409.899 24.5071H414.807L417.4 20.2874C417.816 19.6054 418.395 19.0726 419.113 18.689C419.831 18.3053 420.618 18.0922 421.451 18.0922H426.428C427.285 18.0922 428.049 18.284 428.767 18.689C429.484 19.0726 430.04 19.6054 430.48 20.2874L433.096 24.5071H438.004C438.86 24.5071 439.624 24.699 440.342 25.1039C441.06 25.4875 441.615 26.0203 442.055 26.7023L444.648 30.9647C445.065 31.604 445.273 32.286 445.273 33.0533C445.273 33.8205 445.065 34.5025 444.648 35.1418L441.986 39.4469L444.648 43.7732C445.065 44.4126 445.273 45.0946 445.273 45.8405C445.273 46.5864 445.065 47.2897 444.648 47.9291L442.055 52.1915C441.638 52.8734 441.06 53.4062 440.342 53.7899C439.624 54.1735 438.837 54.3653 438.004 54.3653H433.096L430.48 58.5851C430.063 59.267 429.484 59.7999 428.767 60.1835C428.049 60.5671 427.262 60.7589 426.428 60.7589H421.451C420.595 60.7589 419.831 60.5671 419.113 60.1835C418.395 59.7999 417.84 59.267 417.4 58.5851L414.807 54.3653ZM433.096 37.3157H438.073L440.62 33.0533L438.073 28.7909H433.096L430.48 33.0533L433.096 37.3157ZM421.521 43.7093H426.382L428.975 39.4469L426.382 35.1845H421.521L418.928 39.4469L421.521 43.7093ZM421.521 30.9221H426.382L429.044 26.5957L426.452 22.3973H421.474L418.881 26.5957L421.544 30.9221H421.521ZM417.423 33.0533L414.83 28.7909H409.922L407.329 33.0533L409.922 37.3157H414.83L417.423 33.0533ZM417.423 45.8405L414.83 41.5781H409.853L407.306 45.8405L409.899 50.1029H414.807L417.4 45.8405H417.423ZM421.521 47.9717L418.858 52.2767L421.451 56.4965H426.428L429.021 52.2767L426.359 47.9717H421.497H421.521ZM433.096 50.1029H438.004L440.597 45.8405L438.004 41.5781H433.096L430.48 45.8405L433.096 50.1029Z" fill="url(#paint11_linear_6051_1636)"/>
<path d="M462.2 76.4654H457.292C456.436 76.4654 455.672 76.2736 454.954 75.89C454.237 75.5064 453.681 74.9736 453.241 74.2916L450.625 70.0292C450.208 69.3899 450 68.7079 450 67.9406C450 67.1734 450.208 66.5127 450.625 65.8734L453.287 61.547L450.625 57.242C450.208 56.6026 450 55.8993 450 55.1534C450 54.4075 450.208 53.7042 450.625 53.0648L453.241 48.8024C453.658 48.1205 454.237 47.5877 454.954 47.204C455.672 46.8204 456.459 46.6073 457.292 46.6073H462.2L464.793 42.3875C465.21 41.7055 465.789 41.1727 466.506 40.7891C467.224 40.4055 468.011 40.1924 468.845 40.1924H473.822C474.679 40.1924 475.443 40.3842 476.16 40.7891C476.878 41.1727 477.434 41.7055 477.873 42.3875L480.489 46.6073H485.397C486.254 46.6073 487.018 46.7991 487.736 47.204C488.453 47.5877 489.009 48.1205 489.449 48.8024L492.042 53.0648C492.458 53.7042 492.667 54.3862 492.667 55.1534C492.667 55.9207 492.458 56.6026 492.042 57.242L489.379 61.547L492.042 65.8734C492.458 66.5127 492.667 67.1947 492.667 67.9406C492.667 68.6866 492.458 69.3899 492.042 70.0292L489.449 74.2916C489.032 74.9736 488.453 75.5064 487.736 75.89C487.018 76.2736 486.231 76.4654 485.397 76.4654H480.489L477.873 80.6852C477.457 81.3672 476.878 81.9 476.16 82.2836C475.443 82.6672 474.655 82.8591 473.822 82.8591H468.845C467.988 82.8591 467.224 82.6672 466.506 82.2836C465.789 81.9 465.233 81.3672 464.793 80.6852L462.2 76.4654ZM480.489 59.4158H485.467L488.013 55.1534L485.467 50.891H480.489L477.873 55.1534L480.489 59.4158ZM468.914 65.8094H473.776L476.369 61.547L473.776 57.2846H468.914L466.321 61.547L468.914 65.8094ZM468.914 53.0222H473.776L476.438 48.6959L473.845 44.4974H468.868L466.275 48.6959L468.937 53.0222H468.914ZM464.816 55.1534L462.224 50.891H457.316L454.723 55.1534L457.316 59.4158H462.224L464.816 55.1534ZM464.816 67.9406L462.224 63.6782H457.246L454.7 67.9406L457.292 72.203H462.2L464.793 67.9406H464.816ZM468.914 70.0718L466.252 74.3769L468.845 78.5966H473.822L476.415 74.3769L473.753 70.0718H468.891H468.914ZM480.489 72.203H485.397L487.99 67.9406L485.397 63.6782H480.489L477.873 67.9406L480.489 72.203Z" fill="url(#paint12_linear_6051_1636)"/>
<path d="M505.036 106.46H500.128C499.272 106.46 498.508 106.268 497.79 105.884C497.073 105.501 496.517 104.968 496.077 104.286L493.461 100.023C493.044 99.3841 492.836 98.7021 492.836 97.9349C492.836 97.1677 493.044 96.507 493.461 95.8676L496.123 91.5413L493.461 87.2363C493.044 86.5969 492.836 85.8936 492.836 85.1477C492.836 84.4018 493.044 83.6985 493.461 83.0591L496.077 78.7967C496.494 78.1147 497.073 77.5819 497.79 77.1983C498.508 76.8147 499.295 76.6016 500.128 76.6016H505.036L507.629 72.3818C508.046 71.6998 508.625 71.167 509.342 70.7834C510.06 70.3998 510.847 70.1866 511.681 70.1866H516.658C517.515 70.1866 518.279 70.3785 518.996 70.7834C519.714 71.167 520.269 71.6998 520.709 72.3818L523.325 76.6016H528.233C529.09 76.6016 529.854 76.7934 530.572 77.1983C531.289 77.5819 531.845 78.1147 532.285 78.7967L534.878 83.0591C535.294 83.6985 535.503 84.3805 535.503 85.1477C535.503 85.9149 535.294 86.5969 534.878 87.2363L532.215 91.5413L534.878 95.8676C535.294 96.507 535.503 97.189 535.503 97.9349C535.503 98.6808 535.294 99.3841 534.878 100.023L532.285 104.286C531.868 104.968 531.289 105.501 530.572 105.884C529.854 106.268 529.067 106.46 528.233 106.46H523.325L520.709 110.679C520.293 111.361 519.714 111.894 518.996 112.278C518.279 112.662 517.491 112.853 516.658 112.853H511.681C510.824 112.853 510.06 112.662 509.342 112.278C508.625 111.894 508.069 111.361 507.629 110.679L505.036 106.46ZM523.325 89.4101H528.303L530.849 85.1477L528.303 80.8853H523.325L520.709 85.1477L523.325 89.4101ZM511.75 95.8037H516.612L519.205 91.5413L516.612 87.2789H511.75L509.157 91.5413L511.75 95.8037ZM511.75 83.0165H516.612L519.274 78.6901L516.681 74.4917H511.704L509.111 78.6901L511.773 83.0165H511.75ZM507.652 85.1477L505.059 80.8853H500.152L497.559 85.1477L500.152 89.4101H505.059L507.652 85.1477ZM507.652 97.9349L505.059 93.6725H500.082L497.536 97.9349L500.128 102.197H505.036L507.629 97.9349H507.652ZM511.75 100.066L509.088 104.371L511.681 108.591H516.658L519.251 104.371L516.589 100.066H511.727H511.75ZM523.325 102.197H528.233L530.826 97.9349L528.233 93.6725H523.325L520.709 97.9349L523.325 102.197Z" fill="url(#paint13_linear_6051_1636)"/>
<path d="M542.014 143.437H537.106C536.249 143.437 535.485 143.245 534.768 142.861C534.05 142.478 533.494 141.945 533.055 141.263L530.439 137.001C530.022 136.361 529.813 135.679 529.813 134.912C529.813 134.145 530.022 133.484 530.439 132.845L533.101 128.518L530.439 124.213C530.022 123.574 529.813 122.871 529.813 122.125C529.813 121.379 530.022 120.676 530.439 120.036L533.055 115.774C533.471 115.092 534.05 114.559 534.768 114.175C535.485 113.792 536.273 113.579 537.106 113.579H542.014L544.607 109.359C545.023 108.677 545.602 108.144 546.32 107.76C547.038 107.377 547.825 107.164 548.658 107.164H553.636C554.492 107.164 555.256 107.356 555.974 107.76C556.691 108.144 557.247 108.677 557.687 109.359L560.303 113.579H565.211C566.067 113.579 566.831 113.77 567.549 114.175C568.267 114.559 568.822 115.092 569.262 115.774L571.855 120.036C572.272 120.676 572.48 121.358 572.48 122.125C572.48 122.892 572.272 123.574 571.855 124.213L569.193 128.518L571.855 132.845C572.272 133.484 572.48 134.166 572.48 134.912C572.48 135.658 572.272 136.361 571.855 137.001L569.262 141.263C568.845 141.945 568.267 142.478 567.549 142.861C566.831 143.245 566.044 143.437 565.211 143.437H560.303L557.687 147.657C557.27 148.339 556.691 148.871 555.974 149.255C555.256 149.639 554.469 149.83 553.636 149.83H548.658C547.802 149.83 547.038 149.639 546.32 149.255C545.602 148.871 545.047 148.339 544.607 147.657L542.014 143.437ZM560.303 126.387H565.28L567.827 122.125L565.28 117.862H560.303L557.687 122.125L560.303 126.387ZM548.728 132.781H553.589L556.182 128.518L553.589 124.256H548.728L546.135 128.518L548.728 132.781ZM548.728 119.994H553.589L556.252 115.667L553.659 111.469H548.681L546.088 115.667L548.751 119.994H548.728ZM544.63 122.125L542.037 117.862H537.129L534.536 122.125L537.129 126.387H542.037L544.63 122.125ZM544.63 134.912L542.037 130.65H537.06L534.513 134.912L537.106 139.174H542.014L544.607 134.912H544.63ZM548.728 137.043L546.065 141.348L548.658 145.568H553.636L556.228 141.348L553.566 137.043H548.704H548.728ZM560.303 139.174H565.211L567.804 134.912L565.211 130.65H560.303L557.687 134.912L560.303 139.174Z" fill="url(#paint14_linear_6051_1636)"/>
<path d="M572.008 186.273H567.1C566.244 186.273 565.48 186.081 564.762 185.698C564.044 185.314 563.489 184.781 563.049 184.099L560.433 179.837C560.016 179.197 559.808 178.515 559.808 177.748C559.808 176.981 560.016 176.32 560.433 175.681L563.095 171.355L560.433 167.05C560.016 166.41 559.808 165.707 559.808 164.961C559.808 164.215 560.016 163.512 560.433 162.872L563.049 158.61C563.465 157.928 564.044 157.395 564.762 157.012C565.48 156.628 566.267 156.415 567.1 156.415H572.008L574.601 152.195C575.018 151.513 575.596 150.98 576.314 150.597C577.032 150.213 577.819 150 578.652 150H583.63C584.486 150 585.25 150.192 585.968 150.597C586.686 150.98 587.241 151.513 587.681 152.195L590.297 156.415H595.205C596.062 156.415 596.826 156.607 597.543 157.012C598.261 157.395 598.816 157.928 599.256 158.61L601.849 162.872C602.266 163.512 602.474 164.194 602.474 164.961C602.474 165.728 602.266 166.41 601.849 167.05L599.187 171.355L601.849 175.681C602.266 176.32 602.474 177.002 602.474 177.748C602.474 178.494 602.266 179.197 601.849 179.837L599.256 184.099C598.84 184.781 598.261 185.314 597.543 185.698C596.826 186.081 596.038 186.273 595.205 186.273H590.297L587.681 190.493C587.264 191.175 586.686 191.708 585.968 192.091C585.25 192.475 584.463 192.667 583.63 192.667H578.652C577.796 192.667 577.032 192.475 576.314 192.091C575.596 191.708 575.041 191.175 574.601 190.493L572.008 186.273ZM590.297 169.223H595.274L597.821 164.961L595.274 160.699H590.297L587.681 164.961L590.297 169.223ZM578.722 175.617H583.583L586.176 171.355L583.583 167.092H578.722L576.129 171.355L578.722 175.617ZM578.722 162.83H583.583L586.246 158.503L583.653 154.305H578.675L576.083 158.503L578.745 162.83H578.722ZM574.624 164.961L572.031 160.699H567.123L564.53 164.961L567.123 169.223H572.031L574.624 164.961ZM574.624 177.748L572.031 173.486H567.054L564.507 177.748L567.1 182.011H572.008L574.601 177.748H574.624ZM578.722 179.879L576.059 184.184L578.652 188.404H583.63L586.223 184.184L583.56 179.879H578.699H578.722ZM590.297 182.011H595.205L597.798 177.748L595.205 173.486H590.297L587.681 177.748L590.297 182.011Z" fill="url(#paint15_linear_6051_1636)"/>
<path d="M594.109 233.667H589.201C588.344 233.667 587.58 233.475 586.862 233.092C586.145 232.708 585.589 232.175 585.149 231.493L582.533 227.231C582.117 226.591 581.908 225.909 581.908 225.142C581.908 224.375 582.117 223.714 582.533 223.075L585.196 218.749L582.533 214.444C582.117 213.804 581.908 213.101 581.908 212.355C581.908 211.609 582.117 210.906 582.533 210.266L585.149 206.004C585.566 205.322 586.145 204.789 586.862 204.406C587.58 204.022 588.367 203.809 589.201 203.809H594.109L596.701 199.589C597.118 198.907 597.697 198.374 598.415 197.991C599.132 197.607 599.919 197.394 600.753 197.394H605.73C606.587 197.394 607.351 197.586 608.068 197.991C608.786 198.374 609.342 198.907 609.782 199.589L612.398 203.809H617.306C618.162 203.809 618.926 204.001 619.644 204.406C620.361 204.789 620.917 205.322 621.357 206.004L623.95 210.266C624.367 210.906 624.575 211.588 624.575 212.355C624.575 213.122 624.367 213.804 623.95 214.444L621.287 218.749L623.95 223.075C624.367 223.714 624.575 224.396 624.575 225.142C624.575 225.888 624.367 226.591 623.95 227.231L621.357 231.493C620.94 232.175 620.361 232.708 619.644 233.092C618.926 233.475 618.139 233.667 617.306 233.667H612.398L609.782 237.887C609.365 238.569 608.786 239.102 608.068 239.485C607.351 239.869 606.564 240.061 605.73 240.061H600.753C599.896 240.061 599.132 239.869 598.415 239.485C597.697 239.102 597.141 238.569 596.701 237.887L594.109 233.667ZM612.398 216.617H617.375L619.922 212.355L617.375 208.093H612.398L609.782 212.355L612.398 216.617ZM600.822 223.011H605.684L608.277 218.749L605.684 214.486H600.822L598.229 218.749L600.822 223.011ZM600.822 210.224H605.684L608.346 205.897L605.753 201.699H600.776L598.183 205.897L600.845 210.224H600.822ZM596.725 212.355L594.132 208.093H589.224L586.631 212.355L589.224 216.617H594.132L596.725 212.355ZM596.725 225.142L594.132 220.88H589.154L586.608 225.142L589.201 229.405H594.109L596.701 225.142H596.725ZM600.822 227.273L598.16 231.578L600.753 235.798H605.73L608.323 231.578L605.661 227.273H600.799H600.822ZM612.398 229.405H617.306L619.898 225.142L617.306 220.88H612.398L609.782 225.142L612.398 229.405Z" fill="url(#paint16_linear_6051_1636)"/>
<path d="M607.643 284.179H602.735C601.878 284.179 601.114 283.987 600.397 283.603C599.679 283.22 599.123 282.687 598.683 282.005L596.067 277.742C595.651 277.103 595.442 276.421 595.442 275.654C595.442 274.887 595.651 274.226 596.067 273.587L598.73 269.26L596.067 264.955C595.651 264.316 595.442 263.612 595.442 262.867C595.442 262.121 595.651 261.417 596.067 260.778L598.683 256.516C599.1 255.834 599.679 255.301 600.397 254.917C601.114 254.534 601.901 254.32 602.735 254.32H607.643L610.236 250.101C610.652 249.419 611.231 248.886 611.949 248.502C612.666 248.119 613.454 247.906 614.287 247.906H619.264C620.121 247.906 620.885 248.097 621.603 248.502C622.32 248.886 622.876 249.419 623.316 250.101L625.932 254.32H630.84C631.696 254.32 632.46 254.512 633.178 254.917C633.896 255.301 634.451 255.834 634.891 256.516L637.484 260.778C637.901 261.417 638.109 262.099 638.109 262.867C638.109 263.634 637.901 264.316 637.484 264.955L634.822 269.26L637.484 273.587C637.901 274.226 638.109 274.908 638.109 275.654C638.109 276.4 637.901 277.103 637.484 277.742L634.891 282.005C634.474 282.687 633.896 283.22 633.178 283.603C632.46 283.987 631.673 284.179 630.84 284.179H625.932L623.316 288.398C622.899 289.08 622.32 289.613 621.603 289.997C620.885 290.38 620.098 290.572 619.264 290.572H614.287C613.43 290.572 612.666 290.38 611.949 289.997C611.231 289.613 610.676 289.08 610.236 288.398L607.643 284.179ZM625.932 267.129H630.909L633.456 262.867L630.909 258.604H625.932L623.316 262.867L625.932 267.129ZM614.356 273.523H619.218L621.811 269.26L619.218 264.998H614.356L611.764 269.26L614.356 273.523ZM614.356 260.735H619.218L621.88 256.409L619.288 252.211H614.31L611.717 256.409L614.38 260.735H614.356ZM610.259 262.867L607.666 258.604H602.758L600.165 262.867L602.758 267.129H607.666L610.259 262.867ZM610.259 275.654L607.666 271.391H602.689L600.142 275.654L602.735 279.916H607.643L610.236 275.654H610.259ZM614.356 277.785L611.694 282.09L614.287 286.31H619.264L621.857 282.09L619.195 277.785H614.333H614.356ZM625.932 279.916H630.84L633.433 275.654L630.84 271.391H625.932L623.316 275.654L625.932 279.916Z" fill="url(#paint17_linear_6051_1636)"/>
<path d="M612.2 336.273H607.292C606.436 336.273 605.672 336.081 604.954 335.698C604.237 335.314 603.681 334.781 603.241 334.099L600.625 329.837C600.208 329.197 600 328.515 600 327.748C600 326.981 600.208 326.32 600.625 325.681L603.287 321.355L600.625 317.05C600.208 316.41 600 315.707 600 314.961C600 314.215 600.208 313.512 600.625 312.872L603.241 308.61C603.658 307.928 604.237 307.395 604.954 307.012C605.672 306.628 606.459 306.415 607.292 306.415H612.2L614.793 302.195C615.21 301.513 615.789 300.98 616.506 300.597C617.224 300.213 618.011 300 618.845 300H623.822C624.679 300 625.443 300.192 626.16 300.597C626.878 300.98 627.434 301.513 627.873 302.195L630.489 306.415H635.397C636.254 306.415 637.018 306.607 637.736 307.012C638.453 307.395 639.009 307.928 639.449 308.61L642.042 312.872C642.458 313.512 642.667 314.194 642.667 314.961C642.667 315.728 642.458 316.41 642.042 317.05L639.379 321.355L642.042 325.681C642.458 326.32 642.667 327.002 642.667 327.748C642.667 328.494 642.458 329.197 642.042 329.837L639.449 334.099C639.032 334.781 638.453 335.314 637.736 335.698C637.018 336.081 636.231 336.273 635.397 336.273H630.489L627.873 340.493C627.457 341.175 626.878 341.708 626.16 342.091C625.443 342.475 624.655 342.667 623.822 342.667H618.845C617.988 342.667 617.224 342.475 616.506 342.091C615.789 341.708 615.233 341.175 614.793 340.493L612.2 336.273ZM630.489 319.223H635.467L638.013 314.961L635.467 310.699H630.489L627.873 314.961L630.489 319.223ZM618.914 325.617H623.776L626.369 321.355L623.776 317.092H618.914L616.321 321.355L618.914 325.617ZM618.914 312.83H623.776L626.438 308.503L623.845 304.305H618.868L616.275 308.503L618.937 312.83H618.914ZM614.816 314.961L612.224 310.699H607.316L604.723 314.961L607.316 319.223H612.224L614.816 314.961ZM614.816 327.748L612.224 323.486H607.246L604.7 327.748L607.292 332.011H612.2L614.793 327.748H614.816ZM618.914 329.879L616.252 334.184L618.845 338.404H623.822L626.415 334.184L623.753 329.879H618.891H618.914ZM630.489 332.011H635.397L637.99 327.748L635.397 323.486H630.489L627.873 327.748L630.489 332.011Z" fill="url(#paint18_linear_6051_1636)"/>
<path d="M607.643 388.368H602.735C601.878 388.368 601.114 388.176 600.397 387.792C599.679 387.409 599.123 386.876 598.683 386.194L596.067 381.931C595.651 381.292 595.442 380.61 595.442 379.843C595.442 379.076 595.651 378.415 596.067 377.775L598.73 373.449L596.067 369.144C595.651 368.505 595.442 367.801 595.442 367.056C595.442 366.31 595.651 365.606 596.067 364.967L598.683 360.705C599.1 360.023 599.679 359.49 600.397 359.106C601.114 358.723 601.901 358.509 602.735 358.509H607.643L610.236 354.29C610.652 353.608 611.231 353.075 611.949 352.691C612.666 352.308 613.454 352.094 614.287 352.094H619.264C620.121 352.094 620.885 352.286 621.603 352.691C622.32 353.075 622.876 353.608 623.316 354.29L625.932 358.509H630.84C631.696 358.509 632.46 358.701 633.178 359.106C633.896 359.49 634.451 360.023 634.891 360.705L637.484 364.967C637.901 365.606 638.109 366.288 638.109 367.056C638.109 367.823 637.901 368.505 637.484 369.144L634.822 373.449L637.484 377.775C637.901 378.415 638.109 379.097 638.109 379.843C638.109 380.589 637.901 381.292 637.484 381.931L634.891 386.194C634.474 386.876 633.896 387.409 633.178 387.792C632.46 388.176 631.673 388.368 630.84 388.368H625.932L623.316 392.587C622.899 393.269 622.32 393.802 621.603 394.186C620.885 394.569 620.098 394.761 619.264 394.761H614.287C613.43 394.761 612.666 394.569 611.949 394.186C611.231 393.802 610.676 393.269 610.236 392.587L607.643 388.368ZM625.932 371.318H630.909L633.456 367.056L630.909 362.793H625.932L623.316 367.056L625.932 371.318ZM614.356 377.712H619.218L621.811 373.449L619.218 369.187H614.356L611.764 373.449L614.356 377.712ZM614.356 364.924H619.218L621.88 360.598L619.288 356.4H614.31L611.717 360.598L614.38 364.924H614.356ZM610.259 367.056L607.666 362.793H602.758L600.165 367.056L602.758 371.318H607.666L610.259 367.056ZM610.259 379.843L607.666 375.58H602.689L600.142 379.843L602.735 384.105H607.643L610.236 379.843H610.259ZM614.356 381.974L611.694 386.279L614.287 390.499H619.264L621.857 386.279L619.195 381.974H614.333H614.356ZM625.932 384.105H630.84L633.433 379.843L630.84 375.58H625.932L623.316 379.843L625.932 384.105Z" fill="url(#paint19_linear_6051_1636)"/>
<path d="M594.109 438.879H589.201C588.344 438.879 587.58 438.687 586.862 438.304C586.145 437.92 585.589 437.387 585.149 436.705L582.533 432.443C582.117 431.803 581.908 431.122 581.908 430.354C581.908 429.587 582.117 428.926 582.533 428.287L585.196 423.961L582.533 419.656C582.117 419.016 581.908 418.313 581.908 417.567C581.908 416.821 582.117 416.118 582.533 415.478L585.149 411.216C585.566 410.534 586.145 410.001 586.862 409.618C587.58 409.234 588.367 409.021 589.201 409.021H594.109L596.701 404.801C597.118 404.119 597.697 403.586 598.415 403.203C599.132 402.819 599.919 402.606 600.753 402.606H605.73C606.587 402.606 607.351 402.798 608.068 403.203C608.786 403.586 609.342 404.119 609.782 404.801L612.398 409.021H617.306C618.162 409.021 618.926 409.213 619.644 409.618C620.361 410.001 620.917 410.534 621.357 411.216L623.95 415.478C624.367 416.118 624.575 416.8 624.575 417.567C624.575 418.334 624.367 419.016 623.95 419.656L621.287 423.961L623.95 428.287C624.367 428.926 624.575 429.608 624.575 430.354C624.575 431.1 624.367 431.803 623.95 432.443L621.357 436.705C620.94 437.387 620.361 437.92 619.644 438.304C618.926 438.687 618.139 438.879 617.306 438.879H612.398L609.782 443.099C609.365 443.781 608.786 444.314 608.068 444.697C607.351 445.081 606.564 445.273 605.73 445.273H600.753C599.896 445.273 599.132 445.081 598.415 444.697C597.697 444.314 597.141 443.781 596.701 443.099L594.109 438.879ZM612.398 421.829H617.375L619.922 417.567L617.375 413.305H612.398L609.782 417.567L612.398 421.829ZM600.822 428.223H605.684L608.277 423.961L605.684 419.698H600.822L598.229 423.961L600.822 428.223ZM600.822 415.436H605.684L608.346 411.11L605.753 406.911H600.776L598.183 411.11L600.845 415.436H600.822ZM596.725 417.567L594.132 413.305H589.224L586.631 417.567L589.224 421.829H594.132L596.725 417.567ZM596.725 430.354L594.132 426.092H589.154L586.608 430.354L589.201 434.617H594.109L596.701 430.354H596.725ZM600.822 432.485L598.16 436.791L600.753 441.01H605.73L608.323 436.791L605.661 432.485H600.799H600.822ZM612.398 434.617H617.306L619.898 430.354L617.306 426.092H612.398L609.782 430.354L612.398 434.617Z" fill="url(#paint20_linear_6051_1636)"/>
<path d="M572.008 486.273H567.1C566.244 486.273 565.48 486.081 564.762 485.698C564.044 485.314 563.489 484.781 563.049 484.099L560.433 479.837C560.016 479.197 559.808 478.515 559.808 477.748C559.808 476.981 560.016 476.32 560.433 475.681L563.095 471.355L560.433 467.05C560.016 466.41 559.808 465.707 559.808 464.961C559.808 464.215 560.016 463.512 560.433 462.872L563.049 458.61C563.465 457.928 564.044 457.395 564.762 457.012C565.48 456.628 566.267 456.415 567.1 456.415H572.008L574.601 452.195C575.018 451.513 575.596 450.98 576.314 450.597C577.032 450.213 577.819 450 578.652 450H583.63C584.486 450 585.25 450.192 585.968 450.597C586.686 450.98 587.241 451.513 587.681 452.195L590.297 456.415H595.205C596.062 456.415 596.826 456.607 597.543 457.012C598.261 457.395 598.816 457.928 599.256 458.61L601.849 462.872C602.266 463.512 602.474 464.194 602.474 464.961C602.474 465.728 602.266 466.41 601.849 467.05L599.187 471.355L601.849 475.681C602.266 476.32 602.474 477.002 602.474 477.748C602.474 478.494 602.266 479.197 601.849 479.837L599.256 484.099C598.84 484.781 598.261 485.314 597.543 485.698C596.826 486.081 596.038 486.273 595.205 486.273H590.297L587.681 490.493C587.264 491.175 586.686 491.708 585.968 492.091C585.25 492.475 584.463 492.667 583.63 492.667H578.652C577.796 492.667 577.032 492.475 576.314 492.091C575.596 491.708 575.041 491.175 574.601 490.493L572.008 486.273ZM590.297 469.223H595.274L597.821 464.961L595.274 460.699H590.297L587.681 464.961L590.297 469.223ZM578.722 475.617H583.583L586.176 471.355L583.583 467.092H578.722L576.129 471.355L578.722 475.617ZM578.722 462.83H583.583L586.246 458.503L583.653 454.305H578.675L576.083 458.503L578.745 462.83H578.722ZM574.624 464.961L572.031 460.699H567.123L564.53 464.961L567.123 469.223H572.031L574.624 464.961ZM574.624 477.748L572.031 473.486H567.054L564.507 477.748L567.1 482.011H572.008L574.601 477.748H574.624ZM578.722 479.879L576.059 484.184L578.652 488.404H583.63L586.223 484.184L583.56 479.879H578.699H578.722ZM590.297 482.011H595.205L597.798 477.748L595.205 473.486H590.297L587.681 477.748L590.297 482.011Z" fill="url(#paint21_linear_6051_1636)"/>
<path d="M542.014 529.109H537.106C536.249 529.109 535.485 528.918 534.768 528.534C534.05 528.15 533.494 527.618 533.055 526.936L530.439 522.673C530.022 522.034 529.813 521.352 529.813 520.585C529.813 519.817 530.022 519.157 530.439 518.517L533.101 514.191L530.439 509.886C530.022 509.247 529.813 508.543 529.813 507.797C529.813 507.051 530.022 506.348 530.439 505.709L533.055 501.446C533.471 500.764 534.05 500.232 534.768 499.848C535.485 499.464 536.273 499.251 537.106 499.251H542.014L544.607 495.031C545.023 494.349 545.602 493.817 546.32 493.433C547.038 493.049 547.825 492.836 548.658 492.836H553.636C554.492 492.836 555.256 493.028 555.974 493.433C556.691 493.817 557.247 494.349 557.687 495.031L560.303 499.251H565.211C566.067 499.251 566.831 499.443 567.549 499.848C568.267 500.232 568.822 500.764 569.262 501.446L571.855 505.709C572.272 506.348 572.48 507.03 572.48 507.797C572.48 508.565 572.272 509.247 571.855 509.886L569.193 514.191L571.855 518.517C572.272 519.157 572.48 519.839 572.48 520.585C572.48 521.33 572.272 522.034 571.855 522.673L569.262 526.936C568.845 527.618 568.267 528.15 567.549 528.534C566.831 528.918 566.044 529.109 565.211 529.109H560.303L557.687 533.329C557.27 534.011 556.691 534.544 555.974 534.928C555.256 535.311 554.469 535.503 553.636 535.503H548.658C547.802 535.503 547.038 535.311 546.32 534.928C545.602 534.544 545.047 534.011 544.607 533.329L542.014 529.109ZM560.303 512.06H565.28L567.827 507.797L565.28 503.535H560.303L557.687 507.797L560.303 512.06ZM548.728 518.453H553.589L556.182 514.191L553.589 509.929H548.728L546.135 514.191L548.728 518.453ZM548.728 505.666H553.589L556.252 501.34L553.659 497.141H548.681L546.088 501.34L548.751 505.666H548.728ZM544.63 507.797L542.037 503.535H537.129L534.536 507.797L537.129 512.06H542.037L544.63 507.797ZM544.63 520.585L542.037 516.322H537.06L534.513 520.585L537.106 524.847H542.014L544.607 520.585H544.63ZM548.728 522.716L546.065 527.021L548.658 531.241H553.636L556.228 527.021L553.566 522.716H548.704H548.728ZM560.303 524.847H565.211L567.804 520.585L565.211 516.322H560.303L557.687 520.585L560.303 524.847Z" fill="url(#paint22_linear_6051_1636)"/>
<path d="M505.036 566.086H500.128C499.272 566.086 498.508 565.895 497.79 565.511C497.073 565.127 496.517 564.595 496.077 563.913L493.461 559.65C493.044 559.011 492.836 558.329 492.836 557.562C492.836 556.794 493.044 556.134 493.461 555.494L496.123 551.168L493.461 546.863C493.044 546.224 492.836 545.52 492.836 544.774C492.836 544.028 493.044 543.325 493.461 542.686L496.077 538.423C496.494 537.741 497.073 537.209 497.79 536.825C498.508 536.441 499.295 536.228 500.128 536.228H505.036L507.629 532.008C508.046 531.327 508.625 530.794 509.342 530.41C510.06 530.026 510.847 529.813 511.681 529.813H516.658C517.515 529.813 518.279 530.005 518.996 530.41C519.714 530.794 520.269 531.327 520.709 532.008L523.325 536.228H528.233C529.09 536.228 529.854 536.42 530.572 536.825C531.289 537.209 531.845 537.741 532.285 538.423L534.878 542.686C535.294 543.325 535.503 544.007 535.503 544.774C535.503 545.542 535.294 546.224 534.878 546.863L532.215 551.168L534.878 555.494C535.294 556.134 535.503 556.816 535.503 557.562C535.503 558.308 535.294 559.011 534.878 559.65L532.285 563.913C531.868 564.595 531.289 565.127 530.572 565.511C529.854 565.895 529.067 566.086 528.233 566.086H523.325L520.709 570.306C520.293 570.988 519.714 571.521 518.996 571.905C518.279 572.288 517.491 572.48 516.658 572.48H511.681C510.824 572.48 510.06 572.288 509.342 571.905C508.625 571.521 508.069 570.988 507.629 570.306L505.036 566.086ZM523.325 549.037H528.303L530.849 544.774L528.303 540.512H523.325L520.709 544.774L523.325 549.037ZM511.75 555.43H516.612L519.205 551.168L516.612 546.906H511.75L509.157 551.168L511.75 555.43ZM511.75 542.643H516.612L519.274 538.317L516.681 534.118H511.704L509.111 538.317L511.773 542.643H511.75ZM507.652 544.774L505.059 540.512H500.152L497.559 544.774L500.152 549.037H505.059L507.652 544.774ZM507.652 557.562L505.059 553.299H500.082L497.536 557.562L500.128 561.824H505.036L507.629 557.562H507.652ZM511.75 559.693L509.088 563.998L511.681 568.218H516.658L519.251 563.998L516.589 559.693H511.727H511.75ZM523.325 561.824H528.233L530.826 557.562L528.233 553.299H523.325L520.709 557.562L523.325 561.824Z" fill="url(#paint23_linear_6051_1636)"/>
<path d="M462.2 596.081H457.292C456.436 596.081 455.672 595.889 454.954 595.505C454.237 595.122 453.681 594.589 453.241 593.907L450.625 589.644C450.208 589.005 450 588.323 450 587.556C450 586.789 450.208 586.128 450.625 585.489L453.287 581.162L450.625 576.857C450.208 576.218 450 575.515 450 574.769C450 574.023 450.208 573.319 450.625 572.68L453.241 568.418C453.658 567.736 454.237 567.203 454.954 566.819C455.672 566.436 456.459 566.223 457.292 566.223H462.2L464.793 562.003C465.21 561.321 465.789 560.788 466.506 560.404C467.224 560.021 468.011 559.808 468.845 559.808H473.822C474.679 559.808 475.443 559.999 476.16 560.404C476.878 560.788 477.434 561.321 477.873 562.003L480.489 566.223H485.397C486.254 566.223 487.018 566.414 487.736 566.819C488.453 567.203 489.009 567.736 489.449 568.418L492.042 572.68C492.458 573.319 492.667 574.001 492.667 574.769C492.667 575.536 492.458 576.218 492.042 576.857L489.379 581.162L492.042 585.489C492.458 586.128 492.667 586.81 492.667 587.556C492.667 588.302 492.458 589.005 492.042 589.644L489.449 593.907C489.032 594.589 488.453 595.122 487.736 595.505C487.018 595.889 486.231 596.081 485.397 596.081H480.489L477.873 600.3C477.457 600.982 476.878 601.515 476.16 601.899C475.443 602.282 474.655 602.474 473.822 602.474H468.845C467.988 602.474 467.224 602.282 466.506 601.899C465.789 601.515 465.233 600.982 464.793 600.3L462.2 596.081ZM480.489 579.031H485.467L488.013 574.769L485.467 570.506H480.489L477.873 574.769L480.489 579.031ZM468.914 585.425H473.776L476.369 581.162L473.776 576.9H468.914L466.321 581.162L468.914 585.425ZM468.914 572.637H473.776L476.438 568.311L473.845 564.113H468.868L466.275 568.311L468.937 572.637H468.914ZM464.816 574.769L462.224 570.506H457.316L454.723 574.769L457.316 579.031H462.224L464.816 574.769ZM464.816 587.556L462.224 583.293H457.246L454.7 587.556L457.292 591.818H462.2L464.793 587.556H464.816ZM468.914 589.687L466.252 593.992L468.845 598.212H473.822L476.415 593.992L473.753 589.687H468.891H468.914ZM480.489 591.818H485.397L487.99 587.556L485.397 583.293H480.489L477.873 587.556L480.489 591.818Z" fill="url(#paint24_linear_6051_1636)"/>
<path d="M414.807 618.181H409.899C409.042 618.181 408.278 617.989 407.561 617.605C406.843 617.222 406.287 616.689 405.848 616.007L403.232 611.745C402.815 611.105 402.606 610.423 402.606 609.656C402.606 608.889 402.815 608.228 403.232 607.589L405.894 603.262L403.232 598.957C402.815 598.318 402.606 597.615 402.606 596.869C402.606 596.123 402.815 595.42 403.232 594.78L405.848 590.518C406.264 589.836 406.843 589.303 407.561 588.919C408.278 588.536 409.065 588.323 409.899 588.323H414.807L417.4 584.103C417.816 583.421 418.395 582.888 419.113 582.504C419.831 582.121 420.618 581.908 421.451 581.908H426.428C427.285 581.908 428.049 582.1 428.767 582.504C429.484 582.888 430.04 583.421 430.48 584.103L433.096 588.323H438.004C438.86 588.323 439.624 588.514 440.342 588.919C441.06 589.303 441.615 589.836 442.055 590.518L444.648 594.78C445.065 595.42 445.273 596.102 445.273 596.869C445.273 597.636 445.065 598.318 444.648 598.957L441.986 603.262L444.648 607.589C445.065 608.228 445.273 608.91 445.273 609.656C445.273 610.402 445.065 611.105 444.648 611.745L442.055 616.007C441.638 616.689 441.06 617.222 440.342 617.605C439.624 617.989 438.837 618.181 438.004 618.181H433.096L430.48 622.401C430.063 623.083 429.484 623.615 428.767 623.999C428.049 624.383 427.262 624.574 426.428 624.574H421.451C420.595 624.574 419.831 624.383 419.113 623.999C418.395 623.615 417.84 623.083 417.4 622.401L414.807 618.181ZM433.096 601.131H438.073L440.62 596.869L438.073 592.606H433.096L430.48 596.869L433.096 601.131ZM421.521 607.525H426.382L428.975 603.262L426.382 599H421.521L418.928 603.262L421.521 607.525ZM421.521 594.738H426.382L429.044 590.411L426.452 586.213H421.474L418.881 590.411L421.544 594.738H421.521ZM417.423 596.869L414.83 592.606H409.922L407.329 596.869L409.922 601.131H414.83L417.423 596.869ZM417.423 609.656L414.83 605.394H409.853L407.306 609.656L409.899 613.918H414.807L417.4 609.656H417.423ZM421.521 611.787L418.858 616.092L421.451 620.312H426.428L429.021 616.092L426.359 611.787H421.497H421.521ZM433.096 613.918H438.004L440.597 609.656L438.004 605.394H433.096L430.48 609.656L433.096 613.918Z" fill="url(#paint25_linear_6051_1636)"/>
<path d="M364.295 631.715H359.387C358.531 631.715 357.767 631.524 357.049 631.14C356.331 630.756 355.776 630.224 355.336 629.542L352.72 625.279C352.303 624.64 352.095 623.958 352.095 623.191C352.095 622.423 352.303 621.763 352.72 621.123L355.382 616.797L352.72 612.492C352.303 611.853 352.095 611.149 352.095 610.403C352.095 609.658 352.303 608.954 352.72 608.315L355.336 604.052C355.753 603.37 356.331 602.838 357.049 602.454C357.767 602.07 358.554 601.857 359.387 601.857H364.295L366.888 597.638C367.305 596.956 367.883 596.423 368.601 596.039C369.319 595.656 370.106 595.442 370.939 595.442H375.917C376.773 595.442 377.537 595.634 378.255 596.039C378.973 596.423 379.528 596.956 379.968 597.638L382.584 601.857H387.492C388.349 601.857 389.113 602.049 389.83 602.454C390.548 602.838 391.104 603.37 391.543 604.052L394.136 608.315C394.553 608.954 394.761 609.636 394.761 610.403C394.761 611.171 394.553 611.853 394.136 612.492L391.474 616.797L394.136 621.123C394.553 621.763 394.761 622.445 394.761 623.191C394.761 623.937 394.553 624.64 394.136 625.279L391.543 629.542C391.127 630.224 390.548 630.756 389.83 631.14C389.113 631.524 388.326 631.715 387.492 631.715H382.584L379.968 635.935C379.551 636.617 378.973 637.15 378.255 637.534C377.537 637.917 376.75 638.109 375.917 638.109H370.939C370.083 638.109 369.319 637.917 368.601 637.534C367.883 637.15 367.328 636.617 366.888 635.935L364.295 631.715ZM382.584 614.666H387.562L390.108 610.403L387.562 606.141H382.584L379.968 610.403L382.584 614.666ZM371.009 621.059H375.87L378.463 616.797L375.87 612.535H371.009L368.416 616.797L371.009 621.059ZM371.009 608.272H375.87L378.533 603.946L375.94 599.747H370.963L368.37 603.946L371.032 608.272H371.009ZM366.911 610.403L364.318 606.141H359.41L356.817 610.403L359.41 614.666H364.318L366.911 610.403ZM366.911 623.191L364.318 618.928H359.341L356.794 623.191L359.387 627.453H364.295L366.888 623.191H366.911ZM371.009 625.322L368.346 629.627L370.939 633.847H375.917L378.51 629.627L375.847 625.322H370.986H371.009ZM382.584 627.453H387.492L390.085 623.191L387.492 618.928H382.584L379.968 623.191L382.584 627.453Z" fill="url(#paint26_linear_6051_1636)"/>
<path d="M312.2 636.273H307.292C306.436 636.273 305.672 636.081 304.954 635.698C304.237 635.314 303.681 634.781 303.241 634.099L300.625 629.837C300.208 629.197 300 628.515 300 627.748C300 626.981 300.208 626.32 300.625 625.681L303.287 621.355L300.625 617.05C300.208 616.41 300 615.707 300 614.961C300 614.215 300.208 613.512 300.625 612.872L303.241 608.61C303.658 607.928 304.237 607.395 304.954 607.012C305.672 606.628 306.459 606.415 307.292 606.415H312.2L314.793 602.195C315.21 601.513 315.789 600.98 316.506 600.597C317.224 600.213 318.011 600 318.845 600H323.822C324.679 600 325.443 600.192 326.16 600.597C326.878 600.98 327.434 601.513 327.873 602.195L330.489 606.415H335.397C336.254 606.415 337.018 606.607 337.736 607.012C338.453 607.395 339.009 607.928 339.449 608.61L342.042 612.872C342.458 613.512 342.667 614.194 342.667 614.961C342.667 615.728 342.458 616.41 342.042 617.05L339.379 621.355L342.042 625.681C342.458 626.32 342.667 627.002 342.667 627.748C342.667 628.494 342.458 629.197 342.042 629.837L339.449 634.099C339.032 634.781 338.453 635.314 337.736 635.698C337.018 636.081 336.231 636.273 335.397 636.273H330.489L327.873 640.493C327.457 641.175 326.878 641.708 326.16 642.091C325.443 642.475 324.655 642.667 323.822 642.667H318.845C317.988 642.667 317.224 642.475 316.506 642.091C315.789 641.708 315.233 641.175 314.793 640.493L312.2 636.273ZM330.489 619.223H335.467L338.013 614.961L335.467 610.699H330.489L327.873 614.961L330.489 619.223ZM318.914 625.617H323.776L326.369 621.355L323.776 617.092H318.914L316.321 621.355L318.914 625.617ZM318.914 612.83H323.776L326.438 608.503L323.845 604.305H318.868L316.275 608.503L318.937 612.83H318.914ZM314.816 614.961L312.224 610.699H307.316L304.723 614.961L307.316 619.223H312.224L314.816 614.961ZM314.816 627.748L312.224 623.486H307.246L304.7 627.748L307.292 632.011H312.2L314.793 627.748H314.816ZM318.914 629.879L316.252 634.184L318.845 638.404H323.822L326.415 634.184L323.753 629.879H318.891H318.914ZM330.489 632.011H335.397L337.99 627.748L335.397 623.486H330.489L327.873 627.748L330.489 632.011Z" fill="url(#paint27_linear_6051_1636)"/>
<path d="M260.106 631.715H255.198C254.341 631.715 253.577 631.524 252.86 631.14C252.142 630.756 251.586 630.224 251.146 629.542L248.53 625.279C248.114 624.64 247.905 623.958 247.905 623.191C247.905 622.423 248.114 621.763 248.53 621.123L251.193 616.797L248.53 612.492C248.114 611.853 247.905 611.149 247.905 610.403C247.905 609.658 248.114 608.954 248.53 608.315L251.146 604.052C251.563 603.37 252.142 602.838 252.86 602.454C253.577 602.07 254.364 601.857 255.198 601.857H260.106L262.699 597.638C263.115 596.956 263.694 596.423 264.412 596.039C265.129 595.656 265.916 595.442 266.75 595.442H271.727C272.584 595.442 273.348 595.634 274.066 596.039C274.783 596.423 275.339 596.956 275.779 597.638L278.395 601.857H283.303C284.159 601.857 284.923 602.049 285.641 602.454C286.359 602.838 286.914 603.37 287.354 604.052L289.947 608.315C290.364 608.954 290.572 609.636 290.572 610.403C290.572 611.171 290.364 611.853 289.947 612.492L287.285 616.797L289.947 621.123C290.364 621.763 290.572 622.445 290.572 623.191C290.572 623.937 290.364 624.64 289.947 625.279L287.354 629.542C286.937 630.224 286.359 630.756 285.641 631.14C284.923 631.524 284.136 631.715 283.303 631.715H278.395L275.779 635.935C275.362 636.617 274.783 637.15 274.066 637.534C273.348 637.917 272.561 638.109 271.727 638.109H266.75C265.893 638.109 265.129 637.917 264.412 637.534C263.694 637.15 263.138 636.617 262.699 635.935L260.106 631.715ZM278.395 614.666H283.372L285.919 610.403L283.372 606.141H278.395L275.779 610.403L278.395 614.666ZM266.819 621.059H271.681L274.274 616.797L271.681 612.535H266.819L264.226 616.797L266.819 621.059ZM266.819 608.272H271.681L274.343 603.946L271.75 599.747H266.773L264.18 603.946L266.843 608.272H266.819ZM262.722 610.403L260.129 606.141H255.221L252.628 610.403L255.221 614.666H260.129L262.722 610.403ZM262.722 623.191L260.129 618.928H255.151L252.605 623.191L255.198 627.453H260.106L262.699 623.191H262.722ZM266.819 625.322L264.157 629.627L266.75 633.847H271.727L274.32 629.627L271.658 625.322H266.796H266.819ZM278.395 627.453H283.303L285.896 623.191L283.303 618.928H278.395L275.779 623.191L278.395 627.453Z" fill="url(#paint28_linear_6051_1636)"/>
<path d="M209.594 618.181H204.686C203.829 618.181 203.065 617.989 202.348 617.605C201.63 617.222 201.075 616.689 200.635 616.007L198.019 611.745C197.602 611.105 197.394 610.423 197.394 609.656C197.394 608.889 197.602 608.228 198.019 607.589L200.681 603.262L198.019 598.957C197.602 598.318 197.394 597.615 197.394 596.869C197.394 596.123 197.602 595.42 198.019 594.78L200.635 590.518C201.051 589.836 201.63 589.303 202.348 588.919C203.065 588.536 203.853 588.323 204.686 588.323H209.594L212.187 584.103C212.604 583.421 213.182 582.888 213.9 582.504C214.618 582.121 215.405 581.908 216.238 581.908H221.216C222.072 581.908 222.836 582.1 223.554 582.504C224.271 582.888 224.827 583.421 225.267 584.103L227.883 588.323H232.791C233.647 588.323 234.411 588.514 235.129 588.919C235.847 589.303 236.402 589.836 236.842 590.518L239.435 594.78C239.852 595.42 240.06 596.102 240.06 596.869C240.06 597.636 239.852 598.318 239.435 598.957L236.773 603.262L239.435 607.589C239.852 608.228 240.06 608.91 240.06 609.656C240.06 610.402 239.852 611.105 239.435 611.745L236.842 616.007C236.426 616.689 235.847 617.222 235.129 617.605C234.411 617.989 233.624 618.181 232.791 618.181H227.883L225.267 622.401C224.85 623.083 224.271 623.615 223.554 623.999C222.836 624.383 222.049 624.574 221.216 624.574H216.238C215.382 624.574 214.618 624.383 213.9 623.999C213.182 623.615 212.627 623.083 212.187 622.401L209.594 618.181ZM227.883 601.131H232.86L235.407 596.869L232.86 592.606H227.883L225.267 596.869L227.883 601.131ZM216.308 607.525H221.169L223.762 603.262L221.169 599H216.308L213.715 603.262L216.308 607.525ZM216.308 594.738H221.169L223.832 590.411L221.239 586.213H216.261L213.668 590.411L216.331 594.738H216.308ZM212.21 596.869L209.617 592.606H204.709L202.116 596.869L204.709 601.131H209.617L212.21 596.869ZM212.21 609.656L209.617 605.394H204.64L202.093 609.656L204.686 613.918H209.594L212.187 609.656H212.21ZM216.308 611.787L213.645 616.092L216.238 620.312H221.216L223.808 616.092L221.146 611.787H216.284H216.308ZM227.883 613.918H232.791L235.384 609.656L232.791 605.394H227.883L225.267 609.656L227.883 613.918Z" fill="url(#paint29_linear_6051_1636)"/>
<path d="M162.2 596.081H157.292C156.436 596.081 155.672 595.889 154.954 595.505C154.237 595.122 153.681 594.589 153.241 593.907L150.625 589.644C150.208 589.005 150 588.323 150 587.556C150 586.789 150.208 586.128 150.625 585.489L153.287 581.162L150.625 576.857C150.208 576.218 150 575.515 150 574.769C150 574.023 150.208 573.319 150.625 572.68L153.241 568.418C153.658 567.736 154.237 567.203 154.954 566.819C155.672 566.436 156.459 566.223 157.292 566.223H162.2L164.793 562.003C165.21 561.321 165.789 560.788 166.506 560.404C167.224 560.021 168.011 559.808 168.845 559.808H173.822C174.679 559.808 175.443 559.999 176.16 560.404C176.878 560.788 177.434 561.321 177.873 562.003L180.489 566.223H185.397C186.254 566.223 187.018 566.414 187.736 566.819C188.453 567.203 189.009 567.736 189.449 568.418L192.042 572.68C192.458 573.319 192.667 574.001 192.667 574.769C192.667 575.536 192.458 576.218 192.042 576.857L189.379 581.162L192.042 585.489C192.458 586.128 192.667 586.81 192.667 587.556C192.667 588.302 192.458 589.005 192.042 589.644L189.449 593.907C189.032 594.589 188.453 595.122 187.736 595.505C187.018 595.889 186.231 596.081 185.397 596.081H180.489L177.873 600.3C177.457 600.982 176.878 601.515 176.16 601.899C175.443 602.282 174.655 602.474 173.822 602.474H168.845C167.988 602.474 167.224 602.282 166.506 601.899C165.789 601.515 165.233 600.982 164.793 600.3L162.2 596.081ZM180.489 579.031H185.467L188.013 574.769L185.467 570.506H180.489L177.873 574.769L180.489 579.031ZM168.914 585.425H173.776L176.369 581.162L173.776 576.9H168.914L166.321 581.162L168.914 585.425ZM168.914 572.637H173.776L176.438 568.311L173.845 564.113H168.868L166.275 568.311L168.937 572.637H168.914ZM164.816 574.769L162.224 570.506H157.316L154.723 574.769L157.316 579.031H162.224L164.816 574.769ZM164.816 587.556L162.224 583.293H157.246L154.7 587.556L157.292 591.818H162.2L164.793 587.556H164.816ZM168.914 589.687L166.252 593.992L168.845 598.212H173.822L176.415 593.992L173.753 589.687H168.891H168.914ZM180.489 591.818H185.397L187.99 587.556L185.397 583.293H180.489L177.873 587.556L180.489 591.818Z" fill="url(#paint30_linear_6051_1636)"/>
<path d="M119.364 566.086H114.457C113.6 566.086 112.836 565.895 112.118 565.511C111.401 565.127 110.845 564.595 110.405 563.913L107.789 559.65C107.372 559.011 107.164 558.329 107.164 557.562C107.164 556.794 107.372 556.134 107.789 555.494L110.451 551.168L107.789 546.863C107.372 546.224 107.164 545.52 107.164 544.774C107.164 544.028 107.372 543.325 107.789 542.686L110.405 538.423C110.822 537.741 111.401 537.209 112.118 536.825C112.836 536.441 113.623 536.228 114.457 536.228H119.364L121.957 532.008C122.374 531.327 122.953 530.794 123.67 530.41C124.388 530.026 125.175 529.813 126.009 529.813H130.986C131.843 529.813 132.607 530.005 133.324 530.41C134.042 530.794 134.598 531.327 135.037 532.008L137.653 536.228H142.561C143.418 536.228 144.182 536.42 144.9 536.825C145.617 537.209 146.173 537.741 146.613 538.423L149.206 542.686C149.622 543.325 149.831 544.007 149.831 544.774C149.831 545.542 149.622 546.224 149.206 546.863L146.543 551.168L149.206 555.494C149.622 556.134 149.831 556.816 149.831 557.562C149.831 558.308 149.622 559.011 149.206 559.65L146.613 563.913C146.196 564.595 145.617 565.127 144.9 565.511C144.182 565.895 143.395 566.086 142.561 566.086H137.653L135.037 570.306C134.621 570.988 134.042 571.521 133.324 571.905C132.607 572.288 131.82 572.48 130.986 572.48H126.009C125.152 572.48 124.388 572.288 123.67 571.905C122.953 571.521 122.397 570.988 121.957 570.306L119.364 566.086ZM137.653 549.037H142.631L145.177 544.774L142.631 540.512H137.653L135.037 544.774L137.653 549.037ZM126.078 555.43H130.94L133.533 551.168L130.94 546.906H126.078L123.485 551.168L126.078 555.43ZM126.078 542.643H130.94L133.602 538.317L131.009 534.118H126.032L123.439 538.317L126.101 542.643H126.078ZM121.98 544.774L119.388 540.512H114.48L111.887 544.774L114.48 549.037H119.388L121.98 544.774ZM121.98 557.562L119.388 553.299H114.41L111.864 557.562L114.457 561.824H119.364L121.957 557.562H121.98ZM126.078 559.693L123.416 563.998L126.009 568.218H130.986L133.579 563.998L130.917 559.693H126.055H126.078ZM137.653 561.824H142.561L145.154 557.562L142.561 553.299H137.653L135.037 557.562L137.653 561.824Z" fill="url(#paint31_linear_6051_1636)"/>
<path d="M82.3869 529.109H77.479C76.6224 529.109 75.8584 528.918 75.1408 528.534C74.4231 528.15 73.8675 527.618 73.4276 526.936L70.8116 522.673C70.3949 522.034 70.1865 521.352 70.1865 520.585C70.1865 519.817 70.3949 519.157 70.8116 518.517L73.4739 514.191L70.8116 509.886C70.3949 509.247 70.1865 508.543 70.1865 507.797C70.1865 507.051 70.3949 506.348 70.8116 505.709L73.4276 501.446C73.8443 500.764 74.4231 500.232 75.1408 499.848C75.8584 499.464 76.6456 499.251 77.479 499.251H82.3869L84.9798 495.031C85.3965 494.349 85.9753 493.817 86.6929 493.433C87.4106 493.049 88.1977 492.836 89.0312 492.836H94.0086C94.8651 492.836 95.6291 493.028 96.3468 493.433C97.0644 493.817 97.6201 494.349 98.0599 495.031L100.676 499.251H105.584C106.44 499.251 107.204 499.443 107.922 499.848C108.64 500.232 109.195 500.764 109.635 501.446L112.228 505.709C112.645 506.348 112.853 507.03 112.853 507.797C112.853 508.565 112.645 509.247 112.228 509.886L109.566 514.191L112.228 518.517C112.645 519.157 112.853 519.839 112.853 520.585C112.853 521.33 112.645 522.034 112.228 522.673L109.635 526.936C109.219 527.618 108.64 528.15 107.922 528.534C107.204 528.918 106.417 529.109 105.584 529.109H100.676L98.0599 533.329C97.6432 534.011 97.0644 534.544 96.3468 534.928C95.6291 535.311 94.842 535.503 94.0086 535.503H89.0312C88.1746 535.503 87.4106 535.311 86.6929 534.928C85.9753 534.544 85.4197 534.011 84.9798 533.329L82.3869 529.109ZM100.676 512.06H105.653L108.2 507.797L105.653 503.535H100.676L98.0599 507.797L100.676 512.06ZM89.1006 518.453H93.9623L96.5551 514.191L93.9623 509.929H89.1006L86.5077 514.191L89.1006 518.453ZM89.1006 505.666H93.9623L96.6246 501.34L94.0317 497.141H89.0543L86.4614 501.34L89.1238 505.666H89.1006ZM85.0029 507.797L82.4101 503.535H77.5021L74.9093 507.797L77.5021 512.06H82.4101L85.0029 507.797ZM85.0029 520.585L82.4101 516.322H77.4327L74.8861 520.585L77.479 524.847H82.3869L84.9798 520.585H85.0029ZM89.1006 522.716L86.4383 527.021L89.0312 531.241H94.0086L96.6014 527.021L93.9391 522.716H89.0775H89.1006ZM100.676 524.847H105.584L108.177 520.585L105.584 516.322H100.676L98.0599 520.585L100.676 524.847Z" fill="url(#paint32_linear_6051_1636)"/>
<path d="M52.3928 486.273H47.4848C46.6283 486.273 45.8643 486.081 45.1466 485.698C44.429 485.314 43.8733 484.781 43.4335 484.099L40.8175 479.837C40.4007 479.197 40.1924 478.515 40.1924 477.748C40.1924 476.981 40.4007 476.32 40.8175 475.681L43.4798 471.355L40.8175 467.05C40.4007 466.41 40.1924 465.707 40.1924 464.961C40.1924 464.215 40.4007 463.512 40.8175 462.872L43.4335 458.61C43.8502 457.928 44.429 457.395 45.1466 457.012C45.8643 456.628 46.6514 456.415 47.4848 456.415H52.3928L54.9857 452.195C55.4024 451.513 55.9811 450.98 56.6988 450.597C57.4165 450.213 58.2036 450 59.037 450H64.0144C64.871 450 65.635 450.192 66.3526 450.597C67.0703 450.98 67.6259 451.513 68.0658 452.195L70.6818 456.415H75.5897C76.4463 456.415 77.2103 456.607 77.928 457.012C78.6456 457.395 79.2012 457.928 79.6411 458.61L82.234 462.872C82.6507 463.512 82.8591 464.194 82.8591 464.961C82.8591 465.728 82.6507 466.41 82.234 467.05L79.5717 471.355L82.234 475.681C82.6507 476.32 82.8591 477.002 82.8591 477.748C82.8591 478.494 82.6507 479.197 82.234 479.837L79.6411 484.099C79.2244 484.781 78.6456 485.314 77.928 485.698C77.2103 486.081 76.4232 486.273 75.5897 486.273H70.6818L68.0658 490.493C67.6491 491.175 67.0703 491.708 66.3526 492.091C65.635 492.475 64.8478 492.667 64.0144 492.667H59.037C58.1804 492.667 57.4165 492.475 56.6988 492.091C55.9811 491.708 55.4255 491.175 54.9857 490.493L52.3928 486.273ZM70.6818 469.223H75.6592L78.2058 464.961L75.6592 460.699H70.6818L68.0658 464.961L70.6818 469.223ZM59.1065 475.617H63.9681L66.561 471.355L63.9681 467.092H59.1065L56.5136 471.355L59.1065 475.617ZM59.1065 462.83H63.9681L66.6304 458.503L64.0376 454.305H59.0602L56.4673 458.503L59.1296 462.83H59.1065ZM55.0088 464.961L52.4159 460.699H47.508L44.9151 464.961L47.508 469.223H52.4159L55.0088 464.961ZM55.0088 477.748L52.4159 473.486H47.4385L44.892 477.748L47.4848 482.011H52.3928L54.9857 477.748H55.0088ZM59.1065 479.879L56.4441 484.184L59.037 488.404H64.0144L66.6073 484.184L63.945 479.879H59.0833H59.1065ZM70.6818 482.011H75.5897L78.1826 477.748L75.5897 473.486H70.6818L68.0658 477.748L70.6818 482.011Z" fill="url(#paint33_linear_6051_1636)"/>
<path d="M30.2922 438.879H25.3843C24.5277 438.879 23.7637 438.687 23.046 438.304C22.3284 437.92 21.7728 437.387 21.3329 436.705L18.7169 432.443C18.3002 431.803 18.0918 431.122 18.0918 430.354C18.0918 429.587 18.3002 428.926 18.7169 428.287L21.3792 423.961L18.7169 419.656C18.3002 419.016 18.0918 418.313 18.0918 417.567C18.0918 416.821 18.3002 416.118 18.7169 415.478L21.3329 411.216C21.7496 410.534 22.3284 410.001 23.046 409.618C23.7637 409.234 24.5508 409.021 25.3843 409.021H30.2922L32.8851 404.801C33.3018 404.119 33.8805 403.586 34.5982 403.203C35.3159 402.819 36.103 402.606 36.9364 402.606H41.9138C42.7704 402.606 43.5344 402.798 44.252 403.203C44.9697 403.586 45.5253 404.119 45.9652 404.801L48.5812 409.021H53.4892C54.3457 409.021 55.1097 409.213 55.8274 409.618C56.545 410.001 57.1007 410.534 57.5405 411.216L60.1334 415.478C60.5501 416.118 60.7585 416.8 60.7585 417.567C60.7585 418.334 60.5501 419.016 60.1334 419.656L57.4711 423.961L60.1334 428.287C60.5501 428.926 60.7585 429.608 60.7585 430.354C60.7585 431.1 60.5501 431.803 60.1334 432.443L57.5405 436.705C57.1238 437.387 56.545 437.92 55.8274 438.304C55.1097 438.687 54.3226 438.879 53.4892 438.879H48.5812L45.9652 443.099C45.5485 443.781 44.9697 444.314 44.252 444.697C43.5344 445.081 42.7472 445.273 41.9138 445.273H36.9364C36.0799 445.273 35.3159 445.081 34.5982 444.697C33.8805 444.314 33.3249 443.781 32.8851 443.099L30.2922 438.879ZM48.5812 421.829H53.5586L56.1052 417.567L53.5586 413.305H48.5812L45.9652 417.567L48.5812 421.829ZM37.0059 428.223H41.8675L44.4604 423.961L41.8675 419.698H37.0059L34.413 423.961L37.0059 428.223ZM37.0059 415.436H41.8675L44.5299 411.11L41.937 406.911H36.9596L34.3667 411.11L37.029 415.436H37.0059ZM32.9082 417.567L30.3153 413.305H25.4074L22.8145 417.567L25.4074 421.829H30.3153L32.9082 417.567ZM32.9082 430.354L30.3153 426.092H25.338L22.7914 430.354L25.3843 434.617H30.2922L32.8851 430.354H32.9082ZM37.0059 432.485L34.3436 436.791L36.9364 441.01H41.9138L44.5067 436.791L41.8444 432.485H36.9827H37.0059ZM48.5812 434.617H53.4892L56.082 430.354L53.4892 426.092H48.5812L45.9652 430.354L48.5812 434.617Z" fill="url(#paint34_linear_6051_1636)"/>
<path d="M16.758 388.368H11.8501C10.9935 388.368 10.2295 388.176 9.51186 387.792C8.79419 387.409 8.23857 386.876 7.79871 386.194L5.18269 381.931C4.76597 381.292 4.55762 380.61 4.55762 379.843C4.55762 379.076 4.76597 378.415 5.18269 377.775L7.84501 373.449L5.18269 369.144C4.76597 368.505 4.55762 367.801 4.55762 367.056C4.55762 366.31 4.76597 365.606 5.18269 364.967L7.79871 360.705C8.21542 360.023 8.79419 359.49 9.51186 359.106C10.2295 358.723 11.0167 358.509 11.8501 358.509H16.758L19.3509 354.29C19.7676 353.608 20.3464 353.075 21.064 352.691C21.7817 352.308 22.5688 352.094 23.4023 352.094H28.3796C29.2362 352.094 30.0002 352.286 30.7179 352.691C31.4355 353.075 31.9911 353.608 32.431 354.29L35.047 358.509H39.955C40.8116 358.509 41.5755 358.701 42.2932 359.106C43.0109 359.49 43.5665 360.023 44.0063 360.705L46.5992 364.967C47.0159 365.606 47.2243 366.288 47.2243 367.056C47.2243 367.823 47.0159 368.505 46.5992 369.144L43.9369 373.449L46.5992 377.775C47.0159 378.415 47.2243 379.097 47.2243 379.843C47.2243 380.589 47.0159 381.292 46.5992 381.931L44.0063 386.194C43.5896 386.876 43.0109 387.409 42.2932 387.792C41.5755 388.176 40.7884 388.368 39.955 388.368H35.047L32.431 392.587C32.0143 393.269 31.4355 393.802 30.7179 394.186C30.0002 394.569 29.2131 394.761 28.3796 394.761H23.4023C22.5457 394.761 21.7817 394.569 21.064 394.186C20.3464 393.802 19.7908 393.269 19.3509 392.587L16.758 388.368ZM35.047 371.318H40.0244L42.571 367.056L40.0244 362.793H35.047L32.431 367.056L35.047 371.318ZM23.4717 377.712H28.3333L30.9262 373.449L28.3333 369.187H23.4717L20.8788 373.449L23.4717 377.712ZM23.4717 364.924H28.3333L30.9957 360.598L28.4028 356.4H23.4254L20.8325 360.598L23.4949 364.924H23.4717ZM19.374 367.056L16.7812 362.793H11.8732L9.28035 367.056L11.8732 371.318H16.7812L19.374 367.056ZM19.374 379.843L16.7812 375.58H11.8038L9.2572 379.843L11.8501 384.105H16.758L19.3509 379.843H19.374ZM23.4717 381.974L20.8094 386.279L23.4023 390.499H28.3796L30.9725 386.279L28.3102 381.974H23.4486H23.4717ZM35.047 384.105H39.955L42.5479 379.843L39.955 375.58H35.047L32.431 379.843L35.047 384.105Z" fill="url(#paint35_linear_6051_1636)"/>
<defs>
<linearGradient id="paint0_linear_6051_1636" x1="21.3333" y1="300" x2="21.3333" y2="342.667" gradientUnits="userSpaceOnUse">
<stop stop-color="#FF8900"/>
<stop offset="0.92" stop-color="#D97706" stop-opacity="0"/>
</linearGradient>
<linearGradient id="paint1_linear_6051_1636" x1="25.891" y1="247.906" x2="25.891" y2="290.572" gradientUnits="userSpaceOnUse">
<stop stop-color="#FF8900"/>
<stop offset="0.92" stop-color="#D97706" stop-opacity="0"/>
</linearGradient>
<linearGradient id="paint2_linear_6051_1636" x1="39.4251" y1="197.394" x2="39.4251" y2="240.061" gradientUnits="userSpaceOnUse">
<stop stop-color="#FF8900"/>
<stop offset="0.92" stop-color="#D97706" stop-opacity="0"/>
</linearGradient>
<linearGradient id="paint3_linear_6051_1636" x1="61.5257" y1="150" x2="61.5257" y2="192.667" gradientUnits="userSpaceOnUse">
<stop stop-color="#FF8900"/>
<stop offset="0.92" stop-color="#D97706" stop-opacity="0"/>
</linearGradient>
<linearGradient id="paint4_linear_6051_1636" x1="91.5199" y1="107.164" x2="91.5199" y2="149.83" gradientUnits="userSpaceOnUse">
<stop stop-color="#FF8900"/>
<stop offset="0.92" stop-color="#D97706" stop-opacity="0"/>
</linearGradient>
<linearGradient id="paint5_linear_6051_1636" x1="128.497" y1="70.1866" x2="128.497" y2="112.853" gradientUnits="userSpaceOnUse">
<stop stop-color="#FF8900"/>
<stop offset="0.92" stop-color="#D97706" stop-opacity="0"/>
</linearGradient>
<linearGradient id="paint6_linear_6051_1636" x1="171.333" y1="40.1924" x2="171.333" y2="82.8591" gradientUnits="userSpaceOnUse">
<stop stop-color="#FF8900"/>
<stop offset="0.92" stop-color="#D97706" stop-opacity="0"/>
</linearGradient>
<linearGradient id="paint7_linear_6051_1636" x1="218.727" y1="18.0922" x2="218.727" y2="60.7589" gradientUnits="userSpaceOnUse">
<stop stop-color="#FF8900"/>
<stop offset="0.92" stop-color="#D97706" stop-opacity="0"/>
</linearGradient>
<linearGradient id="paint8_linear_6051_1636" x1="269.239" y1="4.55768" x2="269.239" y2="47.2243" gradientUnits="userSpaceOnUse">
<stop stop-color="#FF8900"/>
<stop offset="0.92" stop-color="#D97706" stop-opacity="0"/>
</linearGradient>
<linearGradient id="paint9_linear_6051_1636" x1="321.333" y1="0" x2="321.333" y2="42.6667" gradientUnits="userSpaceOnUse">
<stop stop-color="#FF8900"/>
<stop offset="0.92" stop-color="#D97706" stop-opacity="0"/>
</linearGradient>
<linearGradient id="paint10_linear_6051_1636" x1="373.428" y1="4.55768" x2="373.428" y2="47.2243" gradientUnits="userSpaceOnUse">
<stop stop-color="#FF8900"/>
<stop offset="0.92" stop-color="#D97706" stop-opacity="0"/>
</linearGradient>
<linearGradient id="paint11_linear_6051_1636" x1="423.94" y1="18.0922" x2="423.94" y2="60.7589" gradientUnits="userSpaceOnUse">
<stop stop-color="#FF8900"/>
<stop offset="0.92" stop-color="#D97706" stop-opacity="0"/>
</linearGradient>
<linearGradient id="paint12_linear_6051_1636" x1="471.333" y1="40.1924" x2="471.333" y2="82.8591" gradientUnits="userSpaceOnUse">
<stop stop-color="#FF8900"/>
<stop offset="0.92" stop-color="#D97706" stop-opacity="0"/>
</linearGradient>
<linearGradient id="paint13_linear_6051_1636" x1="514.169" y1="70.1866" x2="514.169" y2="112.853" gradientUnits="userSpaceOnUse">
<stop stop-color="#FF8900"/>
<stop offset="0.92" stop-color="#D97706" stop-opacity="0"/>
</linearGradient>
<linearGradient id="paint14_linear_6051_1636" x1="551.147" y1="107.164" x2="551.147" y2="149.83" gradientUnits="userSpaceOnUse">
<stop stop-color="#FF8900"/>
<stop offset="0.92" stop-color="#D97706" stop-opacity="0"/>
</linearGradient>
<linearGradient id="paint15_linear_6051_1636" x1="581.141" y1="150" x2="581.141" y2="192.667" gradientUnits="userSpaceOnUse">
<stop stop-color="#FF8900"/>
<stop offset="0.92" stop-color="#D97706" stop-opacity="0"/>
</linearGradient>
<linearGradient id="paint16_linear_6051_1636" x1="603.242" y1="197.394" x2="603.242" y2="240.061" gradientUnits="userSpaceOnUse">
<stop stop-color="#FF8900"/>
<stop offset="0.92" stop-color="#D97706" stop-opacity="0"/>
</linearGradient>
<linearGradient id="paint17_linear_6051_1636" x1="616.776" y1="247.906" x2="616.776" y2="290.572" gradientUnits="userSpaceOnUse">
<stop stop-color="#FF8900"/>
<stop offset="0.92" stop-color="#D97706" stop-opacity="0"/>
</linearGradient>
<linearGradient id="paint18_linear_6051_1636" x1="621.333" y1="300" x2="621.333" y2="342.667" gradientUnits="userSpaceOnUse">
<stop stop-color="#FF8900"/>
<stop offset="0.92" stop-color="#D97706" stop-opacity="0"/>
</linearGradient>
<linearGradient id="paint19_linear_6051_1636" x1="616.776" y1="352.094" x2="616.776" y2="394.761" gradientUnits="userSpaceOnUse">
<stop stop-color="#FF8900"/>
<stop offset="0.92" stop-color="#D97706" stop-opacity="0"/>
</linearGradient>
<linearGradient id="paint20_linear_6051_1636" x1="603.242" y1="402.606" x2="603.242" y2="445.273" gradientUnits="userSpaceOnUse">
<stop stop-color="#FF8900"/>
<stop offset="0.92" stop-color="#D97706" stop-opacity="0"/>
</linearGradient>
<linearGradient id="paint21_linear_6051_1636" x1="581.141" y1="450" x2="581.141" y2="492.667" gradientUnits="userSpaceOnUse">
<stop stop-color="#FF8900"/>
<stop offset="0.92" stop-color="#D97706" stop-opacity="0"/>
</linearGradient>
<linearGradient id="paint22_linear_6051_1636" x1="551.147" y1="492.836" x2="551.147" y2="535.503" gradientUnits="userSpaceOnUse">
<stop stop-color="#FF8900"/>
<stop offset="0.92" stop-color="#D97706" stop-opacity="0"/>
</linearGradient>
<linearGradient id="paint23_linear_6051_1636" x1="514.169" y1="529.813" x2="514.169" y2="572.48" gradientUnits="userSpaceOnUse">
<stop stop-color="#FF8900"/>
<stop offset="0.92" stop-color="#D97706" stop-opacity="0"/>
</linearGradient>
<linearGradient id="paint24_linear_6051_1636" x1="471.333" y1="559.808" x2="471.333" y2="602.474" gradientUnits="userSpaceOnUse">
<stop stop-color="#FF8900"/>
<stop offset="0.92" stop-color="#D97706" stop-opacity="0"/>
</linearGradient>
<linearGradient id="paint25_linear_6051_1636" x1="423.94" y1="581.908" x2="423.94" y2="624.574" gradientUnits="userSpaceOnUse">
<stop stop-color="#FF8900"/>
<stop offset="0.92" stop-color="#D97706" stop-opacity="0"/>
</linearGradient>
<linearGradient id="paint26_linear_6051_1636" x1="373.428" y1="595.442" x2="373.428" y2="638.109" gradientUnits="userSpaceOnUse">
<stop stop-color="#FF8900"/>
<stop offset="0.92" stop-color="#D97706" stop-opacity="0"/>
</linearGradient>
<linearGradient id="paint27_linear_6051_1636" x1="321.333" y1="600" x2="321.333" y2="642.667" gradientUnits="userSpaceOnUse">
<stop stop-color="#FF8900"/>
<stop offset="0.92" stop-color="#D97706" stop-opacity="0"/>
</linearGradient>
<linearGradient id="paint28_linear_6051_1636" x1="269.239" y1="595.442" x2="269.239" y2="638.109" gradientUnits="userSpaceOnUse">
<stop stop-color="#FF8900"/>
<stop offset="0.92" stop-color="#D97706" stop-opacity="0"/>
</linearGradient>
<linearGradient id="paint29_linear_6051_1636" x1="218.727" y1="581.908" x2="218.727" y2="624.574" gradientUnits="userSpaceOnUse">
<stop stop-color="#FF8900"/>
<stop offset="0.92" stop-color="#D97706" stop-opacity="0"/>
</linearGradient>
<linearGradient id="paint30_linear_6051_1636" x1="171.333" y1="559.808" x2="171.333" y2="602.474" gradientUnits="userSpaceOnUse">
<stop stop-color="#FF8900"/>
<stop offset="0.92" stop-color="#D97706" stop-opacity="0"/>
</linearGradient>
<linearGradient id="paint31_linear_6051_1636" x1="128.497" y1="529.813" x2="128.497" y2="572.48" gradientUnits="userSpaceOnUse">
<stop stop-color="#FF8900"/>
<stop offset="0.92" stop-color="#D97706" stop-opacity="0"/>
</linearGradient>
<linearGradient id="paint32_linear_6051_1636" x1="91.5199" y1="492.836" x2="91.5199" y2="535.503" gradientUnits="userSpaceOnUse">
<stop stop-color="#FF8900"/>
<stop offset="0.92" stop-color="#D97706" stop-opacity="0"/>
</linearGradient>
<linearGradient id="paint33_linear_6051_1636" x1="61.5257" y1="450" x2="61.5257" y2="492.667" gradientUnits="userSpaceOnUse">
<stop stop-color="#FF8900"/>
<stop offset="0.92" stop-color="#D97706" stop-opacity="0"/>
</linearGradient>
<linearGradient id="paint34_linear_6051_1636" x1="39.4251" y1="402.606" x2="39.4251" y2="445.273" gradientUnits="userSpaceOnUse">
<stop stop-color="#FF8900"/>
<stop offset="0.92" stop-color="#D97706" stop-opacity="0"/>
</linearGradient>
<linearGradient id="paint35_linear_6051_1636" x1="25.891" y1="352.094" x2="25.891" y2="394.761" gradientUnits="userSpaceOnUse">
<stop stop-color="#FF8900"/>
<stop offset="0.92" stop-color="#D97706" stop-opacity="0"/>
</linearGradient>
</defs>
</svg>
