<svg width="822" height="822" viewBox="0 0 822 822" fill="none" xmlns="http://www.w3.org/2000/svg">
<path d="M9.1503 422.142H5.46934C4.82691 422.142 4.25393 421.998 3.71568 421.71C3.17743 421.422 2.76072 421.023 2.43082 420.511L0.468801 417.314C0.156267 416.835 0 416.323 0 415.748C0 415.173 0.156267 414.677 0.468801 414.198L2.46555 410.953L0.468801 407.724C0.156267 407.244 0 406.717 0 406.158C0 405.598 0.156267 405.071 0.468801 404.591L2.43082 401.394C2.74335 400.883 3.17743 400.483 3.71568 400.196C4.25393 399.908 4.84428 399.748 5.46934 399.748H9.1503L11.095 396.583C11.4075 396.072 11.8416 395.672 12.3798 395.384C12.9181 395.097 13.5084 394.937 14.1335 394.937H17.8665C18.509 394.937 19.0819 395.081 19.6202 395.384C20.1584 395.672 20.5751 396.072 20.905 396.583L22.8671 399.748H26.548C27.1905 399.748 27.7634 399.892 28.3017 400.196C28.8399 400.483 29.2566 400.883 29.5865 401.394L31.5312 404.591C31.8437 405.071 32 405.582 32 406.158C32 406.733 31.8437 407.244 31.5312 407.724L29.5345 410.953L31.5312 414.198C31.8437 414.677 32 415.189 32 415.748C32 416.307 31.8437 416.835 31.5312 417.314L29.5865 420.511C29.274 421.023 28.8399 421.422 28.3017 421.71C27.7634 421.998 27.1731 422.142 26.548 422.142H22.8671L20.905 425.306C20.5925 425.818 20.1584 426.217 19.6202 426.505C19.0819 426.793 18.4916 426.937 17.8665 426.937H14.1335C13.491 426.937 12.9181 426.793 12.3798 426.505C11.8416 426.217 11.4249 425.818 11.095 425.306L9.1503 422.142ZM22.8671 409.354H26.6001L28.51 406.158L26.6001 402.961H22.8671L20.905 406.158L22.8671 409.354ZM14.1856 414.15H17.8318L19.7765 410.953L17.8318 407.756H14.1856L12.2409 410.953L14.1856 414.15ZM14.1856 404.559H17.8318L19.8285 401.314L17.8839 398.166H14.1508L12.2062 401.314L14.2029 404.559H14.1856ZM11.1123 406.158L9.16766 402.961H5.48671L3.54205 406.158L5.48671 409.354H9.16766L11.1123 406.158ZM11.1123 415.748L9.16766 412.551H5.43462L3.52469 415.748L5.46934 418.945H9.1503L11.095 415.748H11.1123ZM14.1856 417.346L12.1888 420.575L14.1335 423.74H17.8665L19.8112 420.575L17.8144 417.346H14.1682H14.1856ZM22.8671 418.945H26.548L28.4927 415.748L26.548 412.551H22.8671L20.905 415.748L22.8671 418.945Z" fill="url(#paint0_linear_6051_1637)"/>
<path d="M15.1503 353.561H11.4693C10.8269 353.561 10.2539 353.418 9.71568 353.13C9.17743 352.842 8.76072 352.443 8.43082 351.931L6.4688 348.734C6.15627 348.255 6 347.743 6 347.168C6 346.592 6.15627 346.097 6.4688 345.617L8.46555 342.373L6.4688 339.144C6.15627 338.664 6 338.137 6 337.577C6 337.018 6.15627 336.491 6.4688 336.011L8.43082 332.814C8.74335 332.303 9.17743 331.903 9.71568 331.615C10.2539 331.328 10.8443 331.168 11.4693 331.168H15.1503L17.095 328.003C17.4075 327.492 17.8416 327.092 18.3798 326.804C18.9181 326.517 19.5084 326.357 20.1335 326.357H23.8665C24.509 326.357 25.0819 326.501 25.6202 326.804C26.1584 327.092 26.5751 327.492 26.905 328.003L28.8671 331.168H32.548C33.1905 331.168 33.7634 331.312 34.3017 331.615C34.8399 331.903 35.2566 332.303 35.5865 332.814L37.5312 336.011C37.8437 336.491 38 337.002 38 337.577C38 338.153 37.8437 338.664 37.5312 339.144L35.5345 342.373L37.5312 345.617C37.8437 346.097 38 346.608 38 347.168C38 347.727 37.8437 348.255 37.5312 348.734L35.5865 351.931C35.274 352.443 34.8399 352.842 34.3017 353.13C33.7634 353.418 33.1731 353.561 32.548 353.561H28.8671L26.905 356.726C26.5925 357.238 26.1584 357.637 25.6202 357.925C25.0819 358.213 24.4916 358.357 23.8665 358.357H20.1335C19.491 358.357 18.9181 358.213 18.3798 357.925C17.8416 357.637 17.4249 357.238 17.095 356.726L15.1503 353.561ZM28.8671 340.774H32.6001L34.51 337.577L32.6001 334.381H28.8671L26.905 337.577L28.8671 340.774ZM20.1856 345.569H23.8318L25.7765 342.373L23.8318 339.176H20.1856L18.2409 342.373L20.1856 345.569ZM20.1856 335.979H23.8318L25.8285 332.734L23.8839 329.585H20.1508L18.2062 332.734L20.2029 335.979H20.1856ZM17.1123 337.577L15.1677 334.381H11.4867L9.54205 337.577L11.4867 340.774H15.1677L17.1123 337.577ZM17.1123 347.168L15.1677 343.971H11.4346L9.52469 347.168L11.4693 350.365H15.1503L17.095 347.168H17.1123ZM20.1856 348.766L18.1888 351.995L20.1335 355.16H23.8665L25.8112 351.995L23.8144 348.766H20.1682H20.1856ZM28.8671 350.365H32.548L34.4927 347.168L32.548 343.971H28.8671L26.905 347.168L28.8671 350.365Z" fill="url(#paint1_linear_6051_1637)"/>
<path d="M32.9667 287.065H29.2857C28.6433 287.065 28.0703 286.921 27.5321 286.634C26.9938 286.346 26.5771 285.946 26.2472 285.435L24.2852 282.238C23.9727 281.759 23.8164 281.247 23.8164 280.672C23.8164 280.096 23.9727 279.601 24.2852 279.121L26.282 275.876L24.2852 272.648C23.9727 272.168 23.8164 271.641 23.8164 271.081C23.8164 270.522 23.9727 269.994 24.2852 269.515L26.2472 266.318C26.5598 265.807 26.9938 265.407 27.5321 265.119C28.0703 264.832 28.6607 264.672 29.2857 264.672H32.9667L34.9114 261.507C35.2239 260.995 35.658 260.596 36.1962 260.308C36.7345 260.02 37.3248 259.86 37.9499 259.86H41.6829C42.3254 259.86 42.8983 260.004 43.4366 260.308C43.9748 260.596 44.3916 260.995 44.7215 261.507L46.6835 264.672H50.3644C51.0069 264.672 51.5798 264.816 52.1181 265.119C52.6563 265.407 53.0731 265.807 53.403 266.318L55.3476 269.515C55.6601 269.994 55.8164 270.506 55.8164 271.081C55.8164 271.657 55.6601 272.168 55.3476 272.648L53.3509 275.876L55.3476 279.121C55.6601 279.601 55.8164 280.112 55.8164 280.672C55.8164 281.231 55.6601 281.759 55.3476 282.238L53.403 285.435C53.0904 285.946 52.6563 286.346 52.1181 286.634C51.5798 286.921 50.9895 287.065 50.3644 287.065H46.6835L44.7215 290.23C44.4089 290.742 43.9748 291.141 43.4366 291.429C42.8983 291.717 42.308 291.86 41.6829 291.86H37.9499C37.3075 291.86 36.7345 291.717 36.1962 291.429C35.658 291.141 35.2413 290.742 34.9114 290.23L32.9667 287.065ZM46.6835 274.278H50.4165L52.3264 271.081L50.4165 267.884H46.6835L44.7215 271.081L46.6835 274.278ZM38.002 279.073H41.6482L43.5929 275.876L41.6482 272.68H38.002L36.0573 275.876L38.002 279.073ZM38.002 269.483H41.6482L43.6449 266.238L41.7003 263.089H37.9672L36.0226 266.238L38.0193 269.483H38.002ZM34.9287 271.081L32.9841 267.884H29.3031L27.3585 271.081L29.3031 274.278H32.9841L34.9287 271.081ZM34.9287 280.672L32.9841 277.475H29.251L27.3411 280.672L29.2857 283.868H32.9667L34.9114 280.672H34.9287ZM38.002 282.27L36.0052 285.499L37.9499 288.664H41.6829L43.6276 285.499L41.6308 282.27H37.9846H38.002ZM46.6835 283.868H50.3644L52.3091 280.672L50.3644 277.475H46.6835L44.7215 280.672L46.6835 283.868Z" fill="url(#paint2_linear_6051_1637)"/>
<path d="M62.0614 224.673H58.3805C57.738 224.673 57.1651 224.529 56.6268 224.242C56.0886 223.954 55.6718 223.554 55.342 223.043L53.3799 219.846C53.0674 219.366 52.9111 218.855 52.9111 218.28C52.9111 217.704 53.0674 217.209 53.3799 216.729L55.3767 213.484L53.3799 210.256C53.0674 209.776 52.9111 209.249 52.9111 208.689C52.9111 208.13 53.0674 207.602 53.3799 207.123L55.342 203.926C55.6545 203.414 56.0886 203.015 56.6268 202.727C57.1651 202.439 57.7554 202.28 58.3805 202.28H62.0614L64.0061 199.115C64.3186 198.603 64.7527 198.204 65.2909 197.916C65.8292 197.628 66.4195 197.468 67.0446 197.468H70.7777C71.4201 197.468 71.9931 197.612 72.5313 197.916C73.0696 198.204 73.4863 198.603 73.8162 199.115L75.7782 202.28H79.4592C80.1016 202.28 80.6746 202.423 81.2128 202.727C81.7511 203.015 82.1678 203.414 82.4977 203.926L84.4423 207.123C84.7549 207.602 84.9111 208.114 84.9111 208.689C84.9111 209.265 84.7549 209.776 84.4423 210.256L82.4456 213.484L84.4423 216.729C84.7549 217.209 84.9111 217.72 84.9111 218.28C84.9111 218.839 84.7549 219.366 84.4423 219.846L82.4977 223.043C82.1851 223.554 81.7511 223.954 81.2128 224.242C80.6746 224.529 80.0842 224.673 79.4592 224.673H75.7782L73.8162 227.838C73.5036 228.349 73.0696 228.749 72.5313 229.037C71.9931 229.324 71.4027 229.468 70.7777 229.468H67.0446C66.4022 229.468 65.8292 229.324 65.2909 229.037C64.7527 228.749 64.336 228.349 64.0061 227.838L62.0614 224.673ZM75.7782 211.886H79.5112L81.4212 208.689L79.5112 205.492H75.7782L73.8162 208.689L75.7782 211.886ZM67.0967 216.681H70.7429L72.6876 213.484L70.7429 210.288H67.0967L65.152 213.484L67.0967 216.681ZM67.0967 207.091H70.7429L72.7397 203.846L70.795 200.697H67.062L65.1173 203.846L67.1141 207.091H67.0967ZM64.0234 208.689L62.0788 205.492H58.3978L56.4532 208.689L58.3978 211.886H62.0788L64.0234 208.689ZM64.0234 218.28L62.0788 215.083H58.3458L56.4358 218.28L58.3805 221.476H62.0614L64.0061 218.28H64.0234ZM67.0967 219.878L65.1 223.107L67.0446 226.272H70.7777L72.7223 223.107L70.7256 219.878H67.0793H67.0967ZM75.7782 221.476H79.4592L81.4038 218.28L79.4592 215.083H75.7782L73.8162 218.28L75.7782 221.476Z" fill="url(#paint3_linear_6051_1637)"/>
<path d="M101.548 168.281H97.8668C97.2244 168.281 96.6514 168.137 96.1131 167.849C95.5749 167.562 95.1582 167.162 94.8283 166.651L92.8663 163.454C92.5537 162.974 92.3975 162.463 92.3975 161.887C92.3975 161.312 92.5537 160.816 92.8663 160.337L94.863 157.092L92.8663 153.863C92.5537 153.384 92.3975 152.856 92.3975 152.297C92.3975 151.738 92.5537 151.21 92.8663 150.731L94.8283 147.534C95.1408 147.022 95.5749 146.623 96.1131 146.335C96.6514 146.047 97.2417 145.887 97.8668 145.887H101.548L103.492 142.723C103.805 142.211 104.239 141.811 104.777 141.524C105.316 141.236 105.906 141.076 106.531 141.076H110.264C110.906 141.076 111.479 141.22 112.018 141.524C112.556 141.811 112.973 142.211 113.303 142.723L115.265 145.887H118.945C119.588 145.887 120.161 146.031 120.699 146.335C121.237 146.623 121.654 147.022 121.984 147.534L123.929 150.731C124.241 151.21 124.397 151.722 124.397 152.297C124.397 152.872 124.241 153.384 123.929 153.863L121.932 157.092L123.929 160.337C124.241 160.816 124.397 161.328 124.397 161.887C124.397 162.447 124.241 162.974 123.929 163.454L121.984 166.651C121.671 167.162 121.237 167.562 120.699 167.849C120.161 168.137 119.571 168.281 118.945 168.281H115.265L113.303 171.446C112.99 171.957 112.556 172.357 112.018 172.645C111.479 172.932 110.889 173.076 110.264 173.076H106.531C105.889 173.076 105.316 172.932 104.777 172.645C104.239 172.357 103.822 171.957 103.492 171.446L101.548 168.281ZM115.265 155.494H118.998L120.907 152.297L118.998 149.1H115.265L113.303 152.297L115.265 155.494ZM106.583 160.289H110.229L112.174 157.092L110.229 153.895H106.583L104.638 157.092L106.583 160.289ZM106.583 150.699H110.229L112.226 147.454L110.281 144.305H106.548L104.604 147.454L106.6 150.699H106.583ZM103.51 152.297L101.565 149.1H97.8842L95.9395 152.297L97.8842 155.494H101.565L103.51 152.297ZM103.51 161.887L101.565 158.691H97.8321L95.9221 161.887L97.8668 165.084H101.548L103.492 161.887H103.51ZM106.583 163.486L104.586 166.715L106.531 169.879H110.264L112.209 166.715L110.212 163.486H106.566H106.583ZM115.265 165.084H118.945L120.89 161.887L118.945 158.691H115.265L113.303 161.887L115.265 165.084Z" fill="url(#paint4_linear_6051_1637)"/>
<path d="M150.226 119.602H146.546C145.903 119.602 145.33 119.459 144.792 119.171C144.254 118.883 143.837 118.483 143.507 117.972L141.545 114.775C141.232 114.296 141.076 113.784 141.076 113.209C141.076 112.633 141.232 112.138 141.545 111.658L143.542 108.414L141.545 105.185C141.232 104.705 141.076 104.178 141.076 103.618C141.076 103.059 141.232 102.531 141.545 102.052L143.507 98.8551C143.82 98.3436 144.254 97.944 144.792 97.6563C145.33 97.3686 145.92 97.2088 146.546 97.2088H150.226L152.171 94.0439C152.484 93.5324 152.918 93.1328 153.456 92.8451C153.994 92.5574 154.585 92.3976 155.21 92.3976H158.943C159.585 92.3976 160.158 92.5414 160.696 92.8451C161.235 93.1328 161.651 93.5324 161.981 94.0439L163.943 97.2088H167.624C168.267 97.2088 168.84 97.3526 169.378 97.6563C169.916 97.944 170.333 98.3436 170.663 98.8551L172.607 102.052C172.92 102.531 173.076 103.043 173.076 103.618C173.076 104.194 172.92 104.705 172.607 105.185L170.611 108.414L172.607 111.658C172.92 112.138 173.076 112.649 173.076 113.209C173.076 113.768 172.92 114.296 172.607 114.775L170.663 117.972C170.35 118.483 169.916 118.883 169.378 119.171C168.84 119.459 168.249 119.602 167.624 119.602H163.943L161.981 122.767C161.669 123.279 161.235 123.678 160.696 123.966C160.158 124.254 159.568 124.398 158.943 124.398H155.21C154.567 124.398 153.994 124.254 153.456 123.966C152.918 123.678 152.501 123.279 152.171 122.767L150.226 119.602ZM163.943 106.815H167.676L169.586 103.618L167.676 100.422H163.943L161.981 103.618L163.943 106.815ZM155.262 111.61H158.908L160.853 108.414L158.908 105.217H155.262L153.317 108.414L155.262 111.61ZM155.262 102.02H158.908L160.905 98.7752L158.96 95.6264H155.227L153.282 98.7752L155.279 102.02H155.262ZM152.188 103.618L150.244 100.422H146.563L144.618 103.618L146.563 106.815H150.244L152.188 103.618ZM152.188 113.209L150.244 110.012H146.511L144.601 113.209L146.546 116.406H150.226L152.171 113.209H152.188ZM155.262 114.807L153.265 118.036L155.21 121.201H158.943L160.887 118.036L158.891 114.807H155.244H155.262ZM163.943 116.406H167.624L169.569 113.209L167.624 110.012H163.943L161.981 113.209L163.943 116.406Z" fill="url(#paint5_linear_6051_1637)"/>
<path d="M206.619 80.1163H202.938C202.296 80.1163 201.723 79.9724 201.184 79.6847C200.646 79.397 200.229 78.9974 199.9 78.4859L197.938 75.2891C197.625 74.8096 197.469 74.2981 197.469 73.7227C197.469 73.1472 197.625 72.6517 197.938 72.1722L199.934 68.9275L197.938 65.6987C197.625 65.2192 197.469 64.6917 197.469 64.1322C197.469 63.5728 197.625 63.0453 197.938 62.5658L199.9 59.369C200.212 58.8575 200.646 58.4579 201.184 58.1702C201.723 57.8825 202.313 57.7227 202.938 57.7227H206.619L208.564 54.5578C208.876 54.0463 209.31 53.6467 209.849 53.359C210.387 53.0713 210.977 52.9115 211.602 52.9115H215.335C215.978 52.9115 216.551 53.0553 217.089 53.359C217.627 53.6467 218.044 54.0463 218.374 54.5578L220.336 57.7227H224.017C224.659 57.7227 225.232 57.8665 225.77 58.1702C226.309 58.4579 226.725 58.8575 227.055 59.369L229 62.5658C229.312 63.0453 229.469 63.5568 229.469 64.1322C229.469 64.7077 229.312 65.2192 229 65.6987L227.003 68.9275L229 72.1722C229.312 72.6517 229.469 73.1632 229.469 73.7227C229.469 74.2821 229.312 74.8096 229 75.2891L227.055 78.4859C226.743 78.9974 226.309 79.397 225.77 79.6847C225.232 79.9724 224.642 80.1163 224.017 80.1163H220.336L218.374 83.2811C218.061 83.7926 217.627 84.1922 217.089 84.4799C216.551 84.7676 215.96 84.9115 215.335 84.9115H211.602C210.96 84.9115 210.387 84.7676 209.849 84.4799C209.31 84.1922 208.894 83.7926 208.564 83.2811L206.619 80.1163ZM220.336 67.3291H224.069L225.979 64.1322L224.069 60.9354H220.336L218.374 64.1322L220.336 67.3291ZM211.654 72.1243H215.301L217.245 68.9275L215.301 65.7306H211.654L209.71 68.9275L211.654 72.1243ZM211.654 62.5338H215.301L217.297 59.2891L215.353 56.1402H211.62L209.675 59.2891L211.672 62.5338H211.654ZM208.581 64.1322L206.636 60.9354H202.955L201.011 64.1322L202.955 67.3291H206.636L208.581 64.1322ZM208.581 73.7227L206.636 70.5259H202.903L200.993 73.7227L202.938 76.9195H206.619L208.564 73.7227H208.581ZM211.654 75.3211L209.658 78.5498L211.602 81.7147H215.335L217.28 78.5498L215.283 75.3211H211.637H211.654ZM220.336 76.9195H224.017L225.961 73.7227L224.017 70.5259H220.336L218.374 73.7227L220.336 76.9195Z" fill="url(#paint6_linear_6051_1637)"/>
<path d="M269.01 51.0225H265.329C264.686 51.0225 264.113 50.8786 263.575 50.5909C263.037 50.3032 262.62 49.9036 262.29 49.3921L260.328 46.1953C260.016 45.7158 259.859 45.2043 259.859 44.6288C259.859 44.0534 260.016 43.5579 260.328 43.0784L262.325 39.8336L260.328 36.6049C260.016 36.1253 259.859 35.5979 259.859 35.0384C259.859 34.479 260.016 33.9515 260.328 33.472L262.29 30.2752C262.603 29.7637 263.037 29.3641 263.575 29.0764C264.113 28.7887 264.704 28.6288 265.329 28.6288H269.01L270.954 25.464C271.267 24.9525 271.701 24.5529 272.239 24.2652C272.777 23.9775 273.368 23.8177 273.993 23.8177H277.726C278.368 23.8177 278.941 23.9615 279.48 24.2652C280.018 24.5529 280.435 24.9525 280.764 25.464L282.726 28.6288H286.407C287.05 28.6288 287.623 28.7727 288.161 29.0764C288.699 29.3641 289.116 29.7637 289.446 30.2752L291.391 33.472C291.703 33.9515 291.859 34.463 291.859 35.0384C291.859 35.6139 291.703 36.1253 291.391 36.6049L289.394 39.8336L291.391 43.0784C291.703 43.5579 291.859 44.0694 291.859 44.6288C291.859 45.1883 291.703 45.7158 291.391 46.1953L289.446 49.3921C289.133 49.9036 288.699 50.3032 288.161 50.5909C287.623 50.8786 287.032 51.0225 286.407 51.0225H282.726L280.764 54.1873C280.452 54.6988 280.018 55.0984 279.48 55.3861C278.941 55.6738 278.351 55.8177 277.726 55.8177H273.993C273.35 55.8177 272.777 55.6738 272.239 55.3861C271.701 55.0984 271.284 54.6988 270.954 54.1873L269.01 51.0225ZM282.726 38.2352H286.459L288.369 35.0384L286.459 31.8416H282.726L280.764 35.0384L282.726 38.2352ZM274.045 43.0304H277.691L279.636 39.8336L277.691 36.6368H274.045L272.1 39.8336L274.045 43.0304ZM274.045 33.44H277.691L279.688 30.1953L277.743 27.0464H274.01L272.066 30.1953L274.062 33.44H274.045ZM270.972 35.0384L269.027 31.8416H265.346L263.401 35.0384L265.346 38.2352H269.027L270.972 35.0384ZM270.972 44.6288L269.027 41.432H265.294L263.384 44.6288L265.329 47.8256H269.01L270.954 44.6288H270.972ZM274.045 46.2272L272.048 49.456L273.993 52.6209H277.726L279.671 49.456L277.674 46.2272H274.028H274.045ZM282.726 47.8256H286.407L288.352 44.6288L286.407 41.432H282.726L280.764 44.6288L282.726 47.8256Z" fill="url(#paint7_linear_6051_1637)"/>
<path d="M335.507 33.2047H331.826C331.183 33.2047 330.61 33.0608 330.072 32.7731C329.534 32.4854 329.117 32.0858 328.787 31.5743L326.825 28.3775C326.513 27.898 326.356 27.3865 326.356 26.8111C326.356 26.2356 326.513 25.7401 326.825 25.2606L328.822 22.0159L326.825 18.7871C326.513 18.3076 326.356 17.7801 326.356 17.2207C326.356 16.6612 326.513 16.1337 326.825 15.6542L328.787 12.4574C329.1 11.9459 329.534 11.5463 330.072 11.2586C330.61 10.9709 331.201 10.8111 331.826 10.8111H335.507L337.451 7.64623C337.764 7.13474 338.198 6.73514 338.736 6.44743C339.275 6.15972 339.865 5.99988 340.49 5.99988H344.223C344.865 5.99988 345.438 6.14373 345.977 6.44743C346.515 6.73514 346.932 7.13474 347.261 7.64623L349.224 10.8111H352.904C353.547 10.8111 354.12 10.9549 354.658 11.2586C355.196 11.5463 355.613 11.9459 355.943 12.4574L357.888 15.6542C358.2 16.1337 358.356 16.6452 358.356 17.2207C358.356 17.7961 358.2 18.3076 357.888 18.7871L355.891 22.0159L357.888 25.2606C358.2 25.7401 358.356 26.2516 358.356 26.8111C358.356 27.3705 358.2 27.898 357.888 28.3775L355.943 31.5743C355.63 32.0858 355.196 32.4854 354.658 32.7731C354.12 33.0608 353.53 33.2047 352.904 33.2047H349.224L347.261 36.3695C346.949 36.881 346.515 37.2806 345.977 37.5683C345.438 37.856 344.848 37.9999 344.223 37.9999H340.49C339.847 37.9999 339.275 37.856 338.736 37.5683C338.198 37.2806 337.781 36.881 337.451 36.3695L335.507 33.2047ZM349.224 20.4175H352.957L354.866 17.2207L352.957 14.0239H349.224L347.261 17.2207L349.224 20.4175ZM340.542 25.2127H344.188L346.133 22.0159L344.188 18.8191H340.542L338.597 22.0159L340.542 25.2127ZM340.542 15.6223H344.188L346.185 12.3775L344.24 9.22865H340.507L338.563 12.3775L340.559 15.6223H340.542ZM337.469 17.2207L335.524 14.0239H331.843L329.898 17.2207L331.843 20.4175H335.524L337.469 17.2207ZM337.469 26.8111L335.524 23.6143H331.791L329.881 26.8111L331.826 30.0079H335.507L337.451 26.8111H337.469ZM340.542 28.4095L338.545 31.6382L340.49 34.8031H344.223L346.168 31.6382L344.171 28.4095H340.525H340.542ZM349.224 30.0079H352.904L354.849 26.8111L352.904 23.6143H349.224L347.261 26.8111L349.224 30.0079Z" fill="url(#paint8_linear_6051_1637)"/>
<path d="M404.087 27.2048H400.406C399.763 27.2048 399.19 27.0609 398.652 26.7732C398.114 26.4855 397.697 26.0859 397.367 25.5744L395.405 22.3776C395.093 21.8981 394.937 21.3866 394.937 20.8112C394.937 20.2358 395.093 19.7403 395.405 19.2607L397.402 16.016L395.405 12.7872C395.093 12.3077 394.937 11.7802 394.937 11.2208C394.937 10.6613 395.093 10.1339 395.405 9.65435L397.367 6.45754C397.68 5.94605 398.114 5.54645 398.652 5.25874C399.19 4.97103 399.781 4.81119 400.406 4.81119H404.087L406.031 1.64635C406.344 1.13487 406.778 0.735265 407.316 0.447552C407.855 0.15984 408.445 0 409.07 0H412.803C413.445 0 414.018 0.143856 414.557 0.447552C415.095 0.735265 415.512 1.13487 415.842 1.64635L417.804 4.81119H421.485C422.127 4.81119 422.7 4.95504 423.238 5.25874C423.776 5.54645 424.193 5.94605 424.523 6.45754L426.468 9.65435C426.78 10.1339 426.937 10.6454 426.937 11.2208C426.937 11.7962 426.78 12.3077 426.468 12.7872L424.471 16.016L426.468 19.2607C426.78 19.7403 426.937 20.2517 426.937 20.8112C426.937 21.3706 426.78 21.8981 426.468 22.3776L424.523 25.5744C424.211 26.0859 423.776 26.4855 423.238 26.7732C422.7 27.0609 422.11 27.2048 421.485 27.2048H417.804L415.842 30.3696C415.529 30.8811 415.095 31.2807 414.557 31.5684C414.018 31.8561 413.428 32 412.803 32H409.07C408.428 32 407.855 31.8561 407.316 31.5684C406.778 31.2807 406.361 30.8811 406.031 30.3696L404.087 27.2048ZM417.804 14.4176H421.537L423.447 11.2208L421.537 8.02398H417.804L415.842 11.2208L417.804 14.4176ZM409.122 19.2128H412.768L414.713 16.016L412.768 12.8192H409.122L407.177 16.016L409.122 19.2128ZM409.122 9.62238H412.768L414.765 6.37762L412.82 3.22877H409.087L407.143 6.37762L409.139 9.62238H409.122ZM406.049 11.2208L404.104 8.02398H400.423L398.479 11.2208L400.423 14.4176H404.104L406.049 11.2208ZM406.049 20.8112L404.104 17.6144H400.371L398.461 20.8112L400.406 24.008H404.087L406.031 20.8112H406.049ZM409.122 22.4096L407.125 25.6384L409.07 28.8032H412.803L414.748 25.6384L412.751 22.4096H409.105H409.122ZM417.804 24.008H421.485L423.429 20.8112L421.485 17.6144H417.804L415.842 20.8112L417.804 24.008Z" fill="url(#paint9_linear_6051_1637)"/>
<path d="M472.668 33.2047H468.987C468.344 33.2047 467.772 33.0608 467.233 32.7731C466.695 32.4854 466.278 32.0858 465.948 31.5743L463.986 28.3775C463.674 27.898 463.518 27.3865 463.518 26.8111C463.518 26.2356 463.674 25.7401 463.986 25.2606L465.983 22.0159L463.986 18.7871C463.674 18.3076 463.518 17.7801 463.518 17.2207C463.518 16.6612 463.674 16.1337 463.986 15.6542L465.948 12.4574C466.261 11.9459 466.695 11.5463 467.233 11.2586C467.772 10.9709 468.362 10.8111 468.987 10.8111H472.668L474.613 7.64623C474.925 7.13474 475.359 6.73514 475.897 6.44743C476.436 6.15972 477.026 5.99988 477.651 5.99988H481.384C482.027 5.99988 482.6 6.14373 483.138 6.44743C483.676 6.73514 484.093 7.13474 484.423 7.64623L486.385 10.8111H490.066C490.708 10.8111 491.281 10.9549 491.819 11.2586C492.358 11.5463 492.774 11.9459 493.104 12.4574L495.049 15.6542C495.361 16.1337 495.518 16.6452 495.518 17.2207C495.518 17.7961 495.361 18.3076 495.049 18.7871L493.052 22.0159L495.049 25.2606C495.361 25.7401 495.518 26.2516 495.518 26.8111C495.518 27.3705 495.361 27.898 495.049 28.3775L493.104 31.5743C492.792 32.0858 492.358 32.4854 491.819 32.7731C491.281 33.0608 490.691 33.2047 490.066 33.2047H486.385L484.423 36.3695C484.11 36.881 483.676 37.2806 483.138 37.5683C482.6 37.856 482.009 37.9999 481.384 37.9999H477.651C477.009 37.9999 476.436 37.856 475.897 37.5683C475.359 37.2806 474.942 36.881 474.613 36.3695L472.668 33.2047ZM486.385 20.4175H490.118L492.028 17.2207L490.118 14.0239H486.385L484.423 17.2207L486.385 20.4175ZM477.703 25.2127H481.349L483.294 22.0159L481.349 18.8191H477.703L475.758 22.0159L477.703 25.2127ZM477.703 15.6223H481.349L483.346 12.3775L481.401 9.22865H477.668L475.724 12.3775L477.721 15.6223H477.703ZM474.63 17.2207L472.685 14.0239H469.004L467.06 17.2207L469.004 20.4175H472.685L474.63 17.2207ZM474.63 26.8111L472.685 23.6143H468.952L467.042 26.8111L468.987 30.0079H472.668L474.613 26.8111H474.63ZM477.703 28.4095L475.706 31.6382L477.651 34.8031H481.384L483.329 31.6382L481.332 28.4095H477.686H477.703ZM486.385 30.0079H490.066L492.01 26.8111L490.066 23.6143H486.385L484.423 26.8111L486.385 30.0079Z" fill="url(#paint10_linear_6051_1637)"/>
<path d="M539.164 51.0225H535.483C534.841 51.0225 534.268 50.8786 533.729 50.5909C533.191 50.3032 532.774 49.9036 532.444 49.3921L530.482 46.1953C530.17 45.7158 530.014 45.2043 530.014 44.6288C530.014 44.0534 530.17 43.5579 530.482 43.0784L532.479 39.8336L530.482 36.6049C530.17 36.1253 530.014 35.5979 530.014 35.0384C530.014 34.479 530.17 33.9515 530.482 33.472L532.444 30.2752C532.757 29.7637 533.191 29.3641 533.729 29.0764C534.268 28.7887 534.858 28.6288 535.483 28.6288H539.164L541.109 25.464C541.421 24.9525 541.855 24.5529 542.393 24.2652C542.932 23.9775 543.522 23.8177 544.147 23.8177H547.88C548.523 23.8177 549.096 23.9615 549.634 24.2652C550.172 24.5529 550.589 24.9525 550.919 25.464L552.881 28.6288H556.562C557.204 28.6288 557.777 28.7727 558.315 29.0764C558.854 29.3641 559.27 29.7637 559.6 30.2752L561.545 33.472C561.857 33.9515 562.014 34.463 562.014 35.0384C562.014 35.6139 561.857 36.1253 561.545 36.6049L559.548 39.8336L561.545 43.0784C561.857 43.5579 562.014 44.0694 562.014 44.6288C562.014 45.1883 561.857 45.7158 561.545 46.1953L559.6 49.3921C559.288 49.9036 558.854 50.3032 558.315 50.5909C557.777 50.8786 557.187 51.0225 556.562 51.0225H552.881L550.919 54.1873C550.606 54.6988 550.172 55.0984 549.634 55.3861C549.096 55.6738 548.505 55.8177 547.88 55.8177H544.147C543.505 55.8177 542.932 55.6738 542.393 55.3861C541.855 55.0984 541.439 54.6988 541.109 54.1873L539.164 51.0225ZM552.881 38.2352H556.614L558.524 35.0384L556.614 31.8416H552.881L550.919 35.0384L552.881 38.2352ZM544.199 43.0304H547.845L549.79 39.8336L547.845 36.6368H544.199L542.255 39.8336L544.199 43.0304ZM544.199 33.44H547.845L549.842 30.1953L547.898 27.0464H544.165L542.22 30.1953L544.217 33.44H544.199ZM541.126 35.0384L539.181 31.8416H535.5L533.556 35.0384L535.5 38.2352H539.181L541.126 35.0384ZM541.126 44.6288L539.181 41.432H535.448L533.538 44.6288L535.483 47.8256H539.164L541.109 44.6288H541.126ZM544.199 46.2272L542.202 49.456L544.147 52.6209H547.88L549.825 49.456L547.828 46.2272H544.182H544.199ZM552.881 47.8256H556.562L558.506 44.6288L556.562 41.432H552.881L550.919 44.6288L552.881 47.8256Z" fill="url(#paint11_linear_6051_1637)"/>
<path d="M601.556 80.1163H597.875C597.232 80.1163 596.659 79.9724 596.121 79.6847C595.583 79.397 595.166 78.9974 594.836 78.4859L592.874 75.2891C592.562 74.8096 592.405 74.2981 592.405 73.7227C592.405 73.1472 592.562 72.6517 592.874 72.1722L594.871 68.9275L592.874 65.6987C592.562 65.2192 592.405 64.6917 592.405 64.1322C592.405 63.5728 592.562 63.0453 592.874 62.5658L594.836 59.369C595.149 58.8575 595.583 58.4579 596.121 58.1702C596.659 57.8825 597.25 57.7227 597.875 57.7227H601.556L603.5 54.5578C603.813 54.0463 604.247 53.6467 604.785 53.359C605.323 53.0713 605.914 52.9115 606.539 52.9115H610.272C610.914 52.9115 611.487 53.0553 612.025 53.359C612.564 53.6467 612.98 54.0463 613.31 54.5578L615.272 57.7227H618.953C619.596 57.7227 620.169 57.8665 620.707 58.1702C621.245 58.4579 621.662 58.8575 621.992 59.369L623.936 62.5658C624.249 63.0453 624.405 63.5568 624.405 64.1322C624.405 64.7077 624.249 65.2192 623.936 65.6987L621.94 68.9275L623.936 72.1722C624.249 72.6517 624.405 73.1632 624.405 73.7227C624.405 74.2821 624.249 74.8096 623.936 75.2891L621.992 78.4859C621.679 78.9974 621.245 79.397 620.707 79.6847C620.169 79.9724 619.578 80.1163 618.953 80.1163H615.272L613.31 83.2811C612.998 83.7926 612.564 84.1922 612.025 84.4799C611.487 84.7676 610.897 84.9115 610.272 84.9115H606.539C605.896 84.9115 605.323 84.7676 604.785 84.4799C604.247 84.1922 603.83 83.7926 603.5 83.2811L601.556 80.1163ZM615.272 67.3291H619.005L620.915 64.1322L619.005 60.9354H615.272L613.31 64.1322L615.272 67.3291ZM606.591 72.1243H610.237L612.182 68.9275L610.237 65.7306H606.591L604.646 68.9275L606.591 72.1243ZM606.591 62.5338H610.237L612.234 59.2891L610.289 56.1402H606.556L604.611 59.2891L606.608 62.5338H606.591ZM603.518 64.1322L601.573 60.9354H597.892L595.947 64.1322L597.892 67.3291H601.573L603.518 64.1322ZM603.518 73.7227L601.573 70.5259H597.84L595.93 73.7227L597.875 76.9195H601.556L603.5 73.7227H603.518ZM606.591 75.3211L604.594 78.5498L606.539 81.7147H610.272L612.216 78.5498L610.22 75.3211H606.573H606.591ZM615.272 76.9195H618.953L620.898 73.7227L618.953 70.5259H615.272L613.31 73.7227L615.272 76.9195Z" fill="url(#paint12_linear_6051_1637)"/>
<path d="M657.947 119.602H654.266C653.624 119.602 653.051 119.459 652.513 119.171C651.974 118.883 651.558 118.483 651.228 117.972L649.266 114.775C648.953 114.296 648.797 113.784 648.797 113.209C648.797 112.633 648.953 112.138 649.266 111.658L651.262 108.414L649.266 105.185C648.953 104.705 648.797 104.178 648.797 103.618C648.797 103.059 648.953 102.531 649.266 102.052L651.228 98.8551C651.54 98.3436 651.974 97.944 652.513 97.6563C653.051 97.3686 653.641 97.2088 654.266 97.2088H657.947L659.892 94.0439C660.204 93.5324 660.638 93.1328 661.177 92.8451C661.715 92.5574 662.305 92.3976 662.93 92.3976H666.663C667.306 92.3976 667.879 92.5414 668.417 92.8451C668.955 93.1328 669.372 93.5324 669.702 94.0439L671.664 97.2088H675.345C675.987 97.2088 676.56 97.3526 677.099 97.6563C677.637 97.944 678.054 98.3436 678.383 98.8551L680.328 102.052C680.641 102.531 680.797 103.043 680.797 103.618C680.797 104.194 680.641 104.705 680.328 105.185L678.331 108.414L680.328 111.658C680.641 112.138 680.797 112.649 680.797 113.209C680.797 113.768 680.641 114.296 680.328 114.775L678.383 117.972C678.071 118.483 677.637 118.883 677.099 119.171C676.56 119.459 675.97 119.602 675.345 119.602H671.664L669.702 122.767C669.389 123.279 668.955 123.678 668.417 123.966C667.879 124.254 667.288 124.398 666.663 124.398H662.93C662.288 124.398 661.715 124.254 661.177 123.966C660.638 123.678 660.222 123.279 659.892 122.767L657.947 119.602ZM671.664 106.815H675.397L677.307 103.618L675.397 100.422H671.664L669.702 103.618L671.664 106.815ZM662.982 111.61H666.629L668.573 108.414L666.629 105.217H662.982L661.038 108.414L662.982 111.61ZM662.982 102.02H666.629L668.625 98.7752L666.681 95.6264H662.948L661.003 98.7752L663 102.02H662.982ZM659.909 103.618L657.965 100.422H654.284L652.339 103.618L654.284 106.815H657.965L659.909 103.618ZM659.909 113.209L657.965 110.012H654.231L652.322 113.209L654.266 116.406H657.947L659.892 113.209H659.909ZM662.982 114.807L660.986 118.036L662.93 121.201H666.663L668.608 118.036L666.611 114.807H662.965H662.982ZM671.664 116.406H675.345L677.29 113.209L675.345 110.012H671.664L669.702 113.209L671.664 116.406Z" fill="url(#paint13_linear_6051_1637)"/>
<path d="M706.626 168.281H702.945C702.302 168.281 701.73 168.137 701.191 167.849C700.653 167.562 700.236 167.162 699.906 166.651L697.944 163.454C697.632 162.974 697.476 162.463 697.476 161.887C697.476 161.312 697.632 160.816 697.944 160.337L699.941 157.092L697.944 153.863C697.632 153.384 697.476 152.856 697.476 152.297C697.476 151.738 697.632 151.21 697.944 150.731L699.906 147.534C700.219 147.022 700.653 146.623 701.191 146.335C701.73 146.047 702.32 145.887 702.945 145.887H706.626L708.571 142.723C708.883 142.211 709.317 141.811 709.855 141.524C710.394 141.236 710.984 141.076 711.609 141.076H715.342C715.985 141.076 716.558 141.22 717.096 141.524C717.634 141.811 718.051 142.211 718.381 142.723L720.343 145.887H724.024C724.666 145.887 725.239 146.031 725.777 146.335C726.316 146.623 726.732 147.022 727.062 147.534L729.007 150.731C729.319 151.21 729.476 151.722 729.476 152.297C729.476 152.872 729.319 153.384 729.007 153.863L727.01 157.092L729.007 160.337C729.319 160.816 729.476 161.328 729.476 161.887C729.476 162.447 729.319 162.974 729.007 163.454L727.062 166.651C726.75 167.162 726.316 167.562 725.777 167.849C725.239 168.137 724.649 168.281 724.024 168.281H720.343L718.381 171.446C718.068 171.957 717.634 172.357 717.096 172.645C716.558 172.932 715.967 173.076 715.342 173.076H711.609C710.967 173.076 710.394 172.932 709.855 172.645C709.317 172.357 708.9 171.957 708.571 171.446L706.626 168.281ZM720.343 155.494H724.076L725.986 152.297L724.076 149.1H720.343L718.381 152.297L720.343 155.494ZM711.661 160.289H715.307L717.252 157.092L715.307 153.895H711.661L709.716 157.092L711.661 160.289ZM711.661 150.699H715.307L717.304 147.454L715.359 144.305H711.626L709.682 147.454L711.679 150.699H711.661ZM708.588 152.297L706.643 149.1H702.962L701.018 152.297L702.962 155.494H706.643L708.588 152.297ZM708.588 161.887L706.643 158.691H702.91L701 161.887L702.945 165.084H706.626L708.571 161.887H708.588ZM711.661 163.486L709.664 166.715L711.609 169.879H715.342L717.287 166.715L715.29 163.486H711.644H711.661ZM720.343 165.084H724.024L725.968 161.887L724.024 158.691H720.343L718.381 161.887L720.343 165.084Z" fill="url(#paint14_linear_6051_1637)"/>
<path d="M746.112 224.673H742.431C741.789 224.673 741.216 224.529 740.678 224.242C740.139 223.954 739.723 223.554 739.393 223.043L737.431 219.846C737.118 219.366 736.962 218.855 736.962 218.28C736.962 217.704 737.118 217.209 737.431 216.729L739.427 213.484L737.431 210.256C737.118 209.776 736.962 209.249 736.962 208.689C736.962 208.13 737.118 207.602 737.431 207.123L739.393 203.926C739.705 203.414 740.139 203.015 740.678 202.727C741.216 202.439 741.806 202.28 742.431 202.28H746.112L748.057 199.115C748.369 198.603 748.803 198.204 749.342 197.916C749.88 197.628 750.47 197.468 751.095 197.468H754.828C755.471 197.468 756.044 197.612 756.582 197.916C757.12 198.204 757.537 198.603 757.867 199.115L759.829 202.28H763.51C764.152 202.28 764.725 202.423 765.264 202.727C765.802 203.015 766.219 203.414 766.548 203.926L768.493 207.123C768.806 207.602 768.962 208.114 768.962 208.689C768.962 209.265 768.806 209.776 768.493 210.256L766.496 213.484L768.493 216.729C768.806 217.209 768.962 217.72 768.962 218.28C768.962 218.839 768.806 219.366 768.493 219.846L766.548 223.043C766.236 223.554 765.802 223.954 765.264 224.242C764.725 224.529 764.135 224.673 763.51 224.673H759.829L757.867 227.838C757.554 228.349 757.12 228.749 756.582 229.037C756.044 229.324 755.454 229.468 754.828 229.468H751.095C750.453 229.468 749.88 229.324 749.342 229.037C748.803 228.749 748.387 228.349 748.057 227.838L746.112 224.673ZM759.829 211.886H763.562L765.472 208.689L763.562 205.492H759.829L757.867 208.689L759.829 211.886ZM751.147 216.681H754.794L756.738 213.484L754.794 210.288H751.147L749.203 213.484L751.147 216.681ZM751.147 207.091H754.794L756.79 203.846L754.846 200.697H751.113L749.168 203.846L751.165 207.091H751.147ZM748.074 208.689L746.13 205.492H742.449L740.504 208.689L742.449 211.886H746.13L748.074 208.689ZM748.074 218.28L746.13 215.083H742.397L740.487 218.28L742.431 221.476H746.112L748.057 218.28H748.074ZM751.147 219.878L749.151 223.107L751.095 226.272H754.828L756.773 223.107L754.776 219.878H751.13H751.147ZM759.829 221.476H763.51L765.455 218.28L763.51 215.083H759.829L757.867 218.28L759.829 221.476Z" fill="url(#paint15_linear_6051_1637)"/>
<path d="M775.207 287.065H771.526C770.884 287.065 770.311 286.921 769.772 286.634C769.234 286.346 768.817 285.946 768.487 285.435L766.525 282.238C766.213 281.759 766.057 281.247 766.057 280.672C766.057 280.096 766.213 279.601 766.525 279.121L768.522 275.876L766.525 272.648C766.213 272.168 766.057 271.641 766.057 271.081C766.057 270.522 766.213 269.994 766.525 269.515L768.487 266.318C768.8 265.807 769.234 265.407 769.772 265.119C770.311 264.832 770.901 264.672 771.526 264.672H775.207L777.152 261.507C777.464 260.995 777.898 260.596 778.436 260.308C778.975 260.02 779.565 259.86 780.19 259.86H783.923C784.566 259.86 785.139 260.004 785.677 260.308C786.215 260.596 786.632 260.995 786.962 261.507L788.924 264.672H792.605C793.247 264.672 793.82 264.816 794.358 265.119C794.897 265.407 795.313 265.807 795.643 266.318L797.588 269.515C797.9 269.994 798.057 270.506 798.057 271.081C798.057 271.657 797.9 272.168 797.588 272.648L795.591 275.876L797.588 279.121C797.9 279.601 798.057 280.112 798.057 280.672C798.057 281.231 797.9 281.759 797.588 282.238L795.643 285.435C795.331 285.946 794.897 286.346 794.358 286.634C793.82 286.921 793.23 287.065 792.605 287.065H788.924L786.962 290.23C786.649 290.742 786.215 291.141 785.677 291.429C785.139 291.717 784.548 291.86 783.923 291.86H780.19C779.548 291.86 778.975 291.717 778.436 291.429C777.898 291.141 777.481 290.742 777.152 290.23L775.207 287.065ZM788.924 274.278H792.657L794.567 271.081L792.657 267.884H788.924L786.962 271.081L788.924 274.278ZM780.242 279.073H783.888L785.833 275.876L783.888 272.68H780.242L778.298 275.876L780.242 279.073ZM780.242 269.483H783.888L785.885 266.238L783.941 263.089H780.207L778.263 266.238L780.26 269.483H780.242ZM777.169 271.081L775.224 267.884H771.543L769.599 271.081L771.543 274.278H775.224L777.169 271.081ZM777.169 280.672L775.224 277.475H771.491L769.581 280.672L771.526 283.868H775.207L777.152 280.672H777.169ZM780.242 282.27L778.245 285.499L780.19 288.664H783.923L785.868 285.499L783.871 282.27H780.225H780.242ZM788.924 283.868H792.605L794.549 280.672L792.605 277.475H788.924L786.962 280.672L788.924 283.868Z" fill="url(#paint16_linear_6051_1637)"/>
<path d="M793.024 353.561H789.343C788.701 353.561 788.128 353.418 787.59 353.13C787.051 352.842 786.635 352.443 786.305 351.931L784.343 348.734C784.03 348.255 783.874 347.743 783.874 347.168C783.874 346.592 784.03 346.097 784.343 345.617L786.34 342.373L784.343 339.144C784.03 338.664 783.874 338.137 783.874 337.577C783.874 337.018 784.03 336.491 784.343 336.011L786.305 332.814C786.617 332.303 787.051 331.903 787.59 331.615C788.128 331.328 788.718 331.168 789.343 331.168H793.024L794.969 328.003C795.282 327.492 795.716 327.092 796.254 326.804C796.792 326.517 797.382 326.357 798.008 326.357H801.741C802.383 326.357 802.956 326.501 803.494 326.804C804.032 327.092 804.449 327.492 804.779 328.003L806.741 331.168H810.422C811.064 331.168 811.637 331.312 812.176 331.615C812.714 331.903 813.131 332.303 813.461 332.814L815.405 336.011C815.718 336.491 815.874 337.002 815.874 337.577C815.874 338.153 815.718 338.664 815.405 339.144L813.408 342.373L815.405 345.617C815.718 346.097 815.874 346.608 815.874 347.168C815.874 347.727 815.718 348.255 815.405 348.734L813.461 351.931C813.148 352.443 812.714 352.842 812.176 353.13C811.637 353.418 811.047 353.561 810.422 353.561H806.741L804.779 356.726C804.467 357.238 804.032 357.637 803.494 357.925C802.956 358.213 802.366 358.357 801.741 358.357H798.008C797.365 358.357 796.792 358.213 796.254 357.925C795.716 357.637 795.299 357.238 794.969 356.726L793.024 353.561ZM806.741 340.774H810.474L812.384 337.577L810.474 334.381H806.741L804.779 337.577L806.741 340.774ZM798.06 345.569H801.706L803.65 342.373L801.706 339.176H798.06L796.115 342.373L798.06 345.569ZM798.06 335.979H801.706L803.703 332.734L801.758 329.585H798.025L796.08 332.734L798.077 335.979H798.06ZM794.986 337.577L793.042 334.381H789.361L787.416 337.577L789.361 340.774H793.042L794.986 337.577ZM794.986 347.168L793.042 343.971H789.309L787.399 347.168L789.343 350.365H793.024L794.969 347.168H794.986ZM798.06 348.766L796.063 351.995L798.008 355.16H801.741L803.685 351.995L801.688 348.766H798.042H798.06ZM806.741 350.365H810.422L812.367 347.168L810.422 343.971H806.741L804.779 347.168L806.741 350.365Z" fill="url(#paint17_linear_6051_1637)"/>
<path d="M799.023 422.142H795.342C794.7 422.142 794.127 421.998 793.589 421.71C793.05 421.422 792.634 421.023 792.304 420.511L790.342 417.314C790.029 416.835 789.873 416.323 789.873 415.748C789.873 415.173 790.029 414.677 790.342 414.198L792.339 410.953L790.342 407.724C790.029 407.244 789.873 406.717 789.873 406.158C789.873 405.598 790.029 405.071 790.342 404.591L792.304 401.394C792.616 400.883 793.05 400.483 793.589 400.196C794.127 399.908 794.717 399.748 795.342 399.748H799.023L800.968 396.583C801.281 396.072 801.715 395.672 802.253 395.384C802.791 395.097 803.381 394.937 804.007 394.937H807.74C808.382 394.937 808.955 395.081 809.493 395.384C810.031 395.672 810.448 396.072 810.778 396.583L812.74 399.748H816.421C817.063 399.748 817.636 399.892 818.175 400.196C818.713 400.483 819.13 400.883 819.46 401.394L821.404 404.591C821.717 405.071 821.873 405.582 821.873 406.158C821.873 406.733 821.717 407.244 821.404 407.724L819.408 410.953L821.404 414.198C821.717 414.677 821.873 415.189 821.873 415.748C821.873 416.307 821.717 416.835 821.404 417.314L819.46 420.511C819.147 421.023 818.713 421.422 818.175 421.71C817.636 421.998 817.046 422.142 816.421 422.142H812.74L810.778 425.306C810.466 425.818 810.031 426.217 809.493 426.505C808.955 426.793 808.365 426.937 807.74 426.937H804.007C803.364 426.937 802.791 426.793 802.253 426.505C801.715 426.217 801.298 425.818 800.968 425.306L799.023 422.142ZM812.74 409.354H816.473L818.383 406.158L816.473 402.961H812.74L810.778 406.158L812.74 409.354ZM804.059 414.15H807.705L809.649 410.953L807.705 407.756H804.059L802.114 410.953L804.059 414.15ZM804.059 404.559H807.705L809.702 401.314L807.757 398.166H804.024L802.079 401.314L804.076 404.559H804.059ZM800.985 406.158L799.041 402.961H795.36L793.415 406.158L795.36 409.354H799.041L800.985 406.158ZM800.985 415.748L799.041 412.551H795.308L793.398 415.748L795.342 418.945H799.023L800.968 415.748H800.985ZM804.059 417.346L802.062 420.575L804.007 423.74H807.74L809.684 420.575L807.687 417.346H804.041H804.059ZM812.74 418.945H816.421L818.366 415.748L816.421 412.551H812.74L810.778 415.748L812.74 418.945Z" fill="url(#paint18_linear_6051_1637)"/>
<path d="M793.024 490.722H789.343C788.701 490.722 788.128 490.578 787.59 490.29C787.051 490.002 786.635 489.603 786.305 489.091L784.343 485.894C784.03 485.415 783.874 484.903 783.874 484.328C783.874 483.753 784.03 483.257 784.343 482.778L786.34 479.533L784.343 476.304C784.03 475.824 783.874 475.297 783.874 474.738C783.874 474.178 784.03 473.651 784.343 473.171L786.305 469.974C786.617 469.463 787.051 469.063 787.59 468.776C788.128 468.488 788.718 468.328 789.343 468.328H793.024L794.969 465.163C795.282 464.652 795.716 464.252 796.254 463.964C796.792 463.677 797.382 463.517 798.008 463.517H801.741C802.383 463.517 802.956 463.661 803.494 463.964C804.032 464.252 804.449 464.652 804.779 465.163L806.741 468.328H810.422C811.064 468.328 811.637 468.472 812.176 468.776C812.714 469.063 813.131 469.463 813.461 469.974L815.405 473.171C815.718 473.651 815.874 474.162 815.874 474.738C815.874 475.313 815.718 475.824 815.405 476.304L813.408 479.533L815.405 482.778C815.718 483.257 815.874 483.769 815.874 484.328C815.874 484.887 815.718 485.415 815.405 485.894L813.461 489.091C813.148 489.603 812.714 490.002 812.176 490.29C811.637 490.578 811.047 490.722 810.422 490.722H806.741L804.779 493.886C804.467 494.398 804.032 494.798 803.494 495.085C802.956 495.373 802.366 495.517 801.741 495.517H798.008C797.365 495.517 796.792 495.373 796.254 495.085C795.716 494.798 795.299 494.398 794.969 493.886L793.024 490.722ZM806.741 477.934H810.474L812.384 474.738L810.474 471.541H806.741L804.779 474.738L806.741 477.934ZM798.06 482.73H801.706L803.65 479.533L801.706 476.336H798.06L796.115 479.533L798.06 482.73ZM798.06 473.139H801.706L803.703 469.894L801.758 466.746H798.025L796.08 469.894L798.077 473.139H798.06ZM794.986 474.738L793.042 471.541H789.361L787.416 474.738L789.361 477.934H793.042L794.986 474.738ZM794.986 484.328L793.042 481.131H789.309L787.399 484.328L789.343 487.525H793.024L794.969 484.328H794.986ZM798.06 485.926L796.063 489.155L798.008 492.32H801.741L803.685 489.155L801.688 485.926H798.042H798.06ZM806.741 487.525H810.422L812.367 484.328L810.422 481.131H806.741L804.779 484.328L806.741 487.525Z" fill="url(#paint19_linear_6051_1637)"/>
<path d="M775.207 557.218H771.526C770.884 557.218 770.311 557.074 769.772 556.786C769.234 556.498 768.817 556.099 768.487 555.587L766.525 552.39C766.213 551.911 766.057 551.399 766.057 550.824C766.057 550.249 766.213 549.753 766.525 549.274L768.522 546.029L766.525 542.8C766.213 542.321 766.057 541.793 766.057 541.234C766.057 540.674 766.213 540.147 766.525 539.667L768.487 536.47C768.8 535.959 769.234 535.559 769.772 535.272C770.311 534.984 770.901 534.824 771.526 534.824H775.207L777.152 531.659C777.464 531.148 777.898 530.748 778.436 530.46C778.975 530.173 779.565 530.013 780.19 530.013H783.923C784.566 530.013 785.139 530.157 785.677 530.46C786.215 530.748 786.632 531.148 786.962 531.659L788.924 534.824H792.605C793.247 534.824 793.82 534.968 794.358 535.272C794.897 535.559 795.313 535.959 795.643 536.47L797.588 539.667C797.9 540.147 798.057 540.658 798.057 541.234C798.057 541.809 797.9 542.321 797.588 542.8L795.591 546.029L797.588 549.274C797.9 549.753 798.057 550.265 798.057 550.824C798.057 551.384 797.9 551.911 797.588 552.39L795.643 555.587C795.331 556.099 794.897 556.498 794.358 556.786C793.82 557.074 793.23 557.218 792.605 557.218H788.924L786.962 560.383C786.649 560.894 786.215 561.294 785.677 561.581C785.139 561.869 784.548 562.013 783.923 562.013H780.19C779.548 562.013 778.975 561.869 778.436 561.581C777.898 561.294 777.481 560.894 777.152 560.383L775.207 557.218ZM788.924 544.43H792.657L794.567 541.234L792.657 538.037H788.924L786.962 541.234L788.924 544.43ZM780.242 549.226H783.888L785.833 546.029L783.888 542.832H780.242L778.298 546.029L780.242 549.226ZM780.242 539.635H783.888L785.885 536.391L783.941 533.242H780.207L778.263 536.391L780.26 539.635H780.242ZM777.169 541.234L775.224 538.037H771.543L769.599 541.234L771.543 544.43H775.224L777.169 541.234ZM777.169 550.824L775.224 547.627H771.491L769.581 550.824L771.526 554.021H775.207L777.152 550.824H777.169ZM780.242 552.422L778.245 555.651L780.19 558.816H783.923L785.868 555.651L783.871 552.422H780.225H780.242ZM788.924 554.021H792.605L794.549 550.824L792.605 547.627H788.924L786.962 550.824L788.924 554.021Z" fill="url(#paint20_linear_6051_1637)"/>
<path d="M746.112 619.61H742.431C741.789 619.61 741.216 619.466 740.678 619.178C740.139 618.891 739.723 618.491 739.393 617.979L737.431 614.783C737.118 614.303 736.962 613.792 736.962 613.216C736.962 612.641 737.118 612.145 737.431 611.666L739.427 608.421L737.431 605.192C737.118 604.713 736.962 604.185 736.962 603.626C736.962 603.066 737.118 602.539 737.431 602.059L739.393 598.863C739.705 598.351 740.139 597.951 740.678 597.664C741.216 597.376 741.806 597.216 742.431 597.216H746.112L748.057 594.051C748.369 593.54 748.803 593.14 749.342 592.853C749.88 592.565 750.47 592.405 751.095 592.405H754.828C755.471 592.405 756.044 592.549 756.582 592.853C757.12 593.14 757.537 593.54 757.867 594.051L759.829 597.216H763.51C764.152 597.216 764.725 597.36 765.264 597.664C765.802 597.951 766.219 598.351 766.548 598.863L768.493 602.059C768.806 602.539 768.962 603.05 768.962 603.626C768.962 604.201 768.806 604.713 768.493 605.192L766.496 608.421L768.493 611.666C768.806 612.145 768.962 612.657 768.962 613.216C768.962 613.776 768.806 614.303 768.493 614.783L766.548 617.979C766.236 618.491 765.802 618.891 765.264 619.178C764.725 619.466 764.135 619.61 763.51 619.61H759.829L757.867 622.775C757.554 623.286 757.12 623.686 756.582 623.973C756.044 624.261 755.454 624.405 754.828 624.405H751.095C750.453 624.405 749.88 624.261 749.342 623.973C748.803 623.686 748.387 623.286 748.057 622.775L746.112 619.61ZM759.829 606.823H763.562L765.472 603.626L763.562 600.429H759.829L757.867 603.626L759.829 606.823ZM751.147 611.618H754.794L756.738 608.421L754.794 605.224H751.147L749.203 608.421L751.147 611.618ZM751.147 602.027H754.794L756.79 598.783L754.846 595.634H751.113L749.168 598.783L751.165 602.027H751.147ZM748.074 603.626L746.13 600.429H742.449L740.504 603.626L742.449 606.823H746.13L748.074 603.626ZM748.074 613.216L746.13 610.019H742.397L740.487 613.216L742.431 616.413H746.112L748.057 613.216H748.074ZM751.147 614.815L749.151 618.043L751.095 621.208H754.828L756.773 618.043L754.776 614.815H751.13H751.147ZM759.829 616.413H763.51L765.455 613.216L763.51 610.019H759.829L757.867 613.216L759.829 616.413Z" fill="url(#paint21_linear_6051_1637)"/>
<path d="M706.626 676.002H702.945C702.302 676.002 701.73 675.858 701.191 675.57C700.653 675.283 700.236 674.883 699.906 674.372L697.944 671.175C697.632 670.695 697.476 670.184 697.476 669.608C697.476 669.033 697.632 668.537 697.944 668.058L699.941 664.813L697.944 661.584C697.632 661.105 697.476 660.577 697.476 660.018C697.476 659.458 697.632 658.931 697.944 658.451L699.906 655.255C700.219 654.743 700.653 654.344 701.191 654.056C701.73 653.768 702.32 653.608 702.945 653.608H706.626L708.571 650.443C708.883 649.932 709.317 649.532 709.855 649.245C710.394 648.957 710.984 648.797 711.609 648.797H715.342C715.985 648.797 716.558 648.941 717.096 649.245C717.634 649.532 718.051 649.932 718.381 650.443L720.343 653.608H724.024C724.666 653.608 725.239 653.752 725.777 654.056C726.316 654.344 726.732 654.743 727.062 655.255L729.007 658.451C729.319 658.931 729.476 659.442 729.476 660.018C729.476 660.593 729.319 661.105 729.007 661.584L727.01 664.813L729.007 668.058C729.319 668.537 729.476 669.049 729.476 669.608C729.476 670.168 729.319 670.695 729.007 671.175L727.062 674.372C726.75 674.883 726.316 675.283 725.777 675.57C725.239 675.858 724.649 676.002 724.024 676.002H720.343L718.381 679.167C718.068 679.678 717.634 680.078 717.096 680.366C716.558 680.653 715.967 680.797 715.342 680.797H711.609C710.967 680.797 710.394 680.653 709.855 680.366C709.317 680.078 708.9 679.678 708.571 679.167L706.626 676.002ZM720.343 663.215H724.076L725.986 660.018L724.076 656.821H720.343L718.381 660.018L720.343 663.215ZM711.661 668.01H715.307L717.252 664.813L715.307 661.616H711.661L709.716 664.813L711.661 668.01ZM711.661 658.419H715.307L717.304 655.175L715.359 652.026H711.626L709.682 655.175L711.679 658.419H711.661ZM708.588 660.018L706.643 656.821H702.962L701.018 660.018L702.962 663.215H706.643L708.588 660.018ZM708.588 669.608L706.643 666.412H702.91L701 669.608L702.945 672.805H706.626L708.571 669.608H708.588ZM711.661 671.207L709.664 674.435L711.609 677.6H715.342L717.287 674.435L715.29 671.207H711.644H711.661ZM720.343 672.805H724.024L725.968 669.608L724.024 666.412H720.343L718.381 669.608L720.343 672.805Z" fill="url(#paint22_linear_6051_1637)"/>
<path d="M657.947 724.681H654.266C653.624 724.681 653.051 724.537 652.513 724.249C651.974 723.961 651.558 723.562 651.228 723.05L649.266 719.853C648.953 719.374 648.797 718.862 648.797 718.287C648.797 717.712 648.953 717.216 649.266 716.737L651.262 713.492L649.266 710.263C648.953 709.784 648.797 709.256 648.797 708.697C648.797 708.137 648.953 707.61 649.266 707.13L651.228 703.933C651.54 703.422 651.974 703.022 652.513 702.735C653.051 702.447 653.641 702.287 654.266 702.287H657.947L659.892 699.122C660.204 698.611 660.638 698.211 661.177 697.923C661.715 697.636 662.305 697.476 662.93 697.476H666.663C667.306 697.476 667.879 697.62 668.417 697.923C668.955 698.211 669.372 698.611 669.702 699.122L671.664 702.287H675.345C675.987 702.287 676.56 702.431 677.099 702.735C677.637 703.022 678.054 703.422 678.383 703.933L680.328 707.13C680.641 707.61 680.797 708.121 680.797 708.697C680.797 709.272 680.641 709.784 680.328 710.263L678.331 713.492L680.328 716.737C680.641 717.216 680.797 717.728 680.797 718.287C680.797 718.846 680.641 719.374 680.328 719.853L678.383 723.05C678.071 723.562 677.637 723.961 677.099 724.249C676.56 724.537 675.97 724.681 675.345 724.681H671.664L669.702 727.845C669.389 728.357 668.955 728.757 668.417 729.044C667.879 729.332 667.288 729.476 666.663 729.476H662.93C662.288 729.476 661.715 729.332 661.177 729.044C660.638 728.757 660.222 728.357 659.892 727.845L657.947 724.681ZM671.664 711.893H675.397L677.307 708.697L675.397 705.5H671.664L669.702 708.697L671.664 711.893ZM662.982 716.689H666.629L668.573 713.492L666.629 710.295H662.982L661.038 713.492L662.982 716.689ZM662.982 707.098H666.629L668.625 703.853L666.681 700.705H662.948L661.003 703.853L663 707.098H662.982ZM659.909 708.697L657.965 705.5H654.284L652.339 708.697L654.284 711.893H657.965L659.909 708.697ZM659.909 718.287L657.965 715.09H654.231L652.322 718.287L654.266 721.484H657.947L659.892 718.287H659.909ZM662.982 719.885L660.986 723.114L662.93 726.279H666.663L668.608 723.114L666.611 719.885H662.965H662.982ZM671.664 721.484H675.345L677.29 718.287L675.345 715.09H671.664L669.702 718.287L671.664 721.484Z" fill="url(#paint23_linear_6051_1637)"/>
<path d="M601.556 764.167H597.875C597.232 764.167 596.659 764.023 596.121 763.735C595.583 763.447 595.166 763.048 594.836 762.536L592.874 759.34C592.562 758.86 592.405 758.349 592.405 757.773C592.405 757.198 592.562 756.702 592.874 756.223L594.871 752.978L592.874 749.749C592.562 749.27 592.405 748.742 592.405 748.183C592.405 747.623 592.562 747.096 592.874 746.616L594.836 743.419C595.149 742.908 595.583 742.508 596.121 742.221C596.659 741.933 597.25 741.773 597.875 741.773H601.556L603.5 738.608C603.813 738.097 604.247 737.697 604.785 737.409C605.323 737.122 605.914 736.962 606.539 736.962H610.272C610.914 736.962 611.487 737.106 612.025 737.409C612.564 737.697 612.98 738.097 613.31 738.608L615.272 741.773H618.953C619.596 741.773 620.169 741.917 620.707 742.221C621.245 742.508 621.662 742.908 621.992 743.419L623.936 746.616C624.249 747.096 624.405 747.607 624.405 748.183C624.405 748.758 624.249 749.27 623.936 749.749L621.94 752.978L623.936 756.223C624.249 756.702 624.405 757.214 624.405 757.773C624.405 758.333 624.249 758.86 623.936 759.34L621.992 762.536C621.679 763.048 621.245 763.447 620.707 763.735C620.169 764.023 619.578 764.167 618.953 764.167H615.272L613.31 767.332C612.998 767.843 612.564 768.243 612.025 768.53C611.487 768.818 610.897 768.962 610.272 768.962H606.539C605.896 768.962 605.323 768.818 604.785 768.53C604.247 768.243 603.83 767.843 603.5 767.332L601.556 764.167ZM615.272 751.379H619.005L620.915 748.183L619.005 744.986H615.272L613.31 748.183L615.272 751.379ZM606.591 756.175H610.237L612.182 752.978L610.237 749.781H606.591L604.646 752.978L606.591 756.175ZM606.591 746.584H610.237L612.234 743.34L610.289 740.191H606.556L604.611 743.34L606.608 746.584H606.591ZM603.518 748.183L601.573 744.986H597.892L595.947 748.183L597.892 751.379H601.573L603.518 748.183ZM603.518 757.773L601.573 754.576H597.84L595.93 757.773L597.875 760.97H601.556L603.5 757.773H603.518ZM606.591 759.372L604.594 762.6L606.539 765.765H610.272L612.216 762.6L610.22 759.372H606.573H606.591ZM615.272 760.97H618.953L620.898 757.773L618.953 754.576H615.272L613.31 757.773L615.272 760.97Z" fill="url(#paint24_linear_6051_1637)"/>
<path d="M539.164 793.26H535.483C534.841 793.26 534.268 793.117 533.729 792.829C533.191 792.541 532.774 792.142 532.444 791.63L530.482 788.433C530.17 787.954 530.014 787.442 530.014 786.867C530.014 786.291 530.17 785.796 530.482 785.316L532.479 782.072L530.482 778.843C530.17 778.363 530.014 777.836 530.014 777.276C530.014 776.717 530.17 776.19 530.482 775.71L532.444 772.513C532.757 772.002 533.191 771.602 533.729 771.314C534.268 771.027 534.858 770.867 535.483 770.867H539.164L541.109 767.702C541.421 767.191 541.855 766.791 542.393 766.503C542.932 766.216 543.522 766.056 544.147 766.056H547.88C548.523 766.056 549.096 766.2 549.634 766.503C550.172 766.791 550.589 767.191 550.919 767.702L552.881 770.867H556.562C557.204 770.867 557.777 771.011 558.315 771.314C558.854 771.602 559.27 772.002 559.6 772.513L561.545 775.71C561.857 776.19 562.014 776.701 562.014 777.276C562.014 777.852 561.857 778.363 561.545 778.843L559.548 782.072L561.545 785.316C561.857 785.796 562.014 786.307 562.014 786.867C562.014 787.426 561.857 787.954 561.545 788.433L559.6 791.63C559.288 792.142 558.854 792.541 558.315 792.829C557.777 793.117 557.187 793.26 556.562 793.26H552.881L550.919 796.425C550.606 796.937 550.172 797.336 549.634 797.624C549.096 797.912 548.505 798.056 547.88 798.056H544.147C543.505 798.056 542.932 797.912 542.393 797.624C541.855 797.336 541.439 796.937 541.109 796.425L539.164 793.26ZM552.881 780.473H556.614L558.524 777.276L556.614 774.08H552.881L550.919 777.276L552.881 780.473ZM544.199 785.268H547.845L549.79 782.072L547.845 778.875H544.199L542.255 782.072L544.199 785.268ZM544.199 775.678H547.845L549.842 772.433L547.898 769.284H544.165L542.22 772.433L544.217 775.678H544.199ZM541.126 777.276L539.181 774.08H535.5L533.556 777.276L535.5 780.473H539.181L541.126 777.276ZM541.126 786.867L539.181 783.67H535.448L533.538 786.867L535.483 790.064H539.164L541.109 786.867H541.126ZM544.199 788.465L542.202 791.694L544.147 794.859H547.88L549.825 791.694L547.828 788.465H544.182H544.199ZM552.881 790.064H556.562L558.506 786.867L556.562 783.67H552.881L550.919 786.867L552.881 790.064Z" fill="url(#paint25_linear_6051_1637)"/>
<path d="M472.668 811.078H468.987C468.344 811.078 467.772 810.934 467.233 810.647C466.695 810.359 466.278 809.959 465.948 809.448L463.986 806.251C463.674 805.772 463.518 805.26 463.518 804.685C463.518 804.109 463.674 803.614 463.986 803.134L465.983 799.89L463.986 796.661C463.674 796.181 463.518 795.654 463.518 795.094C463.518 794.535 463.674 794.007 463.986 793.528L465.948 790.331C466.261 789.82 466.695 789.42 467.233 789.132C467.772 788.845 468.362 788.685 468.987 788.685H472.668L474.613 785.52C474.925 785.008 475.359 784.609 475.897 784.321C476.436 784.033 477.026 783.874 477.651 783.874H481.384C482.027 783.874 482.6 784.017 483.138 784.321C483.676 784.609 484.093 785.008 484.423 785.52L486.385 788.685H490.066C490.708 788.685 491.281 788.829 491.819 789.132C492.358 789.42 492.774 789.82 493.104 790.331L495.049 793.528C495.361 794.007 495.518 794.519 495.518 795.094C495.518 795.67 495.361 796.181 495.049 796.661L493.052 799.89L495.049 803.134C495.361 803.614 495.518 804.125 495.518 804.685C495.518 805.244 495.361 805.772 495.049 806.251L493.104 809.448C492.792 809.959 492.358 810.359 491.819 810.647C491.281 810.934 490.691 811.078 490.066 811.078H486.385L484.423 814.243C484.11 814.755 483.676 815.154 483.138 815.442C482.6 815.73 482.009 815.874 481.384 815.874H477.651C477.009 815.874 476.436 815.73 475.897 815.442C475.359 815.154 474.942 814.755 474.613 814.243L472.668 811.078ZM486.385 798.291H490.118L492.028 795.094L490.118 791.898H486.385L484.423 795.094L486.385 798.291ZM477.703 803.086H481.349L483.294 799.89L481.349 796.693H477.703L475.758 799.89L477.703 803.086ZM477.703 793.496H481.349L483.346 790.251L481.401 787.102H477.668L475.724 790.251L477.721 793.496H477.703ZM474.63 795.094L472.685 791.898H469.004L467.06 795.094L469.004 798.291H472.685L474.63 795.094ZM474.63 804.685L472.685 801.488H468.952L467.042 804.685L468.987 807.882H472.668L474.613 804.685H474.63ZM477.703 806.283L475.706 809.512L477.651 812.677H481.384L483.329 809.512L481.332 806.283H477.686H477.703ZM486.385 807.882H490.066L492.01 804.685L490.066 801.488H486.385L484.423 804.685L486.385 807.882Z" fill="url(#paint26_linear_6051_1637)"/>
<path d="M404.087 817.078H400.406C399.763 817.078 399.19 816.934 398.652 816.647C398.114 816.359 397.697 815.959 397.367 815.448L395.405 812.251C395.093 811.772 394.937 811.26 394.937 810.685C394.937 810.109 395.093 809.614 395.405 809.134L397.402 805.89L395.405 802.661C395.093 802.181 394.937 801.654 394.937 801.094C394.937 800.535 395.093 800.007 395.405 799.528L397.367 796.331C397.68 795.82 398.114 795.42 398.652 795.132C399.19 794.845 399.781 794.685 400.406 794.685H404.087L406.031 791.52C406.344 791.008 406.778 790.609 407.316 790.321C407.855 790.033 408.445 789.874 409.07 789.874H412.803C413.445 789.874 414.018 790.017 414.557 790.321C415.095 790.609 415.512 791.008 415.842 791.52L417.804 794.685H421.485C422.127 794.685 422.7 794.829 423.238 795.132C423.776 795.42 424.193 795.82 424.523 796.331L426.468 799.528C426.78 800.007 426.937 800.519 426.937 801.094C426.937 801.67 426.78 802.181 426.468 802.661L424.471 805.89L426.468 809.134C426.78 809.614 426.937 810.125 426.937 810.685C426.937 811.244 426.78 811.772 426.468 812.251L424.523 815.448C424.211 815.959 423.776 816.359 423.238 816.647C422.7 816.934 422.11 817.078 421.485 817.078H417.804L415.842 820.243C415.529 820.755 415.095 821.154 414.557 821.442C414.018 821.73 413.428 821.874 412.803 821.874H409.07C408.428 821.874 407.855 821.73 407.316 821.442C406.778 821.154 406.361 820.755 406.031 820.243L404.087 817.078ZM417.804 804.291H421.537L423.447 801.094L421.537 797.898H417.804L415.842 801.094L417.804 804.291ZM409.122 809.086H412.768L414.713 805.89L412.768 802.693H409.122L407.177 805.89L409.122 809.086ZM409.122 799.496H412.768L414.765 796.251L412.82 793.102H409.087L407.143 796.251L409.139 799.496H409.122ZM406.049 801.094L404.104 797.898H400.423L398.479 801.094L400.423 804.291H404.104L406.049 801.094ZM406.049 810.685L404.104 807.488H400.371L398.461 810.685L400.406 813.882H404.087L406.031 810.685H406.049ZM409.122 812.283L407.125 815.512L409.07 818.677H412.803L414.748 815.512L412.751 812.283H409.105H409.122ZM417.804 813.882H421.485L423.429 810.685L421.485 807.488H417.804L415.842 810.685L417.804 813.882Z" fill="url(#paint27_linear_6051_1637)"/>
<path d="M335.507 811.078H331.826C331.183 811.078 330.61 810.934 330.072 810.647C329.534 810.359 329.117 809.959 328.787 809.448L326.825 806.251C326.513 805.772 326.356 805.26 326.356 804.685C326.356 804.109 326.513 803.614 326.825 803.134L328.822 799.89L326.825 796.661C326.513 796.181 326.356 795.654 326.356 795.094C326.356 794.535 326.513 794.007 326.825 793.528L328.787 790.331C329.1 789.82 329.534 789.42 330.072 789.132C330.61 788.845 331.201 788.685 331.826 788.685H335.507L337.451 785.52C337.764 785.008 338.198 784.609 338.736 784.321C339.275 784.033 339.865 783.874 340.49 783.874H344.223C344.865 783.874 345.438 784.017 345.977 784.321C346.515 784.609 346.932 785.008 347.261 785.52L349.224 788.685H352.904C353.547 788.685 354.12 788.829 354.658 789.132C355.196 789.42 355.613 789.82 355.943 790.331L357.888 793.528C358.2 794.007 358.356 794.519 358.356 795.094C358.356 795.67 358.2 796.181 357.888 796.661L355.891 799.89L357.888 803.134C358.2 803.614 358.356 804.125 358.356 804.685C358.356 805.244 358.2 805.772 357.888 806.251L355.943 809.448C355.63 809.959 355.196 810.359 354.658 810.647C354.12 810.934 353.53 811.078 352.904 811.078H349.224L347.261 814.243C346.949 814.755 346.515 815.154 345.977 815.442C345.438 815.73 344.848 815.874 344.223 815.874H340.49C339.847 815.874 339.275 815.73 338.736 815.442C338.198 815.154 337.781 814.755 337.451 814.243L335.507 811.078ZM349.224 798.291H352.957L354.866 795.094L352.957 791.898H349.224L347.261 795.094L349.224 798.291ZM340.542 803.086H344.188L346.133 799.89L344.188 796.693H340.542L338.597 799.89L340.542 803.086ZM340.542 793.496H344.188L346.185 790.251L344.24 787.102H340.507L338.563 790.251L340.559 793.496H340.542ZM337.469 795.094L335.524 791.898H331.843L329.898 795.094L331.843 798.291H335.524L337.469 795.094ZM337.469 804.685L335.524 801.488H331.791L329.881 804.685L331.826 807.882H335.507L337.451 804.685H337.469ZM340.542 806.283L338.545 809.512L340.49 812.677H344.223L346.168 809.512L344.171 806.283H340.525H340.542ZM349.224 807.882H352.904L354.849 804.685L352.904 801.488H349.224L347.261 804.685L349.224 807.882Z" fill="url(#paint28_linear_6051_1637)"/>
<path d="M269.01 793.26H265.329C264.686 793.26 264.113 793.117 263.575 792.829C263.037 792.541 262.62 792.142 262.29 791.63L260.328 788.433C260.016 787.954 259.859 787.442 259.859 786.867C259.859 786.291 260.016 785.796 260.328 785.316L262.325 782.072L260.328 778.843C260.016 778.363 259.859 777.836 259.859 777.276C259.859 776.717 260.016 776.19 260.328 775.71L262.29 772.513C262.603 772.002 263.037 771.602 263.575 771.314C264.113 771.027 264.704 770.867 265.329 770.867H269.01L270.954 767.702C271.267 767.191 271.701 766.791 272.239 766.503C272.777 766.216 273.368 766.056 273.993 766.056H277.726C278.368 766.056 278.941 766.2 279.48 766.503C280.018 766.791 280.435 767.191 280.764 767.702L282.726 770.867H286.407C287.05 770.867 287.623 771.011 288.161 771.314C288.699 771.602 289.116 772.002 289.446 772.513L291.391 775.71C291.703 776.19 291.859 776.701 291.859 777.276C291.859 777.852 291.703 778.363 291.391 778.843L289.394 782.072L291.391 785.316C291.703 785.796 291.859 786.307 291.859 786.867C291.859 787.426 291.703 787.954 291.391 788.433L289.446 791.63C289.133 792.142 288.699 792.541 288.161 792.829C287.623 793.117 287.032 793.26 286.407 793.26H282.726L280.764 796.425C280.452 796.937 280.018 797.336 279.48 797.624C278.941 797.912 278.351 798.056 277.726 798.056H273.993C273.35 798.056 272.777 797.912 272.239 797.624C271.701 797.336 271.284 796.937 270.954 796.425L269.01 793.26ZM282.726 780.473H286.459L288.369 777.276L286.459 774.08H282.726L280.764 777.276L282.726 780.473ZM274.045 785.268H277.691L279.636 782.072L277.691 778.875H274.045L272.1 782.072L274.045 785.268ZM274.045 775.678H277.691L279.688 772.433L277.743 769.284H274.01L272.066 772.433L274.062 775.678H274.045ZM270.972 777.276L269.027 774.08H265.346L263.401 777.276L265.346 780.473H269.027L270.972 777.276ZM270.972 786.867L269.027 783.67H265.294L263.384 786.867L265.329 790.064H269.01L270.954 786.867H270.972ZM274.045 788.465L272.048 791.694L273.993 794.859H277.726L279.671 791.694L277.674 788.465H274.028H274.045ZM282.726 790.064H286.407L288.352 786.867L286.407 783.67H282.726L280.764 786.867L282.726 790.064Z" fill="url(#paint29_linear_6051_1637)"/>
<path d="M206.619 764.167H202.938C202.296 764.167 201.723 764.023 201.184 763.735C200.646 763.447 200.229 763.048 199.9 762.536L197.938 759.34C197.625 758.86 197.469 758.349 197.469 757.773C197.469 757.198 197.625 756.702 197.938 756.223L199.934 752.978L197.938 749.749C197.625 749.27 197.469 748.742 197.469 748.183C197.469 747.623 197.625 747.096 197.938 746.616L199.9 743.419C200.212 742.908 200.646 742.508 201.184 742.221C201.723 741.933 202.313 741.773 202.938 741.773H206.619L208.564 738.608C208.876 738.097 209.31 737.697 209.849 737.409C210.387 737.122 210.977 736.962 211.602 736.962H215.335C215.978 736.962 216.551 737.106 217.089 737.409C217.627 737.697 218.044 738.097 218.374 738.608L220.336 741.773H224.017C224.659 741.773 225.232 741.917 225.77 742.221C226.309 742.508 226.725 742.908 227.055 743.419L229 746.616C229.312 747.096 229.469 747.607 229.469 748.183C229.469 748.758 229.312 749.27 229 749.749L227.003 752.978L229 756.223C229.312 756.702 229.469 757.214 229.469 757.773C229.469 758.333 229.312 758.86 229 759.34L227.055 762.536C226.743 763.048 226.309 763.447 225.77 763.735C225.232 764.023 224.642 764.167 224.017 764.167H220.336L218.374 767.332C218.061 767.843 217.627 768.243 217.089 768.53C216.551 768.818 215.96 768.962 215.335 768.962H211.602C210.96 768.962 210.387 768.818 209.849 768.53C209.31 768.243 208.894 767.843 208.564 767.332L206.619 764.167ZM220.336 751.379H224.069L225.979 748.183L224.069 744.986H220.336L218.374 748.183L220.336 751.379ZM211.654 756.175H215.301L217.245 752.978L215.301 749.781H211.654L209.71 752.978L211.654 756.175ZM211.654 746.584H215.301L217.297 743.34L215.353 740.191H211.62L209.675 743.34L211.672 746.584H211.654ZM208.581 748.183L206.636 744.986H202.955L201.011 748.183L202.955 751.379H206.636L208.581 748.183ZM208.581 757.773L206.636 754.576H202.903L200.993 757.773L202.938 760.97H206.619L208.564 757.773H208.581ZM211.654 759.372L209.658 762.6L211.602 765.765H215.335L217.28 762.6L215.283 759.372H211.637H211.654ZM220.336 760.97H224.017L225.961 757.773L224.017 754.576H220.336L218.374 757.773L220.336 760.97Z" fill="url(#paint30_linear_6051_1637)"/>
<path d="M150.226 724.681H146.546C145.903 724.681 145.33 724.537 144.792 724.249C144.254 723.961 143.837 723.562 143.507 723.05L141.545 719.853C141.232 719.374 141.076 718.862 141.076 718.287C141.076 717.712 141.232 717.216 141.545 716.737L143.542 713.492L141.545 710.263C141.232 709.784 141.076 709.256 141.076 708.697C141.076 708.137 141.232 707.61 141.545 707.13L143.507 703.933C143.82 703.422 144.254 703.022 144.792 702.735C145.33 702.447 145.92 702.287 146.546 702.287H150.226L152.171 699.122C152.484 698.611 152.918 698.211 153.456 697.923C153.994 697.636 154.585 697.476 155.21 697.476H158.943C159.585 697.476 160.158 697.62 160.696 697.923C161.235 698.211 161.651 698.611 161.981 699.122L163.943 702.287H167.624C168.267 702.287 168.84 702.431 169.378 702.735C169.916 703.022 170.333 703.422 170.663 703.933L172.607 707.13C172.92 707.61 173.076 708.121 173.076 708.697C173.076 709.272 172.92 709.784 172.607 710.263L170.611 713.492L172.607 716.737C172.92 717.216 173.076 717.728 173.076 718.287C173.076 718.846 172.92 719.374 172.607 719.853L170.663 723.05C170.35 723.562 169.916 723.961 169.378 724.249C168.84 724.537 168.249 724.681 167.624 724.681H163.943L161.981 727.845C161.669 728.357 161.235 728.757 160.696 729.044C160.158 729.332 159.568 729.476 158.943 729.476H155.21C154.567 729.476 153.994 729.332 153.456 729.044C152.918 728.757 152.501 728.357 152.171 727.845L150.226 724.681ZM163.943 711.893H167.676L169.586 708.697L167.676 705.5H163.943L161.981 708.697L163.943 711.893ZM155.262 716.689H158.908L160.853 713.492L158.908 710.295H155.262L153.317 713.492L155.262 716.689ZM155.262 707.098H158.908L160.905 703.853L158.96 700.705H155.227L153.282 703.853L155.279 707.098H155.262ZM152.188 708.697L150.244 705.5H146.563L144.618 708.697L146.563 711.893H150.244L152.188 708.697ZM152.188 718.287L150.244 715.09H146.511L144.601 718.287L146.546 721.484H150.226L152.171 718.287H152.188ZM155.262 719.885L153.265 723.114L155.21 726.279H158.943L160.887 723.114L158.891 719.885H155.244H155.262ZM163.943 721.484H167.624L169.569 718.287L167.624 715.09H163.943L161.981 718.287L163.943 721.484Z" fill="url(#paint31_linear_6051_1637)"/>
<path d="M101.548 676.002H97.8668C97.2244 676.002 96.6514 675.858 96.1131 675.57C95.5749 675.283 95.1582 674.883 94.8283 674.372L92.8663 671.175C92.5537 670.695 92.3975 670.184 92.3975 669.608C92.3975 669.033 92.5537 668.537 92.8663 668.058L94.863 664.813L92.8663 661.584C92.5537 661.105 92.3975 660.577 92.3975 660.018C92.3975 659.458 92.5537 658.931 92.8663 658.451L94.8283 655.255C95.1408 654.743 95.5749 654.344 96.1131 654.056C96.6514 653.768 97.2417 653.608 97.8668 653.608H101.548L103.492 650.443C103.805 649.932 104.239 649.532 104.777 649.245C105.316 648.957 105.906 648.797 106.531 648.797H110.264C110.906 648.797 111.479 648.941 112.018 649.245C112.556 649.532 112.973 649.932 113.303 650.443L115.265 653.608H118.945C119.588 653.608 120.161 653.752 120.699 654.056C121.237 654.344 121.654 654.743 121.984 655.255L123.929 658.451C124.241 658.931 124.397 659.442 124.397 660.018C124.397 660.593 124.241 661.105 123.929 661.584L121.932 664.813L123.929 668.058C124.241 668.537 124.397 669.049 124.397 669.608C124.397 670.168 124.241 670.695 123.929 671.175L121.984 674.372C121.671 674.883 121.237 675.283 120.699 675.57C120.161 675.858 119.571 676.002 118.945 676.002H115.265L113.303 679.167C112.99 679.678 112.556 680.078 112.018 680.366C111.479 680.653 110.889 680.797 110.264 680.797H106.531C105.889 680.797 105.316 680.653 104.777 680.366C104.239 680.078 103.822 679.678 103.492 679.167L101.548 676.002ZM115.265 663.215H118.998L120.907 660.018L118.998 656.821H115.265L113.303 660.018L115.265 663.215ZM106.583 668.01H110.229L112.174 664.813L110.229 661.616H106.583L104.638 664.813L106.583 668.01ZM106.583 658.419H110.229L112.226 655.175L110.281 652.026H106.548L104.604 655.175L106.6 658.419H106.583ZM103.51 660.018L101.565 656.821H97.8842L95.9395 660.018L97.8842 663.215H101.565L103.51 660.018ZM103.51 669.608L101.565 666.412H97.8321L95.9221 669.608L97.8668 672.805H101.548L103.492 669.608H103.51ZM106.583 671.207L104.586 674.435L106.531 677.6H110.264L112.209 674.435L110.212 671.207H106.566H106.583ZM115.265 672.805H118.945L120.89 669.608L118.945 666.412H115.265L113.303 669.608L115.265 672.805Z" fill="url(#paint32_linear_6051_1637)"/>
<path d="M62.0614 619.61H58.3805C57.738 619.61 57.1651 619.466 56.6268 619.178C56.0886 618.891 55.6718 618.491 55.342 617.979L53.3799 614.783C53.0674 614.303 52.9111 613.792 52.9111 613.216C52.9111 612.641 53.0674 612.145 53.3799 611.666L55.3767 608.421L53.3799 605.192C53.0674 604.713 52.9111 604.185 52.9111 603.626C52.9111 603.066 53.0674 602.539 53.3799 602.059L55.342 598.863C55.6545 598.351 56.0886 597.951 56.6268 597.664C57.1651 597.376 57.7554 597.216 58.3805 597.216H62.0614L64.0061 594.051C64.3186 593.54 64.7527 593.14 65.2909 592.853C65.8292 592.565 66.4195 592.405 67.0446 592.405H70.7777C71.4201 592.405 71.9931 592.549 72.5313 592.853C73.0696 593.14 73.4863 593.54 73.8162 594.051L75.7782 597.216H79.4592C80.1016 597.216 80.6746 597.36 81.2128 597.664C81.7511 597.951 82.1678 598.351 82.4977 598.863L84.4423 602.059C84.7549 602.539 84.9111 603.05 84.9111 603.626C84.9111 604.201 84.7549 604.713 84.4423 605.192L82.4456 608.421L84.4423 611.666C84.7549 612.145 84.9111 612.657 84.9111 613.216C84.9111 613.776 84.7549 614.303 84.4423 614.783L82.4977 617.979C82.1851 618.491 81.7511 618.891 81.2128 619.178C80.6746 619.466 80.0842 619.61 79.4592 619.61H75.7782L73.8162 622.775C73.5036 623.286 73.0696 623.686 72.5313 623.973C71.9931 624.261 71.4027 624.405 70.7777 624.405H67.0446C66.4022 624.405 65.8292 624.261 65.2909 623.973C64.7527 623.686 64.336 623.286 64.0061 622.775L62.0614 619.61ZM75.7782 606.823H79.5112L81.4212 603.626L79.5112 600.429H75.7782L73.8162 603.626L75.7782 606.823ZM67.0967 611.618H70.7429L72.6876 608.421L70.7429 605.224H67.0967L65.152 608.421L67.0967 611.618ZM67.0967 602.027H70.7429L72.7397 598.783L70.795 595.634H67.062L65.1173 598.783L67.1141 602.027H67.0967ZM64.0234 603.626L62.0788 600.429H58.3978L56.4532 603.626L58.3978 606.823H62.0788L64.0234 603.626ZM64.0234 613.216L62.0788 610.019H58.3458L56.4358 613.216L58.3805 616.413H62.0614L64.0061 613.216H64.0234ZM67.0967 614.815L65.1 618.043L67.0446 621.208H70.7777L72.7223 618.043L70.7256 614.815H67.0793H67.0967ZM75.7782 616.413H79.4592L81.4038 613.216L79.4592 610.019H75.7782L73.8162 613.216L75.7782 616.413Z" fill="url(#paint33_linear_6051_1637)"/>
<path d="M32.9667 557.218H29.2857C28.6433 557.218 28.0703 557.074 27.5321 556.786C26.9938 556.498 26.5771 556.099 26.2472 555.587L24.2852 552.39C23.9727 551.911 23.8164 551.399 23.8164 550.824C23.8164 550.249 23.9727 549.753 24.2852 549.274L26.282 546.029L24.2852 542.8C23.9727 542.321 23.8164 541.793 23.8164 541.234C23.8164 540.674 23.9727 540.147 24.2852 539.667L26.2472 536.47C26.5598 535.959 26.9938 535.559 27.5321 535.272C28.0703 534.984 28.6607 534.824 29.2857 534.824H32.9667L34.9114 531.659C35.2239 531.148 35.658 530.748 36.1962 530.46C36.7345 530.173 37.3248 530.013 37.9499 530.013H41.6829C42.3254 530.013 42.8983 530.157 43.4366 530.46C43.9748 530.748 44.3916 531.148 44.7215 531.659L46.6835 534.824H50.3644C51.0069 534.824 51.5798 534.968 52.1181 535.272C52.6563 535.559 53.0731 535.959 53.403 536.47L55.3476 539.667C55.6601 540.147 55.8164 540.658 55.8164 541.234C55.8164 541.809 55.6601 542.321 55.3476 542.8L53.3509 546.029L55.3476 549.274C55.6601 549.753 55.8164 550.265 55.8164 550.824C55.8164 551.384 55.6601 551.911 55.3476 552.39L53.403 555.587C53.0904 556.099 52.6563 556.498 52.1181 556.786C51.5798 557.074 50.9895 557.218 50.3644 557.218H46.6835L44.7215 560.383C44.4089 560.894 43.9748 561.294 43.4366 561.581C42.8983 561.869 42.308 562.013 41.6829 562.013H37.9499C37.3075 562.013 36.7345 561.869 36.1962 561.581C35.658 561.294 35.2413 560.894 34.9114 560.383L32.9667 557.218ZM46.6835 544.43H50.4165L52.3264 541.234L50.4165 538.037H46.6835L44.7215 541.234L46.6835 544.43ZM38.002 549.226H41.6482L43.5929 546.029L41.6482 542.832H38.002L36.0573 546.029L38.002 549.226ZM38.002 539.635H41.6482L43.6449 536.391L41.7003 533.242H37.9672L36.0226 536.391L38.0193 539.635H38.002ZM34.9287 541.234L32.9841 538.037H29.3031L27.3585 541.234L29.3031 544.43H32.9841L34.9287 541.234ZM34.9287 550.824L32.9841 547.627H29.251L27.3411 550.824L29.2857 554.021H32.9667L34.9114 550.824H34.9287ZM38.002 552.422L36.0052 555.651L37.9499 558.816H41.6829L43.6276 555.651L41.6308 552.422H37.9846H38.002ZM46.6835 554.021H50.3644L52.3091 550.824L50.3644 547.627H46.6835L44.7215 550.824L46.6835 554.021Z" fill="url(#paint34_linear_6051_1637)"/>
<path d="M15.1503 490.722H11.4693C10.8269 490.722 10.2539 490.578 9.71568 490.29C9.17743 490.002 8.76072 489.603 8.43082 489.091L6.4688 485.894C6.15627 485.415 6 484.903 6 484.328C6 483.753 6.15627 483.257 6.4688 482.778L8.46555 479.533L6.4688 476.304C6.15627 475.824 6 475.297 6 474.738C6 474.178 6.15627 473.651 6.4688 473.171L8.43082 469.974C8.74335 469.463 9.17743 469.063 9.71568 468.776C10.2539 468.488 10.8443 468.328 11.4693 468.328H15.1503L17.095 465.163C17.4075 464.652 17.8416 464.252 18.3798 463.964C18.9181 463.677 19.5084 463.517 20.1335 463.517H23.8665C24.509 463.517 25.0819 463.661 25.6202 463.964C26.1584 464.252 26.5751 464.652 26.905 465.163L28.8671 468.328H32.548C33.1905 468.328 33.7634 468.472 34.3017 468.776C34.8399 469.063 35.2566 469.463 35.5865 469.974L37.5312 473.171C37.8437 473.651 38 474.162 38 474.738C38 475.313 37.8437 475.824 37.5312 476.304L35.5345 479.533L37.5312 482.778C37.8437 483.257 38 483.769 38 484.328C38 484.887 37.8437 485.415 37.5312 485.894L35.5865 489.091C35.274 489.603 34.8399 490.002 34.3017 490.29C33.7634 490.578 33.1731 490.722 32.548 490.722H28.8671L26.905 493.886C26.5925 494.398 26.1584 494.798 25.6202 495.085C25.0819 495.373 24.4916 495.517 23.8665 495.517H20.1335C19.491 495.517 18.9181 495.373 18.3798 495.085C17.8416 494.798 17.4249 494.398 17.095 493.886L15.1503 490.722ZM28.8671 477.934H32.6001L34.51 474.738L32.6001 471.541H28.8671L26.905 474.738L28.8671 477.934ZM20.1856 482.73H23.8318L25.7765 479.533L23.8318 476.336H20.1856L18.2409 479.533L20.1856 482.73ZM20.1856 473.139H23.8318L25.8285 469.894L23.8839 466.746H20.1508L18.2062 469.894L20.2029 473.139H20.1856ZM17.1123 474.738L15.1677 471.541H11.4867L9.54205 474.738L11.4867 477.934H15.1677L17.1123 474.738ZM17.1123 484.328L15.1677 481.131H11.4346L9.52469 484.328L11.4693 487.525H15.1503L17.095 484.328H17.1123ZM20.1856 485.926L18.1888 489.155L20.1335 492.32H23.8665L25.8112 489.155L23.8144 485.926H20.1682H20.1856ZM28.8671 487.525H32.548L34.4927 484.328L32.548 481.131H28.8671L26.905 484.328L28.8671 487.525Z" fill="url(#paint35_linear_6051_1637)"/>
<defs>
<linearGradient id="paint0_linear_6051_1637" x1="16" y1="394.937" x2="16" y2="426.937" gradientUnits="userSpaceOnUse">
<stop stop-color="#FF8900"/>
<stop offset="0.92" stop-color="#D97706" stop-opacity="0"/>
</linearGradient>
<linearGradient id="paint1_linear_6051_1637" x1="22" y1="326.357" x2="22" y2="358.357" gradientUnits="userSpaceOnUse">
<stop stop-color="#FF8900"/>
<stop offset="0.92" stop-color="#D97706" stop-opacity="0"/>
</linearGradient>
<linearGradient id="paint2_linear_6051_1637" x1="39.8164" y1="259.86" x2="39.8164" y2="291.86" gradientUnits="userSpaceOnUse">
<stop stop-color="#FF8900"/>
<stop offset="0.92" stop-color="#D97706" stop-opacity="0"/>
</linearGradient>
<linearGradient id="paint3_linear_6051_1637" x1="68.9111" y1="197.468" x2="68.9111" y2="229.468" gradientUnits="userSpaceOnUse">
<stop stop-color="#FF8900"/>
<stop offset="0.92" stop-color="#D97706" stop-opacity="0"/>
</linearGradient>
<linearGradient id="paint4_linear_6051_1637" x1="108.397" y1="141.076" x2="108.397" y2="173.076" gradientUnits="userSpaceOnUse">
<stop stop-color="#FF8900"/>
<stop offset="0.92" stop-color="#D97706" stop-opacity="0"/>
</linearGradient>
<linearGradient id="paint5_linear_6051_1637" x1="157.076" y1="92.3976" x2="157.076" y2="124.398" gradientUnits="userSpaceOnUse">
<stop stop-color="#FF8900"/>
<stop offset="0.92" stop-color="#D97706" stop-opacity="0"/>
</linearGradient>
<linearGradient id="paint6_linear_6051_1637" x1="213.469" y1="52.9115" x2="213.469" y2="84.9115" gradientUnits="userSpaceOnUse">
<stop stop-color="#FF8900"/>
<stop offset="0.92" stop-color="#D97706" stop-opacity="0"/>
</linearGradient>
<linearGradient id="paint7_linear_6051_1637" x1="275.859" y1="23.8177" x2="275.859" y2="55.8177" gradientUnits="userSpaceOnUse">
<stop stop-color="#FF8900"/>
<stop offset="0.92" stop-color="#D97706" stop-opacity="0"/>
</linearGradient>
<linearGradient id="paint8_linear_6051_1637" x1="342.356" y1="5.99988" x2="342.356" y2="37.9999" gradientUnits="userSpaceOnUse">
<stop stop-color="#FF8900"/>
<stop offset="0.92" stop-color="#D97706" stop-opacity="0"/>
</linearGradient>
<linearGradient id="paint9_linear_6051_1637" x1="410.937" y1="0" x2="410.937" y2="32" gradientUnits="userSpaceOnUse">
<stop stop-color="#FF8900"/>
<stop offset="0.92" stop-color="#D97706" stop-opacity="0"/>
</linearGradient>
<linearGradient id="paint10_linear_6051_1637" x1="479.518" y1="5.99988" x2="479.518" y2="37.9999" gradientUnits="userSpaceOnUse">
<stop stop-color="#FF8900"/>
<stop offset="0.92" stop-color="#D97706" stop-opacity="0"/>
</linearGradient>
<linearGradient id="paint11_linear_6051_1637" x1="546.014" y1="23.8177" x2="546.014" y2="55.8177" gradientUnits="userSpaceOnUse">
<stop stop-color="#FF8900"/>
<stop offset="0.92" stop-color="#D97706" stop-opacity="0"/>
</linearGradient>
<linearGradient id="paint12_linear_6051_1637" x1="608.405" y1="52.9115" x2="608.405" y2="84.9115" gradientUnits="userSpaceOnUse">
<stop stop-color="#FF8900"/>
<stop offset="0.92" stop-color="#D97706" stop-opacity="0"/>
</linearGradient>
<linearGradient id="paint13_linear_6051_1637" x1="664.797" y1="92.3976" x2="664.797" y2="124.398" gradientUnits="userSpaceOnUse">
<stop stop-color="#FF8900"/>
<stop offset="0.92" stop-color="#D97706" stop-opacity="0"/>
</linearGradient>
<linearGradient id="paint14_linear_6051_1637" x1="713.476" y1="141.076" x2="713.476" y2="173.076" gradientUnits="userSpaceOnUse">
<stop stop-color="#FF8900"/>
<stop offset="0.92" stop-color="#D97706" stop-opacity="0"/>
</linearGradient>
<linearGradient id="paint15_linear_6051_1637" x1="752.962" y1="197.468" x2="752.962" y2="229.468" gradientUnits="userSpaceOnUse">
<stop stop-color="#FF8900"/>
<stop offset="0.92" stop-color="#D97706" stop-opacity="0"/>
</linearGradient>
<linearGradient id="paint16_linear_6051_1637" x1="782.057" y1="259.86" x2="782.057" y2="291.86" gradientUnits="userSpaceOnUse">
<stop stop-color="#FF8900"/>
<stop offset="0.92" stop-color="#D97706" stop-opacity="0"/>
</linearGradient>
<linearGradient id="paint17_linear_6051_1637" x1="799.874" y1="326.357" x2="799.874" y2="358.357" gradientUnits="userSpaceOnUse">
<stop stop-color="#FF8900"/>
<stop offset="0.92" stop-color="#D97706" stop-opacity="0"/>
</linearGradient>
<linearGradient id="paint18_linear_6051_1637" x1="805.873" y1="394.937" x2="805.873" y2="426.937" gradientUnits="userSpaceOnUse">
<stop stop-color="#FF8900"/>
<stop offset="0.92" stop-color="#D97706" stop-opacity="0"/>
</linearGradient>
<linearGradient id="paint19_linear_6051_1637" x1="799.874" y1="463.517" x2="799.874" y2="495.517" gradientUnits="userSpaceOnUse">
<stop stop-color="#FF8900"/>
<stop offset="0.92" stop-color="#D97706" stop-opacity="0"/>
</linearGradient>
<linearGradient id="paint20_linear_6051_1637" x1="782.057" y1="530.013" x2="782.057" y2="562.013" gradientUnits="userSpaceOnUse">
<stop stop-color="#FF8900"/>
<stop offset="0.92" stop-color="#D97706" stop-opacity="0"/>
</linearGradient>
<linearGradient id="paint21_linear_6051_1637" x1="752.962" y1="592.405" x2="752.962" y2="624.405" gradientUnits="userSpaceOnUse">
<stop stop-color="#FF8900"/>
<stop offset="0.92" stop-color="#D97706" stop-opacity="0"/>
</linearGradient>
<linearGradient id="paint22_linear_6051_1637" x1="713.476" y1="648.797" x2="713.476" y2="680.797" gradientUnits="userSpaceOnUse">
<stop stop-color="#FF8900"/>
<stop offset="0.92" stop-color="#D97706" stop-opacity="0"/>
</linearGradient>
<linearGradient id="paint23_linear_6051_1637" x1="664.797" y1="697.476" x2="664.797" y2="729.476" gradientUnits="userSpaceOnUse">
<stop stop-color="#FF8900"/>
<stop offset="0.92" stop-color="#D97706" stop-opacity="0"/>
</linearGradient>
<linearGradient id="paint24_linear_6051_1637" x1="608.405" y1="736.962" x2="608.405" y2="768.962" gradientUnits="userSpaceOnUse">
<stop stop-color="#FF8900"/>
<stop offset="0.92" stop-color="#D97706" stop-opacity="0"/>
</linearGradient>
<linearGradient id="paint25_linear_6051_1637" x1="546.014" y1="766.056" x2="546.014" y2="798.056" gradientUnits="userSpaceOnUse">
<stop stop-color="#FF8900"/>
<stop offset="0.92" stop-color="#D97706" stop-opacity="0"/>
</linearGradient>
<linearGradient id="paint26_linear_6051_1637" x1="479.518" y1="783.874" x2="479.518" y2="815.874" gradientUnits="userSpaceOnUse">
<stop stop-color="#FF8900"/>
<stop offset="0.92" stop-color="#D97706" stop-opacity="0"/>
</linearGradient>
<linearGradient id="paint27_linear_6051_1637" x1="410.937" y1="789.874" x2="410.937" y2="821.874" gradientUnits="userSpaceOnUse">
<stop stop-color="#FF8900"/>
<stop offset="0.92" stop-color="#D97706" stop-opacity="0"/>
</linearGradient>
<linearGradient id="paint28_linear_6051_1637" x1="342.356" y1="783.874" x2="342.356" y2="815.874" gradientUnits="userSpaceOnUse">
<stop stop-color="#FF8900"/>
<stop offset="0.92" stop-color="#D97706" stop-opacity="0"/>
</linearGradient>
<linearGradient id="paint29_linear_6051_1637" x1="275.859" y1="766.056" x2="275.859" y2="798.056" gradientUnits="userSpaceOnUse">
<stop stop-color="#FF8900"/>
<stop offset="0.92" stop-color="#D97706" stop-opacity="0"/>
</linearGradient>
<linearGradient id="paint30_linear_6051_1637" x1="213.469" y1="736.962" x2="213.469" y2="768.962" gradientUnits="userSpaceOnUse">
<stop stop-color="#FF8900"/>
<stop offset="0.92" stop-color="#D97706" stop-opacity="0"/>
</linearGradient>
<linearGradient id="paint31_linear_6051_1637" x1="157.076" y1="697.476" x2="157.076" y2="729.476" gradientUnits="userSpaceOnUse">
<stop stop-color="#FF8900"/>
<stop offset="0.92" stop-color="#D97706" stop-opacity="0"/>
</linearGradient>
<linearGradient id="paint32_linear_6051_1637" x1="108.397" y1="648.797" x2="108.397" y2="680.797" gradientUnits="userSpaceOnUse">
<stop stop-color="#FF8900"/>
<stop offset="0.92" stop-color="#D97706" stop-opacity="0"/>
</linearGradient>
<linearGradient id="paint33_linear_6051_1637" x1="68.9111" y1="592.405" x2="68.9111" y2="624.405" gradientUnits="userSpaceOnUse">
<stop stop-color="#FF8900"/>
<stop offset="0.92" stop-color="#D97706" stop-opacity="0"/>
</linearGradient>
<linearGradient id="paint34_linear_6051_1637" x1="39.8164" y1="530.013" x2="39.8164" y2="562.013" gradientUnits="userSpaceOnUse">
<stop stop-color="#FF8900"/>
<stop offset="0.92" stop-color="#D97706" stop-opacity="0"/>
</linearGradient>
<linearGradient id="paint35_linear_6051_1637" x1="22" y1="463.517" x2="22" y2="495.517" gradientUnits="userSpaceOnUse">
<stop stop-color="#FF8900"/>
<stop offset="0.92" stop-color="#D97706" stop-opacity="0"/>
</linearGradient>
</defs>
</svg>
