<svg
      width="40"
      height="40"
      viewBox="0 0 40 40"
      fill="none"
      xmlns="http://www.w3.org/2000/svg"
    >
      <rect width="40" height="40" rx="10" fill="url(#paint0_radial_6594_43)" />
      <g filter="url(#filter0_dd_6594_43)">
        <path
          d="M28.2021 23.3959C29.2414 24.7844 29.4593 26.2937 28.8558 27.9238C28.2522 29.554 27.0547 30.6233 25.2631 31.1317C24.4062 31.3749 23.5322 31.3844 22.641 31.1604C21.7497 30.9363 21.0192 30.5124 20.4494 29.8885C18.3827 30.8117 16.441 30.7665 14.6244 29.7529C12.8077 28.7394 11.716 27.0923 11.3494 24.8116C10.4452 24.5912 9.67667 24.157 9.04387 23.5089C8.41106 22.8608 7.95466 22.0435 7.67467 21.0568C7.22521 19.4729 7.58285 17.9897 8.74761 16.607C9.91236 15.2244 11.2639 14.6235 12.8021 14.8042L15.5042 15.1316C15.7951 14.1793 16.2971 13.3284 17.0103 12.5789C17.7235 11.8295 18.566 11.2888 19.538 10.9568L18.9632 8.93157C18.8675 8.59403 18.8986 8.28359 19.0567 8.00025C19.2147 7.71692 19.4626 7.52736 19.8001 7.43157C20.1376 7.33579 20.4481 7.36693 20.7314 7.525C21.0148 7.68308 21.2043 7.93088 21.3001 8.26843L21.9632 10.6053C23.005 10.6183 23.924 10.8414 24.7204 11.2748C25.5167 11.7081 26.2903 12.4074 27.0411 13.3727L29.3001 12.7317C29.6376 12.6359 29.9481 12.667 30.2314 12.8251C30.5148 12.9832 30.7043 13.231 30.8001 13.5685C30.8959 13.9061 30.8647 14.2165 30.7067 14.4999C30.5486 14.7832 30.3008 14.9727 29.9632 15.0685L27.938 15.6433C28.166 16.6447 28.1615 17.642 27.9243 18.6351C27.6871 19.6283 27.2397 20.4987 26.5821 21.2464L28.2021 23.3959ZM18.8084 27.0717C18.6094 26.3706 18.4744 25.6724 18.4034 24.9772C18.3323 24.2819 18.3252 23.5895 18.3821 22.9001C17.8659 23.3551 17.2804 23.7387 16.6255 24.0508C15.9706 24.3629 15.2982 24.5888 14.6084 24.7285C14.8957 25.7411 15.4144 26.4566 16.1644 26.8751C16.9144 27.2935 17.7957 27.359 18.8084 27.0717ZM14.1136 21.5021C14.9445 21.2663 15.6486 20.9543 16.2258 20.5661C16.803 20.1778 17.5095 19.5285 18.3453 18.6179L13.1189 17.9968C12.2775 17.8989 11.6367 18.0878 11.1965 18.5634C10.7564 19.039 10.6357 19.6273 10.8347 20.3284C11.0263 21.0035 11.387 21.4342 11.9168 21.6205C12.4466 21.8068 13.1789 21.7674 14.1136 21.5021ZM24.3789 28.0159C25.028 27.8317 25.4893 27.4553 25.7629 26.8867C26.0364 26.3181 25.9993 25.8166 25.6516 25.3822L22.0453 20.6822C21.7877 21.6531 21.6405 22.5926 21.6037 23.5009C21.5668 24.4091 21.6442 25.2008 21.8357 25.8759C22.0789 26.7327 22.4142 27.346 22.8418 27.7156C23.2693 28.0853 23.7817 28.1854 24.3789 28.0159ZM24.4958 18.6401C24.6818 18.3067 24.7919 17.9038 24.8261 17.4311C24.8603 16.9585 24.8111 16.4885 24.6785 16.0211C24.4427 15.1902 23.9711 14.5666 23.2637 14.1501C22.5564 13.7336 21.8002 13.6395 20.9953 13.8679C20.5279 14.0006 20.1086 14.2037 19.7374 14.4774C19.3662 14.7511 19.0783 15.0712 18.8737 15.4379L22.3095 15.9779L24.4958 18.6401Z"
          fill="#F1EBE4"
        />
      </g>
      <defs>
        <filter
          id="filter0_dd_6594_43"
          x="5.48694"
          y="6.37735"
          width="27.3674"
          height="27.9442"
          filterUnits="userSpaceOnUse"
          color-interpolation-filters="sRGB"
        >
          <feFlood flood-opacity="0" result="BackgroundImageFix" />
          <feColorMatrix
            in="SourceAlpha"
            type="matrix"
            values="0 0 0 0 0 0 0 0 0 0 0 0 0 0 0 0 0 0 127 0"
            result="hardAlpha"
          />
          <feOffset dy="1" />
          <feGaussianBlur stdDeviation="1" />
          <feComposite in2="hardAlpha" operator="out" />
          <feColorMatrix
            type="matrix"
            values="0 0 0 0 0 0 0 0 0 0 0 0 0 0 0 0 0 0 0.45 0"
          />
          <feBlend
            mode="normal"
            in2="BackgroundImageFix"
            result="effect1_dropShadow_6594_43"
          />
          <feColorMatrix
            in="SourceAlpha"
            type="matrix"
            values="0 0 0 0 0 0 0 0 0 0 0 0 0 0 0 0 0 0 127 0"
            result="hardAlpha"
          />
          <feOffset dy="0.5" />
          <feGaussianBlur stdDeviation="0.5" />
          <feComposite in2="hardAlpha" operator="out" />
          <feColorMatrix
            type="matrix"
            values="0 0 0 0 0.909804 0 0 0 0 0.490196 0 0 0 0 0.247059 0 0 0 0.75 0"
          />
          <feBlend
            mode="normal"
            in2="effect1_dropShadow_6594_43"
            result="effect2_dropShadow_6594_43"
          />
          <feBlend
            mode="normal"
            in="SourceGraphic"
            in2="effect2_dropShadow_6594_43"
            result="shape"
          />
        </filter>
        <radialGradient
          id="paint0_radial_6594_43"
          cx="0"
          cy="0"
          r="1"
          gradientUnits="userSpaceOnUse"
          gradientTransform="translate(20 20) rotate(90) scale(20)"
        >
          <stop stop-color="#E9D9B2" />
          <stop offset="1" stop-color="#E6B434" />
        </radialGradient>
      </defs>
    </svg>