<?xml version="1.0" encoding="UTF-8"?><svg id="Layer_1" xmlns="http://www.w3.org/2000/svg" viewBox="0 0 367.76 284.4"><defs><style>.cls-1{fill:#f7f3f2;}.cls-2{fill:#ffb800;}.cls-3{fill:#181826;}.cls-4{fill:#765dff;}</style></defs><path class="cls-3" d="m367.27,143.41c.94-4.3.54-8.73-1.15-12.8l-25.66-62.09c-2.39-5.77-6.99-10.11-12.95-12.22-2.76-.96-6.49-1.03-7.56-1.03-.33,0-.65,0-.9.01h-.28s-12.22.34-12.22.34c-2.79.17-5.56-.55-7.91-2.05l-3.62-2.3c-8.61-5.09-17.66-8.91-26.9-11.36-8.35-2.21-16.94-3.54-25.52-3.95-2.37-.12-4.77-.18-7.14-.18-15.01,0-29.2,2.4-42.18,7.13-8.39,3.06-14.89,6.11-21.1,9.86-.19.11-.4.17-.63.17-.28,0-.57-.09-.78-.26-13.13-10.04-25.67-19.85-36.73-28.51-9.46-7.41-18.4-14.4-26.22-20.38-2.59-1.96-5.67-3.22-8.92-3.65-.76-.09-1.54-.14-2.3-.14-3.07,0-6.13.77-8.82,2.23-3.47,1.84-6.22,4.7-7.93,8.24l-6.19,12.22-.16.28-.12.24c-2,4.31-2.55,9.24-1.56,13.87.11.53.26,1.16.46,1.76l14.06,43.04c.21.64-.52,1.19-1.09.82-11.67-7.64-20.5-13.57-28.36-18.85-7.41-4.97-14.41-9.67-22.61-15.02-2.79-1.78-5.96-2.8-9.17-2.96-.31-.02-.63-.02-.94-.02-3.55,0-7.02,1.01-10.04,2.93-3.32,2.13-5.84,5.19-7.27,8.82l-5.31,12.79-.13.35c-1.65,4.29-1.91,9.04-.74,13.38.22.82.47,1.56.78,2.33l24.72,59.9c.63,1.56,1.53,3.04,2.67,4.4,2.21,2.59,4.9,4.63,8.11,6.11l68.42,29.48c.81.35.99,1.42.34,2.02-28.3,26.31-28.89,26.86-28.89,26.85-6.06,5.67-7.54,14.74-3.6,22.06,14.7,27.24,17.61,32.63,18.29,33.8h-.02c2.96,5.41,8.37,8.93,14.46,9.42l10.32.89.71.05c.3.02.61.02.91.02,4.85,0,9.59-2,12.99-5.49,0,0,14.24-14.15,19.82-19.81l1.01-.99c.57-.56,1.48-.57,2.07-.03,22.1,19.99,52.27,29.86,84.74,29.22,38.47,0,77.77-20.31,100.13-51.74,15.58-22.51,24.86-47.01,22.05-76.91-.06-.69.09-.85.52-1.28,3.71-3.5,5.18-7.22,6-11.04Z"/><path class="cls-1" d="m118.39,263c-.58.59-1.38.89-2.2.82l-9.84-.81c-.77-.09-1.46-.55-1.83-1.23l-18.05-33.15c-.33-.7-.23-1.61.27-2.17l34.65-32.22c.26-.24.58-.37.92-.37.19,0,.36.04.53.11l43.12,19.11c.32.14.41.44.43.55.03.17.03.41-.19.64l-47.8,48.72Z"/><path class="cls-1" d="m274.69,57.99l-16.04.72c-1.38.07-2.74-.29-3.91-1.03-2.02-1.27-3.28-1.96-5.61-3.14-3.97-2.05-8.18-3.73-12.9-5.22-.45-.14-.37-.74.1-.74,13.95-.21,25.33,2.68,36.92,8.09l1.55.72c.32.12.23.61-.11.62Z"/><path class="cls-1" d="m86.51,33.91c-.27-1.32-.1-2.74.47-3.96l6.18-12.19c.56-1.36,2.24-2.15,3.54-1.18l58.56,44.78c1.19.92,1.24,2.7.1,3.67-1.11.93-2.17,1.87-3.19,2.78-8.82,7.97-16.43,17.14-22.62,27.24l-.34.56c-1,1.66-1.9,3.22-2.67,4.64-.5.9-.98,1.8-1.45,2.7-.47.92-1.4,1.43-2.35,1.4-.39-.02-.79-.11-1.14-.31l-12.36-6.84-.16-.1h-.02c-.31-.19-.6-.4-.87-.63-.02,0-.03-.03-.03-.03-1.05-.85-1.82-1.96-2.25-3.24l-19.4-59.32Z"/><path class="cls-1" d="m236.21,67.83c.42.42.35,1.18-.09,1.59-9.35,8.76-37.41,35.04-37.41,35.04-3.21,3.01-5.41,6.89-6.35,11.22-.94,4.32-.54,8.77,1.16,12.86l25.63,62.06c1.59,3.83,4.2,7.1,7.56,9.45,3.34,2.36,7.26,3.72,11.35,3.93l52.9-1.4c4.8.26,5.56,1.69,5.67,6.47.18,7.77-.4,16.2-1.73,25.06l-.2,1.2c-1.36,7.42-2.09,19.01-24.88,26.17l-.43.12-.03.04c-5.47,1.82-11.13,3.22-16.82,4.15-5.67.93-11.5,1.4-17.33,1.4-1.8,0-3.63-.04-5.44-.13-6.76-.34-13.53-1.32-20.11-2.92-13.66-3.31-26.4-9.23-37.86-17.57l-.77-.54c-1.6-1.12-3.13-2.34-4.57-3.67l-.8-.74c-.74-.68-.77-1.85-.06-2.57l3.09-3.14.11-.14,22.78-23.95c1.04-1.1,1.93-2.37,2.66-3.77.53-.91.98-1.94,1.36-3.08l8.77-26.33c.33-.98.62-1.97.89-2.97l.08-.29c.7-3.5.38-7.12-.92-10.47l-.12-.29c-1.47-3.55-3.91-6.49-7.07-8.56-19.2-12.48-39.47-25.73-59.51-38.77l-.09-.07c-.62-.46-.88-1.29-.65-2.02.13-.31.84-1.89.84-1.89l.31-.62c1.07-2.21,2.27-4.48,3.57-6.76.25-.44.51-.89.8-1.36,8.25-13.75,22.56-32.28,43.88-42.41,7.23-3.44,15.03-5.25,22.54-5.25.08,0,.17,0,.25,0,9.81.05,19.21,3.94,26.52,10.47,0,0,.41.35.54.48Z"/><path class="cls-3" d="m318.96,69.76h-.37s-18.43.55-18.43.55l-1.67.04s-.01-.01-.03-.01l1.68-.04,18.43-.54h.39Z"/><path class="cls-3" d="m319.88,69.43c-.11-.01-.23-.03-.37-.03.12,0,.25,0,.36.01h.01Z"/><path class="cls-4" d="m351.48,136.45l-26.27-63.52c-.9-2.21-3.09-3.62-5.47-3.56l-49.98,1.43-1.85.06c-.66.03-1.3.16-1.9.4l-17.88,7.36c-.63.27-1.21.64-1.71,1.11l-38.15,35.7c-1.74,1.63-2.3,4.17-1.38,6.39l2.85,6.89c5.88,14.21,15.82,38.26,20.54,49.72l2.85,6.92c.92,2.22,3.11,3.64,5.5,3.56l52.06-1.53c.68-.02,1.35-.16,1.98-.42l18.3-7.63c.58-.26,1.11-.61,1.58-1.05l37.59-35.49c1.72-1.64,2.25-4.17,1.35-6.36Zm-19.41,0c-6.29,5.91-12.64,11.9-18.96,17.87-3.1,2.94-6.21,5.88-9.29,8.78-.9.85-1.94,1.53-3.08,2.01-2.39,1.01-5.52,2.26-7.19,2.92-1.71.69-2.9,1.16-3.8,1.55-1.05.43-2.14.68-3.27.71-6.82.23-14.63.43-22.21.64l-16.95.47c-1.06.03-2.03-.6-2.43-1.58-4.67-11.32-13.25-32.08-18.91-45.78-.58-1.42-.23-3.04.89-4.08l2.13-1.99c3.64-3.41,8.16-7.65,12.76-11.96,4.17-3.91,8.41-7.88,12.18-11.41,1.53-1.43,3.29-2.57,5.22-3.37h0c1.93-.8,5.34-2.24,8.21-3.41,1.96-.8,4.03-1.24,6.14-1.31,5.47-.17,14.02-.39,18.89-.52,5.13-.13,7.23-.19,8.26-.23l9.55-.28c1.55-.05,2.96.87,3.55,2.3l4.53,10.96h.02l14.37,34.8c.42,1,.18,2.16-.61,2.91Z"/><path class="cls-2" d="m305.19,134.66l-19.93,1.66c-1.9.16-3.71.91-5.17,2.14l-.56.47-12.25,10.33h0s-2.47,2.09-2.47,2.09c-2.11,1.78-5.38.72-6.57-2.13l-6.41-15.51c-.41-.99-.49-2.04-.28-2.99.19-.9.65-1.72,1.35-2.3l7.64-6.44,9.45-7.97c1.46-1.23,3.27-1.98,5.17-2.13l22.28-1.85c1.86-.15,3.69,1.07,4.49,3l6.41,15.51c1.18,2.86-.38,5.92-3.14,6.15Z"/><path class="cls-1" d="m42.35,141.99c-1.61-.81-2.81-2.1-3.51-3.71l-24.18-58.61v-.1c-.38-1.32-.32-2.77.16-4.05l5.35-12.84c.46-1.37,1.8-2,2.92-2,.58,0,1.13.16,1.58.46l162.03,106.31.63.38c.86.51,1.68,1,2.2,1.74.48.65.67,1.48.54,2.32l-8.31,24.97c-.25.94-.54,1.89-.92,2.68-.64,1.32-2.24,1.87-3.58,1.28l-134.89-58.84Z"/><path class="cls-1" d="m315.7,232.68c-.32-.14-.57-.55-.45-1.09.43-1.96,1.05-4.92,1.32-6.66.98-6.34,1.61-12.02,1.81-18.57.07-2.47.08-4.94-.04-7.41-.11-2.16-.24-4.4.83-6.37,1.6-2.94,4.47-4.86,6.9-7.04,1.81-1.63,6.82-5.97,8.59-7.65,1.81-1.72,3.62-3.45,5.39-5.21.31-.31.63-.63.93-.95.32-.34.72-.84,1.29-.79.46.04.8.36.85.81.05.49-.04,1.14-.11,1.63-.07.56-.43,3.12-.52,3.68-.35,2.38-.54,2.6-1.07,4.95-1.05,4.7-2.35,9.36-3.91,13.92s-3.35,8.89-5.45,13.15c-2.05,4.18-4.38,8.22-6.96,12.09-1.33,1.99-2.54,3.88-3.98,5.79-.73.97-1.62,2.21-2.34,3.18-.63.84-1.24,1.61-2.06,2.29-.39.32-.76.39-1.03.26Z"/></svg>