<svg width="33" height="32" viewBox="0 0 33 32" fill="none" xmlns="http://www.w3.org/2000/svg">
<circle cx="16.332" cy="16" r="16" fill="#2E3148"/>
<circle cx="16.3318" cy="16.0001" r="9.28397" fill="#1B1E36"/>
<path fill-rule="evenodd" clip-rule="evenodd" d="M13.2373 16.0325C13.2373 8.30503 14.6378 2.04071 16.3649 2.04071C18.092 2.04071 19.4924 8.30503 19.4924 16.0325C19.4924 23.76 18.092 30.0243 16.3649 30.0243C14.6378 30.0243 13.2373 23.76 13.2373 16.0325ZM16.185 29.3001C16.185 29.3001 16.3825 29.4977 16.58 29.2343C16.58 29.2343 17.5078 28.4435 18.1702 24.6905C18.1702 24.6905 19.0307 19.7523 18.899 15.3408C18.899 15.3408 19.0307 10.2708 17.5762 4.87166C17.5762 4.87166 17.0837 3.13137 16.4964 2.71525C16.3987 2.64572 16.2651 2.65652 16.1798 2.74085C15.775 3.1411 14.5857 4.94398 13.9318 12.5759C13.9318 12.5759 13.6007 22.189 14.9919 26.6663C14.9919 26.6663 15.3896 28.3785 16.185 29.3001Z" fill="#6F7390"/>
<path fill-rule="evenodd" clip-rule="evenodd" d="M14.8059 13.3202C21.5119 9.47484 27.642 7.57199 28.5019 9.07061C29.3611 10.5686 24.6308 14.901 17.9247 18.7464C11.2187 22.5918 5.08797 24.494 4.2287 22.996C3.36944 21.498 8.09981 17.1656 14.8059 13.3202ZM4.76729 22.4788C4.76729 22.4788 4.69292 22.7494 5.02214 22.7909H5.02226C5.02226 22.7909 6.16927 23.2024 9.75442 21.9105C9.75442 21.9105 14.4661 20.2005 18.2271 17.8901C18.2271 17.8901 22.6906 15.4809 26.6474 11.531C26.6474 11.531 27.9149 10.2382 27.9807 9.52136C27.9932 9.40161 27.9175 9.29031 27.8015 9.25794C27.2543 9.10728 25.0973 8.97096 18.1528 12.2019C18.1528 12.2019 9.64895 16.6985 6.45625 20.1335C6.45625 20.1335 5.17113 21.3305 4.76729 22.4788Z" fill="#6F7390"/>
<path fill-rule="evenodd" clip-rule="evenodd" d="M17.9363 13.3246C24.6188 17.1989 29.3372 21.5511 28.4707 23.0458C27.6049 24.5431 21.4833 22.6166 14.7969 18.7423C8.11059 14.868 3.3929 10.5183 4.25869 9.02107C5.12448 7.52386 11.2538 9.45026 17.9363 13.3246ZM4.97416 9.22303C4.97416 9.22303 4.70395 9.29612 4.83195 9.59961L4.83285 9.60293C4.83285 9.60293 5.05198 10.8006 7.96885 13.2566C7.96885 13.2566 11.8076 16.4783 15.6897 18.5722C15.6897 18.5722 20.0103 21.2262 25.4128 22.6748C25.4128 22.6748 27.1656 23.1213 27.8201 22.8216C27.9295 22.772 27.9874 22.6508 27.9571 22.5345C27.8128 21.9854 26.8503 20.0509 20.574 15.6591C20.574 15.6591 12.4224 10.553 7.85083 9.51193C7.85083 9.51193 6.17045 8.99711 4.97416 9.22303Z" fill="#6F7390"/>
<circle cx="16.3326" cy="16.0003" r="1.64608" fill="#B7B9C8"/>
<ellipse cx="23.0807" cy="9.67905" rx="0.954752" ry="0.987648" fill="#B7B9C8"/>
<ellipse cx="7.41081" cy="13.0371" rx="0.954752" ry="0.987648" fill="#B7B9C8"/>
<ellipse cx="14.3893" cy="25.1517" rx="0.954752" ry="0.987648" fill="#B7B9C8"/>
</svg>
