<svg width="32" height="32" viewBox="0 0 32 32" fill="none" xmlns="http://www.w3.org/2000/svg">
<path d="M31.5213 19.8705C29.3841 28.442 20.7016 33.6584 12.1281 31.521C3.55818 29.3841 -1.65887 20.702 0.479231 12.1312C2.61545 3.5587 11.298 -1.65814 19.8688 0.478775C28.4417 2.61569 33.6585 11.2987 31.5211 19.8706L31.5212 19.8705H31.5213Z" fill="#27272A"/>
<path d="M16.6948 18.4675C16.2306 18.2843 15.7297 18.2843 15.2655 18.4675C15.0089 18.5652 14.7891 18.7363 14.8013 18.9684C14.8257 19.3349 15.3388 19.8235 15.6808 20.1045C15.8641 20.2511 16.0962 20.2511 16.2794 20.1045C16.6215 19.8235 17.1346 19.3349 17.159 18.9684C17.1712 18.724 16.9513 18.5652 16.6948 18.4675Z" fill="#FAFAF9"/>
<path d="M13.4961 17.6727C13.8993 17.6727 14.2169 17.1474 14.2169 16.4877C14.2169 15.828 13.8993 15.3027 13.4961 15.3027C13.093 15.3027 12.7754 15.828 12.7754 16.4877C12.7754 17.1474 13.093 17.6727 13.4961 17.6727Z" fill="#FAFAF9"/>
<path d="M18.5411 17.6727C18.9442 17.6727 19.2618 17.1474 19.2618 16.4877C19.2618 15.828 18.9442 15.3027 18.5411 15.3027C18.1379 15.3027 17.8203 15.828 17.8203 16.4877C17.8203 17.1474 18.1379 17.6727 18.5411 17.6727Z" fill="#FAFAF9"/>
<path d="M22.8285 15.1195C23.5859 14.5209 24.0745 13.6047 24.0623 12.5663C24.0623 12.1021 23.9524 11.6379 23.7447 11.2103C23.1461 9.98872 21.6313 9.09694 20.2264 9.39013C20.0188 9.43899 19.3713 9.64667 18.8582 9.92764C18.0886 10.343 17.1968 10.5018 16.3173 10.514H15.7431C14.8635 10.514 13.984 10.343 13.2021 9.92764C12.6891 9.64667 12.0416 9.42678 11.8339 9.39013C10.4168 9.09694 8.91426 9.98872 8.31567 11.2103C8.10799 11.6379 7.99805 12.1021 7.99805 12.5663C7.99805 13.5925 8.47448 14.5087 9.23188 15.1195C9.34183 15.205 9.39069 15.3516 9.36626 15.4982C8.0347 20.9833 12.0416 23.9151 16.0485 24.0007V23.8052C16.0485 23.8663 16.0485 23.9396 16.0485 24.0007C20.0554 23.9274 24.0623 20.9955 22.7307 15.4982C22.6941 15.3516 22.743 15.205 22.8651 15.1195H22.8285ZM21.2892 15.2783C20.9594 15.9502 21.3137 16.6465 21.2892 17.3428C21.2037 20.7634 18.6505 22.3759 16.0851 22.3637H15.9874C13.422 22.3637 10.8688 20.7634 10.7833 17.3428C10.7467 16.6465 11.1132 15.938 10.7833 15.2783C10.5757 14.6431 9.69609 13.4215 9.72053 12.493C9.76939 11.7112 10.4168 11.076 11.2109 11.0149C11.4919 10.9782 11.7484 11.0271 11.9927 11.1493C12.2615 11.2836 12.5425 11.4058 12.8356 11.5035C13.1777 11.6135 13.532 11.7234 13.8862 11.7967C14.3871 11.9067 14.888 11.9677 15.401 12.0044C15.5843 12.0044 15.7553 12.0166 15.9386 12.0166H16.1829C16.2928 12.0166 16.4028 12.0166 16.5127 12.0166H16.5494C16.5494 12.0166 16.6593 12.0166 16.7204 12.0166C17.2335 11.9922 17.7343 11.9189 18.2352 11.8089C18.5895 11.7356 18.9315 11.6257 19.2858 11.5157C19.579 11.418 19.8477 11.2958 20.1287 11.1615C20.373 11.0393 20.6418 10.9782 20.9105 11.0271C21.7168 11.0882 22.352 11.7234 22.4009 12.5052C22.4253 13.4337 21.5336 14.6553 21.3381 15.2905L21.2892 15.2783Z" fill="#FAFAF9"/>
</svg>
