<svg width="32" height="32" viewBox="0 0 32 32" fill="none" xmlns="http://www.w3.org/2000/svg">
<path d="M31.5203 19.8705C29.3831 28.442 20.7006 33.6584 12.1271 31.521C3.5572 29.3841 -1.65984 20.702 0.478254 12.1312C2.61447 3.5587 11.297 -1.65814 19.8678 0.478775C28.4407 2.61569 33.6575 11.2987 31.5201 19.8706L31.5202 19.8705H31.5203Z" fill="#F7931A"/>
<path fill-rule="evenodd" clip-rule="evenodd" d="M23.0542 13.7204C23.3727 11.5912 21.7514 10.4466 19.5345 9.68311L20.2537 6.79886L18.4977 6.36137L17.7976 9.16969C17.336 9.05457 16.8619 8.94609 16.3908 8.83856L17.096 6.01171L15.3411 5.57422L14.6215 8.45754C14.2395 8.37057 13.8643 8.28462 13.5003 8.19406L13.5023 8.18499L11.0809 7.58037L10.6138 9.45561C10.6138 9.45561 11.9165 9.7542 11.8891 9.77258C12.6001 9.95003 12.7287 10.4207 12.7074 10.7937L11.8881 14.0796C11.9371 14.092 12.0006 14.11 12.0707 14.1381L12.0197 14.1254L12.0196 14.1254C11.9763 14.1146 11.9313 14.1033 11.8851 14.0922L10.7368 18.6952C10.6499 18.9113 10.4293 19.2354 9.93221 19.1123C9.94981 19.1378 8.65597 18.7939 8.65597 18.7939L7.78418 20.8036L10.0692 21.3732C10.3194 21.4359 10.5666 21.5004 10.8114 21.5641L10.8115 21.5642L10.8119 21.5643C10.9828 21.6088 11.1525 21.6531 11.3212 21.6962L10.5945 24.6135L12.3484 25.051L13.068 22.1646C13.5472 22.2947 14.0122 22.4147 14.4674 22.5278L13.7502 25.4005L15.5062 25.838L16.2328 22.9261C19.227 23.4927 21.4784 23.2643 22.4261 20.5563C23.1897 18.3761 22.3881 17.1185 20.8128 16.2984C21.9602 16.0339 22.8244 15.2793 23.0548 13.7207L23.0542 13.7203L23.0542 13.7204ZM19.0419 19.345C18.544 21.3453 15.4127 20.5184 13.9799 20.14C13.8511 20.106 13.7359 20.0756 13.6377 20.0512L14.6019 16.1862C14.7217 16.2161 14.8679 16.2489 15.0337 16.2861L15.0337 16.2861C16.5157 16.6186 19.552 17.3 19.042 19.345H19.0419ZM15.3305 14.4928C16.525 14.8115 19.1307 15.5069 19.5845 13.6888H19.5847C20.0481 11.8294 17.5158 11.2689 16.279 10.9951C16.1398 10.9643 16.0171 10.9371 15.9169 10.9121L15.0426 14.4174C15.1252 14.438 15.222 14.4638 15.3305 14.4928Z" fill="white"/>
</svg>
