<svg width="33" height="32" viewBox="0 0 33 32" fill="none" xmlns="http://www.w3.org/2000/svg">
<path d="M32.1749 19.8705C30.038 28.4421 21.3565 33.6585 12.7839 31.521C4.215 29.3841 -1.00145 20.702 1.1364 12.1312C3.27238 3.55877 11.9539 -1.65808 20.5238 0.478836C29.0957 2.61575 34.3119 11.2988 32.1747 19.8707L32.1749 19.8705H32.1749Z" fill="#FEF3C7"/>
<path d="M12.1557 23.4346C12.1435 23.4146 12.1217 23.4024 12.0982 23.4024H9.64428C9.22681 23.4024 8.85578 23.3091 8.50698 23.1227C8.15926 22.9368 7.88986 22.6789 7.67571 22.347C7.67557 22.3468 7.67544 22.3466 7.6753 22.3464L6.3681 20.2165L6.36812 20.2165L6.36712 20.2149C6.16573 19.906 6.06553 19.5777 6.06553 19.2075C6.06553 18.8377 6.1655 18.52 6.36712 18.2107L6.36714 18.2107L6.36805 18.2092L7.69922 16.0461C7.71259 16.0243 7.71256 15.9969 7.69914 15.9752L6.36798 13.8227L6.36799 13.8227L6.36712 13.8213C6.16584 13.5125 6.06553 13.1736 6.06553 12.8139C6.06553 12.4541 6.16584 12.1153 6.36712 11.8065L6.36714 11.8065L6.3681 11.8049L7.67611 9.6737L7.67618 9.67359C7.8779 9.34345 8.15812 9.08519 8.50698 8.89872C8.8567 8.71178 9.2394 8.60832 9.64428 8.60832H12.0982C12.1217 8.60832 12.1435 8.59614 12.1557 8.57616L13.4522 6.46627L13.4523 6.46613C13.654 6.13599 13.9342 5.87773 14.2831 5.69126C14.6328 5.50432 15.0155 5.40086 15.4204 5.40086H17.9091C18.3265 5.40086 18.6969 5.49412 19.045 5.69052L19.045 5.69053L19.0464 5.69126C19.3941 5.87715 19.6635 6.13513 19.8777 6.46702C19.8778 6.46719 19.8779 6.46735 19.878 6.46752L21.1854 8.57639C21.1977 8.59624 21.2194 8.60832 21.2428 8.60832H23.6967C24.1141 8.60832 24.4846 8.70158 24.8327 8.89797L24.8327 8.89799L24.834 8.89872C25.1817 9.08457 25.4511 9.34248 25.6652 9.67427C25.6654 9.67451 25.6655 9.67474 25.6657 9.67498L26.9612 11.8047L26.9612 11.8047L26.9623 11.8065C27.1637 12.1154 27.2639 12.4437 27.2639 12.8139C27.2639 13.1841 27.1637 13.5123 26.9623 13.8213L26.9614 13.8227L25.6303 15.9752C25.6169 15.9969 25.6168 16.0243 25.6302 16.0461L26.9614 18.2092L26.9613 18.2092L26.9623 18.2107C27.1638 18.5199 27.2639 18.8481 27.2639 19.2075C27.2639 19.5673 27.1636 19.9061 26.9623 20.2149L26.9612 20.2167L25.6648 22.3478C25.4631 22.6779 25.1829 22.9362 24.834 23.1227C24.4854 23.309 24.1028 23.4024 23.6967 23.4024H21.2428C21.2194 23.4024 21.1977 23.4145 21.1854 23.4343L19.8774 25.5442L19.8772 25.5446C19.6754 25.8747 19.3952 26.133 19.0464 26.3195C18.6977 26.5058 18.3151 26.5992 17.9091 26.5992H15.4204C15.0029 26.5992 14.6319 26.5059 14.2831 26.3195C13.9353 26.1336 13.6659 25.8757 13.4518 25.5438C13.4517 25.5436 13.4515 25.5434 13.4514 25.5432L12.1557 23.4346ZM21.1852 14.9804C21.1975 15.0004 21.2193 15.0126 21.2428 15.0126H23.7314C23.7552 15.0126 23.7772 15.0001 23.7894 14.9797L25.0627 12.8485C25.0754 12.8272 25.0754 12.8006 25.0627 12.7793L23.7894 10.6481C23.7772 10.6277 23.7552 10.6152 23.7314 10.6152H21.2428C21.2193 10.6152 21.1975 10.6274 21.1852 10.6474L19.8772 12.7786C19.8639 12.8002 19.8639 12.8275 19.8772 12.8492L21.1852 14.9804ZM15.3974 18.177C15.4097 18.1971 15.4315 18.2094 15.4551 18.2094H17.8859C17.9095 18.2094 17.9313 18.1971 17.9436 18.177L19.24 16.0458C19.2531 16.0242 19.2531 15.9972 19.24 15.9756L17.9436 13.8444C17.9313 13.8243 17.9095 13.812 17.8859 13.812H15.4551C15.4315 13.812 15.4097 13.8243 15.3974 13.8444L14.101 15.9756C14.0879 15.9972 14.0879 16.0242 14.101 16.0458L15.3974 18.177ZM15.3876 11.7486C15.3878 11.7857 15.4179 11.8158 15.4551 11.8158H15.4667H17.8859C17.9093 11.8158 17.9311 11.8036 17.9434 11.7837L19.2745 9.62049C19.2879 9.59877 19.2879 9.57136 19.2745 9.54966L17.9781 7.45043C17.9658 7.43052 17.944 7.4184 17.9206 7.4184H15.4319C15.4085 7.4184 15.3868 7.43052 15.3745 7.45043L14.0781 9.54966C14.0647 9.57136 14.0647 9.59877 14.078 9.62049L15.3876 11.7486ZM13.4639 12.849C13.477 12.8274 13.477 12.8004 13.4639 12.7788L12.1675 10.6476C12.1552 10.6275 12.1334 10.6152 12.1098 10.6152H9.65585C9.63229 10.6152 9.61044 10.6275 9.5982 10.6476L8.30176 12.7788C8.28865 12.8004 8.28865 12.8274 8.30176 12.849L9.5982 14.9802C9.61044 15.0003 9.63229 15.0126 9.65585 15.0126H12.1098C12.1334 15.0126 12.1552 15.0003 12.1675 14.9802L13.4639 12.849ZM13.4372 19.2675C13.4487 19.2615 13.4585 19.2523 13.4651 19.2406C13.477 19.2193 13.4766 19.1933 13.4639 19.1724L12.1675 17.0412C12.1552 17.0211 12.1334 17.0088 12.1098 17.0088H9.62112C9.59738 17.0088 9.57537 17.0213 9.56319 17.0417L8.28991 19.1729C8.27707 19.1944 8.27718 19.2212 8.29018 19.2426L9.58662 21.3738C9.59886 21.3939 9.62072 21.4062 9.64428 21.4062H12.0982C12.1218 21.4062 12.1437 21.3939 12.1559 21.3738L13.4372 19.2675ZM15.376 20.2726L14.0665 22.3901C14.0531 22.4118 14.0531 22.4392 14.0664 22.4609L15.3629 24.5708C15.3751 24.5908 15.3969 24.603 15.4204 24.603H17.9091C17.9325 24.603 17.9543 24.5908 17.9666 24.5708L19.263 22.4609C19.2763 22.4392 19.2763 22.4118 19.2629 22.3901L17.9317 20.2376C17.9194 20.2177 17.8977 20.2056 17.8743 20.2056H15.4551H15.4435C15.4064 20.2056 15.3763 20.2356 15.376 20.2726ZM21.1852 21.374C21.1975 21.394 21.2193 21.4062 21.2428 21.4062H23.6967C23.7203 21.4062 23.7421 21.3939 23.7544 21.3738L25.0508 19.2426C25.0639 19.221 25.0639 19.194 25.0508 19.1724L23.7544 17.0412C23.7421 17.0211 23.7203 17.0088 23.6967 17.0088H21.2428C21.2193 17.0088 21.1975 17.021 21.1852 17.041L19.8772 19.1722C19.8639 19.1939 19.8639 19.2211 19.8772 19.2428L21.1852 21.374Z" fill="#78350F" stroke="#292524" stroke-width="0.134967" stroke-linecap="round" stroke-linejoin="round"/>
</svg>
