<svg width="33" height="32" viewBox="0 0 33 32" fill="none" xmlns="http://www.w3.org/2000/svg">
<path d="M32.1837 19.8705C30.0468 28.442 21.3653 33.6584 12.7927 31.521C4.22379 29.3841 -0.992662 20.702 1.14519 12.1312C3.28117 3.5587 11.9627 -1.65814 20.5326 0.478775C29.1045 2.61569 34.3206 11.2987 32.1835 19.8706L32.1837 19.8705H32.1837Z" fill="#50AF95"/>
<path fill-rule="evenodd" clip-rule="evenodd" d="M18.6904 17.8137C18.5772 17.8221 17.9927 17.857 16.6888 17.857C15.6518 17.857 14.9155 17.8259 14.6571 17.8137C10.6493 17.6374 7.65788 16.9397 7.65788 16.1044C7.65788 15.2691 10.6493 14.5724 14.6571 14.3932V17.1188C14.9192 17.1377 15.6697 17.182 16.7068 17.182C17.9512 17.182 18.5744 17.1301 18.6866 17.1198V14.3951C22.6859 14.5733 25.6708 15.271 25.6708 16.1044C25.6708 16.9378 22.6869 17.6355 18.6866 17.8127L18.6904 17.8137ZM18.6909 14.1134V11.6744H24.2722V7.95508H9.07636V11.6744H14.6567V14.1124C10.121 14.3208 6.70996 15.2193 6.70996 16.2959C6.70996 17.3726 10.121 18.2701 14.6567 18.4794V26.2951H18.69V18.4766C23.2153 18.2682 26.6207 17.3707 26.6207 16.295C26.6207 15.2193 23.2182 14.3217 18.69 14.1124L18.6909 14.1134Z" fill="#FAFAF9"/>
</svg>
