<svg width="16" height="16" viewBox="0 0 16 16" fill="none" xmlns="http://www.w3.org/2000/svg">
<rect width="16" height="16" rx="4" fill="#354809"/>
<path d="M9.51387 7.88302L8.2376 6.60675L8.21568 6.60108C7.66332 6.77257 6.60612 7.10216 6.60612 7.10216C6.35919 7.17918 6.09235 7.16084 5.85828 7.05077C5.6242 6.9407 5.43988 6.74688 5.3417 6.50757C5.24352 6.26826 5.23861 6.00084 5.32793 5.75809C5.41726 5.51533 5.59433 5.31488 5.82421 5.19628L7.2786 4.44488L5.63689 4.40068C5.25979 4.39095 4.9008 4.23689 4.63396 3.97026L4.47277 3.80908C4.43368 3.76999 4.38728 3.73898 4.3362 3.71783C4.28513 3.69667 4.23039 3.68578 4.17511 3.68578C4.11983 3.68578 4.06509 3.69667 4.01402 3.71783C3.96295 3.73898 3.91654 3.76999 3.87746 3.80908L1.81255 5.87397C1.77345 5.91308 1.74243 5.95951 1.72128 6.01061C1.70013 6.06171 1.68925 6.11647 1.68927 6.17178C1.68929 6.22709 1.70021 6.28184 1.7214 6.33293C1.74259 6.38401 1.77364 6.43042 1.81277 6.4695L2.24399 6.90009C2.4009 7.05739 2.52032 7.24804 2.59338 7.45786L2.86069 8.22505C2.99136 8.59953 3.20465 8.93979 3.48475 9.22061L5.83053 11.5664L7.44277 13.1776C7.486 13.2209 7.53736 13.2554 7.59391 13.2789C7.65046 13.3024 7.71109 13.3145 7.77233 13.3146C7.83357 13.3146 7.89422 13.3026 7.95081 13.2792C8.0074 13.2558 8.05882 13.2214 8.10212 13.1781C8.14543 13.1348 8.17977 13.0834 8.20318 13.0268C8.22659 12.9702 8.23861 12.9096 8.23856 12.8483C8.23851 12.7871 8.22638 12.7265 8.20287 12.6699C8.17936 12.6134 8.14494 12.562 8.10156 12.5188L6.21779 10.635C6.19482 10.6121 6.1766 10.5849 6.16417 10.5549C6.15174 10.5249 6.14535 10.4928 6.14535 10.4603C6.14536 10.4279 6.15177 10.3958 6.16421 10.3658C6.17666 10.3358 6.19489 10.3086 6.21787 10.2857C6.24085 10.2628 6.26812 10.2446 6.29813 10.2323C6.32813 10.2199 6.36028 10.2136 6.39273 10.2137C6.42518 10.2138 6.45729 10.2203 6.48723 10.2328C6.51716 10.2453 6.54434 10.2636 6.56719 10.2867L8.73065 12.4501C8.77541 12.496 8.82882 12.5325 8.88778 12.5575C8.94674 12.5826 9.01008 12.5957 9.07414 12.5961C9.1382 12.5966 9.20172 12.5843 9.26101 12.56C9.32029 12.5358 9.37419 12.5 9.41956 12.4548C9.50118 12.3662 9.54549 12.2496 9.54325 12.1292C9.54102 12.0088 9.49241 11.8939 9.40757 11.8084L7.67218 10.0741C7.64913 10.0512 7.63082 10.0239 7.61831 9.99393C7.6058 9.96392 7.59934 9.93174 7.59929 9.89924C7.59924 9.86673 7.6056 9.83453 7.61802 9.80449C7.63044 9.77444 7.64866 9.74715 7.67165 9.72416C7.69464 9.70117 7.72193 9.68295 7.75198 9.67053C7.78202 9.65812 7.81422 9.65175 7.84672 9.6518C7.87923 9.65185 7.91141 9.65831 7.94142 9.67082C7.97142 9.68333 7.99866 9.70164 8.02158 9.7247L10.2032 11.9052C10.2464 11.9485 10.2978 11.9829 10.3543 12.0063C10.4108 12.0297 10.4714 12.0418 10.5326 12.0418C10.5937 12.0418 10.6543 12.0297 10.7109 12.0063C10.7674 11.9829 10.8187 11.9485 10.862 11.9052C10.9053 11.862 10.9397 11.8107 10.9632 11.7542C10.9867 11.6977 10.9988 11.637 10.9988 11.5758C10.9988 11.5146 10.9867 11.454 10.9632 11.3975C10.9397 11.341 10.9053 11.2896 10.862 11.2464L8.45726 8.84279C8.4342 8.81988 8.41589 8.79264 8.40338 8.76263C8.39087 8.73263 8.38441 8.70045 8.38436 8.66794C8.38431 8.63543 8.39068 8.60323 8.40309 8.57319C8.41551 8.54315 8.43373 8.51585 8.45672 8.49286C8.47971 8.46988 8.50701 8.45165 8.53705 8.43923C8.56709 8.42682 8.59929 8.42045 8.6318 8.4205C8.66431 8.42055 8.69648 8.42702 8.72649 8.43952C8.75649 8.45203 8.78374 8.47034 8.80665 8.4934L10.6904 10.3761C10.7337 10.4195 10.785 10.4539 10.8416 10.4774C10.8981 10.5009 10.9587 10.5131 11.02 10.5131C11.0812 10.5132 11.1419 10.5011 11.1985 10.4777C11.2551 10.4543 11.3065 10.42 11.3498 10.3767C11.3931 10.3334 11.4274 10.282 11.4508 10.2254C11.4742 10.1688 11.4863 10.1081 11.4862 10.0469C11.4862 9.98564 11.474 9.92501 11.4505 9.86846C11.427 9.81191 11.3926 9.76055 11.3492 9.71732L9.51387 7.88302Z" fill="#F0FEC7"/>
<path d="M14.1874 5.87397L12.1222 3.80873C12.0433 3.72985 11.9364 3.6855 11.8248 3.68544C11.7132 3.68537 11.6062 3.72959 11.5272 3.80839L11.3724 3.96289C11.1017 4.23347 10.7364 4.3882 10.3537 4.39436L8.83929 4.41752C8.6121 4.42065 8.38874 4.47648 8.18681 4.58064L6.07046 5.67302C5.98927 5.71481 5.92117 5.77818 5.87364 5.85616C5.82611 5.93413 5.801 6.0237 5.80106 6.11502C5.80098 6.16274 5.80771 6.21022 5.82104 6.25604C5.8397 6.31929 5.87076 6.3782 5.91242 6.42933C5.95409 6.48046 6.00551 6.52278 6.06369 6.55383C6.12188 6.58489 6.18566 6.60404 6.25133 6.61019C6.31699 6.61634 6.38322 6.60936 6.44616 6.58965C6.44616 6.58965 7.50356 6.26054 8.05646 6.08901C8.25543 6.02795 8.47049 6.04822 8.65454 6.14539C9.16041 6.40944 10.3022 6.85888 11.4916 6.33162C11.5411 6.30968 11.5971 6.3077 11.6481 6.32608C11.699 6.34447 11.7409 6.3818 11.765 6.4303C11.7891 6.4788 11.7936 6.53473 11.7775 6.58644C11.7614 6.63815 11.7259 6.68166 11.6786 6.70789C10.7806 7.18388 9.89274 7.07289 9.2655 6.86852L11.6176 9.22061C11.6765 9.27948 11.7464 9.32618 11.8233 9.35804C11.9002 9.38991 11.9826 9.40631 12.0659 9.40631C12.1492 9.40631 12.2316 9.38991 12.3085 9.35804C12.3855 9.32618 12.4553 9.27948 12.5142 9.22061C12.7942 8.94061 13.0073 8.60097 13.1376 8.22704L13.4056 7.45786C13.4793 7.2481 13.599 7.05751 13.756 6.9001L14.1872 6.46951C14.2264 6.43043 14.2574 6.38402 14.2786 6.33294C14.2998 6.28185 14.3107 6.22709 14.3108 6.17178C14.3108 6.11647 14.2999 6.06171 14.2787 6.01061C14.2576 5.9595 14.2266 5.91307 14.1874 5.87397Z" fill="#F0FEC7"/>
</svg>
