<svg width="16" height="16" viewBox="0 0 40 40" fill="none" xmlns="http://www.w3.org/2000/svg">
<rect width="40" height="40" rx="10" fill="url(#paint0_radial_6315_1245)"/>
<rect width="40" height="40" rx="10" fill="url(#paint1_radial_6315_1245)"/>
<g clip-path="url(#clip0_6315_1245)">
<g filter="url(#filter0_dd_6315_1245)">
<path d="M12.8645 13.6198C12.352 13.6198 11.8895 13.1479 11.8895 12.626C11.8895 11.4229 14.8666 10.5323 18.2541 10.5323C18.5614 10.5323 18.7666 10.5323 18.7666 10.2719C18.7666 9.80104 17.7406 9.64479 17.7406 8.86042C17.7406 8.02292 18.7156 7.5 19.9479 7.5C21.1802 7.5 22.1562 8.02292 22.1562 8.86042C22.1562 9.64479 21.1291 9.74896 21.1291 10.2719C21.1291 10.4292 21.2833 10.5333 21.6416 10.5333C25.0291 10.5333 28.0583 11.3698 28.0583 12.626C28.0595 12.7554 28.0353 12.8836 27.9868 13.0035C27.9384 13.1235 27.8669 13.2326 27.7762 13.3249C27.6855 13.4171 27.5776 13.4905 27.4585 13.5409C27.3394 13.5913 27.2116 13.6178 27.0823 13.6187H12.8656L12.8645 13.6198ZM28.2104 18.3781C29.4427 19.1625 29.9041 20.575 29.7 21.8833L28.2625 29.7792C27.9541 31.351 26.6187 32.5 25.027 32.5H14.9687C13.3791 32.5 12.0437 31.35 11.7354 29.7802L10.2979 21.8833C10.1905 21.2201 10.2792 20.54 10.5531 19.9266C10.827 19.3131 11.2741 18.793 11.8395 18.4302C12.5583 17.9083 12.7104 17.0187 11.8395 16.7052C10.6062 16.2344 10.8625 14.7177 12.0948 14.7177H19.5875C20.7677 14.7177 22.2062 15.6062 22.2062 18.4833C22.2062 21.3604 20.8708 21.0979 20.8708 23.1375C20.8708 24.0271 21.5895 24.9688 22.4614 25.074C23.951 25.2302 24.8229 24.6552 24.8229 22.5635C24.8229 20.4177 23.5916 19.425 23.5916 17.6469C23.5916 15.5021 24.925 14.6646 25.7979 14.6646H27.9541C29.1854 14.6646 29.4437 16.1823 28.2104 16.6531C27.3385 17.0177 27.4916 17.9083 28.2104 18.3781Z" fill="white"/>
<path d="M12.8645 13.6198C12.352 13.6198 11.8895 13.1479 11.8895 12.626C11.8895 11.4229 14.8666 10.5323 18.2541 10.5323C18.5614 10.5323 18.7666 10.5323 18.7666 10.2719C18.7666 9.80104 17.7406 9.64479 17.7406 8.86042C17.7406 8.02292 18.7156 7.5 19.9479 7.5C21.1802 7.5 22.1562 8.02292 22.1562 8.86042C22.1562 9.64479 21.1291 9.74896 21.1291 10.2719C21.1291 10.4292 21.2833 10.5333 21.6416 10.5333C25.0291 10.5333 28.0583 11.3698 28.0583 12.626C28.0595 12.7554 28.0353 12.8836 27.9868 13.0035C27.9384 13.1235 27.8669 13.2326 27.7762 13.3249C27.6855 13.4171 27.5776 13.4905 27.4585 13.5409C27.3394 13.5913 27.2116 13.6178 27.0823 13.6187H12.8656L12.8645 13.6198ZM28.2104 18.3781C29.4427 19.1625 29.9041 20.575 29.7 21.8833L28.2625 29.7792C27.9541 31.351 26.6187 32.5 25.027 32.5H14.9687C13.3791 32.5 12.0437 31.35 11.7354 29.7802L10.2979 21.8833C10.1905 21.2201 10.2792 20.54 10.5531 19.9266C10.827 19.3131 11.2741 18.793 11.8395 18.4302C12.5583 17.9083 12.7104 17.0187 11.8395 16.7052C10.6062 16.2344 10.8625 14.7177 12.0948 14.7177H19.5875C20.7677 14.7177 22.2062 15.6062 22.2062 18.4833C22.2062 21.3604 20.8708 21.0979 20.8708 23.1375C20.8708 24.0271 21.5895 24.9688 22.4614 25.074C23.951 25.2302 24.8229 24.6552 24.8229 22.5635C24.8229 20.4177 23.5916 19.425 23.5916 17.6469C23.5916 15.5021 24.925 14.6646 25.7979 14.6646H27.9541C29.1854 14.6646 29.4437 16.1823 28.2104 16.6531C27.3385 17.0177 27.4916 17.9083 28.2104 18.3781Z" fill="white"/>
</g>
</g>
<defs>
<filter id="filter0_dd_6315_1245" x="6.25354" y="1.5" width="27.493" height="33" filterUnits="userSpaceOnUse" color-interpolation-filters="sRGB">
<feFlood flood-opacity="0" result="BackgroundImageFix"/>
<feColorMatrix in="SourceAlpha" type="matrix" values="0 0 0 0 0 0 0 0 0 0 0 0 0 0 0 0 0 0 127 0" result="hardAlpha"/>
<feOffset dy="0.5"/>
<feGaussianBlur stdDeviation="0.5"/>
<feComposite in2="hardAlpha" operator="out"/>
<feColorMatrix type="matrix" values="0 0 0 0 0 0 0 0 0 0 0 0 0 0 0 0 0 0 0.45 0"/>
<feBlend mode="normal" in2="BackgroundImageFix" result="effect1_dropShadow_6315_1245"/>
<feColorMatrix in="SourceAlpha" type="matrix" values="0 0 0 0 0 0 0 0 0 0 0 0 0 0 0 0 0 0 127 0" result="hardAlpha"/>
<feOffset dy="-2"/>
<feGaussianBlur stdDeviation="2"/>
<feComposite in2="hardAlpha" operator="out"/>
<feColorMatrix type="matrix" values="0 0 0 0 0.454902 0 0 0 0 0.392157 0 0 0 0 0.898039 0 0 0 0.75 0"/>
<feBlend mode="normal" in2="effect1_dropShadow_6315_1245" result="effect2_dropShadow_6315_1245"/>
<feBlend mode="normal" in="SourceGraphic" in2="effect2_dropShadow_6315_1245" result="shape"/>
</filter>
<radialGradient id="paint0_radial_6315_1245" cx="0" cy="0" r="1" gradientUnits="userSpaceOnUse" gradientTransform="translate(10 9.5) rotate(48.8879) scale(36.5)">
<stop stop-color="#8A7BEB"/>
<stop offset="1" stop-color="#7464E5"/>
</radialGradient>
<radialGradient id="paint1_radial_6315_1245" cx="0" cy="0" r="1" gradientUnits="userSpaceOnUse" gradientTransform="translate(20 20) rotate(90) scale(20)">
<stop stop-color="#C7C2EB"/>
<stop offset="1" stop-color="#7464E5"/>
</radialGradient>
<clipPath id="clip0_6315_1245">
<rect width="25" height="25" fill="white" transform="translate(7.49994 7.5)"/>
</clipPath>
</defs>
</svg>
