 <svg
      width="40"
      height="40"
      viewBox="0 0 40 40"
      fill="none"
      xmlns="http://www.w3.org/2000/svg"
    >
      <rect width="40" height="40" rx="10" fill="url(#paint0_radial_6594_47)" />
      <g filter="url(#filter0_dd_6594_47)">
        <path
          d="M12.611 13.1198C12.0985 13.1198 11.636 12.6479 11.636 12.126C11.636 10.9229 14.6131 10.0323 18.0006 10.0323C18.3079 10.0323 18.5131 10.0323 18.5131 9.77187C18.5131 9.30104 17.487 9.14479 17.487 8.36042C17.487 7.52292 18.462 7 19.6943 7C20.9266 7 21.9027 7.52292 21.9027 8.36042C21.9027 9.14479 20.8756 9.24896 20.8756 9.77187C20.8756 9.92917 21.0298 10.0333 21.3881 10.0333C24.7756 10.0333 27.8048 10.8698 27.8048 12.126C27.806 12.2554 27.7817 12.3836 27.7333 12.5035C27.6849 12.6235 27.6133 12.7326 27.5226 12.8249C27.432 12.9171 27.324 12.9905 27.205 13.0409C27.0859 13.0913 26.958 13.1178 26.8287 13.1187H12.612L12.611 13.1198ZM27.9568 17.8781C29.1891 18.6625 29.6506 20.075 29.4464 21.3833L28.0089 29.2792C27.7006 30.851 26.3652 32 24.7735 32H14.7152C13.1256 32 11.7902 30.85 11.4818 29.2802L10.0443 21.3833C9.93695 20.7201 10.0256 20.04 10.2995 19.4266C10.5734 18.8131 11.0206 18.293 11.586 17.9302C12.3048 17.4083 12.4568 16.5187 11.586 16.2052C10.3527 15.7344 10.6089 14.2177 11.8412 14.2177H19.3339C20.5141 14.2177 21.9527 15.1062 21.9527 17.9833C21.9527 20.8604 20.6173 20.5979 20.6173 22.6375C20.6173 23.5271 21.336 24.4688 22.2079 24.574C23.6975 24.7302 24.5693 24.1552 24.5693 22.0635C24.5693 19.9177 23.3381 18.925 23.3381 17.1469C23.3381 15.0021 24.6714 14.1646 25.5443 14.1646H27.7006C28.9318 14.1646 29.1902 15.6823 27.9568 16.1531C27.085 16.5177 27.2381 17.4083 27.9568 17.8781Z"
          fill="white"
        />
        <path
          d="M12.611 13.1198C12.0985 13.1198 11.636 12.6479 11.636 12.126C11.636 10.9229 14.6131 10.0323 18.0006 10.0323C18.3079 10.0323 18.5131 10.0323 18.5131 9.77187C18.5131 9.30104 17.487 9.14479 17.487 8.36042C17.487 7.52292 18.462 7 19.6943 7C20.9266 7 21.9027 7.52292 21.9027 8.36042C21.9027 9.14479 20.8756 9.24896 20.8756 9.77187C20.8756 9.92917 21.0298 10.0333 21.3881 10.0333C24.7756 10.0333 27.8048 10.8698 27.8048 12.126C27.806 12.2554 27.7817 12.3836 27.7333 12.5035C27.6849 12.6235 27.6133 12.7326 27.5226 12.8249C27.432 12.9171 27.324 12.9905 27.205 13.0409C27.0859 13.0913 26.958 13.1178 26.8287 13.1187H12.612L12.611 13.1198ZM27.9568 17.8781C29.1891 18.6625 29.6506 20.075 29.4464 21.3833L28.0089 29.2792C27.7006 30.851 26.3652 32 24.7735 32H14.7152C13.1256 32 11.7902 30.85 11.4818 29.2802L10.0443 21.3833C9.93695 20.7201 10.0256 20.04 10.2995 19.4266C10.5734 18.8131 11.0206 18.293 11.586 17.9302C12.3048 17.4083 12.4568 16.5187 11.586 16.2052C10.3527 15.7344 10.6089 14.2177 11.8412 14.2177H19.3339C20.5141 14.2177 21.9527 15.1062 21.9527 17.9833C21.9527 20.8604 20.6173 20.5979 20.6173 22.6375C20.6173 23.5271 21.336 24.4688 22.2079 24.574C23.6975 24.7302 24.5693 24.1552 24.5693 22.0635C24.5693 19.9177 23.3381 18.925 23.3381 17.1469C23.3381 15.0021 24.6714 14.1646 25.5443 14.1646H27.7006C28.9318 14.1646 29.1902 15.6823 27.9568 16.1531C27.085 16.5177 27.2381 17.4083 27.9568 17.8781Z"
          fill="white"
        />
      </g>
      <defs>
        <filter
          id="filter0_dd_6594_47"
          x="8"
          y="6"
          width="23.493"
          height="29"
          filterUnits="userSpaceOnUse"
          color-interpolation-filters="sRGB"
        >
          <feFlood flood-opacity="0" result="BackgroundImageFix" />
          <feColorMatrix
            in="SourceAlpha"
            type="matrix"
            values="0 0 0 0 0 0 0 0 0 0 0 0 0 0 0 0 0 0 127 0"
            result="hardAlpha"
          />
          <feOffset dy="1" />
          <feGaussianBlur stdDeviation="1" />
          <feComposite in2="hardAlpha" operator="out" />
          <feColorMatrix
            type="matrix"
            values="0 0 0 0 0 0 0 0 0 0 0 0 0 0 0 0 0 0 0.55 0"
          />
          <feBlend
            mode="normal"
            in2="BackgroundImageFix"
            result="effect1_dropShadow_6594_47"
          />
          <feColorMatrix
            in="SourceAlpha"
            type="matrix"
            values="0 0 0 0 0 0 0 0 0 0 0 0 0 0 0 0 0 0 127 0"
            result="hardAlpha"
          />
          <feOffset dy="1" />
          <feGaussianBlur stdDeviation="1" />
          <feComposite in2="hardAlpha" operator="out" />
          <feColorMatrix
            type="matrix"
            values="0 0 0 0 0.113725 0 0 0 0 0.890196 0 0 0 0 0.941176 0 0 0 0.75 0"
          />
          <feBlend
            mode="normal"
            in2="effect1_dropShadow_6594_47"
            result="effect2_dropShadow_6594_47"
          />
          <feBlend
            mode="normal"
            in="SourceGraphic"
            in2="effect2_dropShadow_6594_47"
            result="shape"
          />
        </filter>
        <radialGradient
          id="paint0_radial_6594_47"
          cx="0"
          cy="0"
          r="1"
          gradientUnits="userSpaceOnUse"
          gradientTransform="translate(20 20) rotate(90) scale(20)"
        >
          <stop stop-color="#AEE4E7" />
          <stop offset="1" stop-color="#41D6E0" />
        </radialGradient>
      </defs>
    </svg>