<svg width="58" height="61" viewBox="0 0 58 61" fill="none" xmlns="http://www.w3.org/2000/svg">
<path d="M16.9132 51.6264H10.4174C9.28372 51.6264 8.27258 51.3551 7.32272 50.8127C6.37286 50.2702 5.63749 49.5168 5.05531 48.5524L1.59292 42.5251C1.04139 41.621 0.765625 40.6567 0.765625 39.5717C0.765625 38.4868 1.04139 37.5526 1.59292 36.6485L5.11659 30.5308L1.59292 24.4432C1.04139 23.5391 0.765625 22.5446 0.765625 21.4898C0.765625 20.435 1.04139 19.4405 1.59292 18.5364L5.05531 12.5091C5.60684 11.5448 6.37286 10.7914 7.32272 10.2489C8.27258 9.70644 9.31436 9.40508 10.4174 9.40508H16.9132L20.345 3.43805C20.8965 2.47368 21.6625 1.72026 22.6124 1.17781C23.5623 0.63535 24.604 0.333984 25.7071 0.333984H32.2948C33.4285 0.333984 34.4397 0.605213 35.3895 1.17781C36.3394 1.72026 37.0748 2.47368 37.6569 3.43805L41.1193 9.40508H47.6152C48.7489 9.40508 49.76 9.67631 50.7099 10.2489C51.6597 10.7914 52.3951 11.5448 52.9773 12.5091L56.409 18.5364C56.9605 19.4405 57.2363 20.4049 57.2363 21.4898C57.2363 22.5747 56.9605 23.5391 56.409 24.4432L52.8853 30.5308L56.409 36.6485C56.9605 37.5526 57.2363 38.517 57.2363 39.5717C57.2363 40.6265 56.9605 41.621 56.409 42.5251L52.9773 48.5524C52.4257 49.5168 51.6597 50.2702 50.7099 50.8127C49.76 51.3551 48.7182 51.6264 47.6152 51.6264H41.1193L37.6569 57.5934C37.1054 58.5578 36.3394 59.3112 35.3895 59.8536C34.4397 60.3961 33.3979 60.6673 32.2948 60.6673H25.7071C24.5734 60.6673 23.5623 60.3961 22.6124 59.8536C21.6625 59.3112 20.9272 58.5578 20.345 57.5934L16.9132 51.6264ZM41.1193 27.5171H47.7071L51.0775 21.4898L47.7071 15.4625H41.1193L37.6569 21.4898L41.1193 27.5171ZM25.799 36.5581H32.2336L35.6653 30.5308L32.2336 24.5035H25.799L22.3673 30.5308L25.799 36.5581ZM25.799 18.4762H32.2336L35.7572 12.3585L32.3255 6.42156H25.7377L22.306 12.3585L25.8297 18.4762H25.799ZM20.3756 21.4898L16.9439 15.4625H10.4481L7.01631 21.4898L10.4481 27.5171H16.9439L20.3756 21.4898ZM20.3756 39.5717L16.9439 33.5444H10.3561L6.98567 39.5717L10.4174 45.5991H16.9132L20.345 39.5717H20.3756ZM25.799 42.5854L22.2753 48.673L25.7071 54.64H32.2948L35.7266 48.673L32.2029 42.5854H25.7684H25.799ZM41.1193 45.5991H47.6152L51.0469 39.5717L47.6152 33.5444H41.1193L37.6569 39.5717L41.1193 45.5991Z" fill="#F59E0B"/>
</svg>
