<svg width="32" height="32" viewBox="0 0 32 32" fill="none" xmlns="http://www.w3.org/2000/svg">
<rect width="32" height="32" rx="6" fill="#FEF9C3"/>
<rect x="15.5" y="4" width="0.75" height="0.75" fill="#292524"/>
<rect x="10.25" y="4.75" width="0.75" height="0.75" fill="#292524"/>
<rect x="14.75" y="4.75" width="0.75" height="0.75" fill="#292524"/>
<rect x="15.5" y="4.75" width="0.75" height="0.75" fill="#292524"/>
<rect x="10.25" y="5.5" width="0.75" height="0.75" fill="#292524"/>
<rect x="11" y="5.5" width="0.75" height="0.75" fill="#292524"/>
<rect x="20" y="5.5" width="0.75" height="0.75" fill="#292524"/>
<rect x="20.75" y="5.5" width="0.75" height="0.75" fill="#292524"/>
<rect x="15.5" y="6.25" width="0.75" height="0.75" fill="#292524"/>
<rect x="11" y="7" width="0.75" height="0.75" fill="#292524"/>
<rect x="11.75" y="7" width="0.75" height="0.75" fill="#292524"/>
<rect x="14.75" y="7" width="0.75" height="0.75" fill="#292524"/>
<rect x="15.5" y="7" width="0.75" height="0.75" fill="#292524"/>
<rect x="16.25" y="7" width="0.75" height="0.75" fill="#292524"/>
<rect x="19.25" y="7" width="0.75" height="0.75" fill="#292524"/>
<rect x="20" y="7" width="0.75" height="0.75" fill="#292524"/>
<rect x="11" y="7.75" width="0.75" height="0.75" fill="#292524"/>
<rect x="11.75" y="7.75" width="0.75" height="0.75" fill="#292524"/>
<rect x="12.5" y="7.75" width="0.75" height="0.75" fill="#292524"/>
<rect x="14" y="7.75" width="0.75" height="0.75" fill="#292524"/>
<rect x="14.75" y="7.75" width="0.75" height="0.75" fill="#292524"/>
<rect x="15.5" y="7.75" width="0.75" height="0.75" fill="#292524"/>
<rect x="16.25" y="7.75" width="0.75" height="0.75" fill="#292524"/>
<rect x="17" y="7.75" width="0.75" height="0.75" fill="#292524"/>
<rect x="18.5" y="7.75" width="0.75" height="0.75" fill="#292524"/>
<rect x="19.25" y="7.75" width="0.75" height="0.75" fill="#292524"/>
<rect x="20" y="7.75" width="0.75" height="0.75" fill="#292524"/>
<rect x="11" y="8.5" width="0.75" height="0.75" fill="#292524"/>
<rect x="11.75" y="8.5" width="0.75" height="0.75" fill="#292524"/>
<rect x="12.5" y="8.5" width="0.75" height="0.75" fill="#292524"/>
<rect x="13.25" y="8.5" width="0.75" height="0.75" fill="#292524"/>
<rect x="14" y="8.5" width="0.75" height="0.75" fill="#292524"/>
<rect x="14.75" y="8.5" width="0.75" height="0.75" fill="#292524"/>
<rect x="16.25" y="8.5" width="0.75" height="0.75" fill="#292524"/>
<rect x="17" y="8.5" width="0.75" height="0.75" fill="#292524"/>
<rect x="17.75" y="8.5" width="0.75" height="0.75" fill="#292524"/>
<rect x="18.5" y="8.5" width="0.75" height="0.75" fill="#292524"/>
<rect x="19.25" y="8.5" width="0.75" height="0.75" fill="#292524"/>
<rect x="20" y="8.5" width="0.75" height="0.75" fill="#292524"/>
<rect x="11" y="9.25" width="0.75" height="0.75" fill="#292524"/>
<rect x="11.75" y="9.25" width="0.75" height="0.75" fill="#292524"/>
<rect x="13.25" y="9.25" width="0.75" height="0.75" fill="#292524"/>
<rect x="14" y="9.25" width="0.75" height="0.75" fill="#292524"/>
<rect x="17" y="9.25" width="0.75" height="0.75" fill="#292524"/>
<rect x="17.75" y="9.25" width="0.75" height="0.75" fill="#292524"/>
<rect x="19.25" y="9.25" width="0.75" height="0.75" fill="#292524"/>
<rect x="20" y="9.25" width="0.75" height="0.75" fill="#292524"/>
<rect x="11" y="10" width="0.75" height="0.75" fill="#292524"/>
<rect x="11.75" y="10" width="0.75" height="0.75" fill="#292524"/>
<rect x="19.25" y="10" width="0.75" height="0.75" fill="#292524"/>
<rect x="20" y="10" width="0.75" height="0.75" fill="#292524"/>
<rect x="11" y="10.75" width="0.75" height="0.75" fill="#292524"/>
<rect x="11.75" y="10.75" width="0.75" height="0.75" fill="#292524"/>
<rect x="19.25" y="10.75" width="0.75" height="0.75" fill="#292524"/>
<rect x="20" y="10.75" width="0.75" height="0.75" fill="#292524"/>
<rect x="11" y="11.5" width="0.75" height="0.75" fill="#292524"/>
<rect x="11.75" y="11.5" width="0.75" height="0.75" fill="#292524"/>
<rect x="18.5" y="11.5" width="0.75" height="0.75" fill="#292524"/>
<rect x="19.25" y="11.5" width="0.75" height="0.75" fill="#292524"/>
<rect x="11.75" y="12.25" width="0.75" height="0.75" fill="#292524"/>
<rect x="12.5" y="12.25" width="0.75" height="0.75" fill="#292524"/>
<rect x="18.5" y="12.25" width="0.75" height="0.75" fill="#292524"/>
<rect x="19.25" y="12.25" width="0.75" height="0.75" fill="#292524"/>
<rect x="11.75" y="13" width="0.75" height="0.75" fill="#292524"/>
<rect x="12.5" y="13" width="0.75" height="0.75" fill="#292524"/>
<rect x="13.25" y="13" width="0.75" height="0.75" fill="#292524"/>
<rect x="14" y="13" width="0.75" height="0.75" fill="#292524"/>
<rect x="14.75" y="13" width="0.75" height="0.75" fill="#292524"/>
<rect x="15.5" y="13" width="0.75" height="0.75" fill="#292524"/>
<rect x="16.25" y="13" width="0.75" height="0.75" fill="#292524"/>
<rect x="17" y="13" width="0.75" height="0.75" fill="#292524"/>
<rect x="17.75" y="13" width="0.75" height="0.75" fill="#292524"/>
<rect x="18.5" y="13" width="0.75" height="0.75" fill="#292524"/>
<rect x="19.25" y="13" width="0.75" height="0.75" fill="#292524"/>
<rect x="11.75" y="13.75" width="0.75" height="0.75" fill="#292524"/>
<rect x="12.5" y="13.75" width="0.75" height="0.75" fill="#292524"/>
<rect x="13.25" y="13.75" width="0.75" height="0.75" fill="#292524"/>
<rect x="14" y="13.75" width="0.75" height="0.75" fill="#292524"/>
<rect x="14.75" y="13.75" width="0.75" height="0.75" fill="#292524"/>
<rect x="15.5" y="13.75" width="0.75" height="0.75" fill="#292524"/>
<rect x="16.25" y="13.75" width="0.75" height="0.75" fill="#292524"/>
<rect x="17" y="13.75" width="0.75" height="0.75" fill="#292524"/>
<rect x="17.75" y="13.75" width="0.75" height="0.75" fill="#292524"/>
<rect x="18.5" y="13.75" width="0.75" height="0.75" fill="#292524"/>
<rect x="19.25" y="13.75" width="0.75" height="0.75" fill="#292524"/>
<rect x="11.75" y="16" width="0.75" height="0.75" fill="#292524"/>
<rect x="12.5" y="16" width="0.75" height="0.75" fill="#292524"/>
<rect x="13.25" y="16" width="0.75" height="0.75" fill="#292524"/>
<rect x="14" y="16" width="0.75" height="0.75" fill="#292524"/>
<rect x="14.75" y="16" width="0.75" height="0.75" fill="#292524"/>
<rect x="15.5" y="16" width="0.75" height="0.75" fill="#292524"/>
<rect x="16.25" y="16" width="0.75" height="0.75" fill="#292524"/>
<rect x="17" y="16" width="0.75" height="0.75" fill="#292524"/>
<rect x="17.75" y="16" width="0.75" height="0.75" fill="#292524"/>
<rect x="18.5" y="16" width="0.75" height="0.75" fill="#292524"/>
<rect x="19.25" y="16" width="0.75" height="0.75" fill="#292524"/>
<rect x="11.75" y="16.75" width="0.75" height="0.75" fill="#292524"/>
<rect x="12.5" y="16.75" width="0.75" height="0.75" fill="#292524"/>
<rect x="18.5" y="16.75" width="0.75" height="0.75" fill="#292524"/>
<rect x="19.25" y="16.75" width="0.75" height="0.75" fill="#292524"/>
<rect x="11.75" y="17.5" width="0.75" height="0.75" fill="#292524"/>
<rect x="12.5" y="17.5" width="0.75" height="0.75" fill="#292524"/>
<rect x="18.5" y="17.5" width="0.75" height="0.75" fill="#292524"/>
<rect x="19.25" y="17.5" width="0.75" height="0.75" fill="#292524"/>
<rect x="5.75" y="18.25" width="0.75" height="0.75" fill="#292524"/>
<rect x="6.5" y="18.25" width="0.75" height="0.75" fill="#292524"/>
<rect x="7.25" y="18.25" width="0.75" height="0.75" fill="#292524"/>
<rect x="8" y="18.25" width="0.75" height="0.75" fill="#292524"/>
<rect x="8.75" y="18.25" width="0.75" height="0.75" fill="#292524"/>
<rect x="9.5" y="18.25" width="0.75" height="0.75" fill="#292524"/>
<rect x="10.25" y="18.25" width="0.75" height="0.75" fill="#292524"/>
<rect x="11" y="18.25" width="0.75" height="0.75" fill="#292524"/>
<rect x="11.75" y="18.25" width="0.75" height="0.75" fill="#292524"/>
<rect x="12.5" y="18.25" width="0.75" height="0.75" fill="#292524"/>
<rect x="14.75" y="18.25" width="0.75" height="0.75" fill="#292524"/>
<rect x="15.5" y="18.25" width="0.75" height="0.75" fill="#292524"/>
<rect x="18.5" y="18.25" width="0.75" height="0.75" fill="#292524"/>
<rect x="19.25" y="18.25" width="0.75" height="0.75" fill="#292524"/>
<rect x="5" y="19" width="0.75" height="0.75" fill="#292524"/>
<rect x="5.75" y="19" width="0.75" height="0.75" fill="#292524"/>
<rect x="6.5" y="19" width="0.75" height="0.75" fill="#292524"/>
<rect x="7.25" y="19" width="0.75" height="0.75" fill="#292524"/>
<rect x="8" y="19" width="0.75" height="0.75" fill="#292524"/>
<rect x="8.75" y="19" width="0.75" height="0.75" fill="#292524"/>
<rect x="9.5" y="19" width="0.75" height="0.75" fill="#292524"/>
<rect x="10.25" y="19" width="0.75" height="0.75" fill="#292524"/>
<rect x="11" y="19" width="0.75" height="0.75" fill="#292524"/>
<rect x="11.75" y="19" width="0.75" height="0.75" fill="#292524"/>
<rect x="12.5" y="19" width="0.75" height="0.75" fill="#292524"/>
<rect x="14.75" y="19" width="0.75" height="0.75" fill="#292524"/>
<rect x="15.5" y="19" width="0.75" height="0.75" fill="#292524"/>
<rect x="18.5" y="19" width="0.75" height="0.75" fill="#292524"/>
<rect x="19.25" y="19" width="0.75" height="0.75" fill="#292524"/>
<rect x="5" y="19.75" width="0.75" height="0.75" fill="#292524"/>
<rect x="5.75" y="19.75" width="0.75" height="0.75" fill="#292524"/>
<rect x="11.75" y="19.75" width="0.75" height="0.75" fill="#292524"/>
<rect x="12.5" y="19.75" width="0.75" height="0.75" fill="#292524"/>
<rect x="15.5" y="19.75" width="0.75" height="0.75" fill="#292524"/>
<rect x="18.5" y="19.75" width="0.75" height="0.75" fill="#292524"/>
<rect x="19.25" y="19.75" width="0.75" height="0.75" fill="#292524"/>
<rect x="20" y="19.75" width="0.75" height="0.75" fill="#292524"/>
<rect x="20.75" y="19.75" width="0.75" height="0.75" fill="#292524"/>
<rect x="21.5" y="19.75" width="0.75" height="0.75" fill="#292524"/>
<rect x="22.25" y="19.75" width="0.75" height="0.75" fill="#292524"/>
<rect x="23" y="19.75" width="0.75" height="0.75" fill="#292524"/>
<rect x="23.75" y="19.75" width="0.75" height="0.75" fill="#292524"/>
<rect x="24.5" y="19.75" width="0.75" height="0.75" fill="#292524"/>
<rect x="25.25" y="19.75" width="0.75" height="0.75" fill="#292524"/>
<rect x="5" y="20.5" width="0.75" height="0.75" fill="#292524"/>
<rect x="5.75" y="20.5" width="0.75" height="0.75" fill="#292524"/>
<rect x="11.75" y="20.5" width="0.75" height="0.75" fill="#292524"/>
<rect x="12.5" y="20.5" width="0.75" height="0.75" fill="#292524"/>
<rect x="15.5" y="20.5" width="0.75" height="0.75" fill="#292524"/>
<rect x="18.5" y="20.5" width="0.75" height="0.75" fill="#292524"/>
<rect x="19.25" y="20.5" width="0.75" height="0.75" fill="#292524"/>
<rect x="20" y="20.5" width="0.75" height="0.75" fill="#292524"/>
<rect x="20.75" y="20.5" width="0.75" height="0.75" fill="#292524"/>
<rect x="21.5" y="20.5" width="0.75" height="0.75" fill="#292524"/>
<rect x="22.25" y="20.5" width="0.75" height="0.75" fill="#292524"/>
<rect x="23" y="20.5" width="0.75" height="0.75" fill="#292524"/>
<rect x="23.75" y="20.5" width="0.75" height="0.75" fill="#292524"/>
<rect x="24.5" y="20.5" width="0.75" height="0.75" fill="#292524"/>
<rect x="25.25" y="20.5" width="0.75" height="0.75" fill="#292524"/>
<rect x="26" y="20.5" width="0.75" height="0.75" fill="#292524"/>
<rect x="5" y="21.25" width="0.75" height="0.75" fill="#292524"/>
<rect x="5.75" y="21.25" width="0.75" height="0.75" fill="#292524"/>
<rect x="11.75" y="21.25" width="0.75" height="0.75" fill="#292524"/>
<rect x="12.5" y="21.25" width="0.75" height="0.75" fill="#292524"/>
<rect x="15.5" y="21.25" width="0.75" height="0.75" fill="#292524"/>
<rect x="18.5" y="21.25" width="0.75" height="0.75" fill="#292524"/>
<rect x="19.25" y="21.25" width="0.75" height="0.75" fill="#292524"/>
<rect x="25.25" y="21.25" width="0.75" height="0.75" fill="#292524"/>
<rect x="26" y="21.25" width="0.75" height="0.75" fill="#292524"/>
<rect x="5" y="22" width="0.75" height="0.75" fill="#292524"/>
<rect x="5.75" y="22" width="0.75" height="0.75" fill="#292524"/>
<rect x="11.75" y="22" width="0.75" height="0.75" fill="#292524"/>
<rect x="12.5" y="22" width="0.75" height="0.75" fill="#292524"/>
<rect x="15.5" y="22" width="0.75" height="0.75" fill="#292524"/>
<rect x="18.5" y="22" width="0.75" height="0.75" fill="#292524"/>
<rect x="19.25" y="22" width="0.75" height="0.75" fill="#292524"/>
<rect x="25.25" y="22" width="0.75" height="0.75" fill="#292524"/>
<rect x="26" y="22" width="0.75" height="0.75" fill="#292524"/>
<rect x="5" y="22.75" width="0.75" height="0.75" fill="#292524"/>
<rect x="5.75" y="22.75" width="0.75" height="0.75" fill="#292524"/>
<rect x="11.75" y="22.75" width="0.75" height="0.75" fill="#292524"/>
<rect x="12.5" y="22.75" width="0.75" height="0.75" fill="#292524"/>
<rect x="18.5" y="22.75" width="0.75" height="0.75" fill="#292524"/>
<rect x="19.25" y="22.75" width="0.75" height="0.75" fill="#292524"/>
<rect x="25.25" y="22.75" width="0.75" height="0.75" fill="#292524"/>
<rect x="26" y="22.75" width="0.75" height="0.75" fill="#292524"/>
<rect x="5" y="23.5" width="0.75" height="0.75" fill="#292524"/>
<rect x="5.75" y="23.5" width="0.75" height="0.75" fill="#292524"/>
<rect x="11.75" y="23.5" width="0.75" height="0.75" fill="#292524"/>
<rect x="12.5" y="23.5" width="0.75" height="0.75" fill="#292524"/>
<rect x="18.5" y="23.5" width="0.75" height="0.75" fill="#292524"/>
<rect x="19.25" y="23.5" width="0.75" height="0.75" fill="#292524"/>
<rect x="25.25" y="23.5" width="0.75" height="0.75" fill="#292524"/>
<rect x="26" y="23.5" width="0.75" height="0.75" fill="#292524"/>
<rect x="5" y="24.25" width="0.75" height="0.75" fill="#292524"/>
<rect x="5.75" y="24.25" width="0.75" height="0.75" fill="#292524"/>
<rect x="11.75" y="24.25" width="0.75" height="0.75" fill="#292524"/>
<rect x="12.5" y="24.25" width="0.75" height="0.75" fill="#292524"/>
<rect x="18.5" y="24.25" width="0.75" height="0.75" fill="#292524"/>
<rect x="19.25" y="24.25" width="0.75" height="0.75" fill="#292524"/>
<rect x="25.25" y="24.25" width="0.75" height="0.75" fill="#292524"/>
<rect x="26" y="24.25" width="0.75" height="0.75" fill="#292524"/>
<rect x="5" y="25" width="0.75" height="0.75" fill="#292524"/>
<rect x="5.75" y="25" width="0.75" height="0.75" fill="#292524"/>
<rect x="11.75" y="25" width="0.75" height="0.75" fill="#292524"/>
<rect x="12.5" y="25" width="0.75" height="0.75" fill="#292524"/>
<rect x="18.5" y="25" width="0.75" height="0.75" fill="#292524"/>
<rect x="19.25" y="25" width="0.75" height="0.75" fill="#292524"/>
<rect x="25.25" y="25" width="0.75" height="0.75" fill="#292524"/>
<rect x="26" y="25" width="0.75" height="0.75" fill="#292524"/>
<rect x="5" y="25.75" width="0.75" height="0.75" fill="#292524"/>
<rect x="5.75" y="25.75" width="0.75" height="0.75" fill="#292524"/>
<rect x="11.75" y="25.75" width="0.75" height="0.75" fill="#292524"/>
<rect x="12.5" y="25.75" width="0.75" height="0.75" fill="#292524"/>
<rect x="18.5" y="25.75" width="0.75" height="0.75" fill="#292524"/>
<rect x="19.25" y="25.75" width="0.75" height="0.75" fill="#292524"/>
<rect x="25.25" y="25.75" width="0.75" height="0.75" fill="#292524"/>
<rect x="26" y="25.75" width="0.75" height="0.75" fill="#292524"/>
<rect x="5" y="26.5" width="0.75" height="0.75" fill="#292524"/>
<rect x="5.75" y="26.5" width="0.75" height="0.75" fill="#292524"/>
<rect x="11.75" y="26.5" width="0.75" height="0.75" fill="#292524"/>
<rect x="12.5" y="26.5" width="0.75" height="0.75" fill="#292524"/>
<rect x="18.5" y="26.5" width="0.75" height="0.75" fill="#292524"/>
<rect x="19.25" y="26.5" width="0.75" height="0.75" fill="#292524"/>
<rect x="25.25" y="26.5" width="0.75" height="0.75" fill="#292524"/>
<rect x="26" y="26.5" width="0.75" height="0.75" fill="#292524"/>
<rect x="5" y="27.25" width="0.75" height="0.75" fill="#292524"/>
<rect x="5.75" y="27.25" width="0.75" height="0.75" fill="#292524"/>
<rect x="6.5" y="27.25" width="0.75" height="0.75" fill="#292524"/>
<rect x="7.25" y="27.25" width="0.75" height="0.75" fill="#292524"/>
<rect x="8" y="27.25" width="0.75" height="0.75" fill="#292524"/>
<rect x="8.75" y="27.25" width="0.75" height="0.75" fill="#292524"/>
<rect x="9.5" y="27.25" width="0.75" height="0.75" fill="#292524"/>
<rect x="10.25" y="27.25" width="0.75" height="0.75" fill="#292524"/>
<rect x="11" y="27.25" width="0.75" height="0.75" fill="#292524"/>
<rect x="11.75" y="27.25" width="0.75" height="0.75" fill="#292524"/>
<rect x="12.5" y="27.25" width="0.75" height="0.75" fill="#292524"/>
<rect x="13.25" y="27.25" width="0.75" height="0.75" fill="#292524"/>
<rect x="14" y="27.25" width="0.75" height="0.75" fill="#292524"/>
<rect x="14.75" y="27.25" width="0.75" height="0.75" fill="#292524"/>
<rect x="15.5" y="27.25" width="0.75" height="0.75" fill="#292524"/>
<rect x="16.25" y="27.25" width="0.75" height="0.75" fill="#292524"/>
<rect x="17" y="27.25" width="0.75" height="0.75" fill="#292524"/>
<rect x="17.75" y="27.25" width="0.75" height="0.75" fill="#292524"/>
<rect x="18.5" y="27.25" width="0.75" height="0.75" fill="#292524"/>
<rect x="19.25" y="27.25" width="0.75" height="0.75" fill="#292524"/>
<rect x="20" y="27.25" width="0.75" height="0.75" fill="#292524"/>
<rect x="20.75" y="27.25" width="0.75" height="0.75" fill="#292524"/>
<rect x="21.5" y="27.25" width="0.75" height="0.75" fill="#292524"/>
<rect x="22.25" y="27.25" width="0.75" height="0.75" fill="#292524"/>
<rect x="23" y="27.25" width="0.75" height="0.75" fill="#292524"/>
<rect x="23.75" y="27.25" width="0.75" height="0.75" fill="#292524"/>
<rect x="24.5" y="27.25" width="0.75" height="0.75" fill="#292524"/>
<rect x="25.25" y="27.25" width="0.75" height="0.75" fill="#292524"/>
<rect x="26" y="27.25" width="0.75" height="0.75" fill="#292524"/>
</svg>
