<svg width="16" height="16" viewBox="0 0 40 40" fill="none" xmlns="http://www.w3.org/2000/svg">
<rect width="40" height="40" rx="10" fill="url(#paint0_radial_6315_1263)"/>
<g clip-path="url(#clip0_6315_1263)">
<g filter="url(#filter0_d_6315_1263)">
<path fill-rule="evenodd" clip-rule="evenodd" d="M19.9999 31.1607C15.8084 31.1607 12.4106 27.7629 12.4106 23.5714C12.4106 20.4576 14.699 15.7286 19.2758 9.38392C19.3585 9.26924 19.4673 9.17584 19.5932 9.11143C19.7191 9.04702 19.8585 9.01343 19.9999 9.01343C20.1413 9.01343 20.2807 9.04702 20.4066 9.11143C20.5325 9.17584 20.6412 9.26924 20.724 9.38392C25.3008 15.729 27.5892 20.458 27.5892 23.5714C27.5892 27.7629 24.1914 31.1607 19.9999 31.1607ZM19.6914 27.0924C19.6066 27.0886 19.522 27.1029 19.4432 27.1344C19.3644 27.1659 19.2932 27.2139 19.2344 27.275C19.1756 27.3362 19.1305 27.4092 19.1022 27.4892C19.0738 27.5692 19.0628 27.6543 19.07 27.7388C19.099 28.0469 19.3722 28.2737 19.6807 28.2446C21.2021 28.1018 22.3784 27.6143 23.2106 26.7821C24.0427 25.95 24.5302 24.7732 24.6731 23.2522C24.6806 23.1717 24.6707 23.0905 24.6439 23.0142C24.6171 22.9379 24.5741 22.8683 24.5178 22.8102C24.4616 22.7521 24.3934 22.7068 24.3181 22.6776C24.2427 22.6483 24.1618 22.6357 24.0811 22.6406C23.9247 22.6501 23.7784 22.7206 23.6735 22.837C23.5687 22.9535 23.5139 23.1064 23.5209 23.2629C23.5655 24.2692 23.1905 25.1701 22.3945 25.9661C21.5985 26.762 20.6976 27.1375 19.6914 27.0924Z" fill="#EDE3D7"/>
</g>
</g>
<defs>
<filter id="filter0_d_6315_1263" x="10.4106" y="8.01343" width="19.1786" height="26.1473" filterUnits="userSpaceOnUse" color-interpolation-filters="sRGB">
<feFlood flood-opacity="0" result="BackgroundImageFix"/>
<feColorMatrix in="SourceAlpha" type="matrix" values="0 0 0 0 0 0 0 0 0 0 0 0 0 0 0 0 0 0 127 0" result="hardAlpha"/>
<feOffset dy="1"/>
<feGaussianBlur stdDeviation="1"/>
<feComposite in2="hardAlpha" operator="out"/>
<feColorMatrix type="matrix" values="0 0 0 0 0 0 0 0 0 0 0 0 0 0 0 0 0 0 0.25 0"/>
<feBlend mode="normal" in2="BackgroundImageFix" result="effect1_dropShadow_6315_1263"/>
<feBlend mode="normal" in="SourceGraphic" in2="effect1_dropShadow_6315_1263" result="shape"/>
</filter>
<radialGradient id="paint0_radial_6315_1263" cx="0" cy="0" r="1" gradientUnits="userSpaceOnUse" gradientTransform="translate(20 20) rotate(90) scale(20)">
<stop stop-color="#C0D5ED"/>
<stop offset="1" stop-color="#326FE5"/>
</radialGradient>
<clipPath id="clip0_6315_1263">
<rect width="25" height="25" fill="white" transform="translate(7.5 7.5)"/>
</clipPath>
</defs>
</svg>
