<svg width="2000" height="1695" viewBox="0 0 2000 1695" fill="none" xmlns="http://www.w3.org/2000/svg">
<g opacity="0.05" clipPath="url(#clip0_6089_1143)">
<path d="M14.9658 50.1044L94.3101 0.701439C94.9955 0.274669 95.8676 0.290281 96.5373 0.741307L169.823 50.0968C170.388 50.4775 170.727 51.1145 170.727 51.7961V141.238C170.727 141.951 170.356 142.613 169.748 142.985L96.4656 187.852C95.8306 188.241 95.0346 188.255 94.3866 187.888L15.0395 142.974C14.3971 142.611 14 141.93 14 141.191V51.8436C14 51.136 14.3652 50.4784 14.9658 50.1044Z" stroke="#4F4946" stroke-width="10" stroke-linejoin="round"/>
<path d="M199.693 50.1044L279.037 0.701439C279.723 0.274669 280.595 0.290281 281.264 0.741307L354.55 50.0968C355.115 50.4775 355.454 51.1145 355.454 51.7961V141.238C355.454 141.951 355.083 142.613 354.475 142.985L281.193 187.852C280.558 188.241 279.762 188.255 279.114 187.888L199.767 142.974C199.124 142.611 198.727 141.93 198.727 141.191V51.8436C198.727 51.136 199.092 50.4784 199.693 50.1044Z" stroke="#4F4946" stroke-width="10" stroke-linejoin="round"/>
<path d="M384.42 50.1044L463.764 0.701439C464.45 0.274669 465.322 0.290281 465.991 0.741307L539.277 50.0968C539.842 50.4775 540.181 51.1145 540.181 51.7961V141.238C540.181 141.951 539.81 142.613 539.202 142.985L465.92 187.852C465.285 188.241 464.489 188.255 463.841 187.888L384.494 142.974C383.851 142.611 383.454 141.93 383.454 141.191V51.8436C383.454 51.136 383.819 50.4784 384.42 50.1044Z" stroke="#4F4946" stroke-width="10" stroke-linejoin="round"/>
<path d="M569.147 50.1044L648.491 0.701439C649.177 0.274669 650.049 0.290281 650.718 0.741307L724.004 50.0968C724.569 50.4775 724.908 51.1145 724.908 51.7961V141.238C724.908 141.951 724.537 142.613 723.929 142.985L650.647 187.852C650.012 188.241 649.216 188.255 648.568 187.888L569.221 142.974C568.578 142.611 568.181 141.93 568.181 141.191V51.8436C568.181 51.136 568.546 50.4784 569.147 50.1044Z" stroke="#4F4946" stroke-width="10" stroke-linejoin="round"/>
<path d="M753.874 50.1044L833.218 0.701439C833.904 0.274669 834.776 0.290281 835.446 0.741307L908.731 50.0968C909.296 50.4775 909.635 51.1145 909.635 51.7961V141.238C909.635 141.951 909.264 142.613 908.656 142.985L835.374 187.852C834.739 188.241 833.943 188.255 833.295 187.888L753.948 142.974C753.305 142.611 752.908 141.93 752.908 141.191V51.8436C752.908 51.136 753.273 50.4784 753.874 50.1044Z" stroke="#4F4946" stroke-width="10" stroke-linejoin="round"/>
<path d="M938.601 50.1044L1017.95 0.701439C1018.63 0.274669 1019.5 0.290281 1020.17 0.741307L1093.46 50.0968C1094.02 50.4775 1094.36 51.1145 1094.36 51.7961V141.238C1094.36 141.951 1093.99 142.613 1093.38 142.985L1020.1 187.852C1019.47 188.241 1018.67 188.255 1018.02 187.888L938.675 142.974C938.032 142.611 937.635 141.93 937.635 141.191V51.8436C937.635 51.136 938 50.4784 938.601 50.1044Z" stroke="#4F4946" stroke-width="10" stroke-linejoin="round"/>
<path d="M1123.33 50.1044L1202.67 0.701439C1203.36 0.274669 1204.23 0.290281 1204.9 0.741307L1278.19 50.0968C1278.75 50.4775 1279.09 51.1145 1279.09 51.7961V141.238C1279.09 141.951 1278.72 142.613 1278.11 142.985L1204.83 187.852C1204.19 188.241 1203.4 188.255 1202.75 187.888L1123.4 142.974C1122.76 142.611 1122.36 141.93 1122.36 141.191V51.8436C1122.36 51.136 1122.73 50.4784 1123.33 50.1044Z" stroke="#4F4946" stroke-width="10" stroke-linejoin="round"/>
<path d="M1308.06 50.1044L1387.4 0.701439C1388.08 0.274669 1388.96 0.290281 1389.63 0.741307L1462.91 50.0968C1463.48 50.4775 1463.82 51.1145 1463.82 51.7961V141.238C1463.82 141.951 1463.45 142.613 1462.84 142.985L1389.55 187.852C1388.92 188.241 1388.12 188.255 1387.48 187.888L1308.13 142.974C1307.49 142.611 1307.09 141.93 1307.09 141.192V51.8436C1307.09 51.136 1307.45 50.4785 1308.06 50.1044Z" stroke="#4F4946" stroke-width="10" stroke-linejoin="round"/>
<path d="M1492.78 50.1044L1572.13 0.701439C1572.81 0.274669 1573.68 0.290281 1574.35 0.741307L1647.64 50.0968C1648.2 50.4775 1648.54 51.1145 1648.54 51.7961V141.238C1648.54 141.951 1648.17 142.613 1647.56 142.985L1574.28 187.852C1573.65 188.241 1572.85 188.255 1572.2 187.888L1492.86 142.974C1492.21 142.611 1491.82 141.93 1491.82 141.191V51.8436C1491.82 51.136 1492.18 50.4784 1492.78 50.1044Z" stroke="#4F4946" stroke-width="10" stroke-linejoin="round"/>
<path d="M1677.51 50.1044L1756.85 0.701439C1757.54 0.274669 1758.41 0.290281 1759.08 0.741307L1832.37 50.0968C1832.93 50.4775 1833.27 51.1145 1833.27 51.7961V141.238C1833.27 141.951 1832.9 142.613 1832.29 142.985L1759.01 187.852C1758.37 188.241 1757.58 188.255 1756.93 187.888L1677.58 142.974C1676.94 142.611 1676.54 141.93 1676.54 141.191V51.8436C1676.54 51.136 1676.91 50.4784 1677.51 50.1044Z" stroke="#4F4946" stroke-width="10" stroke-linejoin="round"/>
<path d="M1862.24 50.1044L1941.58 0.701439C1942.27 0.274669 1943.14 0.290281 1943.81 0.741307L2017.09 50.0968C2017.66 50.4775 2018 51.1145 2018 51.7961V141.238C2018 141.951 2017.63 142.613 2017.02 142.985L1943.74 187.852C1943.1 188.241 1942.31 188.255 1941.66 187.888L1862.31 142.974C1861.67 142.611 1861.27 141.93 1861.27 141.191V51.8436C1861.27 51.136 1861.64 50.4784 1862.24 50.1044Z" stroke="#4F4946" stroke-width="10" stroke-linejoin="round"/>
<path d="M14.9658 388.104L94.3101 338.701C94.9955 338.275 95.8676 338.29 96.5373 338.741L169.823 388.097C170.388 388.478 170.727 389.114 170.727 389.796V479.238C170.727 479.951 170.356 480.613 169.748 480.985L96.4656 525.852C95.8306 526.241 95.0346 526.255 94.3866 525.888L15.0395 480.974C14.3971 480.611 14 479.93 14 479.191V389.844C14 389.136 14.3652 388.478 14.9658 388.104Z" stroke="#4F4946" stroke-width="10" stroke-linejoin="round"/>
<path d="M199.693 388.104L279.037 338.701C279.723 338.275 280.595 338.29 281.264 338.741L354.55 388.097C355.115 388.478 355.454 389.114 355.454 389.796V479.238C355.454 479.951 355.083 480.613 354.475 480.985L281.193 525.852C280.558 526.241 279.762 526.255 279.114 525.888L199.767 480.974C199.124 480.611 198.727 479.93 198.727 479.191V389.844C198.727 389.136 199.092 388.478 199.693 388.104Z" stroke="#4F4946" stroke-width="10" stroke-linejoin="round"/>
<path d="M384.42 388.104L463.764 338.701C464.45 338.275 465.322 338.29 465.991 338.741L539.277 388.097C539.842 388.478 540.181 389.114 540.181 389.796V479.238C540.181 479.951 539.81 480.613 539.202 480.985L465.92 525.852C465.285 526.241 464.489 526.255 463.841 525.888L384.494 480.974C383.851 480.611 383.454 479.93 383.454 479.191V389.844C383.454 389.136 383.819 388.478 384.42 388.104Z" stroke="#4F4946" stroke-width="10" stroke-linejoin="round"/>
<path d="M569.147 388.104L648.491 338.701C649.177 338.275 650.049 338.29 650.718 338.741L724.004 388.097C724.569 388.478 724.908 389.114 724.908 389.796V479.238C724.908 479.951 724.537 480.613 723.929 480.985L650.647 525.852C650.012 526.241 649.216 526.255 648.568 525.888L569.221 480.974C568.578 480.611 568.181 479.93 568.181 479.191V389.844C568.181 389.136 568.546 388.478 569.147 388.104Z" stroke="#4F4946" stroke-width="10" stroke-linejoin="round"/>
<path d="M753.874 388.104L833.218 338.701C833.904 338.275 834.776 338.29 835.446 338.741L908.731 388.097C909.296 388.478 909.635 389.114 909.635 389.796V479.238C909.635 479.951 909.264 480.613 908.656 480.985L835.374 525.852C834.739 526.241 833.943 526.255 833.295 525.888L753.948 480.974C753.305 480.611 752.908 479.93 752.908 479.191V389.844C752.908 389.136 753.273 388.478 753.874 388.104Z" stroke="#4F4946" stroke-width="10" stroke-linejoin="round"/>
<path d="M938.601 388.104L1017.95 338.701C1018.63 338.275 1019.5 338.29 1020.17 338.741L1093.46 388.097C1094.02 388.478 1094.36 389.114 1094.36 389.796V479.238C1094.36 479.951 1093.99 480.613 1093.38 480.985L1020.1 525.852C1019.47 526.241 1018.67 526.255 1018.02 525.888L938.675 480.974C938.032 480.611 937.635 479.93 937.635 479.191V389.844C937.635 389.136 938 388.478 938.601 388.104Z" stroke="#4F4946" stroke-width="10" stroke-linejoin="round"/>
<path d="M1123.33 388.104L1202.67 338.701C1203.36 338.275 1204.23 338.29 1204.9 338.741L1278.19 388.097C1278.75 388.478 1279.09 389.114 1279.09 389.796V479.238C1279.09 479.951 1278.72 480.613 1278.11 480.985L1204.83 525.852C1204.19 526.241 1203.4 526.255 1202.75 525.888L1123.4 480.974C1122.76 480.611 1122.36 479.93 1122.36 479.191V389.844C1122.36 389.136 1122.73 388.478 1123.33 388.104Z" stroke="#4F4946" stroke-width="10" stroke-linejoin="round"/>
<path d="M1308.06 388.104L1387.4 338.701C1388.08 338.275 1388.96 338.29 1389.63 338.741L1462.91 388.097C1463.48 388.478 1463.82 389.114 1463.82 389.796V479.238C1463.82 479.951 1463.45 480.613 1462.84 480.985L1389.55 525.852C1388.92 526.241 1388.12 526.255 1387.48 525.888L1308.13 480.974C1307.49 480.611 1307.09 479.93 1307.09 479.192V389.844C1307.09 389.136 1307.45 388.478 1308.06 388.104Z" stroke="#4F4946" stroke-width="10" stroke-linejoin="round"/>
<path d="M1492.78 388.104L1572.13 338.701C1572.81 338.275 1573.68 338.29 1574.35 338.741L1647.64 388.097C1648.2 388.478 1648.54 389.114 1648.54 389.796V479.238C1648.54 479.951 1648.17 480.613 1647.56 480.985L1574.28 525.852C1573.65 526.241 1572.85 526.255 1572.2 525.888L1492.86 480.974C1492.21 480.611 1491.82 479.93 1491.82 479.191V389.844C1491.82 389.136 1492.18 388.478 1492.78 388.104Z" stroke="#4F4946" stroke-width="10" stroke-linejoin="round"/>
<path d="M1677.51 388.104L1756.85 338.701C1757.54 338.275 1758.41 338.29 1759.08 338.741L1832.37 388.097C1832.93 388.478 1833.27 389.114 1833.27 389.796V479.238C1833.27 479.951 1832.9 480.613 1832.29 480.985L1759.01 525.852C1758.37 526.241 1757.58 526.255 1756.93 525.888L1677.58 480.974C1676.94 480.611 1676.54 479.93 1676.54 479.191V389.844C1676.54 389.136 1676.91 388.478 1677.51 388.104Z" stroke="#4F4946" stroke-width="10" stroke-linejoin="round"/>
<path d="M1862.24 388.104L1941.58 338.701C1942.27 338.275 1943.14 338.29 1943.81 338.741L2017.09 388.097C2017.66 388.478 2018 389.114 2018 389.796V479.238C2018 479.951 2017.63 480.613 2017.02 480.985L1943.74 525.852C1943.1 526.241 1942.31 526.255 1941.66 525.888L1862.31 480.974C1861.67 480.611 1861.27 479.93 1861.27 479.191V389.844C1861.27 389.136 1861.64 388.478 1862.24 388.104Z" stroke="#4F4946" stroke-width="10" stroke-linejoin="round"/>
<path d="M14.9658 1058.1L94.3101 1008.7C94.9955 1008.27 95.8676 1008.29 96.5373 1008.74L169.823 1058.1C170.388 1058.48 170.727 1059.11 170.727 1059.8V1149.24C170.727 1149.95 170.356 1150.61 169.748 1150.99L96.4656 1195.85C95.8306 1196.24 95.0346 1196.25 94.3866 1195.89L15.0395 1150.97C14.3971 1150.61 14 1149.93 14 1149.19V1059.84C14 1059.14 14.3652 1058.48 14.9658 1058.1Z" stroke="#4F4946" stroke-width="10" stroke-linejoin="round"/>
<path d="M199.693 1058.1L279.037 1008.7C279.723 1008.27 280.595 1008.29 281.264 1008.74L354.55 1058.1C355.115 1058.48 355.454 1059.11 355.454 1059.8V1149.24C355.454 1149.95 355.083 1150.61 354.475 1150.99L281.193 1195.85C280.558 1196.24 279.762 1196.25 279.114 1195.89L199.767 1150.97C199.124 1150.61 198.727 1149.93 198.727 1149.19V1059.84C198.727 1059.14 199.092 1058.48 199.693 1058.1Z" stroke="#4F4946" stroke-width="10" stroke-linejoin="round"/>
<path d="M384.42 1058.1L463.764 1008.7C464.45 1008.27 465.322 1008.29 465.991 1008.74L539.277 1058.1C539.842 1058.48 540.181 1059.11 540.181 1059.8V1149.24C540.181 1149.95 539.81 1150.61 539.202 1150.99L465.92 1195.85C465.285 1196.24 464.489 1196.25 463.841 1195.89L384.494 1150.97C383.851 1150.61 383.454 1149.93 383.454 1149.19V1059.84C383.454 1059.14 383.819 1058.48 384.42 1058.1Z" stroke="#4F4946" stroke-width="10" stroke-linejoin="round"/>
<path d="M569.147 1058.1L648.491 1008.7C649.177 1008.27 650.049 1008.29 650.718 1008.74L724.004 1058.1C724.569 1058.48 724.908 1059.11 724.908 1059.8V1149.24C724.908 1149.95 724.537 1150.61 723.929 1150.99L650.647 1195.85C650.012 1196.24 649.216 1196.25 648.568 1195.89L569.221 1150.97C568.578 1150.61 568.181 1149.93 568.181 1149.19V1059.84C568.181 1059.14 568.546 1058.48 569.147 1058.1Z" stroke="#4F4946" stroke-width="10" stroke-linejoin="round"/>
<path d="M753.874 1058.1L833.218 1008.7C833.904 1008.27 834.776 1008.29 835.446 1008.74L908.731 1058.1C909.296 1058.48 909.635 1059.11 909.635 1059.8V1149.24C909.635 1149.95 909.264 1150.61 908.656 1150.99L835.374 1195.85C834.739 1196.24 833.943 1196.25 833.295 1195.89L753.948 1150.97C753.305 1150.61 752.908 1149.93 752.908 1149.19V1059.84C752.908 1059.14 753.273 1058.48 753.874 1058.1Z" stroke="#4F4946" stroke-width="10" stroke-linejoin="round"/>
<path d="M938.601 1058.1L1017.95 1008.7C1018.63 1008.27 1019.5 1008.29 1020.17 1008.74L1093.46 1058.1C1094.02 1058.48 1094.36 1059.11 1094.36 1059.8V1149.24C1094.36 1149.95 1093.99 1150.61 1093.38 1150.99L1020.1 1195.85C1019.47 1196.24 1018.67 1196.25 1018.02 1195.89L938.675 1150.97C938.032 1150.61 937.635 1149.93 937.635 1149.19V1059.84C937.635 1059.14 938 1058.48 938.601 1058.1Z" stroke="#4F4946" stroke-width="10" stroke-linejoin="round"/>
<path d="M1123.33 1058.1L1202.67 1008.7C1203.36 1008.27 1204.23 1008.29 1204.9 1008.74L1278.19 1058.1C1278.75 1058.48 1279.09 1059.11 1279.09 1059.8V1149.24C1279.09 1149.95 1278.72 1150.61 1278.11 1150.99L1204.83 1195.85C1204.19 1196.24 1203.4 1196.25 1202.75 1195.89L1123.4 1150.97C1122.76 1150.61 1122.36 1149.93 1122.36 1149.19V1059.84C1122.36 1059.14 1122.73 1058.48 1123.33 1058.1Z" stroke="#4F4946" stroke-width="10" stroke-linejoin="round"/>
<path d="M1308.06 1058.1L1387.4 1008.7C1388.08 1008.27 1388.96 1008.29 1389.63 1008.74L1462.91 1058.1C1463.48 1058.48 1463.82 1059.11 1463.82 1059.8V1149.24C1463.82 1149.95 1463.45 1150.61 1462.84 1150.99L1389.55 1195.85C1388.92 1196.24 1388.12 1196.25 1387.48 1195.89L1308.13 1150.97C1307.49 1150.61 1307.09 1149.93 1307.09 1149.19V1059.84C1307.09 1059.14 1307.45 1058.48 1308.06 1058.1Z" stroke="#4F4946" stroke-width="10" stroke-linejoin="round"/>
<path d="M1492.78 1058.1L1572.13 1008.7C1572.81 1008.27 1573.68 1008.29 1574.35 1008.74L1647.64 1058.1C1648.2 1058.48 1648.54 1059.11 1648.54 1059.8V1149.24C1648.54 1149.95 1648.17 1150.61 1647.56 1150.99L1574.28 1195.85C1573.65 1196.24 1572.85 1196.25 1572.2 1195.89L1492.86 1150.97C1492.21 1150.61 1491.82 1149.93 1491.82 1149.19V1059.84C1491.82 1059.14 1492.18 1058.48 1492.78 1058.1Z" stroke="#4F4946" stroke-width="10" stroke-linejoin="round"/>
<path d="M1677.51 1058.1L1756.85 1008.7C1757.54 1008.27 1758.41 1008.29 1759.08 1008.74L1832.37 1058.1C1832.93 1058.48 1833.27 1059.11 1833.27 1059.8V1149.24C1833.27 1149.95 1832.9 1150.61 1832.29 1150.99L1759.01 1195.85C1758.37 1196.24 1757.58 1196.25 1756.93 1195.89L1677.58 1150.97C1676.94 1150.61 1676.54 1149.93 1676.54 1149.19V1059.84C1676.54 1059.14 1676.91 1058.48 1677.51 1058.1Z" stroke="#4F4946" stroke-width="10" stroke-linejoin="round"/>
<path d="M1862.24 1058.1L1941.58 1008.7C1942.27 1008.27 1943.14 1008.29 1943.81 1008.74L2017.09 1058.1C2017.66 1058.48 2018 1059.11 2018 1059.8V1149.24C2018 1149.95 2017.63 1150.61 2017.02 1150.99L1943.74 1195.85C1943.1 1196.24 1942.31 1196.25 1941.66 1195.89L1862.31 1150.97C1861.67 1150.61 1861.27 1149.93 1861.27 1149.19V1059.84C1861.27 1059.14 1861.64 1058.48 1862.24 1058.1Z" stroke="#4F4946" stroke-width="10" stroke-linejoin="round"/>
<path d="M14.9658 723.104L94.3101 673.701C94.9955 673.275 95.8676 673.29 96.5373 673.741L169.823 723.097C170.388 723.478 170.727 724.114 170.727 724.796V814.238C170.727 814.951 170.356 815.613 169.748 815.985L96.4656 860.852C95.8306 861.241 95.0346 861.255 94.3866 860.888L15.0395 815.974C14.3971 815.611 14 814.93 14 814.191V724.844C14 724.136 14.3652 723.478 14.9658 723.104Z" stroke="#4F4946" stroke-width="10" stroke-linejoin="round"/>
<path d="M199.693 723.104L279.037 673.701C279.723 673.275 280.595 673.29 281.264 673.741L354.55 723.097C355.115 723.478 355.454 724.114 355.454 724.796V814.238C355.454 814.951 355.083 815.613 354.475 815.985L281.193 860.852C280.558 861.241 279.762 861.255 279.114 860.888L199.767 815.974C199.124 815.611 198.727 814.93 198.727 814.191V724.844C198.727 724.136 199.092 723.478 199.693 723.104Z" stroke="#4F4946" stroke-width="10" stroke-linejoin="round"/>
<path d="M384.42 723.104L463.764 673.701C464.45 673.275 465.322 673.29 465.991 673.741L539.277 723.097C539.842 723.478 540.181 724.114 540.181 724.796V814.238C540.181 814.951 539.81 815.613 539.202 815.985L465.92 860.852C465.285 861.241 464.489 861.255 463.841 860.888L384.494 815.974C383.851 815.611 383.454 814.93 383.454 814.191V724.844C383.454 724.136 383.819 723.478 384.42 723.104Z" stroke="#4F4946" stroke-width="10" stroke-linejoin="round"/>
<path d="M569.147 723.104L648.491 673.701C649.177 673.275 650.049 673.29 650.718 673.741L724.004 723.097C724.569 723.478 724.908 724.114 724.908 724.796V814.238C724.908 814.951 724.537 815.613 723.929 815.985L650.647 860.852C650.012 861.241 649.216 861.255 648.568 860.888L569.221 815.974C568.578 815.611 568.181 814.93 568.181 814.191V724.844C568.181 724.136 568.546 723.478 569.147 723.104Z" stroke="#4F4946" stroke-width="10" stroke-linejoin="round"/>
<path d="M753.874 723.104L833.218 673.701C833.904 673.275 834.776 673.29 835.446 673.741L908.731 723.097C909.296 723.478 909.635 724.114 909.635 724.796V814.238C909.635 814.951 909.264 815.613 908.656 815.985L835.374 860.852C834.739 861.241 833.943 861.255 833.295 860.888L753.948 815.974C753.305 815.611 752.908 814.93 752.908 814.191V724.844C752.908 724.136 753.273 723.478 753.874 723.104Z" stroke="#4F4946" stroke-width="10" stroke-linejoin="round"/>
<path d="M938.601 723.104L1017.95 673.701C1018.63 673.275 1019.5 673.29 1020.17 673.741L1093.46 723.097C1094.02 723.478 1094.36 724.114 1094.36 724.796V814.238C1094.36 814.951 1093.99 815.613 1093.38 815.985L1020.1 860.852C1019.47 861.241 1018.67 861.255 1018.02 860.888L938.675 815.974C938.032 815.611 937.635 814.93 937.635 814.191V724.844C937.635 724.136 938 723.478 938.601 723.104Z" stroke="#4F4946" stroke-width="10" stroke-linejoin="round"/>
<path d="M1123.33 723.104L1202.67 673.701C1203.36 673.275 1204.23 673.29 1204.9 673.741L1278.19 723.097C1278.75 723.478 1279.09 724.114 1279.09 724.796V814.238C1279.09 814.951 1278.72 815.613 1278.11 815.985L1204.83 860.852C1204.19 861.241 1203.4 861.255 1202.75 860.888L1123.4 815.974C1122.76 815.611 1122.36 814.93 1122.36 814.191V724.844C1122.36 724.136 1122.73 723.478 1123.33 723.104Z" stroke="#4F4946" stroke-width="10" stroke-linejoin="round"/>
<path d="M1308.06 723.104L1387.4 673.701C1388.08 673.275 1388.96 673.29 1389.63 673.741L1462.91 723.097C1463.48 723.478 1463.82 724.114 1463.82 724.796V814.238C1463.82 814.951 1463.45 815.613 1462.84 815.985L1389.55 860.852C1388.92 861.241 1388.12 861.255 1387.48 860.888L1308.13 815.974C1307.49 815.611 1307.09 814.93 1307.09 814.192V724.844C1307.09 724.136 1307.45 723.478 1308.06 723.104Z" stroke="#4F4946" stroke-width="10" stroke-linejoin="round"/>
<path d="M1492.78 723.104L1572.13 673.701C1572.81 673.275 1573.68 673.29 1574.35 673.741L1647.64 723.097C1648.2 723.478 1648.54 724.114 1648.54 724.796V814.238C1648.54 814.951 1648.17 815.613 1647.56 815.985L1574.28 860.852C1573.65 861.241 1572.85 861.255 1572.2 860.888L1492.86 815.974C1492.21 815.611 1491.82 814.93 1491.82 814.191V724.844C1491.82 724.136 1492.18 723.478 1492.78 723.104Z" stroke="#4F4946" stroke-width="10" stroke-linejoin="round"/>
<path d="M1677.51 723.104L1756.85 673.701C1757.54 673.275 1758.41 673.29 1759.08 673.741L1832.37 723.097C1832.93 723.478 1833.27 724.114 1833.27 724.796V814.238C1833.27 814.951 1832.9 815.613 1832.29 815.985L1759.01 860.852C1758.37 861.241 1757.58 861.255 1756.93 860.888L1677.58 815.974C1676.94 815.611 1676.54 814.93 1676.54 814.191V724.844C1676.54 724.136 1676.91 723.478 1677.51 723.104Z" stroke="#4F4946" stroke-width="10" stroke-linejoin="round"/>
<path d="M1862.24 723.104L1941.58 673.701C1942.27 673.275 1943.14 673.29 1943.81 673.741L2017.09 723.097C2017.66 723.478 2018 724.114 2018 724.796V814.238C2018 814.951 2017.63 815.613 2017.02 815.985L1943.74 860.852C1943.1 861.241 1942.31 861.255 1941.66 860.888L1862.31 815.974C1861.67 815.611 1861.27 814.93 1861.27 814.191V724.844C1861.27 724.136 1861.64 723.478 1862.24 723.104Z" stroke="#4F4946" stroke-width="10" stroke-linejoin="round"/>
<path d="M14.9658 1393.1L94.3101 1343.7C94.9955 1343.27 95.8676 1343.29 96.5373 1343.74L169.823 1393.1C170.388 1393.48 170.727 1394.11 170.727 1394.8V1484.24C170.727 1484.95 170.356 1485.61 169.748 1485.99L96.4656 1530.85C95.8306 1531.24 95.0346 1531.25 94.3866 1530.89L15.0395 1485.97C14.3971 1485.61 14 1484.93 14 1484.19V1394.84C14 1394.14 14.3652 1393.48 14.9658 1393.1Z" stroke="#4F4946" stroke-width="10" stroke-linejoin="round"/>
<path d="M199.693 1393.1L279.037 1343.7C279.723 1343.27 280.595 1343.29 281.264 1343.74L354.55 1393.1C355.115 1393.48 355.454 1394.11 355.454 1394.8V1484.24C355.454 1484.95 355.083 1485.61 354.475 1485.99L281.193 1530.85C280.558 1531.24 279.762 1531.25 279.114 1530.89L199.767 1485.97C199.124 1485.61 198.727 1484.93 198.727 1484.19V1394.84C198.727 1394.14 199.092 1393.48 199.693 1393.1Z" stroke="#4F4946" stroke-width="10" stroke-linejoin="round"/>
<path d="M384.42 1393.1L463.764 1343.7C464.45 1343.27 465.322 1343.29 465.991 1343.74L539.277 1393.1C539.842 1393.48 540.181 1394.11 540.181 1394.8V1484.24C540.181 1484.95 539.81 1485.61 539.202 1485.99L465.92 1530.85C465.285 1531.24 464.489 1531.25 463.841 1530.89L384.494 1485.97C383.851 1485.61 383.454 1484.93 383.454 1484.19V1394.84C383.454 1394.14 383.819 1393.48 384.42 1393.1Z" stroke="#4F4946" stroke-width="10" stroke-linejoin="round"/>
<path d="M569.147 1393.1L648.491 1343.7C649.177 1343.27 650.049 1343.29 650.718 1343.74L724.004 1393.1C724.569 1393.48 724.908 1394.11 724.908 1394.8V1484.24C724.908 1484.95 724.537 1485.61 723.929 1485.99L650.647 1530.85C650.012 1531.24 649.216 1531.25 648.568 1530.89L569.221 1485.97C568.578 1485.61 568.181 1484.93 568.181 1484.19V1394.84C568.181 1394.14 568.546 1393.48 569.147 1393.1Z" stroke="#4F4946" stroke-width="10" stroke-linejoin="round"/>
<path d="M753.874 1393.1L833.218 1343.7C833.904 1343.27 834.776 1343.29 835.446 1343.74L908.731 1393.1C909.296 1393.48 909.635 1394.11 909.635 1394.8V1484.24C909.635 1484.95 909.264 1485.61 908.656 1485.99L835.374 1530.85C834.739 1531.24 833.943 1531.25 833.295 1530.89L753.948 1485.97C753.305 1485.61 752.908 1484.93 752.908 1484.19V1394.84C752.908 1394.14 753.273 1393.48 753.874 1393.1Z" stroke="#4F4946" stroke-width="10" stroke-linejoin="round"/>
<path d="M938.601 1393.1L1017.95 1343.7C1018.63 1343.27 1019.5 1343.29 1020.17 1343.74L1093.46 1393.1C1094.02 1393.48 1094.36 1394.11 1094.36 1394.8V1484.24C1094.36 1484.95 1093.99 1485.61 1093.38 1485.99L1020.1 1530.85C1019.47 1531.24 1018.67 1531.25 1018.02 1530.89L938.675 1485.97C938.032 1485.61 937.635 1484.93 937.635 1484.19V1394.84C937.635 1394.14 938 1393.48 938.601 1393.1Z" stroke="#4F4946" stroke-width="10" stroke-linejoin="round"/>
<path d="M1123.33 1393.1L1202.67 1343.7C1203.36 1343.27 1204.23 1343.29 1204.9 1343.74L1278.19 1393.1C1278.75 1393.48 1279.09 1394.11 1279.09 1394.8V1484.24C1279.09 1484.95 1278.72 1485.61 1278.11 1485.99L1204.83 1530.85C1204.19 1531.24 1203.4 1531.25 1202.75 1530.89L1123.4 1485.97C1122.76 1485.61 1122.36 1484.93 1122.36 1484.19V1394.84C1122.36 1394.14 1122.73 1393.48 1123.33 1393.1Z" stroke="#4F4946" stroke-width="10" stroke-linejoin="round"/>
<path d="M1308.06 1393.1L1387.4 1343.7C1388.08 1343.27 1388.96 1343.29 1389.63 1343.74L1462.91 1393.1C1463.48 1393.48 1463.82 1394.11 1463.82 1394.8V1484.24C1463.82 1484.95 1463.45 1485.61 1462.84 1485.99L1389.55 1530.85C1388.92 1531.24 1388.12 1531.25 1387.48 1530.89L1308.13 1485.97C1307.49 1485.61 1307.09 1484.93 1307.09 1484.19V1394.84C1307.09 1394.14 1307.45 1393.48 1308.06 1393.1Z" stroke="#4F4946" stroke-width="10" stroke-linejoin="round"/>
<path d="M1492.78 1393.1L1572.13 1343.7C1572.81 1343.27 1573.68 1343.29 1574.35 1343.74L1647.64 1393.1C1648.2 1393.48 1648.54 1394.11 1648.54 1394.8V1484.24C1648.54 1484.95 1648.17 1485.61 1647.56 1485.99L1574.28 1530.85C1573.65 1531.24 1572.85 1531.25 1572.2 1530.89L1492.86 1485.97C1492.21 1485.61 1491.82 1484.93 1491.82 1484.19V1394.84C1491.82 1394.14 1492.18 1393.48 1492.78 1393.1Z" stroke="#4F4946" stroke-width="10" stroke-linejoin="round"/>
<path d="M1677.51 1393.1L1756.85 1343.7C1757.54 1343.27 1758.41 1343.29 1759.08 1343.74L1832.37 1393.1C1832.93 1393.48 1833.27 1394.11 1833.27 1394.8V1484.24C1833.27 1484.95 1832.9 1485.61 1832.29 1485.99L1759.01 1530.85C1758.37 1531.24 1757.58 1531.25 1756.93 1530.89L1677.58 1485.97C1676.94 1485.61 1676.54 1484.93 1676.54 1484.19V1394.84C1676.54 1394.14 1676.91 1393.48 1677.51 1393.1Z" stroke="#4F4946" stroke-width="10" stroke-linejoin="round"/>
<path d="M1862.24 1393.1L1941.58 1343.7C1942.27 1343.27 1943.14 1343.29 1943.81 1343.74L2017.09 1393.1C2017.66 1393.48 2018 1394.11 2018 1394.8V1484.24C2018 1484.95 2017.63 1485.61 2017.02 1485.99L1943.74 1530.85C1943.1 1531.24 1942.31 1531.25 1941.66 1530.89L1862.31 1485.97C1861.67 1485.61 1861.27 1484.93 1861.27 1484.19V1394.84C1861.27 1394.14 1861.64 1393.48 1862.24 1393.1Z" stroke="#4F4946" stroke-width="10" stroke-linejoin="round"/>
<path d="M-80.3977 222.104L-1.05347 172.701C-0.368057 172.275 0.504105 172.29 1.17381 172.741L74.4592 222.097C75.0246 222.478 75.3635 223.114 75.3635 223.796V313.238C75.3635 313.951 74.9927 314.613 74.3846 314.985L1.10205 359.852C0.467041 360.241 -0.328918 360.255 -0.976891 359.888L-80.324 314.974C-80.9664 314.611 -81.3635 313.93 -81.3635 313.191V223.844C-81.3635 223.136 -80.9984 222.478 -80.3977 222.104Z" stroke="#4F4946" stroke-width="10" stroke-linejoin="round"/>
<path d="M104.329 222.104L183.674 172.701C184.359 172.275 185.231 172.29 185.901 172.741L259.186 222.097C259.752 222.478 260.091 223.114 260.091 223.796V313.238C260.091 313.951 259.72 314.613 259.112 314.985L185.829 359.852C185.194 360.241 184.398 360.255 183.75 359.888L104.403 314.974C103.761 314.611 103.364 313.93 103.364 313.191V223.844C103.364 223.136 103.729 222.478 104.329 222.104Z" stroke="#4F4946" stroke-width="10" stroke-linejoin="round"/>
<path d="M289.056 222.104L368.401 172.701C369.086 172.275 369.958 172.29 370.628 172.741L443.913 222.097C444.479 222.478 444.818 223.114 444.818 223.796V313.238C444.818 313.951 444.447 314.613 443.839 314.985L370.556 359.852C369.921 360.241 369.125 360.255 368.477 359.888L289.13 314.974C288.488 314.611 288.091 313.93 288.091 313.191V223.844C288.091 223.136 288.456 222.478 289.056 222.104Z" stroke="#4F4946" stroke-width="10" stroke-linejoin="round"/>
<path d="M473.783 222.104L553.128 172.701C553.813 172.275 554.685 172.29 555.355 172.741L628.64 222.097C629.206 222.478 629.545 223.114 629.545 223.796V313.238C629.545 313.951 629.174 314.613 628.566 314.985L555.283 359.852C554.648 360.241 553.852 360.255 553.204 359.888L473.857 314.974C473.215 314.611 472.818 313.93 472.818 313.191V223.844C472.818 223.136 473.183 222.478 473.783 222.104Z" stroke="#4F4946" stroke-width="10" stroke-linejoin="round"/>
<path d="M658.511 222.104L737.855 172.701C738.54 172.275 739.412 172.29 740.082 172.741L813.367 222.097C813.933 222.478 814.272 223.114 814.272 223.796V313.238C814.272 313.951 813.901 314.613 813.293 314.985L740.01 359.852C739.375 360.241 738.579 360.255 737.931 359.888L658.584 314.974C657.942 314.611 657.545 313.93 657.545 313.191V223.844C657.545 223.136 657.91 222.478 658.511 222.104Z" stroke="#4F4946" stroke-width="10" stroke-linejoin="round"/>
<path d="M843.238 222.104L922.582 172.701C923.267 172.275 924.139 172.29 924.809 172.741L998.094 222.097C998.66 222.478 998.999 223.114 998.999 223.796V313.238C998.999 313.951 998.628 314.613 998.02 314.985L924.737 359.852C924.102 360.241 923.306 360.255 922.658 359.888L843.311 314.974C842.669 314.611 842.272 313.93 842.272 313.191V223.844C842.272 223.136 842.637 222.478 843.238 222.104Z" stroke="#4F4946" stroke-width="10" stroke-linejoin="round"/>
<path d="M1027.96 222.104L1107.31 172.701C1107.99 172.275 1108.87 172.29 1109.54 172.741L1182.82 222.097C1183.39 222.478 1183.73 223.114 1183.73 223.796V313.238C1183.73 313.951 1183.36 314.613 1182.75 314.985L1109.46 359.852C1108.83 360.241 1108.03 360.255 1107.39 359.888L1028.04 314.974C1027.4 314.611 1027 313.93 1027 313.191V223.844C1027 223.136 1027.36 222.478 1027.96 222.104Z" stroke="#4F4946" stroke-width="10" stroke-linejoin="round"/>
<path d="M1212.69 222.104L1292.04 172.701C1292.72 172.275 1293.59 172.29 1294.26 172.741L1367.55 222.097C1368.11 222.478 1368.45 223.114 1368.45 223.796V313.238C1368.45 313.951 1368.08 314.613 1367.47 314.985L1294.19 359.852C1293.56 360.241 1292.76 360.255 1292.11 359.888L1212.77 314.974C1212.12 314.611 1211.73 313.93 1211.73 313.192V223.844C1211.73 223.136 1212.09 222.478 1212.69 222.104Z" stroke="#4F4946" stroke-width="10" stroke-linejoin="round"/>
<path d="M1397.42 222.104L1476.76 172.701C1477.45 172.275 1478.32 172.29 1478.99 172.741L1552.28 222.097C1552.84 222.478 1553.18 223.114 1553.18 223.796V313.238C1553.18 313.951 1552.81 314.613 1552.2 314.985L1478.92 359.852C1478.28 360.241 1477.49 360.255 1476.84 359.888L1397.49 314.974C1396.85 314.611 1396.45 313.93 1396.45 313.191V223.844C1396.45 223.136 1396.82 222.478 1397.42 222.104Z" stroke="#4F4946" stroke-width="10" stroke-linejoin="round"/>
<path d="M1582.15 222.104L1661.49 172.701C1662.18 172.275 1663.05 172.29 1663.72 172.741L1737 222.097C1737.57 222.478 1737.91 223.114 1737.91 223.796V313.238C1737.91 313.951 1737.54 314.613 1736.93 314.985L1663.65 359.852C1663.01 360.241 1662.21 360.255 1661.57 359.888L1582.22 314.974C1581.58 314.611 1581.18 313.93 1581.18 313.191V223.844C1581.18 223.136 1581.55 222.478 1582.15 222.104Z" stroke="#4F4946" stroke-width="10" stroke-linejoin="round"/>
<path d="M1766.87 222.104L1846.22 172.701C1846.9 172.275 1847.77 172.29 1848.44 172.741L1921.73 222.097C1922.3 222.478 1922.63 223.114 1922.63 223.796V313.238C1922.63 313.951 1922.26 314.613 1921.66 314.985L1848.37 359.852C1847.74 360.241 1846.94 360.255 1846.29 359.888L1766.95 314.974C1766.3 314.611 1765.91 313.93 1765.91 313.191V223.844C1765.91 223.136 1766.27 222.478 1766.87 222.104Z" stroke="#4F4946" stroke-width="10" stroke-linejoin="round"/>
<path d="M1951.6 222.104L2030.94 172.701C2031.63 172.275 2032.5 172.29 2033.17 172.741L2106.46 222.097C2107.02 222.478 2107.36 223.114 2107.36 223.796V313.238C2107.36 313.951 2106.99 314.613 2106.38 314.985L2033.1 359.852C2032.46 360.241 2031.67 360.255 2031.02 359.888L1951.67 314.974C1951.03 314.611 1950.63 313.93 1950.63 313.191V223.844C1950.63 223.136 1951 222.478 1951.6 222.104Z" stroke="#4F4946" stroke-width="10" stroke-linejoin="round"/>
<path d="M-80.3977 892.104L-1.05347 842.701C-0.368057 842.275 0.504105 842.29 1.17381 842.741L74.4592 892.097C75.0246 892.478 75.3635 893.114 75.3635 893.796V983.238C75.3635 983.951 74.9927 984.613 74.3846 984.985L1.10205 1029.85C0.467041 1030.24 -0.328918 1030.25 -0.976891 1029.89L-80.324 984.974C-80.9664 984.611 -81.3635 983.93 -81.3635 983.191V893.844C-81.3635 893.136 -80.9984 892.478 -80.3977 892.104Z" stroke="#4F4946" stroke-width="10" stroke-linejoin="round"/>
<path d="M104.329 892.104L183.674 842.701C184.359 842.275 185.231 842.29 185.901 842.741L259.186 892.097C259.752 892.478 260.091 893.114 260.091 893.796V983.238C260.091 983.951 259.72 984.613 259.112 984.985L185.829 1029.85C185.194 1030.24 184.398 1030.25 183.75 1029.89L104.403 984.974C103.761 984.611 103.364 983.93 103.364 983.191V893.844C103.364 893.136 103.729 892.478 104.329 892.104Z" stroke="#4F4946" stroke-width="10" stroke-linejoin="round"/>
<path d="M289.056 892.104L368.401 842.701C369.086 842.275 369.958 842.29 370.628 842.741L443.913 892.097C444.479 892.478 444.818 893.114 444.818 893.796V983.238C444.818 983.951 444.447 984.613 443.839 984.985L370.556 1029.85C369.921 1030.24 369.125 1030.25 368.477 1029.89L289.13 984.974C288.488 984.611 288.091 983.93 288.091 983.191V893.844C288.091 893.136 288.456 892.478 289.056 892.104Z" stroke="#4F4946" stroke-width="10" stroke-linejoin="round"/>
<path d="M473.783 892.104L553.128 842.701C553.813 842.275 554.685 842.29 555.355 842.741L628.64 892.097C629.206 892.478 629.545 893.114 629.545 893.796V983.238C629.545 983.951 629.174 984.613 628.566 984.985L555.283 1029.85C554.648 1030.24 553.852 1030.25 553.204 1029.89L473.857 984.974C473.215 984.611 472.818 983.93 472.818 983.191V893.844C472.818 893.136 473.183 892.478 473.783 892.104Z" stroke="#4F4946" stroke-width="10" stroke-linejoin="round"/>
<path d="M658.511 892.104L737.855 842.701C738.54 842.275 739.412 842.29 740.082 842.741L813.367 892.097C813.933 892.478 814.272 893.114 814.272 893.796V983.238C814.272 983.951 813.901 984.613 813.293 984.985L740.01 1029.85C739.375 1030.24 738.579 1030.25 737.931 1029.89L658.584 984.974C657.942 984.611 657.545 983.93 657.545 983.191V893.844C657.545 893.136 657.91 892.478 658.511 892.104Z" stroke="#4F4946" stroke-width="10" stroke-linejoin="round"/>
<path d="M843.238 892.104L922.582 842.701C923.267 842.275 924.139 842.29 924.809 842.741L998.094 892.097C998.66 892.478 998.999 893.114 998.999 893.796V983.238C998.999 983.951 998.628 984.613 998.02 984.985L924.737 1029.85C924.102 1030.24 923.306 1030.25 922.658 1029.89L843.311 984.974C842.669 984.611 842.272 983.93 842.272 983.191V893.844C842.272 893.136 842.637 892.478 843.238 892.104Z" stroke="#4F4946" stroke-width="10" stroke-linejoin="round"/>
<path d="M1027.96 892.104L1107.31 842.701C1107.99 842.275 1108.87 842.29 1109.54 842.741L1182.82 892.097C1183.39 892.478 1183.73 893.114 1183.73 893.796V983.238C1183.73 983.951 1183.36 984.613 1182.75 984.985L1109.46 1029.85C1108.83 1030.24 1108.03 1030.25 1107.39 1029.89L1028.04 984.974C1027.4 984.611 1027 983.93 1027 983.191V893.844C1027 893.136 1027.36 892.478 1027.96 892.104Z" stroke="#4F4946" stroke-width="10" stroke-linejoin="round"/>
<path d="M1212.69 892.104L1292.04 842.701C1292.72 842.275 1293.59 842.29 1294.26 842.741L1367.55 892.097C1368.11 892.478 1368.45 893.114 1368.45 893.796V983.238C1368.45 983.951 1368.08 984.613 1367.47 984.985L1294.19 1029.85C1293.56 1030.24 1292.76 1030.25 1292.11 1029.89L1212.77 984.974C1212.12 984.611 1211.73 983.93 1211.73 983.192V893.844C1211.73 893.136 1212.09 892.478 1212.69 892.104Z" stroke="#4F4946" stroke-width="10" stroke-linejoin="round"/>
<path d="M1397.42 892.104L1476.76 842.701C1477.45 842.275 1478.32 842.29 1478.99 842.741L1552.28 892.097C1552.84 892.478 1553.18 893.114 1553.18 893.796V983.238C1553.18 983.951 1552.81 984.613 1552.2 984.985L1478.92 1029.85C1478.28 1030.24 1477.49 1030.25 1476.84 1029.89L1397.49 984.974C1396.85 984.611 1396.45 983.93 1396.45 983.191V893.844C1396.45 893.136 1396.82 892.478 1397.42 892.104Z" stroke="#4F4946" stroke-width="10" stroke-linejoin="round"/>
<path d="M1582.15 892.104L1661.49 842.701C1662.18 842.275 1663.05 842.29 1663.72 842.741L1737 892.097C1737.57 892.478 1737.91 893.114 1737.91 893.796V983.238C1737.91 983.951 1737.54 984.613 1736.93 984.985L1663.65 1029.85C1663.01 1030.24 1662.21 1030.25 1661.57 1029.89L1582.22 984.974C1581.58 984.611 1581.18 983.93 1581.18 983.191V893.844C1581.18 893.136 1581.55 892.478 1582.15 892.104Z" stroke="#4F4946" stroke-width="10" stroke-linejoin="round"/>
<path d="M1766.87 892.104L1846.22 842.701C1846.9 842.275 1847.77 842.29 1848.44 842.741L1921.73 892.097C1922.3 892.478 1922.63 893.114 1922.63 893.796V983.238C1922.63 983.951 1922.26 984.613 1921.66 984.985L1848.37 1029.85C1847.74 1030.24 1846.94 1030.25 1846.29 1029.89L1766.95 984.974C1766.3 984.611 1765.91 983.93 1765.91 983.191V893.844C1765.91 893.136 1766.27 892.478 1766.87 892.104Z" stroke="#4F4946" stroke-width="10" stroke-linejoin="round"/>
<path d="M1951.6 892.104L2030.94 842.701C2031.63 842.275 2032.5 842.29 2033.17 842.741L2106.46 892.097C2107.02 892.478 2107.36 893.114 2107.36 893.796V983.238C2107.36 983.951 2106.99 984.613 2106.38 984.985L2033.1 1029.85C2032.46 1030.24 2031.67 1030.25 2031.02 1029.89L1951.67 984.974C1951.03 984.611 1950.63 983.93 1950.63 983.191V893.844C1950.63 893.136 1951 892.478 1951.6 892.104Z" stroke="#4F4946" stroke-width="10" stroke-linejoin="round"/>
<path d="M-80.3977 555.104L-1.05347 505.701C-0.368057 505.275 0.504105 505.29 1.17381 505.741L74.4592 555.097C75.0246 555.478 75.3635 556.114 75.3635 556.796V646.238C75.3635 646.951 74.9927 647.613 74.3846 647.985L1.10205 692.852C0.467041 693.241 -0.328918 693.255 -0.976891 692.888L-80.324 647.974C-80.9664 647.611 -81.3635 646.93 -81.3635 646.191V556.844C-81.3635 556.136 -80.9984 555.478 -80.3977 555.104Z" stroke="#4F4946" stroke-width="10" stroke-linejoin="round"/>
<path d="M104.329 555.104L183.674 505.701C184.359 505.275 185.231 505.29 185.901 505.741L259.186 555.097C259.752 555.478 260.091 556.114 260.091 556.796V646.238C260.091 646.951 259.72 647.613 259.112 647.985L185.829 692.852C185.194 693.241 184.398 693.255 183.75 692.888L104.403 647.974C103.761 647.611 103.364 646.93 103.364 646.191V556.844C103.364 556.136 103.729 555.478 104.329 555.104Z" stroke="#4F4946" stroke-width="10" stroke-linejoin="round"/>
<path d="M289.056 555.104L368.401 505.701C369.086 505.275 369.958 505.29 370.628 505.741L443.913 555.097C444.479 555.478 444.818 556.114 444.818 556.796V646.238C444.818 646.951 444.447 647.613 443.839 647.985L370.556 692.852C369.921 693.241 369.125 693.255 368.477 692.888L289.13 647.974C288.488 647.611 288.091 646.93 288.091 646.191V556.844C288.091 556.136 288.456 555.478 289.056 555.104Z" stroke="#4F4946" stroke-width="10" stroke-linejoin="round"/>
<path d="M473.783 555.104L553.128 505.701C553.813 505.275 554.685 505.29 555.355 505.741L628.64 555.097C629.206 555.478 629.545 556.114 629.545 556.796V646.238C629.545 646.951 629.174 647.613 628.566 647.985L555.283 692.852C554.648 693.241 553.852 693.255 553.204 692.888L473.857 647.974C473.215 647.611 472.818 646.93 472.818 646.191V556.844C472.818 556.136 473.183 555.478 473.783 555.104Z" stroke="#4F4946" stroke-width="10" stroke-linejoin="round"/>
<path d="M658.511 555.104L737.855 505.701C738.54 505.275 739.412 505.29 740.082 505.741L813.367 555.097C813.933 555.478 814.272 556.114 814.272 556.796V646.238C814.272 646.951 813.901 647.613 813.293 647.985L740.01 692.852C739.375 693.241 738.579 693.255 737.931 692.888L658.584 647.974C657.942 647.611 657.545 646.93 657.545 646.191V556.844C657.545 556.136 657.91 555.478 658.511 555.104Z" stroke="#4F4946" stroke-width="10" stroke-linejoin="round"/>
<path d="M843.238 555.104L922.582 505.701C923.267 505.275 924.139 505.29 924.809 505.741L998.094 555.097C998.66 555.478 998.999 556.114 998.999 556.796V646.238C998.999 646.951 998.628 647.613 998.02 647.985L924.737 692.852C924.102 693.241 923.306 693.255 922.658 692.888L843.311 647.974C842.669 647.611 842.272 646.93 842.272 646.191V556.844C842.272 556.136 842.637 555.478 843.238 555.104Z" stroke="#4F4946" stroke-width="10" stroke-linejoin="round"/>
<path d="M1027.96 555.104L1107.31 505.701C1107.99 505.275 1108.87 505.29 1109.54 505.741L1182.82 555.097C1183.39 555.478 1183.73 556.114 1183.73 556.796V646.238C1183.73 646.951 1183.36 647.613 1182.75 647.985L1109.46 692.852C1108.83 693.241 1108.03 693.255 1107.39 692.888L1028.04 647.974C1027.4 647.611 1027 646.93 1027 646.191V556.844C1027 556.136 1027.36 555.478 1027.96 555.104Z" stroke="#4F4946" stroke-width="10" stroke-linejoin="round"/>
<path d="M1212.69 555.104L1292.04 505.701C1292.72 505.275 1293.59 505.29 1294.26 505.741L1367.55 555.097C1368.11 555.478 1368.45 556.114 1368.45 556.796V646.238C1368.45 646.951 1368.08 647.613 1367.47 647.985L1294.19 692.852C1293.56 693.241 1292.76 693.255 1292.11 692.888L1212.77 647.974C1212.12 647.611 1211.73 646.93 1211.73 646.192V556.844C1211.73 556.136 1212.09 555.478 1212.69 555.104Z" stroke="#4F4946" stroke-width="10" stroke-linejoin="round"/>
<path d="M1397.42 555.104L1476.76 505.701C1477.45 505.275 1478.32 505.29 1478.99 505.741L1552.28 555.097C1552.84 555.478 1553.18 556.114 1553.18 556.796V646.238C1553.18 646.951 1552.81 647.613 1552.2 647.985L1478.92 692.852C1478.28 693.241 1477.49 693.255 1476.84 692.888L1397.49 647.974C1396.85 647.611 1396.45 646.93 1396.45 646.191V556.844C1396.45 556.136 1396.82 555.478 1397.42 555.104Z" stroke="#4F4946" stroke-width="10" stroke-linejoin="round"/>
<path d="M1582.15 555.104L1661.49 505.701C1662.18 505.275 1663.05 505.29 1663.72 505.741L1737 555.097C1737.57 555.478 1737.91 556.114 1737.91 556.796V646.238C1737.91 646.951 1737.54 647.613 1736.93 647.985L1663.65 692.852C1663.01 693.241 1662.21 693.255 1661.57 692.888L1582.22 647.974C1581.58 647.611 1581.18 646.93 1581.18 646.191V556.844C1581.18 556.136 1581.55 555.478 1582.15 555.104Z" stroke="#4F4946" stroke-width="10" stroke-linejoin="round"/>
<path d="M1766.87 555.104L1846.22 505.701C1846.9 505.275 1847.77 505.29 1848.44 505.741L1921.73 555.097C1922.3 555.478 1922.63 556.114 1922.63 556.796V646.238C1922.63 646.951 1922.26 647.613 1921.66 647.985L1848.37 692.852C1847.74 693.241 1846.94 693.255 1846.29 692.888L1766.95 647.974C1766.3 647.611 1765.91 646.93 1765.91 646.191V556.844C1765.91 556.136 1766.27 555.478 1766.87 555.104Z" stroke="#4F4946" stroke-width="10" stroke-linejoin="round"/>
<path d="M1951.6 555.104L2030.94 505.701C2031.63 505.275 2032.5 505.29 2033.17 505.741L2106.46 555.097C2107.02 555.478 2107.36 556.114 2107.36 556.796V646.238C2107.36 646.951 2106.99 647.613 2106.38 647.985L2033.1 692.852C2032.46 693.241 2031.67 693.255 2031.02 692.888L1951.67 647.974C1951.03 647.611 1950.63 646.93 1950.63 646.191V556.844C1950.63 556.136 1951 555.478 1951.6 555.104Z" stroke="#4F4946" stroke-width="10" stroke-linejoin="round"/>
<path d="M-80.3977 1225.1L-1.05347 1175.7C-0.368057 1175.27 0.504105 1175.29 1.17381 1175.74L74.4592 1225.1C75.0246 1225.48 75.3635 1226.11 75.3635 1226.8V1316.24C75.3635 1316.95 74.9927 1317.61 74.3846 1317.99L1.10205 1362.85C0.467041 1363.24 -0.328918 1363.25 -0.976891 1362.89L-80.324 1317.97C-80.9664 1317.61 -81.3635 1316.93 -81.3635 1316.19V1226.84C-81.3635 1226.14 -80.9984 1225.48 -80.3977 1225.1Z" stroke="#4F4946" stroke-width="10" stroke-linejoin="round"/>
<path d="M104.329 1225.1L183.674 1175.7C184.359 1175.27 185.231 1175.29 185.901 1175.74L259.186 1225.1C259.752 1225.48 260.091 1226.11 260.091 1226.8V1316.24C260.091 1316.95 259.72 1317.61 259.112 1317.99L185.829 1362.85C185.194 1363.24 184.398 1363.25 183.75 1362.89L104.403 1317.97C103.761 1317.61 103.364 1316.93 103.364 1316.19V1226.84C103.364 1226.14 103.729 1225.48 104.329 1225.1Z" stroke="#4F4946" stroke-width="10" stroke-linejoin="round"/>
<path d="M289.056 1225.1L368.401 1175.7C369.086 1175.27 369.958 1175.29 370.628 1175.74L443.913 1225.1C444.479 1225.48 444.818 1226.11 444.818 1226.8V1316.24C444.818 1316.95 444.447 1317.61 443.839 1317.99L370.556 1362.85C369.921 1363.24 369.125 1363.25 368.477 1362.89L289.13 1317.97C288.488 1317.61 288.091 1316.93 288.091 1316.19V1226.84C288.091 1226.14 288.456 1225.48 289.056 1225.1Z" stroke="#4F4946" stroke-width="10" stroke-linejoin="round"/>
<path d="M473.783 1225.1L553.128 1175.7C553.813 1175.27 554.685 1175.29 555.355 1175.74L628.64 1225.1C629.206 1225.48 629.545 1226.11 629.545 1226.8V1316.24C629.545 1316.95 629.174 1317.61 628.566 1317.99L555.283 1362.85C554.648 1363.24 553.852 1363.25 553.204 1362.89L473.857 1317.97C473.215 1317.61 472.818 1316.93 472.818 1316.19V1226.84C472.818 1226.14 473.183 1225.48 473.783 1225.1Z" stroke="#4F4946" stroke-width="10" stroke-linejoin="round"/>
<path d="M658.511 1225.1L737.855 1175.7C738.54 1175.27 739.412 1175.29 740.082 1175.74L813.367 1225.1C813.933 1225.48 814.272 1226.11 814.272 1226.8V1316.24C814.272 1316.95 813.901 1317.61 813.293 1317.99L740.01 1362.85C739.375 1363.24 738.579 1363.25 737.931 1362.89L658.584 1317.97C657.942 1317.61 657.545 1316.93 657.545 1316.19V1226.84C657.545 1226.14 657.91 1225.48 658.511 1225.1Z" stroke="#4F4946" stroke-width="10" stroke-linejoin="round"/>
<path d="M843.238 1225.1L922.582 1175.7C923.267 1175.27 924.139 1175.29 924.809 1175.74L998.094 1225.1C998.66 1225.48 998.999 1226.11 998.999 1226.8V1316.24C998.999 1316.95 998.628 1317.61 998.02 1317.99L924.737 1362.85C924.102 1363.24 923.306 1363.25 922.658 1362.89L843.311 1317.97C842.669 1317.61 842.272 1316.93 842.272 1316.19V1226.84C842.272 1226.14 842.637 1225.48 843.238 1225.1Z" stroke="#4F4946" stroke-width="10" stroke-linejoin="round"/>
<path d="M1027.96 1225.1L1107.31 1175.7C1107.99 1175.27 1108.87 1175.29 1109.54 1175.74L1182.82 1225.1C1183.39 1225.48 1183.73 1226.11 1183.73 1226.8V1316.24C1183.73 1316.95 1183.36 1317.61 1182.75 1317.99L1109.46 1362.85C1108.83 1363.24 1108.03 1363.25 1107.39 1362.89L1028.04 1317.97C1027.4 1317.61 1027 1316.93 1027 1316.19V1226.84C1027 1226.14 1027.36 1225.48 1027.96 1225.1Z" stroke="#4F4946" stroke-width="10" stroke-linejoin="round"/>
<path d="M1212.69 1225.1L1292.04 1175.7C1292.72 1175.27 1293.59 1175.29 1294.26 1175.74L1367.55 1225.1C1368.11 1225.48 1368.45 1226.11 1368.45 1226.8V1316.24C1368.45 1316.95 1368.08 1317.61 1367.47 1317.99L1294.19 1362.85C1293.56 1363.24 1292.76 1363.25 1292.11 1362.89L1212.77 1317.97C1212.12 1317.61 1211.73 1316.93 1211.73 1316.19V1226.84C1211.73 1226.14 1212.09 1225.48 1212.69 1225.1Z" stroke="#4F4946" stroke-width="10" stroke-linejoin="round"/>
<path d="M1397.42 1225.1L1476.76 1175.7C1477.45 1175.27 1478.32 1175.29 1478.99 1175.74L1552.28 1225.1C1552.84 1225.48 1553.18 1226.11 1553.18 1226.8V1316.24C1553.18 1316.95 1552.81 1317.61 1552.2 1317.99L1478.92 1362.85C1478.28 1363.24 1477.49 1363.25 1476.84 1362.89L1397.49 1317.97C1396.85 1317.61 1396.45 1316.93 1396.45 1316.19V1226.84C1396.45 1226.14 1396.82 1225.48 1397.42 1225.1Z" stroke="#4F4946" stroke-width="10" stroke-linejoin="round"/>
<path d="M1582.15 1225.1L1661.49 1175.7C1662.18 1175.27 1663.05 1175.29 1663.72 1175.74L1737 1225.1C1737.57 1225.48 1737.91 1226.11 1737.91 1226.8V1316.24C1737.91 1316.95 1737.54 1317.61 1736.93 1317.99L1663.65 1362.85C1663.01 1363.24 1662.21 1363.25 1661.57 1362.89L1582.22 1317.97C1581.58 1317.61 1581.18 1316.93 1581.18 1316.19V1226.84C1581.18 1226.14 1581.55 1225.48 1582.15 1225.1Z" stroke="#4F4946" stroke-width="10" stroke-linejoin="round"/>
<path d="M1766.87 1225.1L1846.22 1175.7C1846.9 1175.27 1847.77 1175.29 1848.44 1175.74L1921.73 1225.1C1922.3 1225.48 1922.63 1226.11 1922.63 1226.8V1316.24C1922.63 1316.95 1922.26 1317.61 1921.66 1317.99L1848.37 1362.85C1847.74 1363.24 1846.94 1363.25 1846.29 1362.89L1766.95 1317.97C1766.3 1317.61 1765.91 1316.93 1765.91 1316.19V1226.84C1765.91 1226.14 1766.27 1225.48 1766.87 1225.1Z" stroke="#4F4946" stroke-width="10" stroke-linejoin="round"/>
<path d="M1951.6 1225.1L2030.94 1175.7C2031.63 1175.27 2032.5 1175.29 2033.17 1175.74L2106.46 1225.1C2107.02 1225.48 2107.36 1226.11 2107.36 1226.8V1316.24C2107.36 1316.95 2106.99 1317.61 2106.38 1317.99L2033.1 1362.85C2032.46 1363.24 2031.67 1363.25 2031.02 1362.89L1951.67 1317.97C1951.03 1317.61 1950.63 1316.93 1950.63 1316.19V1226.84C1950.63 1226.14 1951 1225.48 1951.6 1225.1Z" stroke="#4F4946" stroke-width="10" stroke-linejoin="round"/>
</g>
<defs>
<clipPath id="clip0_6089_1143">
<rect width="2000" height="1695" fill="white"/>
</clipPath>
</defs>
</svg>
