<svg width="31" height="28" viewBox="0 0 31 28" fill="none" xmlns="http://www.w3.org/2000/svg">
<path d="M13.4539 25.4228C13.3401 25.2237 13.1304 25.1005 12.9026 25.1005H12.8612C12.5687 25.1005 12.5117 25.1005 12.2529 25.1005H6.15167C5.89282 25.1005 5.65208 24.9617 5.52265 24.7338L2.47335 19.3872C2.34392 19.1592 2.34392 18.8789 2.47335 18.651L5.52265 13.3044C5.65208 13.0765 5.89282 12.9377 6.15167 12.9377H12.2529C12.5117 12.9377 12.7525 13.0765 12.8819 13.3044L15.9312 18.651C16.0606 18.8789 16.0606 19.1592 15.9312 19.3872C15.8794 19.4788 15.8794 19.5915 15.9312 19.6832L16.4463 20.5869C16.788 21.1868 17.6422 21.1868 17.9839 20.5869C18.5378 19.6177 18.5378 18.4231 17.9839 17.4513L14.9346 12.1046C14.3806 11.1354 13.3582 10.5381 12.2529 10.5381H6.15167C5.04377 10.5381 4.0213 11.1354 3.46994 12.1046L0.415461 17.4513C-0.138487 18.4205 -0.138487 19.6151 0.415461 20.5869L3.46476 25.9336C4.01871 26.9028 5.04119 27.5001 6.14649 27.5001H12.2684C13.3193 27.4975 13.9742 26.3449 13.4488 25.4228H13.4539Z" fill="#653B1B"/>
<path d="M29.7697 17.4519L26.7204 12.1053C26.6661 12.0084 26.6065 11.9167 26.5418 11.8276C26.0836 11.1937 25.1311 11.2434 24.7428 11.9245L24.66 12.0686C24.4425 12.4511 24.4425 12.92 24.6625 13.2998V13.3051L27.717 18.6517C27.8464 18.8796 27.8464 19.1599 27.717 19.3878L24.6677 24.7345C24.5383 24.9624 24.2976 25.1012 24.0387 25.1012H17.9375C17.6787 25.1012 17.4379 24.9624 17.3085 24.7345L14.2592 19.3878C14.1298 19.1599 14.1298 18.8796 14.2592 18.6517L17.3085 13.3051C17.4379 13.0772 17.6787 12.9383 17.9375 12.9383C18.2093 12.9383 18.463 12.7916 18.6002 12.5506L19.0868 11.6966C19.3819 11.1806 19.0143 10.5361 18.4242 10.5361H17.9375C16.8296 10.5361 15.8071 11.1334 15.2558 12.1027L12.2065 17.4493C11.6525 18.4186 11.6525 19.6131 12.2065 20.585L15.2558 25.9316C15.8097 26.9009 16.8322 27.4982 17.9375 27.4982H24.0387C25.1466 27.4982 26.1691 26.9009 26.7204 25.9316L29.7697 20.585C30.3237 19.6157 30.3237 18.4212 29.7697 17.4493V17.4519Z" fill="#653B1B"/>
<path d="M24.0127 7.41317L20.9634 2.06653C20.4095 1.09727 19.387 0.5 18.2817 0.5H12.1805C11.0726 0.5 10.0501 1.09727 9.49879 2.06653L6.44949 7.41317L6.42619 7.45246C5.97578 8.24621 6.54268 9.23642 7.44867 9.23642C7.88354 9.23642 8.28476 9.00066 8.49961 8.61819V8.61295L11.5541 3.26632C11.6835 3.03841 11.9243 2.89957 12.1831 2.89957H18.2843C18.5432 2.89957 18.7839 3.03841 18.9133 3.26632L21.9626 8.61295C22.092 8.84086 22.092 9.12116 21.9626 9.34907L18.9133 14.6957C18.7839 14.9236 18.5432 15.0625 18.2843 15.0625H12.1831C11.9243 15.0625 11.6835 14.9236 11.5541 14.6957C11.3988 14.4233 11.1089 14.253 10.7982 14.253H10.0786C9.4056 14.253 8.98626 14.9891 9.32277 15.5811L9.50138 15.8955C10.0553 16.8647 11.0778 17.462 12.1831 17.462H18.2843C19.3922 17.462 20.4147 16.8647 20.966 15.8955L24.0153 10.5489C24.5693 9.57959 24.5693 8.38505 24.0153 7.41317H24.0127Z" fill="#653B1B"/>
</svg>
