<svg width="16" height="16" viewBox="0 0 16 16" fill="none" xmlns="http://www.w3.org/2000/svg">
<g clip-path="url(#clip0_1_6239)">
<circle cx="8" cy="8" r="8" fill="#FBBF24"/>
<path d="M11.2809 9.45714C11.6966 10.0125 11.7837 10.6162 11.5423 11.2683C11.3009 11.9204 10.8219 12.3481 10.1053 12.5515C9.76253 12.6487 9.41291 12.6525 9.05642 12.5629C8.69993 12.4733 8.40772 12.3037 8.17979 12.0542C7.35311 12.4234 6.57644 12.4054 5.84978 11.9999C5.12311 11.5945 4.68645 10.9357 4.53979 10.0234C4.1781 9.93526 3.8707 9.76157 3.61758 9.50234C3.36446 9.24311 3.1819 8.91616 3.0699 8.52149C2.89011 7.88794 3.03317 7.29464 3.49907 6.74159C3.96497 6.18854 4.50558 5.94816 5.12088 6.02044L6.20172 6.1514C6.31808 5.77049 6.51889 5.43014 6.80415 5.13035C7.08942 4.83056 7.42644 4.61428 7.81522 4.48151L7.58533 3.6714C7.54701 3.53638 7.55947 3.4122 7.6227 3.29887C7.68593 3.18554 7.78505 3.10971 7.92007 3.0714C8.05509 3.03308 8.17927 3.04554 8.2926 3.10877C8.40593 3.172 8.48176 3.27112 8.52007 3.40614L8.78533 4.34089C9.20203 4.34608 9.56965 4.43535 9.88817 4.60869C10.2067 4.78202 10.5161 5.06174 10.8165 5.44785L11.7201 5.19144C11.8551 5.15313 11.9793 5.16558 12.0926 5.22881C12.2059 5.29204 12.2818 5.39116 12.3201 5.52618C12.3584 5.6612 12.3459 5.78538 12.2827 5.89871C12.2195 6.01204 12.1203 6.08787 11.9853 6.12618L11.1752 6.35607C11.2664 6.75664 11.2646 7.15555 11.1697 7.55281C11.0749 7.95008 10.8959 8.29825 10.6329 8.59734L11.2809 9.45714ZM7.52337 10.9274C7.4438 10.647 7.3898 10.3677 7.36138 10.0896C7.33296 9.81153 7.33012 9.53458 7.35286 9.25879C7.1464 9.44082 6.91219 9.59426 6.65022 9.7191C6.38825 9.84394 6.1193 9.93429 5.84337 9.99015C5.95832 10.3952 6.16579 10.6814 6.46579 10.8488C6.76579 11.0162 7.11832 11.0424 7.52337 10.9274ZM5.64549 8.69962C5.97784 8.6053 6.25946 8.4805 6.49034 8.3252C6.72122 8.1699 7.00382 7.91015 7.33814 7.54594L5.2476 7.2975C4.91104 7.25834 4.65472 7.33388 4.47865 7.52413C4.30258 7.71437 4.25433 7.94971 4.33391 8.23013C4.41054 8.50017 4.55482 8.67245 4.76675 8.74698C4.97868 8.82151 5.27159 8.80572 5.64549 8.69962ZM9.75159 11.3051C10.0112 11.2315 10.1958 11.0809 10.3052 10.8535C10.4146 10.626 10.3997 10.4254 10.2607 10.2517L8.81814 8.37164C8.71512 8.75999 8.65623 9.13582 8.64149 9.49912C8.62675 9.86242 8.6577 10.1791 8.73433 10.4491C8.83159 10.7919 8.96573 11.0372 9.13675 11.185C9.30776 11.3329 9.51271 11.3729 9.75159 11.3051ZM9.79836 7.5548C9.87275 7.42147 9.91678 7.26028 9.93047 7.07122C9.94415 6.88217 9.92447 6.69417 9.87142 6.50722C9.77711 6.17487 9.58848 5.92539 9.30553 5.75879C9.02258 5.59219 8.72012 5.55458 8.39816 5.64594C8.21121 5.69899 8.04349 5.78025 7.89499 5.88973C7.7465 5.9992 7.63134 6.12727 7.54952 6.27394L8.92384 6.48995L9.79836 7.5548Z" fill="#78350F"/>
</g>
<defs>
<clipPath id="clip0_1_6239">
<rect width="16" height="16" fill="white"/>
</clipPath>
</defs>
</svg>
