<svg width="16" height="16" viewBox="0 0 16 16" fill="none" xmlns="http://www.w3.org/2000/svg">
<rect width="16" height="16" rx="4" fill="#451D07"/>
<path d="M11.2808 9.35835C11.6966 9.91372 11.7837 10.5174 11.5423 11.1695C11.3009 11.8216 10.8219 12.2493 10.1052 12.4527C9.7625 12.5499 9.41288 12.5538 9.05639 12.4641C8.6999 12.3745 8.40769 12.2049 8.17976 11.9554C7.35308 12.3246 6.57641 12.3066 5.84975 11.9012C5.12308 11.4957 4.68642 10.8369 4.53976 9.92461C4.17807 9.83647 3.87067 9.66278 3.61755 9.40355C3.36443 9.14432 3.18187 8.81737 3.06987 8.4227C2.89008 7.78915 3.03314 7.19585 3.49904 6.6428C3.96494 6.08975 4.50555 5.84937 5.12085 5.92165L6.20169 6.05261C6.31805 5.6717 6.51886 5.33135 6.80412 5.03156C7.08939 4.73177 7.42641 4.51549 7.81519 4.38272L7.5853 3.57261C7.54698 3.43759 7.55944 3.31342 7.62267 3.20008C7.6859 3.08675 7.78502 3.01092 7.92004 2.97261C8.05506 2.9343 8.17923 2.94675 8.29257 3.00998C8.4059 3.07321 8.48173 3.17233 8.52004 3.30735L8.7853 4.2421C9.202 4.24729 9.56962 4.33656 9.88814 4.5099C10.2067 4.68323 10.5161 4.96296 10.8165 5.34907L11.72 5.09265C11.8551 5.05434 11.9792 5.06679 12.0926 5.13002C12.2059 5.19325 12.2817 5.29238 12.32 5.42739C12.3584 5.56241 12.3459 5.68659 12.2827 5.79992C12.2194 5.91326 12.1203 5.98908 11.9853 6.02739L11.1752 6.25728C11.2664 6.65785 11.2646 7.05676 11.1697 7.45403C11.0748 7.85129 10.8959 8.19947 10.6328 8.49855L11.2808 9.35835ZM7.52334 10.8286C7.44377 10.5482 7.38977 10.269 7.36135 9.99085C7.33293 9.71274 7.33009 9.43579 7.35283 9.16C7.14637 9.34204 6.91216 9.49547 6.65019 9.62031C6.38822 9.74515 6.11927 9.8355 5.84334 9.89136C5.95829 10.2964 6.16576 10.5826 6.46576 10.75C6.76576 10.9174 7.11829 10.9436 7.52334 10.8286ZM5.64546 8.60083C5.97781 8.50651 6.25943 8.38171 6.49031 8.22641C6.72119 8.07111 7.00379 7.81136 7.33811 7.44715L5.24757 7.19871C4.91101 7.15955 4.65469 7.23509 4.47862 7.42534C4.30255 7.61558 4.2543 7.85092 4.33388 8.13134C4.41051 8.40138 4.55479 8.57366 4.76672 8.64819C4.97865 8.72272 5.27156 8.70693 5.64546 8.60083ZM9.75156 11.2063C10.0112 11.1327 10.1957 10.9821 10.3051 10.7547C10.4146 10.5272 10.3997 10.3266 10.2606 10.1529L8.81811 8.27285C8.71508 8.6612 8.6562 9.03703 8.64146 9.40033C8.62672 9.76363 8.65767 10.0803 8.7343 10.3503C8.83156 10.6931 8.9657 10.9384 9.13672 11.0862C9.30773 11.2341 9.51268 11.2741 9.75156 11.2063ZM9.79833 7.45601C9.87272 7.32268 9.91675 7.16149 9.93044 6.97243C9.94412 6.78338 9.92444 6.59538 9.87139 6.40843C9.77708 6.07608 9.58845 5.8266 9.3055 5.66C9.02255 5.4934 8.72009 5.45579 8.39813 5.54715C8.21118 5.6002 8.04346 5.68146 7.89496 5.79094C7.74647 5.90041 7.63131 6.02848 7.54949 6.17515L8.92381 6.39116L9.79833 7.45601Z" fill="#FFD976"/>
</svg>
